<svg width="480" height="74" viewBox="0 0 480 74" fill="none" xmlns="http://www.w3.org/2000/svg">
<path d="M54.5601 30.59V65.53H47.1401V30.59C47.1401 27.91 44.7401 25.73 41.7701 25.73H30.8301V19.02H41.7701C48.8301 19.02 54.5501 24.2 54.5501 30.59H54.5601Z" fill="#12182B"/>
<path d="M83.48 65.5303H76.06V30.5903C76.06 27.9103 73.66 25.7402 70.69 25.7402H59.75V19.0303H70.69C77.75 19.0303 83.48 24.2102 83.48 30.6002V65.5402V65.5303Z" fill="#12182B"/>
<path d="M25.6387 31.3701H18.2188V65.5201H25.6387V31.3701Z" fill="#12182B"/>
<path d="M18.2188 13.57V0.22998H25.6387V13.57H18.2188Z" fill="#12182B"/>
<path d="M13.0293 19.02H0.0292969V25.72H13.0293V19.02Z" fill="#12182B"/>
<path d="M273.409 39.82C274.599 38.1 274.599 36.2 274.599 34.56V28.47C274.599 22.2 271.089 19.02 264.169 19.02H241.549C234.619 19.02 231.109 22.2 231.109 28.47V34.56C231.109 36.2 231.109 38.1 232.299 39.82C233.029 40.87 234.859 41.7 236.109 42.22C234.659 42.73 233.369 43.61 232.509 44.85C231.589 46.21 231.109 47.81 231.109 49.61V56.09C231.109 62.36 234.619 65.53 241.539 65.53H264.169C271.089 65.53 274.599 62.36 274.599 56.09V49.61C274.599 47.81 274.129 46.2 273.199 44.85C272.349 43.6 271.059 42.73 269.599 42.22C270.859 41.7 272.679 40.87 273.399 39.82H273.409ZM237.979 31.2C237.979 27.53 239.959 25.74 244.029 25.74L250.239 25.72H251.309L261.789 25.74C265.859 25.74 267.839 27.53 267.839 31.2V32.63C267.839 36.32 265.859 38.11 261.789 38.11H244.029C239.959 38.11 237.979 36.32 237.979 32.63V31.2ZM267.849 53.32C267.849 57.01 265.869 58.79 261.799 58.79H244.009C239.939 58.79 237.959 56.69 237.959 53V50.39C237.959 46.68 239.939 44.88 244.009 44.88H261.799C265.869 44.88 267.849 46.68 267.849 50.39V53.32Z" fill="#12182B"/>
<path d="M138.77 30.59V65.52H131.34V45.06H108.47C105.51 45.06 103.1 47.23 103.1 49.91V53.96C103.1 56.63 105.5 58.81 108.47 58.81H126.18V65.52H108.47C101.41 65.52 95.6797 60.34 95.6797 53.96V49.91C95.6797 43.52 101.41 38.34 108.47 38.34H131.34V30.59C131.34 27.91 128.94 25.73 125.98 25.73H97.7797V19.02H125.98C133.03 19.02 138.76 24.2 138.76 30.59H138.77Z" fill="#12182B"/>
<path d="M150.889 65.5303H158.309V30.5903C158.309 27.9103 160.709 25.7402 163.679 25.7402H177.769V19.0303H163.679C156.619 19.0303 150.889 24.2102 150.889 30.6002V65.5402V65.5303Z" fill="#12182B"/>
<path d="M191.898 19.05V65.53H184.479V19.02L191.898 19.05Z" fill="#12182B"/>
<path d="M202.949 46.2003L224.219 65.5303H213.789L197.709 50.9102C193.659 47.2202 193.659 40.8602 197.709 37.1702L217.669 19.0303H228.099L202.959 41.8702C201.679 43.0302 201.679 45.0403 202.959 46.2003H202.949Z" fill="#12182B"/>
<path d="M330.55 46.1602C330.41 45.3702 330.2 44.6402 329.94 44.0402C329.46 42.6902 328.72 41.6402 327.74 40.9102C326.8 40.2002 325.67 39.6902 324.39 39.3902C323.17 39.1002 321.76 38.8902 320.21 38.7602L309.46 37.5402C307.97 37.3802 306.85 37.1302 306.14 36.8002C305.56 36.5402 305.21 36.0902 305.04 35.4002C304.82 34.5502 304.71 33.3102 304.71 31.7102C304.71 30.3602 304.82 29.2002 305.04 28.2602C305.23 27.4702 305.68 26.8602 306.47 26.4002C307.23 25.9102 308.29 25.5602 309.63 25.3602C311.05 25.1502 312.93 25.0502 315.24 25.0502C316.58 25.0502 318.03 25.0802 319.55 25.1402C321.08 25.2102 322.57 25.3002 323.98 25.4302C325.42 25.5602 326.7 25.7102 327.79 25.8702L328.71 26.0102V19.8702L328.08 19.7302C327.06 19.5102 325.77 19.3202 324.23 19.1702C322.71 19.0202 321.07 18.9002 319.34 18.8102C317.62 18.7202 315.92 18.6802 314.28 18.6802C311.73 18.6802 309.43 18.8202 307.45 19.1102C305.4 19.4002 303.61 20.0202 302.16 20.9302C300.66 21.8702 299.5 23.2502 298.73 25.0202C297.98 26.7402 297.6 29.0402 297.6 31.8302C297.6 33.5402 297.71 35.1102 297.93 36.4902C298.16 37.9402 298.62 39.2202 299.3 40.2702C300 41.3502 301.04 42.2502 302.41 42.9302C303.73 43.5902 305.48 44.0602 307.63 44.3302L318.64 45.5502C319.96 45.6702 321.01 45.8502 321.77 46.0702C322.41 46.2502 322.86 46.5202 323.12 46.8702C323.39 47.2402 323.57 47.8102 323.64 48.5602C323.72 49.4302 323.76 50.6002 323.76 52.0202C323.76 52.9902 323.73 53.9102 323.67 54.7302C323.61 55.4902 323.45 56.1502 323.2 56.7002C322.96 57.2002 322.6 57.5902 322.1 57.9002C321.25 58.4002 320.18 58.7402 318.92 58.9202C317.6 59.1102 315.79 59.2002 313.56 59.2002C312.45 59.2002 311.09 59.1602 309.52 59.0702C307.96 58.9902 306.3 58.8802 304.59 58.7502C302.9 58.6202 301.28 58.4902 299.74 58.3602L298.88 58.2902V64.5602L299.58 64.6402C301.02 64.8102 302.62 64.9602 304.47 65.0902C306.25 65.2202 308.1 65.3302 309.99 65.4102C311.9 65.5002 313.66 65.5402 315.24 65.5402C317.01 65.5402 318.69 65.4702 320.23 65.3402C321.82 65.2102 323.29 64.8902 324.59 64.3902C325.94 63.8802 327.11 63.0902 328.05 62.0602C328.98 61.0302 329.71 59.6402 330.22 57.9202C330.71 56.2502 330.96 54.1302 330.96 51.6202C330.96 50.5302 330.93 49.5302 330.86 48.6302C330.79 47.7302 330.69 46.8902 330.56 46.1402L330.55 46.1602Z" fill="#6895FC"/>
<path d="M366.219 38.6804H344.649V19.1904H337.529V65.0405H344.649V45.1605H366.219V65.0405H373.339V19.1904H366.219V38.6804Z" fill="#6895FC"/>
<path d="M381.969 65.0405H412.319V58.6804H389.099V45.0905H409.299V38.6804H389.099V25.5405H412.319V19.1904H381.969V65.0405Z" fill="#6895FC"/>
<path d="M425.309 19.1904H418.189V65.0405H445.959V58.5504H425.309V19.1904Z" fill="#6895FC"/>
<path d="M479.279 25.5405V19.1904H450.219V65.0405H457.349V46.0604H476.899V39.7104H457.349V25.5405H479.279Z" fill="#6895FC"/>
</svg>
