<svg width="280" height="42" viewBox="0 0 280 42" fill="none" xmlns="http://www.w3.org/2000/svg">
<path d="M34.8722 19.4303V41.7915H30.1268V19.4303C30.1268 17.7151 28.592 16.3199 26.6925 16.3199H19.6958V12.0256H26.6925C31.2076 12.0256 34.8659 15.3408 34.8659 19.4303H34.8722Z" fill="#12182B"/>
<path d="M53.3701 41.7924H48.6247V19.4312C48.6247 17.7161 47.0899 16.3273 45.1904 16.3273H38.1938V12.033H45.1904C49.7057 12.033 53.3701 15.3481 53.3701 19.4376V41.7989V41.7924Z" fill="#12182B"/>
<path d="M16.3792 19.9297H11.6338V41.7854H16.3792V19.9297Z" fill="#12182B"/>
<path d="M11.6338 8.5374V0H16.3792V8.5374H11.6338Z" fill="#12182B"/>
<path d="M8.3141 12.0256H0V16.3136H8.3141V12.0256Z" fill="#12182B"/>
<path d="M174.839 25.3447C175.6 24.244 175.6 23.0281 175.6 21.9785V18.0808C175.6 14.0681 173.355 12.033 168.929 12.033H154.463C150.031 12.033 147.786 14.0681 147.786 18.0808V21.9785C147.786 23.0281 147.786 24.244 148.547 25.3447C149.014 26.0166 150.184 26.5478 150.984 26.8807C150.056 27.2071 149.231 27.7703 148.681 28.564C148.093 29.4342 147.786 30.4583 147.786 31.6101V35.7574C147.786 39.7701 150.031 41.7989 154.456 41.7989H168.929C173.355 41.7989 175.6 39.7701 175.6 35.7574V31.6101C175.6 30.4583 175.299 29.4279 174.705 28.564C174.161 27.764 173.336 27.2071 172.402 26.8807C173.208 26.5478 174.372 26.0166 174.832 25.3447H174.839ZM152.18 19.828C152.18 17.4793 153.446 16.3337 156.049 16.3337L160.021 16.3209H160.705L167.407 16.3337C170.01 16.3337 171.276 17.4793 171.276 19.828V20.7432C171.276 23.1048 170.01 24.2503 167.407 24.2503H156.049C153.446 24.2503 152.18 23.1048 152.18 20.7432V19.828ZM171.283 33.9846C171.283 36.3461 170.017 37.4852 167.414 37.4852H156.036C153.433 37.4852 152.167 36.1414 152.167 33.7798V32.1094C152.167 29.7351 153.433 28.5831 156.036 28.5831H167.414C170.017 28.5831 171.283 29.7351 171.283 32.1094V33.9846Z" fill="#12182B"/>
<path d="M88.7305 19.4303V41.7852H83.9788V28.691H69.3523C67.4593 28.691 65.9179 30.0798 65.9179 31.795V34.3869C65.9179 36.0956 67.4528 37.4909 69.3523 37.4909H80.6786V41.7852H69.3523C64.8372 41.7852 61.1724 38.47 61.1724 34.3869V31.795C61.1724 27.7053 64.8372 24.3902 69.3523 24.3902H83.9788V19.4303C83.9788 17.7151 82.4437 16.32 80.5508 16.32H62.5154V12.0256H80.5508C85.0595 12.0256 88.7242 15.3408 88.7242 19.4303H88.7305Z" fill="#12182B"/>
<path d="M96.4824 41.7924H101.228V19.4312C101.228 17.7161 102.763 16.3273 104.662 16.3273H113.673V12.033H104.662C100.147 12.033 96.4824 15.3481 96.4824 19.4376V41.7989V41.7924Z" fill="#12182B"/>
<path d="M122.708 12.0449V41.7915H117.963V12.0256L122.708 12.0449Z" fill="#12182B"/>
<path d="M129.773 29.4216L143.376 41.7924H136.706L126.422 32.4358C123.832 30.0743 123.832 26.004 126.422 23.6424L139.188 12.033H145.858L129.78 26.6503C128.961 27.3926 128.961 28.679 129.78 29.4216H129.773Z" fill="#12182B"/>
<path d="M199.633 41.2122C197.192 41.2122 195.158 41.0577 193.531 40.7487C191.942 40.4784 190.682 40.015 189.752 39.3584C188.823 38.7019 188.125 37.7943 187.66 36.6357C187.234 35.4771 186.963 34.0288 186.846 32.2909C186.73 30.5145 186.672 28.4096 186.672 25.9766C186.672 23.5435 186.73 21.458 186.846 19.7201C186.963 17.9436 187.234 16.476 187.66 15.3174C188.125 14.1588 188.823 13.2513 189.752 12.5947C190.682 11.9382 191.942 11.4748 193.531 11.2044C195.158 10.8955 197.192 10.741 199.633 10.741C202.113 10.741 204.147 10.8955 205.736 11.2044C207.324 11.4748 208.583 11.9382 209.513 12.5947C210.482 13.2513 211.18 14.1588 211.606 15.3174C212.071 16.476 212.361 17.9436 212.478 19.7201C212.594 21.458 212.652 23.5435 212.652 25.9766C212.652 28.4096 212.594 30.5145 212.478 32.2909C212.361 34.0288 212.071 35.4771 211.606 36.6357C211.18 37.7943 210.482 38.7019 209.513 39.3584C208.583 40.015 207.324 40.4784 205.736 40.7487C204.147 41.0577 202.113 41.2122 199.633 41.2122ZM199.633 37.215C201.725 37.215 203.333 37.0798 204.457 36.8095C205.581 36.5392 206.375 36.0178 206.84 35.2454C207.344 34.473 207.634 33.353 207.712 31.8854C207.828 30.3792 207.886 28.4096 207.886 25.9766C207.886 23.5435 207.828 21.5932 207.712 20.1256C207.634 18.6194 207.344 17.4802 206.84 16.7078C206.375 15.9354 205.581 15.414 204.457 15.1436C203.333 14.8734 201.725 14.7381 199.633 14.7381C197.579 14.7381 195.972 14.8734 194.809 15.1436C193.685 15.414 192.891 15.9354 192.426 16.7078C191.961 17.4802 191.671 18.6194 191.554 20.1256C191.438 21.5932 191.38 23.5435 191.38 25.9766C191.38 28.4096 191.438 30.3792 191.554 31.8854C191.671 33.353 191.961 34.473 192.426 35.2454C192.891 36.0178 193.685 36.5392 194.809 36.8095C195.972 37.0798 197.579 37.215 199.633 37.215ZM221.436 40.7487V11.2044H225.737L225.912 15.4333H226.261C226.687 14.5064 227.268 13.6954 228.004 13.0002C228.779 12.3051 229.806 11.7644 231.084 11.3782C232.402 10.9534 234.068 10.741 236.083 10.741C238.291 10.741 240.054 10.9727 241.372 11.4361C242.689 11.8996 243.697 12.5947 244.394 13.5216C245.13 14.4485 245.614 15.6457 245.847 17.1133C246.079 18.5422 246.196 20.2608 246.196 22.269V40.7487H241.488V23.8911C241.488 21.8829 241.391 20.2994 241.197 19.1408C241.043 17.9436 240.713 17.0553 240.21 16.476C239.706 15.8582 238.969 15.4527 238.001 15.2595C237.032 15.0664 235.753 14.9699 234.165 14.9699C232.266 14.9699 230.775 15.2209 229.689 15.7229C228.605 16.1864 227.81 16.8815 227.307 17.8084C226.803 18.6967 226.493 19.7974 226.377 21.1104C226.261 22.3849 226.202 23.8525 226.202 25.5131V40.7487H221.436ZM268.318 41.2122C265.916 41.2122 263.901 41.0577 262.274 40.7487C260.685 40.4398 259.406 39.9377 258.438 39.2425C257.469 38.5088 256.733 37.5626 256.229 36.404C255.725 35.2068 255.396 33.7585 255.241 32.0592C255.086 30.36 255.008 28.3517 255.008 26.0345C255.008 23.2925 255.125 20.956 255.357 19.025C255.59 17.0553 256.113 15.4719 256.927 14.2747C257.779 13.0389 259.096 12.1506 260.879 11.6099C262.661 11.0306 265.064 10.741 268.086 10.741C270.372 10.741 272.232 10.9148 273.665 11.2623C275.138 11.6099 276.3 12.1506 277.153 12.8844C278.005 13.6182 278.625 14.603 279.012 15.8388C279.438 17.036 279.71 18.4843 279.826 20.1836C279.942 21.8442 280 23.7752 280 25.9766V27.5407H259.717C259.717 29.5489 259.813 31.1903 260.007 32.4647C260.201 33.7392 260.588 34.724 261.169 35.4192C261.789 36.1143 262.739 36.5971 264.017 36.8674C265.334 37.1378 267.117 37.2729 269.364 37.2729C270.294 37.2729 271.321 37.2536 272.445 37.215C273.569 37.1378 274.692 37.0412 275.816 36.9253C276.94 36.8095 277.947 36.6936 278.838 36.5778V40.4011C278.024 40.5556 277.017 40.6908 275.816 40.8066C274.653 40.9225 273.413 41.0191 272.096 41.0963C270.817 41.1736 269.558 41.2122 268.318 41.2122ZM275.409 25.1655V23.6014C275.409 21.5932 275.293 20.0098 275.06 18.8512C274.828 17.654 274.421 16.7657 273.839 16.1864C273.297 15.5685 272.541 15.163 271.573 14.9699C270.604 14.7768 269.403 14.6802 267.97 14.6802C266.11 14.6802 264.637 14.8154 263.552 15.0857C262.467 15.3174 261.654 15.7616 261.111 16.4181C260.569 17.0747 260.201 18.0209 260.007 19.2567C259.813 20.4926 259.717 22.1339 259.717 24.1807H276.513L275.409 25.1655Z" fill="url(#paint0_linear_2281_21843)"/>
<defs>
<linearGradient id="paint0_linear_2281_21843" x1="186.664" y1="26.6485" x2="284.055" y2="27.2789" gradientUnits="userSpaceOnUse">
<stop stop-color="#6895FC"/>
<stop offset="0.2" stop-color="#52BFBC"/>
<stop offset="0.4" stop-color="#7CBC71"/>
<stop offset="0.6" stop-color="#FCB24F"/>
<stop offset="0.8" stop-color="#FC7459"/>
<stop offset="1" stop-color="#DD4062"/>
</linearGradient>
</defs>
</svg>
