<svg width="361" height="74" viewBox="0 0 361 74" fill="none" xmlns="http://www.w3.org/2000/svg">
<path d="M54.5601 30.7399V65.6799H47.1401V30.7399C47.1401 28.0599 44.7401 25.8799 41.7701 25.8799H30.8301V19.1699H41.7701C48.8301 19.1699 54.5501 24.3499 54.5501 30.7399H54.5601Z" fill="#12182B"/>
<path d="M83.48 65.6797H76.06V30.7397C76.06 28.0597 73.66 25.8897 70.69 25.8897H59.75V19.1797H70.69C77.75 19.1797 83.48 24.3597 83.48 30.7497V65.6897V65.6797Z" fill="#12182B"/>
<path d="M25.6387 31.52H18.2188V65.67H25.6387V31.52Z" fill="#12182B"/>
<path d="M18.2188 13.7198V0.379883H25.6387V13.7198H18.2188Z" fill="#12182B"/>
<path d="M13.0293 19.1699H0.0292969V25.8699H13.0293V19.1699Z" fill="#12182B"/>
<path d="M273.409 39.9797C274.599 38.2597 274.599 36.3597 274.599 34.7197V28.6297C274.599 22.3597 271.089 19.1797 264.169 19.1797H241.549C234.619 19.1797 231.109 22.3597 231.109 28.6297V34.7197C231.109 36.3597 231.109 38.2597 232.299 39.9797C233.029 41.0297 234.859 41.8597 236.109 42.3797C234.659 42.8897 233.369 43.7697 232.509 45.0097C231.589 46.3697 231.109 47.9697 231.109 49.7697V56.2497C231.109 62.5197 234.619 65.6897 241.539 65.6897H264.169C271.089 65.6897 274.599 62.5197 274.599 56.2497V49.7697C274.599 47.9697 274.129 46.3597 273.199 45.0097C272.349 43.7597 271.059 42.8897 269.599 42.3797C270.859 41.8597 272.679 41.0297 273.399 39.9797H273.409ZM237.979 31.3597C237.979 27.6897 239.959 25.8997 244.029 25.8997L250.239 25.8797H251.309L261.789 25.8997C265.859 25.8997 267.839 27.6897 267.839 31.3597V32.7897C267.839 36.4797 265.859 38.2697 261.789 38.2697H244.029C239.959 38.2697 237.979 36.4797 237.979 32.7897V31.3597ZM267.849 53.4797C267.849 57.1697 265.869 58.9497 261.799 58.9497H244.009C239.939 58.9497 237.959 56.8497 237.959 53.1597V50.5497C237.959 46.8397 239.939 45.0397 244.009 45.0397H261.799C265.869 45.0397 267.849 46.8397 267.849 50.5497V53.4797Z" fill="#12182B"/>
<path d="M138.77 30.7399V65.6699H131.34V45.21H108.47C105.51 45.21 103.1 47.3799 103.1 50.0599V54.1099C103.1 56.7799 105.5 58.96 108.47 58.96H126.18V65.6699H108.47C101.41 65.6699 95.6797 60.4899 95.6797 54.1099V50.0599C95.6797 43.6699 101.41 38.4899 108.47 38.4899H131.34V30.7399C131.34 28.0599 128.94 25.8799 125.98 25.8799H97.7797V19.1699H125.98C133.03 19.1699 138.76 24.3499 138.76 30.7399H138.77Z" fill="#12182B"/>
<path d="M150.889 65.6797H158.309V30.7397C158.309 28.0597 160.709 25.8897 163.679 25.8897H177.769V19.1797H163.679C156.619 19.1797 150.889 24.3597 150.889 30.7497V65.6897V65.6797Z" fill="#12182B"/>
<path d="M191.898 19.2V65.6799H184.479V19.1699L191.898 19.2Z" fill="#12182B"/>
<path d="M202.949 46.3497L224.219 65.6797H213.789L197.709 51.0597C193.659 47.3697 193.659 41.0097 197.709 37.3197L217.669 19.1797H228.099L202.959 42.0197C201.679 43.1797 201.679 45.1897 202.959 46.3497H202.949Z" fill="#12182B"/>
<path d="M306.17 18.9199H298.76V66.0599H306.17V18.9199Z" fill="#8E59FF"/>
<path d="M353.93 64.0199C354.02 63.9599 354.09 63.9099 354.17 63.8499C355.66 62.7899 356.75 61.2799 357.42 59.3799C358.06 57.5699 358.47 55.2599 358.66 52.4799C358.83 49.7599 358.93 46.3999 358.93 42.4899C358.93 38.5799 358.83 35.2199 358.66 32.4899C358.48 29.7199 358.06 27.3999 357.42 25.5899C356.75 23.6999 355.66 22.1899 354.17 21.1199C352.73 20.0799 350.76 19.3499 348.32 18.9599C345.98 18.5799 342.99 18.3799 339.44 18.3799C336.16 18.3799 326.46 18.5599 324.01 18.9599C321.58 19.3499 319.61 20.0799 318.16 21.1199C316.68 22.1899 315.58 23.6999 314.92 25.5899C314.28 27.3999 313.86 29.7199 313.68 32.4899C313.5 35.1899 313.41 38.5499 313.41 42.4899C313.41 46.4299 313.5 49.7799 313.68 52.4799C313.85 55.2599 314.28 57.5699 314.92 59.3799C315.59 61.2799 316.68 62.7899 318.16 63.8499C319.6 64.8999 321.58 65.6199 324.01 66.0199C326.47 66.4099 336.17 66.5899 339.44 66.5899C342.34 66.5899 344.86 66.4599 346.96 66.2099L352.33 73.6499H360.1V72.3599L353.92 64.0199H353.93ZM351.35 51.2899C351.25 53.4799 350.96 55.1999 350.51 56.4099C350.26 57.0899 349.93 57.6599 349.55 58.0999L343.51 49.9499H335.24L342.44 59.9299C341.52 59.9599 340.52 59.9799 339.44 59.9799C336.92 59.9799 328.48 59.8899 327.01 59.7599C325.58 59.6099 324.43 59.2899 323.6 58.7799C322.82 58.3099 322.26 57.5399 321.86 56.4299C321.43 55.2199 321.14 53.4899 321.01 51.2899C320.88 49.0299 320.81 46.0799 320.81 42.4999C320.81 38.9199 320.88 35.9499 321.01 33.6999C321.14 31.5099 321.42 29.7799 321.86 28.5599C322.26 27.4399 322.83 26.6799 323.61 26.2099C324.43 25.7099 325.58 25.3799 327.01 25.2399C328.49 25.0899 336.92 25.0099 339.44 25.0099C341.82 25.0099 343.82 25.0899 345.36 25.2399C346.8 25.3799 347.95 25.6999 348.75 26.1999C349.5 26.6699 350.09 27.4599 350.51 28.5699C350.96 29.7799 351.25 31.4999 351.35 33.6899C351.46 35.9699 351.51 38.9399 351.51 42.4999C351.51 46.0599 351.46 49.0199 351.35 51.2999V51.2899Z" fill="#8E59FF"/>
</svg>
