<svg width="376" height="75" viewBox="0 0 376 75" fill="none" xmlns="http://www.w3.org/2000/svg">
<path d="M54.5601 31.3102V66.2502H47.1401V31.3102C47.1401 28.6302 44.7401 26.4503 41.7701 26.4503H30.8301V19.7402H41.7701C48.8301 19.7402 54.5501 24.9202 54.5501 31.3102H54.5601Z" fill="#12182B"/>
<path d="M83.48 66.25H76.06V31.31C76.06 28.63 73.66 26.46 70.69 26.46H59.75V19.75H70.69C77.75 19.75 83.48 24.93 83.48 31.32V66.26V66.25Z" fill="#12182B"/>
<path d="M25.6387 32.0903H18.2188V66.2403H25.6387V32.0903Z" fill="#12182B"/>
<path d="M18.2188 14.2902V0.950195H25.6387V14.2902H18.2188Z" fill="#12182B"/>
<path d="M13.0293 19.7402H0.0292969V26.4402H13.0293V19.7402Z" fill="#12182B"/>
<path d="M273.409 40.55C274.599 38.83 274.599 36.93 274.599 35.29V29.2C274.599 22.93 271.089 19.75 264.169 19.75H241.549C234.619 19.75 231.109 22.93 231.109 29.2V35.29C231.109 36.93 231.109 38.83 232.299 40.55C233.029 41.6 234.859 42.43 236.109 42.95C234.659 43.46 233.369 44.34 232.509 45.58C231.589 46.94 231.109 48.54 231.109 50.34V56.82C231.109 63.09 234.619 66.26 241.539 66.26H264.169C271.089 66.26 274.599 63.09 274.599 56.82V50.34C274.599 48.54 274.129 46.93 273.199 45.58C272.349 44.33 271.059 43.46 269.599 42.95C270.859 42.43 272.679 41.6 273.399 40.55H273.409ZM237.979 31.93C237.979 28.26 239.959 26.47 244.029 26.47L250.239 26.45H251.309L261.789 26.47C265.859 26.47 267.839 28.26 267.839 31.93V33.36C267.839 37.05 265.859 38.84 261.789 38.84H244.029C239.959 38.84 237.979 37.05 237.979 33.36V31.93ZM267.849 54.05C267.849 57.74 265.869 59.52 261.799 59.52H244.009C239.939 59.52 237.959 57.42 237.959 53.73V51.12C237.959 47.41 239.939 45.61 244.009 45.61H261.799C265.869 45.61 267.849 47.41 267.849 51.12V54.05Z" fill="#12182B"/>
<path d="M138.77 31.3102V66.2402H131.34V45.7802H108.47C105.51 45.7802 103.1 47.9502 103.1 50.6302V54.6802C103.1 57.3502 105.5 59.5302 108.47 59.5302H126.18V66.2402H108.47C101.41 66.2402 95.6797 61.0602 95.6797 54.6802V50.6302C95.6797 44.2402 101.41 39.0602 108.47 39.0602H131.34V31.3102C131.34 28.6302 128.94 26.4503 125.98 26.4503H97.7797V19.7402H125.98C133.03 19.7402 138.76 24.9202 138.76 31.3102H138.77Z" fill="#12182B"/>
<path d="M150.889 66.25H158.309V31.31C158.309 28.63 160.709 26.46 163.679 26.46H177.769V19.75H163.679C156.619 19.75 150.889 24.93 150.889 31.32V66.26V66.25Z" fill="#12182B"/>
<path d="M191.898 19.7702V66.2502H184.479V19.7402L191.898 19.7702Z" fill="#12182B"/>
<path d="M202.949 46.92L224.219 66.25H213.789L197.709 51.63C193.659 47.94 193.659 41.58 197.709 37.89L217.669 19.75H228.099L202.959 42.59C201.679 43.75 201.679 45.76 202.959 46.92H202.949Z" fill="#12182B"/>
<path d="M329.93 23.0506C328.99 21.6406 327.55 20.5306 325.67 19.7406C323.84 18.9706 321.38 18.5806 318.38 18.5806L297.66 18.5605L297.6 65.6906H304.93L304.95 48.9706L318.21 48.9906H318.25C321.28 48.9906 323.76 48.5905 325.61 47.8105C327.52 47.0005 328.97 45.8606 329.94 44.4106C330.88 43.0006 331.52 41.3405 331.82 39.5005C332.12 37.7205 332.27 35.7905 332.27 33.7805C332.27 31.6805 332.11 29.7006 331.8 27.9206C331.47 26.0706 330.84 24.4406 329.93 23.0706V23.0506ZM304.98 25.0905H316.52C318.59 25.1105 320.24 25.2906 321.41 25.6406C322.5 25.9706 323.29 26.4406 323.78 27.0506C324.28 27.6806 324.6 28.5205 324.73 29.5605C324.88 30.7005 324.95 32.1105 324.95 33.7505C324.95 35.3705 324.86 36.7806 324.69 37.9306C324.54 38.9706 324.19 39.8206 323.67 40.4806C323.16 41.1106 322.36 41.5806 321.28 41.8906C320.11 42.2206 318.47 42.3806 316.41 42.3806H304.97L304.99 25.1006L304.98 25.0905Z" fill="#FCB24F"/>
<path d="M375.18 32.2003C375 29.4203 374.59 27.1004 373.95 25.3004C373.28 23.4104 372.2 21.9103 370.72 20.8403C369.28 19.8003 367.31 19.0703 364.89 18.6703C362.54 18.2903 359.55 18.0903 356 18.0903C352.5 18.0903 349.47 18.2704 347.11 18.6504C344.68 19.0404 342.71 19.7704 341.27 20.8004C339.79 21.8604 338.7 23.3603 338.03 25.2503C337.39 27.0603 336.97 29.3804 336.79 32.1504C336.61 34.8704 336.52 38.2304 336.51 42.1504C336.51 46.0704 336.59 49.4404 336.76 52.1504C336.94 54.9204 337.35 57.2404 337.99 59.0504C338.66 60.9504 339.75 62.4503 341.22 63.5103C342.66 64.5503 344.62 65.2804 347.05 65.6804C349.39 66.0604 352.39 66.2603 355.94 66.2603H356.07C359.56 66.2603 362.51 66.0703 364.83 65.7003C367.26 65.3103 369.23 64.5804 370.67 63.5504C372.15 62.4904 373.24 60.9903 373.91 59.1003C374.55 57.2903 374.97 54.9703 375.15 52.2003C375.33 49.4703 375.42 46.1103 375.43 42.2003C375.43 38.2903 375.35 34.9203 375.18 32.2003ZM356.09 59.7404H355.94C353.54 59.7404 351.55 59.6603 350.04 59.5103C348.61 59.3703 347.45 59.0403 346.62 58.5303C345.85 58.0603 345.25 57.2604 344.86 56.1504C344.43 54.9304 344.14 53.1904 344.02 50.9904C343.89 48.7404 343.83 45.7804 343.83 42.1804C343.83 38.5804 343.91 35.6203 344.04 33.3703C344.17 31.1703 344.46 29.4404 344.89 28.2104C345.29 27.0804 345.87 26.3004 346.66 25.8304C347.5 25.3304 348.65 25.0004 350.09 24.8604C351.6 24.7104 353.54 24.6404 355.85 24.6404H355.99C358.38 24.6404 360.37 24.7203 361.93 24.8703C363.38 25.0103 364.53 25.3403 365.34 25.8403C366.1 26.3103 366.7 27.1204 367.12 28.2404C367.57 29.4504 367.85 31.1803 367.96 33.3803C368.07 35.6803 368.12 38.6503 368.11 42.2003C368.11 45.7503 368.05 48.7204 367.94 51.0204C367.83 53.2204 367.54 54.9503 367.09 56.1603C366.67 57.2803 366.07 58.0903 365.31 58.5603C364.5 59.0603 363.35 59.3903 361.89 59.5303C360.36 59.6803 358.42 59.7503 356.1 59.7503L356.09 59.7404Z" fill="#FCB24F"/>
</svg>
