<svg width="186" height="50" viewBox="0 0 186 50" fill="none" xmlns="http://www.w3.org/2000/svg">
<rect x="0.5" y="0.5" width="185" height="49" rx="11.5" fill="url(#paint0_linear_3874_90150)"/>
<rect x="0.5" y="0.5" width="185" height="49" rx="11.5" stroke="url(#paint1_linear_3874_90150)"/>
<path d="M36.9263 17.411L30.2735 20.6045C29.7615 20.8503 29.2144 20.9119 28.6568 20.7869C28.2918 20.7052 28.1093 20.6643 27.9623 20.6475C26.1374 20.4391 25 21.8834 25 23.5443V24.4557C25 26.1166 26.1374 27.5609 27.9623 27.3525C28.1093 27.3357 28.2918 27.2948 28.6568 27.2131C29.2144 27.0881 29.7615 27.1497 30.2735 27.3955L36.9263 30.589C38.4534 31.3221 39.217 31.6886 40.0684 31.4029C40.9197 31.1172 41.2119 30.5041 41.7964 29.278C43.4012 25.9112 43.4012 22.0888 41.7964 18.722C41.2119 17.4959 40.9197 16.8828 40.0684 16.5971C39.217 16.3114 38.4534 16.6779 36.9263 17.411Z" stroke="#DD4062" stroke-linecap="round" stroke-linejoin="round"/>
<path d="M34.9994 30V30.5C34.9994 31.7841 34.9994 32.4261 34.7754 32.7886C34.4767 33.2719 33.9306 33.545 33.3647 33.4939C32.9403 33.4557 32.4267 33.0704 31.3994 32.3L30.1994 31.4C29.2219 30.6669 28.9994 30.2218 28.9994 29V27.5" stroke="#DD4062" stroke-linecap="round" stroke-linejoin="round"/>
<path d="M29.5 27V21" stroke="#DD4062" stroke-linecap="round" stroke-linejoin="round"/>
<path d="M54.5433 30L58.4599 19.6361H60.0867L63.9883 30H62.6476L61.5781 27.168H56.9233L55.8538 30H54.5433ZM57.315 26.0382H61.1864L59.2884 20.9617H59.213L57.315 26.0382ZM68.2302 30.1205C67.6778 30.1205 67.2159 30.0603 66.8443 29.9397C66.4828 29.8192 66.1965 29.6134 65.9856 29.3221C65.7748 29.0209 65.6241 28.6141 65.5337 28.102C65.4433 27.5898 65.3982 26.9471 65.3982 26.1738C65.3982 25.3905 65.4383 24.7427 65.5187 24.2306C65.609 23.7083 65.7597 23.3016 65.9706 23.0104C66.1815 22.7191 66.4677 22.5133 66.8292 22.3928C67.1908 22.2622 67.6477 22.1969 68.2 22.1969C68.6118 22.1969 68.9783 22.2321 69.2997 22.3024C69.621 22.3626 69.8972 22.4731 70.1282 22.6338C70.3692 22.7945 70.56 23.0154 70.7006 23.2966H70.7759V18.8076H72.0112V30H70.9115L70.8513 28.9003H70.7609C70.6203 29.2518 70.4144 29.518 70.1433 29.6987C69.8822 29.8694 69.5859 29.9799 69.2545 30.0301C68.9231 30.0904 68.5816 30.1205 68.2302 30.1205ZM68.7122 29.0359C69.2244 29.0359 69.6311 28.9656 69.9324 28.825C70.2336 28.6844 70.4445 28.4635 70.5651 28.1622C70.6655 27.881 70.7257 27.5747 70.7458 27.2433C70.7659 26.9119 70.7759 26.5203 70.7759 26.0683C70.7759 25.6968 70.7659 25.3603 70.7458 25.0591C70.7257 24.7477 70.6705 24.4766 70.5801 24.2456C70.4496 23.9042 70.2336 23.6631 69.9324 23.5226C69.6311 23.3719 69.2143 23.2966 68.6821 23.2966C68.2302 23.2966 67.8686 23.3267 67.5975 23.387C67.3263 23.4472 67.1205 23.5778 66.9799 23.7786C66.8393 23.9694 66.7439 24.2557 66.6936 24.6373C66.6434 25.0089 66.6183 25.516 66.6183 26.1587C66.6183 26.8014 66.6434 27.3136 66.6936 27.6952C66.7439 28.0769 66.8393 28.3631 66.9799 28.5539C67.1205 28.7447 67.3263 28.8752 67.5975 28.9455C67.8787 29.0058 68.2502 29.0359 68.7122 29.0359ZM76.528 30L73.711 22.3174H74.9915L77.251 28.7196H77.3715L79.6161 22.3174H80.8814L78.0645 30H76.528ZM85.5739 30.1205C84.9513 30.1205 84.4291 30.0803 84.0073 30C83.5955 29.9197 83.2641 29.7891 83.0131 29.6083C82.762 29.4175 82.5712 29.1715 82.4406 28.8702C82.3101 28.5589 82.2247 28.1823 82.1846 27.7404C82.1444 27.2986 82.1243 26.7763 82.1243 26.1738C82.1243 25.4608 82.1544 24.8532 82.2147 24.3511C82.2749 23.8389 82.4105 23.4271 82.6214 23.1158C82.8423 22.7945 83.1838 22.5635 83.6457 22.4229C84.1077 22.2723 84.7303 22.1969 85.5137 22.1969C86.1062 22.1969 86.5882 22.2421 86.9598 22.3325C87.3414 22.4229 87.6427 22.5635 87.8636 22.7543C88.0846 22.9451 88.2452 23.2012 88.3457 23.5226C88.4561 23.8339 88.5264 24.2105 88.5566 24.6523C88.5867 25.0842 88.6017 25.5863 88.6017 26.1587V26.5654H83.3445C83.3445 27.0877 83.3696 27.5145 83.4198 27.8459C83.47 28.1773 83.5704 28.4334 83.7211 28.6141C83.8817 28.7949 84.1278 28.9204 84.4592 28.9907C84.8006 29.061 85.2626 29.0962 85.8451 29.0962C86.0861 29.0962 86.3522 29.0911 86.6435 29.0811C86.9347 29.061 87.2259 29.0359 87.5172 29.0058C87.8084 28.9757 88.0695 28.9455 88.3005 28.9154V29.9096C88.0896 29.9498 87.8285 29.9849 87.5172 30.0151C87.2159 30.0452 86.8945 30.0703 86.5531 30.0904C86.2217 30.1105 85.8953 30.1205 85.5739 30.1205ZM87.4117 25.9478V25.5411C87.4117 25.0189 87.3816 24.6071 87.3213 24.3059C87.2611 23.9946 87.1556 23.7636 87.005 23.6129C86.8644 23.4523 86.6686 23.3468 86.4175 23.2966C86.1664 23.2464 85.8551 23.2213 85.4835 23.2213C85.0015 23.2213 84.6199 23.2564 84.3387 23.3267C84.0575 23.387 83.8466 23.5025 83.706 23.6732C83.5654 23.8439 83.47 24.09 83.4198 24.4113C83.3696 24.7327 83.3445 25.1595 83.3445 25.6917H87.6979L87.4117 25.9478ZM90.8552 30V22.3174H91.9549L92.0151 23.7937H92.1055C92.2361 23.3619 92.4218 23.0305 92.6629 22.7995C92.9039 22.5685 93.1951 22.4129 93.5366 22.3325C93.878 22.2421 94.2546 22.1969 94.6664 22.1969V23.402C93.9734 23.402 93.4412 23.5125 93.0696 23.7334C92.698 23.9544 92.4419 24.2958 92.3013 24.7578C92.1607 25.2197 92.0904 25.8022 92.0904 26.5052V30H90.8552ZM97.0342 30V23.3569H95.4826V22.3174H97.0342V20.088H98.2544V22.3174H100.092V23.3569H98.2544V30H97.0342ZM101.755 20.1483V18.8076H103.066V20.1483H101.755ZM101.785 30V22.3174H103.021V30H101.785ZM108.171 30.1205C107.88 30.1205 107.568 30.1105 107.237 30.0904C106.906 30.0703 106.579 30.0452 106.258 30.0151C105.936 29.995 105.645 29.9649 105.384 29.9247V28.9305C105.625 28.9506 105.856 28.9706 106.077 28.9907C106.308 29.0108 106.534 29.0309 106.755 29.051C106.976 29.061 107.197 29.0711 107.418 29.0811C107.639 29.0811 107.865 29.0811 108.096 29.0811C108.618 29.0811 108.994 29.046 109.225 28.9757C109.466 28.8953 109.622 28.7648 109.692 28.584C109.773 28.4032 109.813 28.1672 109.813 27.876C109.813 27.5446 109.783 27.3036 109.723 27.1529C109.672 27.0023 109.577 26.9069 109.436 26.8667C109.306 26.8165 109.105 26.7763 108.834 26.7462L106.845 26.5203C106.373 26.47 106.017 26.3696 105.776 26.219C105.535 26.0583 105.369 25.8323 105.279 25.5411C105.188 25.2499 105.143 24.8833 105.143 24.4414C105.143 23.9393 105.213 23.5376 105.354 23.2363C105.495 22.9351 105.695 22.7091 105.957 22.5585C106.218 22.4078 106.534 22.3124 106.906 22.2723C107.277 22.222 107.694 22.1969 108.156 22.1969C108.417 22.1969 108.693 22.207 108.984 22.2271C109.276 22.2471 109.562 22.2723 109.843 22.3024C110.124 22.3325 110.365 22.3677 110.566 22.4078V23.402C110.305 23.3619 110.039 23.3317 109.768 23.3117C109.507 23.2815 109.235 23.2614 108.954 23.2514C108.683 23.2414 108.407 23.2363 108.126 23.2363C107.744 23.2363 107.418 23.2564 107.147 23.2966C106.875 23.3368 106.67 23.4372 106.529 23.5979C106.398 23.7586 106.333 24.0247 106.333 24.3963C106.333 24.6875 106.353 24.9084 106.393 25.0591C106.444 25.1997 106.539 25.3001 106.68 25.3603C106.82 25.4106 107.016 25.4507 107.267 25.4809L109.346 25.7068C109.758 25.747 110.079 25.8273 110.31 25.9478C110.551 26.0583 110.722 26.2591 110.822 26.5504C110.933 26.8416 110.988 27.2785 110.988 27.8609C110.988 28.343 110.928 28.7346 110.807 29.0359C110.697 29.3271 110.521 29.5531 110.28 29.7138C110.039 29.8745 109.743 29.9799 109.391 30.0301C109.04 30.0904 108.633 30.1205 108.171 30.1205ZM116.261 30.1205C115.638 30.1205 115.116 30.0803 114.694 30C114.282 29.9197 113.951 29.7891 113.7 29.6083C113.449 29.4175 113.258 29.1715 113.127 28.8702C112.997 28.5589 112.911 28.1823 112.871 27.7404C112.831 27.2986 112.811 26.7763 112.811 26.1738C112.811 25.4608 112.841 24.8532 112.901 24.3511C112.962 23.8389 113.097 23.4271 113.308 23.1158C113.529 22.7945 113.87 22.5635 114.332 22.4229C114.794 22.2723 115.417 22.1969 116.2 22.1969C116.793 22.1969 117.275 22.2421 117.646 22.3325C118.028 22.4229 118.329 22.5635 118.55 22.7543C118.771 22.9451 118.932 23.2012 119.032 23.5226C119.143 23.8339 119.213 24.2105 119.243 24.6523C119.273 25.0842 119.288 25.5863 119.288 26.1587V26.5654H114.031C114.031 27.0877 114.056 27.5145 114.106 27.8459C114.157 28.1773 114.257 28.4334 114.408 28.6141C114.568 28.7949 114.814 28.9204 115.146 28.9907C115.487 29.061 115.949 29.0962 116.532 29.0962C116.773 29.0962 117.039 29.0911 117.33 29.0811C117.621 29.061 117.913 29.0359 118.204 29.0058C118.495 28.9757 118.756 28.9455 118.987 28.9154V29.9096C118.776 29.9498 118.515 29.9849 118.204 30.0151C117.903 30.0452 117.581 30.0703 117.24 30.0904C116.908 30.1105 116.582 30.1205 116.261 30.1205ZM118.098 25.9478V25.5411C118.098 25.0189 118.068 24.6071 118.008 24.3059C117.948 23.9946 117.842 23.7636 117.692 23.6129C117.551 23.4523 117.355 23.3468 117.104 23.2966C116.853 23.2464 116.542 23.2213 116.17 23.2213C115.688 23.2213 115.307 23.2564 115.025 23.3267C114.744 23.387 114.533 23.5025 114.393 23.6732C114.252 23.8439 114.157 24.09 114.106 24.4113C114.056 24.7327 114.031 25.1595 114.031 25.6917H118.385L118.098 25.9478ZM121.542 30V22.3174H122.657L122.702 23.4171H122.792C122.883 23.1761 123.018 22.9652 123.199 22.7844C123.39 22.6037 123.636 22.4631 123.937 22.3626C124.248 22.2522 124.645 22.1969 125.127 22.1969C125.81 22.1969 126.317 22.2974 126.649 22.4982C126.98 22.689 127.211 22.9953 127.341 23.4171H127.432C127.532 23.1761 127.678 22.9652 127.869 22.7844C128.059 22.6037 128.316 22.4631 128.637 22.3626C128.958 22.2522 129.355 22.1969 129.827 22.1969C130.52 22.1969 131.037 22.3024 131.379 22.5133C131.72 22.7242 131.946 23.0506 132.056 23.4924C132.167 23.9343 132.222 24.5017 132.222 25.1946V30H131.002V25.6164C131.002 25.0942 130.982 24.6825 130.942 24.3812C130.902 24.0699 130.826 23.8389 130.716 23.6883C130.605 23.5276 130.44 23.4221 130.219 23.3719C129.998 23.3217 129.701 23.2966 129.33 23.2966C128.898 23.2966 128.557 23.3569 128.306 23.4774C128.054 23.5878 127.869 23.7586 127.748 23.9895C127.638 24.2205 127.567 24.5067 127.537 24.8482C127.507 25.1896 127.492 25.5863 127.492 26.0382V30H126.272V25.6164C126.272 25.0942 126.252 24.6825 126.212 24.3812C126.171 24.0699 126.096 23.8389 125.986 23.6883C125.875 23.5276 125.71 23.4221 125.489 23.3719C125.268 23.3217 124.971 23.2966 124.6 23.2966C124.168 23.2966 123.827 23.3619 123.575 23.4924C123.324 23.6129 123.144 23.7887 123.033 24.0197C122.923 24.2506 122.852 24.5369 122.822 24.8783C122.792 25.2197 122.777 25.6064 122.777 26.0382V30H121.542ZM137.959 30.1205C137.336 30.1205 136.814 30.0803 136.392 30C135.981 29.9197 135.649 29.7891 135.398 29.6083C135.147 29.4175 134.956 29.1715 134.826 28.8702C134.695 28.5589 134.61 28.1823 134.57 27.7404C134.529 27.2986 134.509 26.7763 134.509 26.1738C134.509 25.4608 134.539 24.8532 134.6 24.3511C134.66 23.8389 134.796 23.4271 135.006 23.1158C135.227 22.7945 135.569 22.5635 136.031 22.4229C136.493 22.2723 137.115 22.1969 137.899 22.1969C138.491 22.1969 138.973 22.2421 139.345 22.3325C139.726 22.4229 140.028 22.5635 140.249 22.7543C140.47 22.9451 140.63 23.2012 140.731 23.5226C140.841 23.8339 140.911 24.2105 140.942 24.6523C140.972 25.0842 140.987 25.5863 140.987 26.1587V26.5654H135.73C135.73 27.0877 135.755 27.5145 135.805 27.8459C135.855 28.1773 135.955 28.4334 136.106 28.6141C136.267 28.7949 136.513 28.9204 136.844 28.9907C137.186 29.061 137.648 29.0962 138.23 29.0962C138.471 29.0962 138.737 29.0911 139.029 29.0811C139.32 29.061 139.611 29.0359 139.902 29.0058C140.193 28.9757 140.455 28.9455 140.686 28.9154V29.9096C140.475 29.9498 140.214 29.9849 139.902 30.0151C139.601 30.0452 139.28 30.0703 138.938 30.0904C138.607 30.1105 138.28 30.1205 137.959 30.1205ZM139.797 25.9478V25.5411C139.797 25.0189 139.767 24.6071 139.706 24.3059C139.646 23.9946 139.541 23.7636 139.39 23.6129C139.249 23.4523 139.054 23.3468 138.803 23.2966C138.551 23.2464 138.24 23.2213 137.869 23.2213C137.387 23.2213 137.005 23.2564 136.724 23.3267C136.443 23.387 136.232 23.5025 136.091 23.6732C135.95 23.8439 135.855 24.09 135.805 24.4113C135.755 24.7327 135.73 25.1595 135.73 25.6917H140.083L139.797 25.9478ZM143.24 30V22.3174H144.355L144.4 23.4171H144.491C144.601 23.1761 144.752 22.9652 144.942 22.7844C145.143 22.6037 145.409 22.4631 145.741 22.3626C146.082 22.2522 146.514 22.1969 147.036 22.1969C147.609 22.1969 148.066 22.2572 148.407 22.3777C148.749 22.4982 149.01 22.679 149.19 22.92C149.381 23.161 149.507 23.4723 149.567 23.854C149.627 24.2255 149.657 24.6724 149.657 25.1946V30H148.437V25.6164C148.437 25.0942 148.412 24.6825 148.362 24.3812C148.322 24.0699 148.236 23.8389 148.106 23.6883C147.975 23.5276 147.785 23.4221 147.533 23.3719C147.282 23.3217 146.951 23.2966 146.539 23.2966C146.047 23.2966 145.661 23.3619 145.379 23.4924C145.098 23.6129 144.892 23.7937 144.762 24.0347C144.631 24.2657 144.551 24.5519 144.521 24.8934C144.491 25.2248 144.475 25.6064 144.475 26.0382V30H143.24ZM152.906 30V23.3569H151.354V22.3174H152.906V20.088H154.126V22.3174H155.964V23.3569H154.126V30H152.906ZM160.218 30.1205C159.926 30.1205 159.615 30.1105 159.284 30.0904C158.952 30.0703 158.626 30.0452 158.305 30.0151C157.983 29.995 157.692 29.9649 157.431 29.9247V28.9305C157.672 28.9506 157.903 28.9706 158.124 28.9907C158.355 29.0108 158.581 29.0309 158.802 29.051C159.023 29.061 159.244 29.0711 159.464 29.0811C159.685 29.0811 159.911 29.0811 160.142 29.0811C160.665 29.0811 161.041 29.046 161.272 28.9757C161.513 28.8953 161.669 28.7648 161.739 28.584C161.819 28.4032 161.86 28.1672 161.86 27.876C161.86 27.5446 161.829 27.3036 161.769 27.1529C161.719 27.0023 161.624 26.9069 161.483 26.8667C161.352 26.8165 161.152 26.7763 160.88 26.7462L158.892 26.5203C158.42 26.47 158.064 26.3696 157.823 26.219C157.581 26.0583 157.416 25.8323 157.325 25.5411C157.235 25.2499 157.19 24.8833 157.19 24.4414C157.19 23.9393 157.26 23.5376 157.401 23.2363C157.541 22.9351 157.742 22.7091 158.003 22.5585C158.264 22.4078 158.581 22.3124 158.952 22.2723C159.324 22.222 159.741 22.1969 160.203 22.1969C160.464 22.1969 160.74 22.207 161.031 22.2271C161.322 22.2471 161.609 22.2723 161.89 22.3024C162.171 22.3325 162.412 22.3677 162.613 22.4078V23.402C162.352 23.3619 162.086 23.3317 161.814 23.3117C161.553 23.2815 161.282 23.2614 161.001 23.2514C160.73 23.2414 160.454 23.2363 160.172 23.2363C159.791 23.2363 159.464 23.2564 159.193 23.2966C158.922 23.3368 158.716 23.4372 158.576 23.5979C158.445 23.7586 158.38 24.0247 158.38 24.3963C158.38 24.6875 158.4 24.9084 158.44 25.0591C158.49 25.1997 158.586 25.3001 158.726 25.3603C158.867 25.4106 159.063 25.4507 159.314 25.4809L161.393 25.7068C161.804 25.747 162.126 25.8273 162.357 25.9478C162.598 26.0583 162.768 26.2591 162.869 26.5504C162.979 26.8416 163.035 27.2785 163.035 27.8609C163.035 28.343 162.974 28.7346 162.854 29.0359C162.743 29.3271 162.568 29.5531 162.327 29.7138C162.086 29.8745 161.789 29.9799 161.438 30.0301C161.086 30.0904 160.68 30.1205 160.218 30.1205Z" fill="white"/>
<defs>
<linearGradient id="paint0_linear_3874_90150" x1="4.092" y1="3.81944" x2="181.366" y2="53.1762" gradientUnits="userSpaceOnUse">
<stop stop-color="#12182B"/>
<stop offset="1" stop-color="#1E050B"/>
</linearGradient>
<linearGradient id="paint1_linear_3874_90150" x1="6.64285" y1="4.61088e-06" x2="137.614" y2="73.7862" gradientUnits="userSpaceOnUse">
<stop stop-color="#570F1F"/>
<stop offset="1" stop-color="#BD2243"/>
</linearGradient>
</defs>
</svg>
