<svg width="135" height="52" viewBox="0 0 135 52" fill="none" xmlns="http://www.w3.org/2000/svg">
<rect x="0.5" y="0.5" width="134" height="51" rx="11.5" fill="url(#paint0_linear_3874_90161)"/>
<rect x="0.5" y="0.5" width="134" height="51" rx="11.5" stroke="url(#paint1_linear_3874_90161)"/>
<path d="M38.9164 24.2499C38.9164 25.8607 37.6105 27.1666 35.9997 27.1666C34.3888 27.1666 33.083 25.8607 33.083 24.2499C33.083 22.6391 34.3888 21.3333 35.9997 21.3333C37.6105 21.3333 38.9164 22.6391 38.9164 24.2499Z" stroke="#7CBC71" stroke-width="1.16667" stroke-linecap="round" stroke-linejoin="round"/>
<path d="M47.6667 24.2499V18.3315C47.6667 17.6686 47.2882 17.0685 46.6551 16.8723C45.5554 16.5315 43.5593 16.0833 40.6667 16.0833C35.3244 16.0833 33.8962 18.0403 26.5244 16.5775C25.4076 16.3559 24.3334 17.1861 24.3334 18.3246V30.0112C24.3334 30.8142 24.8848 31.5194 25.669 31.6923C32.164 33.1246 34.3168 32.066 37.75 31.5835" stroke="#7CBC71" stroke-width="1.16667" stroke-linecap="round" stroke-linejoin="round"/>
<path d="M24.3334 20.7501C26.6099 20.7501 28.6557 18.8893 28.9172 16.9633M43.584 16.6667C43.584 19.0463 45.6431 21.2972 47.6667 21.2972M29.0006 31.8289C29.0006 29.2516 26.9113 27.1622 24.3339 27.1622" stroke="#7CBC71" stroke-width="1.16667" stroke-linecap="round" stroke-linejoin="round"/>
<path d="M40.6666 30.0833C40.6666 29.4389 41.1889 28.9166 41.8333 28.9166H47.6666L45.9166 26.5833M47.6666 32.4166C47.6666 33.0609 47.1443 33.5833 46.5 33.5833H40.6666L42.4166 35.9166" stroke="#7CBC71" stroke-width="1.16667" stroke-linecap="round" stroke-linejoin="round"/>
<path d="M59.8577 31V20.6361H66.2899V21.7508H61.1531V25.4414H65.7325V26.5562H61.1531V31H59.8577ZM68.1342 21.1483V19.8076H69.4447V21.1483H68.1342ZM68.1643 31V23.3174H69.3995V31H68.1643ZM71.9891 31V23.3174H73.1038L73.149 24.4171H73.2394C73.3499 24.1761 73.5005 23.9652 73.6913 23.7844C73.8922 23.6037 74.1583 23.4631 74.4897 23.3626C74.8311 23.2522 75.263 23.1969 75.7852 23.1969C76.3576 23.1969 76.8145 23.2572 77.156 23.3777C77.4974 23.4982 77.7585 23.679 77.9393 23.92C78.1301 24.161 78.2557 24.4723 78.3159 24.854C78.3762 25.2255 78.4063 25.6724 78.4063 26.1946V31H77.1861V26.6164C77.1861 26.0942 77.161 25.6825 77.1108 25.3812C77.0706 25.0699 76.9853 24.8389 76.8547 24.6883C76.7242 24.5276 76.5334 24.4221 76.2823 24.3719C76.0312 24.3217 75.6998 24.2966 75.2881 24.2966C74.796 24.2966 74.4094 24.3619 74.1282 24.4924C73.847 24.6129 73.6411 24.7937 73.5105 25.0347C73.38 25.2657 73.2997 25.5519 73.2695 25.8934C73.2394 26.2248 73.2243 26.6064 73.2243 27.0382V31H71.9891ZM83.0705 31.1205C82.5082 31.1205 82.0362 31.0552 81.6545 30.9247C81.283 30.7941 81.0018 30.5682 80.811 30.2468C80.6302 29.9254 80.5398 29.4735 80.5398 28.8911C80.5398 28.3086 80.6051 27.8517 80.7357 27.5203C80.8762 27.1788 81.1173 26.9378 81.4587 26.7972C81.8002 26.6566 82.2772 26.5863 82.8898 26.5863C82.9902 26.5863 83.1459 26.5913 83.3568 26.6014C83.5777 26.6014 83.8288 26.6064 84.1099 26.6164C84.3911 26.6164 84.6723 26.6214 84.9535 26.6315C85.2448 26.6315 85.5109 26.6365 85.7519 26.6466V26.1645C85.7519 25.7126 85.7218 25.3611 85.6615 25.11C85.6113 24.8489 85.5008 24.6581 85.3301 24.5376C85.1594 24.4071 84.9184 24.3267 84.6071 24.2966C84.3058 24.2564 83.9041 24.2363 83.4019 24.2363C83.181 24.2363 82.9199 24.2464 82.6186 24.2665C82.3174 24.2765 82.0211 24.2966 81.7299 24.3267C81.4487 24.3468 81.2227 24.3719 81.052 24.402V23.4078C81.4336 23.3375 81.8604 23.2873 82.3324 23.2572C82.8145 23.217 83.3116 23.1969 83.8237 23.1969C84.366 23.1969 84.823 23.2321 85.1945 23.3024C85.5762 23.3626 85.8825 23.4631 86.1134 23.6037C86.3545 23.7443 86.5352 23.93 86.6557 24.161C86.7762 24.392 86.8566 24.6732 86.8968 25.0046C86.947 25.336 86.9721 25.7226 86.9721 26.1645V31H85.8724L85.8272 29.9154H85.7368C85.5762 30.2669 85.3452 30.533 85.0439 30.7138C84.7527 30.8845 84.4313 30.995 84.0798 31.0452C83.7283 31.0954 83.3919 31.1205 83.0705 31.1205ZM83.5225 30.1112C83.8137 30.1112 84.0848 30.0962 84.3359 30.066C84.587 30.0259 84.8079 29.9556 84.9987 29.8551C85.1895 29.7547 85.3402 29.6041 85.4506 29.4032C85.5611 29.1923 85.6364 28.9664 85.6766 28.7254C85.7268 28.4743 85.7519 28.1831 85.7519 27.8517V27.46H83.1911C82.7994 27.46 82.4981 27.4901 82.2872 27.5504C82.0763 27.6106 81.9307 27.7362 81.8504 27.927C81.7801 28.1178 81.7449 28.404 81.7449 28.7856C81.7449 29.1572 81.7901 29.4384 81.8805 29.6292C81.9709 29.82 82.1416 29.9506 82.3927 30.0209C82.6538 30.0811 83.0304 30.1112 83.5225 30.1112ZM89.5832 31V23.3174H90.6979L90.7431 24.4171H90.8335C90.9439 24.1761 91.0946 23.9652 91.2854 23.7844C91.4862 23.6037 91.7524 23.4631 92.0838 23.3626C92.4252 23.2522 92.8571 23.1969 93.3793 23.1969C93.9517 23.1969 94.4086 23.2572 94.7501 23.3777C95.0915 23.4982 95.3526 23.679 95.5334 23.92C95.7242 24.161 95.8497 24.4723 95.91 24.854C95.9702 25.2255 96.0004 25.6724 96.0004 26.1946V31H94.7802V26.6164C94.7802 26.0942 94.7551 25.6825 94.7049 25.3812C94.6647 25.0699 94.5794 24.8389 94.4488 24.6883C94.3182 24.5276 94.1274 24.4221 93.8764 24.3719C93.6253 24.3217 93.2939 24.2966 92.8822 24.2966C92.3901 24.2966 92.0034 24.3619 91.7222 24.4924C91.4411 24.6129 91.2352 24.7937 91.1046 25.0347C90.9741 25.2657 90.8937 25.5519 90.8636 25.8934C90.8335 26.2248 90.8184 26.6064 90.8184 27.0382V31H89.5832ZM101.403 31.1205C100.82 31.1205 100.338 31.0703 99.9566 30.9699C99.5851 30.8694 99.2838 30.7188 99.0528 30.518C98.8319 30.3171 98.6662 30.061 98.5557 29.7497C98.4452 29.4384 98.3699 29.0668 98.3297 28.635C98.2996 28.2031 98.2845 27.7111 98.2845 27.1587C98.2845 26.5863 98.3046 26.0842 98.3448 25.6523C98.395 25.2205 98.4804 24.8489 98.6009 24.5376C98.7314 24.2163 98.9072 23.9602 99.1281 23.7694C99.3591 23.5786 99.6554 23.438 100.017 23.3476C100.378 23.2471 100.825 23.1969 101.358 23.1969C101.709 23.1969 102.076 23.217 102.457 23.2572C102.849 23.2873 103.17 23.3325 103.421 23.3928V24.387C103.19 24.3468 102.904 24.3117 102.563 24.2815C102.231 24.2514 101.93 24.2363 101.659 24.2363C101.187 24.2363 100.805 24.2765 100.514 24.3569C100.233 24.4372 100.017 24.5828 99.8662 24.7937C99.7256 25.0046 99.6302 25.3009 99.58 25.6825C99.5298 26.0641 99.5047 26.5562 99.5047 27.1587C99.5047 27.7713 99.5298 28.2734 99.58 28.6651C99.6302 29.0467 99.7307 29.343 99.8813 29.5539C100.042 29.7547 100.263 29.8953 100.544 29.9757C100.835 30.046 101.217 30.0811 101.689 30.0811C101.97 30.0811 102.276 30.066 102.608 30.0359C102.939 30.0058 103.236 29.9706 103.497 29.9305V30.9247C103.246 30.9749 102.924 31.0201 102.533 31.0603C102.141 31.1004 101.764 31.1205 101.403 31.1205ZM108.663 31.1205C108.04 31.1205 107.518 31.0803 107.096 31C106.685 30.9197 106.353 30.7891 106.102 30.6083C105.851 30.4175 105.66 30.1715 105.53 29.8702C105.399 29.5589 105.314 29.1823 105.274 28.7404C105.233 28.2986 105.213 27.7763 105.213 27.1738C105.213 26.4608 105.243 25.8532 105.304 25.3511C105.364 24.8389 105.5 24.4271 105.71 24.1158C105.931 23.7945 106.273 23.5635 106.735 23.4229C107.197 23.2723 107.819 23.1969 108.603 23.1969C109.195 23.1969 109.677 23.2421 110.049 23.3325C110.43 23.4229 110.732 23.5635 110.953 23.7543C111.174 23.9451 111.334 24.2012 111.435 24.5226C111.545 24.8339 111.615 25.2105 111.646 25.6523C111.676 26.0842 111.691 26.5863 111.691 27.1587V27.5654H106.433C106.433 28.0877 106.459 28.5145 106.509 28.8459C106.559 29.1773 106.659 29.4334 106.81 29.6141C106.971 29.7949 107.217 29.9204 107.548 29.9907C107.89 30.061 108.352 30.0962 108.934 30.0962C109.175 30.0962 109.441 30.0911 109.732 30.0811C110.024 30.061 110.315 30.0359 110.606 30.0058C110.897 29.9757 111.159 29.9455 111.389 29.9154V30.9096C111.179 30.9498 110.917 30.9849 110.606 31.0151C110.305 31.0452 109.984 31.0703 109.642 31.0904C109.311 31.1105 108.984 31.1205 108.663 31.1205ZM110.501 26.9478V26.5411C110.501 26.0189 110.471 25.6071 110.41 25.3059C110.35 24.9946 110.245 24.7636 110.094 24.6129C109.953 24.4523 109.758 24.3468 109.507 24.2966C109.255 24.2464 108.944 24.2213 108.573 24.2213C108.091 24.2213 107.709 24.2564 107.428 24.3267C107.147 24.387 106.936 24.5025 106.795 24.6732C106.654 24.8439 106.559 25.09 106.509 25.4113C106.459 25.7327 106.433 26.1595 106.433 26.6917H110.787L110.501 26.9478Z" fill="white"/>
<defs>
<linearGradient id="paint0_linear_3874_90161" x1="2.97" y1="3.97222" x2="136.567" y2="29.931" gradientUnits="userSpaceOnUse">
<stop stop-color="#12182B"/>
<stop offset="1" stop-color="#152612"/>
</linearGradient>
<linearGradient id="paint1_linear_3874_90161" x1="4.82143" y1="4.79531e-06" x2="113.285" y2="42.6455" gradientUnits="userSpaceOnUse">
<stop stop-color="#1B3017"/>
<stop offset="1" stop-color="#7CBC71"/>
</linearGradient>
</defs>
</svg>
