<svg width="150" height="50" viewBox="0 0 150 50" fill="none" xmlns="http://www.w3.org/2000/svg">
<rect x="0.5" y="0.5" width="149" height="49" rx="11.5" fill="url(#paint0_linear_3874_90180)"/>
<rect x="0.5" y="0.5" width="149" height="49" rx="11.5" stroke="url(#paint1_linear_3874_90180)"/>
<path d="M37 35C36.1818 35 35.4002 34.6698 33.8369 34.0095C29.9456 32.3657 28 31.5438 28 30.1613C28 29.7742 28 23.0645 28 20M37 35C37.8182 35 38.5998 34.6698 40.1631 34.0095C44.0544 32.3657 46 31.5438 46 30.1613V20M37 35V24.3548" stroke="#6895FC" stroke-linecap="round" stroke-linejoin="round"/>
<path d="M33.3259 22.6914L30.4047 21.2779C28.8016 20.5021 28 20.1142 28 19.5C28 18.8858 28.8016 18.4979 30.4047 17.7221L33.3259 16.3086C35.1288 15.4362 36.0303 15 37 15C37.9697 15 38.8712 15.4362 40.6741 16.3086L43.5953 17.7221C45.1984 18.4979 46 18.8858 46 19.5C46 20.1142 45.1984 20.5021 43.5953 21.2779L40.6741 22.6914C38.8712 23.5638 37.9697 24 37 24C36.0303 24 35.1288 23.5638 33.3259 22.6914Z" stroke="#6895FC" stroke-linecap="round" stroke-linejoin="round"/>
<path d="M31 25L33 26" stroke="#6895FC" stroke-linecap="round" stroke-linejoin="round"/>
<path d="M41.9994 17L31.9994 22" stroke="#6895FC" stroke-linecap="round" stroke-linejoin="round"/>
<path d="M58.9217 30V19.6361H60.2172V30H58.9217ZM63.0211 30V22.3174H64.1358L64.181 23.4171H64.2714C64.3818 23.1761 64.5325 22.9652 64.7233 22.7844C64.9241 22.6037 65.1902 22.4631 65.5217 22.3626C65.8631 22.2522 66.2949 22.1969 66.8171 22.1969C67.3896 22.1969 67.8465 22.2572 68.1879 22.3777C68.5294 22.4982 68.7905 22.679 68.9713 22.92C69.1621 23.161 69.2876 23.4723 69.3479 23.854C69.4081 24.2255 69.4382 24.6724 69.4382 25.1946V30H68.2181V25.6164C68.2181 25.0942 68.193 24.6825 68.1428 24.3812C68.1026 24.0699 68.0172 23.8389 67.8867 23.6883C67.7561 23.5276 67.5653 23.4221 67.3142 23.3719C67.0632 23.3217 66.7318 23.2966 66.32 23.2966C65.8279 23.2966 65.4413 23.3619 65.1601 23.4924C64.8789 23.6129 64.6731 23.7937 64.5425 24.0347C64.4119 24.2657 64.3316 24.5519 64.3015 24.8934C64.2714 25.2248 64.2563 25.6064 64.2563 26.0382V30H63.0211ZM73.9669 30L71.15 22.3174H72.4304L74.69 28.7196H74.8105L77.055 22.3174H78.3204L75.5034 30H73.9669ZM83.0129 30.1205C82.3902 30.1205 81.868 30.0803 81.4462 30C81.0345 29.9197 80.7031 29.7891 80.452 29.6083C80.201 29.4175 80.0102 29.1715 79.8796 28.8702C79.749 28.5589 79.6637 28.1823 79.6235 27.7404C79.5833 27.2986 79.5633 26.7763 79.5633 26.1738C79.5633 25.4608 79.5934 24.8532 79.6536 24.3511C79.7139 23.8389 79.8495 23.4271 80.0604 23.1158C80.2813 22.7945 80.6227 22.5635 81.0847 22.4229C81.5467 22.2723 82.1693 22.1969 82.9526 22.1969C83.5451 22.1969 84.0272 22.2421 84.3987 22.3325C84.7804 22.4229 85.0816 22.5635 85.3026 22.7543C85.5235 22.9451 85.6842 23.2012 85.7846 23.5226C85.8951 23.8339 85.9654 24.2105 85.9955 24.6523C86.0256 25.0842 86.0407 25.5863 86.0407 26.1587V26.5654H80.7834C80.7834 27.0877 80.8085 27.5145 80.8587 27.8459C80.909 28.1773 81.0094 28.4334 81.16 28.6141C81.3207 28.7949 81.5667 28.9204 81.8982 28.9907C82.2396 29.061 82.7016 29.0962 83.284 29.0962C83.525 29.0962 83.7912 29.0911 84.0824 29.0811C84.3736 29.061 84.6649 29.0359 84.9561 29.0058C85.2473 28.9757 85.5084 28.9455 85.7394 28.9154V29.9096C85.5285 29.9498 85.2674 29.9849 84.9561 30.0151C84.6548 30.0452 84.3335 30.0703 83.992 30.0904C83.6606 30.1105 83.3342 30.1205 83.0129 30.1205ZM84.8507 25.9478V25.5411C84.8507 25.0189 84.8205 24.6071 84.7603 24.3059C84.7 23.9946 84.5946 23.7636 84.4439 23.6129C84.3033 23.4523 84.1075 23.3468 83.8564 23.2966C83.6054 23.2464 83.2941 23.2213 82.9225 23.2213C82.4404 23.2213 82.0588 23.2564 81.7776 23.3267C81.4964 23.387 81.2856 23.5025 81.145 23.6732C81.0044 23.8439 80.909 24.09 80.8587 24.4113C80.8085 24.7327 80.7834 25.1595 80.7834 25.6917H85.1369L84.8507 25.9478ZM88.2942 30V22.3174H89.4089L89.4541 23.4171H89.5445C89.6549 23.1761 89.8056 22.9652 89.9964 22.7844C90.1972 22.6037 90.4634 22.4631 90.7948 22.3626C91.1362 22.2522 91.568 22.1969 92.0902 22.1969C92.6627 22.1969 93.1196 22.2572 93.4611 22.3777C93.8025 22.4982 94.0636 22.679 94.2444 22.92C94.4352 23.161 94.5607 23.4723 94.621 23.854C94.6812 24.2255 94.7114 24.6724 94.7114 25.1946V30H93.4912V25.6164C93.4912 25.0942 93.4661 24.6825 93.4159 24.3812C93.3757 24.0699 93.2903 23.8389 93.1598 23.6883C93.0292 23.5276 92.8384 23.4221 92.5874 23.3719C92.3363 23.3217 92.0049 23.2966 91.5931 23.2966C91.1011 23.2966 90.7144 23.3619 90.4332 23.4924C90.152 23.6129 89.9462 23.7937 89.8156 24.0347C89.6851 24.2657 89.6047 24.5519 89.5746 24.8934C89.5445 25.2248 89.5294 25.6064 89.5294 26.0382V30H88.2942ZM97.9596 30V23.3569H96.408V22.3174H97.9596V20.088H99.1798V22.3174H101.018V23.3569H99.1798V30H97.9596ZM105.68 30.1205C105.047 30.1205 104.52 30.0803 104.098 30C103.687 29.9297 103.36 29.8092 103.119 29.6385C102.878 29.4677 102.697 29.2317 102.577 28.9305C102.466 28.6292 102.396 28.2526 102.366 27.8007C102.336 27.3387 102.321 26.7914 102.321 26.1587C102.321 25.526 102.336 24.9837 102.366 24.5318C102.396 24.0699 102.466 23.6883 102.577 23.387C102.697 23.0857 102.878 22.8497 103.119 22.679C103.36 22.5083 103.687 22.3877 104.098 22.3174C104.52 22.2371 105.047 22.1969 105.68 22.1969C106.323 22.1969 106.85 22.2371 107.262 22.3174C107.674 22.3877 108 22.5083 108.241 22.679C108.492 22.8497 108.673 23.0857 108.783 23.387C108.904 23.6883 108.979 24.0699 109.009 24.5318C109.039 24.9837 109.054 25.526 109.054 26.1587C109.054 26.7914 109.039 27.3387 109.009 27.8007C108.979 28.2526 108.904 28.6292 108.783 28.9305C108.673 29.2317 108.492 29.4677 108.241 29.6385C108 29.8092 107.674 29.9297 107.262 30C106.85 30.0803 106.323 30.1205 105.68 30.1205ZM105.68 29.0811C106.222 29.0811 106.639 29.046 106.93 28.9757C107.222 28.9054 107.427 28.7698 107.548 28.5689C107.679 28.3681 107.754 28.0769 107.774 27.6952C107.804 27.3036 107.819 26.7914 107.819 26.1587C107.819 25.526 107.804 25.0189 107.774 24.6373C107.754 24.2456 107.679 23.9494 107.548 23.7485C107.427 23.5477 107.222 23.4121 106.93 23.3418C106.639 23.2715 106.222 23.2363 105.68 23.2363C105.148 23.2363 104.731 23.2715 104.43 23.3418C104.139 23.4121 103.933 23.5477 103.812 23.7485C103.692 23.9494 103.616 24.2456 103.586 24.6373C103.556 25.0189 103.541 25.526 103.541 26.1587C103.541 26.7914 103.556 27.3036 103.586 27.6952C103.616 28.0769 103.692 28.3681 103.812 28.5689C103.933 28.7698 104.139 28.9054 104.43 28.9757C104.731 29.046 105.148 29.0811 105.68 29.0811ZM111.331 30V22.3174H112.431L112.491 23.7937H112.582C112.712 23.3619 112.898 23.0305 113.139 22.7995C113.38 22.5685 113.671 22.4129 114.013 22.3325C114.354 22.2421 114.731 22.1969 115.142 22.1969V23.402C114.449 23.402 113.917 23.5125 113.546 23.7334C113.174 23.9544 112.918 24.2958 112.777 24.7578C112.637 25.2197 112.566 25.8022 112.566 26.5052V30H111.331ZM119.815 33.1031C119.524 33.1031 119.217 33.0931 118.896 33.073C118.585 33.063 118.283 33.0479 117.992 33.0278C117.711 33.0178 117.46 32.9977 117.239 32.9676V31.9884C117.57 31.9985 117.872 32.0085 118.143 32.0186C118.424 32.0386 118.68 32.0487 118.911 32.0487C119.152 32.0587 119.368 32.0637 119.559 32.0637C120.141 32.0637 120.598 32.0186 120.93 31.9282C121.271 31.8378 121.522 31.6871 121.683 31.4763C121.844 31.2754 121.944 31.0043 121.984 30.6628C122.034 30.3214 122.059 29.9046 122.059 29.4125V28.9606H121.969C121.889 29.1614 121.753 29.3472 121.562 29.518C121.372 29.6887 121.11 29.8243 120.779 29.9247C120.448 30.0251 120.016 30.0753 119.484 30.0753C118.921 30.0753 118.464 30.0201 118.113 29.9096C117.771 29.7891 117.51 29.6083 117.329 29.3673C117.149 29.1163 117.023 28.8049 116.953 28.4334C116.893 28.0618 116.862 27.6199 116.862 27.1077V22.3174H118.098V26.6709C118.098 27.1931 118.118 27.6099 118.158 27.9212C118.198 28.2325 118.283 28.4685 118.414 28.6292C118.555 28.7798 118.75 28.8803 119.002 28.9305C119.253 28.9807 119.579 29.0058 119.981 29.0058C120.483 29.0058 120.874 28.9455 121.156 28.825C121.437 28.6945 121.638 28.5087 121.758 28.2677C121.889 28.0266 121.969 27.7404 121.999 27.409C122.039 27.0676 122.059 26.686 122.059 26.2642V22.3174H123.28V29.051C123.28 29.7841 123.239 30.4067 123.159 30.9189C123.089 31.4411 122.933 31.8579 122.692 32.1692C122.461 32.4906 122.115 32.7266 121.653 32.8772C121.191 33.0278 120.578 33.1031 119.815 33.1031Z" fill="white"/>
<defs>
<linearGradient id="paint0_linear_3874_90180" x1="3.3" y1="3.81944" x2="149.952" y2="36.7475" gradientUnits="userSpaceOnUse">
<stop stop-color="#12182B"/>
<stop offset="1" stop-color="#011541"/>
</linearGradient>
<linearGradient id="paint1_linear_3874_90180" x1="5.35714" y1="4.61088e-06" x2="120.694" y2="52.4021" gradientUnits="userSpaceOnUse">
<stop stop-color="#02287D"/>
<stop offset="1" stop-color="#6895FC"/>
</linearGradient>
</defs>
</svg>
