<svg width="186" height="50" viewBox="0 0 186 50" fill="none" xmlns="http://www.w3.org/2000/svg">
<rect x="0.5" y="0.5" width="185" height="49" rx="11.5" fill="url(#paint0_linear_3874_90156)"/>
<rect x="0.5" y="0.5" width="185" height="49" rx="11.5" stroke="url(#paint1_linear_3874_90156)"/>
<path d="M21 24L23.5 21.5C24.5171 20.4829 25.0256 19.9744 25.6372 19.8616C25.877 19.8174 26.123 19.8174 26.3628 19.8616C26.9744 19.9744 27.4829 20.4829 28.5 21.5C29.5171 22.517 30.0256 23.0256 30.6372 23.1384C30.8771 23.1826 31.1229 23.1826 31.3628 23.1384C31.9744 23.0256 32.4829 22.517 33.5 21.5L39 16" stroke="#52BFBC" stroke-linecap="round" stroke-linejoin="round"/>
<path d="M21 28V34M27 26V34M33 29V34M39 22V34" stroke="#52BFBC" stroke-linecap="round" stroke-linejoin="round"/>
<path d="M51.9207 30V19.6361H53.6681L57.2081 27.8911H57.2835L60.8084 19.6361H62.5558V30H61.2904V21.7149H61.2302L57.6902 30H56.7412L53.2012 21.7149H53.1409V30H51.9207ZM67.4252 30.1205C66.8628 30.1205 66.3908 30.0552 66.0092 29.9247C65.6376 29.7941 65.3564 29.5682 65.1656 29.2468C64.9848 28.9254 64.8945 28.4735 64.8945 27.8911C64.8945 27.3086 64.9597 26.8517 65.0903 26.5203C65.2309 26.1788 65.4719 25.9378 65.8134 25.7972C66.1548 25.6566 66.6318 25.5863 67.2444 25.5863C67.3448 25.5863 67.5005 25.5913 67.7114 25.6014C67.9323 25.6014 68.1834 25.6064 68.4646 25.6164C68.7458 25.6164 69.027 25.6214 69.3082 25.6315C69.5994 25.6315 69.8655 25.6365 70.1065 25.6466V25.1645C70.1065 24.7126 70.0764 24.3611 70.0162 24.11C69.966 23.8489 69.8555 23.6581 69.6848 23.5376C69.514 23.4071 69.273 23.3267 68.9617 23.2966C68.6604 23.2564 68.2587 23.2363 67.7566 23.2363C67.5357 23.2363 67.2745 23.2464 66.9733 23.2665C66.672 23.2765 66.3757 23.2966 66.0845 23.3267C65.8033 23.3468 65.5774 23.3719 65.4066 23.402V22.4078C65.7882 22.3375 66.2151 22.2873 66.6871 22.2572C67.1691 22.217 67.6662 22.1969 68.1784 22.1969C68.7207 22.1969 69.1776 22.2321 69.5492 22.3024C69.9308 22.3626 70.2371 22.4631 70.4681 22.6037C70.7091 22.7443 70.8899 22.93 71.0104 23.161C71.1309 23.392 71.2112 23.6732 71.2514 24.0046C71.3016 24.336 71.3267 24.7226 71.3267 25.1645V30H70.2271L70.1819 28.9154H70.0915C69.9308 29.2669 69.6998 29.533 69.3985 29.7138C69.1073 29.8845 68.786 29.995 68.4345 30.0452C68.083 30.0954 67.7465 30.1205 67.4252 30.1205ZM67.8771 29.1112C68.1683 29.1112 68.4395 29.0962 68.6905 29.066C68.9416 29.0259 69.1625 28.9556 69.3534 28.8551C69.5442 28.7547 69.6948 28.6041 69.8053 28.4032C69.9157 28.1923 69.9911 27.9664 70.0312 27.7254C70.0814 27.4743 70.1065 27.1831 70.1065 26.8517V26.46H67.5457C67.154 26.46 66.8528 26.4901 66.6419 26.5504C66.431 26.6106 66.2854 26.7362 66.205 26.927C66.1347 27.1178 66.0996 27.404 66.0996 27.7856C66.0996 28.1572 66.1448 28.4384 66.2351 28.6292C66.3255 28.82 66.4962 28.9506 66.7473 29.0209C67.0084 29.0811 67.385 29.1112 67.8771 29.1112ZM73.9378 30V22.3174H75.0375L75.0977 23.7937H75.1881C75.3187 23.3619 75.5045 23.0305 75.7455 22.7995C75.9865 22.5685 76.2777 22.4129 76.6192 22.3325C76.9606 22.2421 77.3372 22.1969 77.749 22.1969V23.402C77.056 23.402 76.5238 23.5125 76.1522 23.7334C75.7806 23.9544 75.5245 24.2958 75.3839 24.7578C75.2434 25.2197 75.1731 25.8022 75.1731 26.5052V30H73.9378ZM79.4691 30V18.8076H80.7043V25.5863H81.6684L84.3799 22.3174H85.7658L82.6475 26.0382L85.8109 30H84.3799L81.6684 26.6408H80.7043V30H79.4691ZM90.0754 30.1205C89.4528 30.1205 88.9306 30.0803 88.5088 30C88.097 29.9197 87.7656 29.7891 87.5146 29.6083C87.2635 29.4175 87.0727 29.1715 86.9421 28.8702C86.8116 28.5589 86.7262 28.1823 86.6861 27.7404C86.6459 27.2986 86.6258 26.7763 86.6258 26.1738C86.6258 25.4608 86.6559 24.8532 86.7162 24.3511C86.7764 23.8389 86.912 23.4271 87.1229 23.1158C87.3438 22.7945 87.6853 22.5635 88.1472 22.4229C88.6092 22.2723 89.2318 22.1969 90.0152 22.1969C90.6077 22.1969 91.0897 22.2421 91.4613 22.3325C91.8429 22.4229 92.1442 22.5635 92.3651 22.7543C92.5861 22.9451 92.7467 23.2012 92.8472 23.5226C92.9576 23.8339 93.0279 24.2105 93.0581 24.6523C93.0882 25.0842 93.1032 25.5863 93.1032 26.1587V26.5654H87.846C87.846 27.0877 87.8711 27.5145 87.9213 27.8459C87.9715 28.1773 88.0719 28.4334 88.2226 28.6141C88.3832 28.7949 88.6293 28.9204 88.9607 28.9907C89.3021 29.061 89.7641 29.0962 90.3466 29.0962C90.5876 29.0962 90.8537 29.0911 91.145 29.0811C91.4362 29.061 91.7274 29.0359 92.0187 29.0058C92.3099 28.9757 92.571 28.9455 92.802 28.9154V29.9096C92.5911 29.9498 92.33 29.9849 92.0187 30.0151C91.7174 30.0452 91.396 30.0703 91.0546 30.0904C90.7232 30.1105 90.3968 30.1205 90.0754 30.1205ZM91.9132 25.9478V25.5411C91.9132 25.0189 91.8831 24.6071 91.8228 24.3059C91.7626 23.9946 91.6571 23.7636 91.5065 23.6129C91.3659 23.4523 91.1701 23.3468 90.919 23.2966C90.6679 23.2464 90.3566 23.2213 89.985 23.2213C89.503 23.2213 89.1214 23.2564 88.8402 23.3267C88.559 23.387 88.3481 23.5025 88.2075 23.6732C88.0669 23.8439 87.9715 24.09 87.9213 24.4113C87.8711 24.7327 87.846 25.1595 87.846 25.6917H92.1994L91.9132 25.9478ZM96.0044 30V23.3569H94.4529V22.3174H96.0044V20.088H97.2246V22.3174H99.0624V23.3569H97.2246V30H96.0044ZM104.512 30V19.6361H109.272C109.925 19.6361 110.442 19.7164 110.823 19.8771C111.215 20.0277 111.501 20.2487 111.682 20.5399C111.873 20.8211 111.998 21.1525 112.059 21.5341C112.119 21.9157 112.149 22.3225 112.149 22.7543C112.149 23.1259 112.114 23.5125 112.044 23.9142C111.983 24.3059 111.838 24.6624 111.607 24.9837C111.386 25.3051 111.034 25.5411 110.552 25.6917L112.3 30H110.914L109.197 25.6466L109.558 25.8273C109.488 25.8474 109.402 25.8625 109.302 25.8725C109.202 25.8826 109.066 25.8876 108.895 25.8876H105.807V30H104.512ZM105.807 24.7578H108.715C109.217 24.7578 109.608 24.7176 109.89 24.6373C110.181 24.5569 110.392 24.4314 110.522 24.2607C110.663 24.09 110.753 23.8841 110.793 23.6431C110.834 23.392 110.854 23.0957 110.854 22.7543C110.854 22.4129 110.834 22.1216 110.793 21.8806C110.763 21.6295 110.683 21.4237 110.552 21.263C110.432 21.0923 110.231 20.9667 109.95 20.8864C109.679 20.796 109.302 20.7508 108.82 20.7508H105.807V24.7578ZM117.688 30.1205C117.065 30.1205 116.543 30.0803 116.121 30C115.709 29.9197 115.378 29.7891 115.127 29.6083C114.876 29.4175 114.685 29.1715 114.554 28.8702C114.424 28.5589 114.338 28.1823 114.298 27.7404C114.258 27.2986 114.238 26.7763 114.238 26.1738C114.238 25.4608 114.268 24.8532 114.328 24.3511C114.389 23.8389 114.524 23.4271 114.735 23.1158C114.956 22.7945 115.297 22.5635 115.759 22.4229C116.221 22.2723 116.844 22.1969 117.627 22.1969C118.22 22.1969 118.702 22.2421 119.073 22.3325C119.455 22.4229 119.756 22.5635 119.977 22.7543C120.198 22.9451 120.359 23.2012 120.459 23.5226C120.57 23.8339 120.64 24.2105 120.67 24.6523C120.7 25.0842 120.715 25.5863 120.715 26.1587V26.5654H115.458C115.458 27.0877 115.483 27.5145 115.533 27.8459C115.584 28.1773 115.684 28.4334 115.835 28.6141C115.995 28.7949 116.241 28.9204 116.573 28.9907C116.914 29.061 117.376 29.0962 117.959 29.0962C118.2 29.0962 118.466 29.0911 118.757 29.0811C119.048 29.061 119.34 29.0359 119.631 29.0058C119.922 28.9757 120.183 28.9455 120.414 28.9154V29.9096C120.203 29.9498 119.942 29.9849 119.631 30.0151C119.329 30.0452 119.008 30.0703 118.667 30.0904C118.335 30.1105 118.009 30.1205 117.688 30.1205ZM119.525 25.9478V25.5411C119.525 25.0189 119.495 24.6071 119.435 24.3059C119.375 23.9946 119.269 23.7636 119.119 23.6129C118.978 23.4523 118.782 23.3468 118.531 23.2966C118.28 23.2464 117.969 23.2213 117.597 23.2213C117.115 23.2213 116.733 23.2564 116.452 23.3267C116.171 23.387 115.96 23.5025 115.82 23.6732C115.679 23.8439 115.584 24.09 115.533 24.4113C115.483 24.7327 115.458 25.1595 115.458 25.6917H119.812L119.525 25.9478ZM125.53 30.1205C125.238 30.1205 124.927 30.1105 124.596 30.0904C124.264 30.0703 123.938 30.0452 123.617 30.0151C123.295 29.995 123.004 29.9649 122.743 29.9247V28.9305C122.984 28.9506 123.215 28.9706 123.436 28.9907C123.667 29.0108 123.893 29.0309 124.114 29.051C124.335 29.061 124.556 29.0711 124.776 29.0811C124.997 29.0811 125.223 29.0811 125.454 29.0811C125.977 29.0811 126.353 29.046 126.584 28.9757C126.825 28.8953 126.981 28.7648 127.051 28.584C127.131 28.4032 127.172 28.1672 127.172 27.876C127.172 27.5446 127.141 27.3036 127.081 27.1529C127.031 27.0023 126.936 26.9069 126.795 26.8667C126.664 26.8165 126.464 26.7763 126.192 26.7462L124.204 26.5203C123.732 26.47 123.376 26.3696 123.135 26.219C122.893 26.0583 122.728 25.8323 122.637 25.5411C122.547 25.2499 122.502 24.8833 122.502 24.4414C122.502 23.9393 122.572 23.5376 122.713 23.2363C122.853 22.9351 123.054 22.7091 123.315 22.5585C123.576 22.4078 123.893 22.3124 124.264 22.2723C124.636 22.222 125.053 22.1969 125.515 22.1969C125.776 22.1969 126.052 22.207 126.343 22.2271C126.634 22.2471 126.921 22.2723 127.202 22.3024C127.483 22.3325 127.724 22.3677 127.925 22.4078V23.402C127.664 23.3619 127.398 23.3317 127.126 23.3117C126.865 23.2815 126.594 23.2614 126.313 23.2514C126.042 23.2414 125.766 23.2363 125.484 23.2363C125.103 23.2363 124.776 23.2564 124.505 23.2966C124.234 23.3368 124.028 23.4372 123.888 23.5979C123.757 23.7586 123.692 24.0247 123.692 24.3963C123.692 24.6875 123.712 24.9084 123.752 25.0591C123.802 25.1997 123.898 25.3001 124.038 25.3603C124.179 25.4106 124.375 25.4507 124.626 25.4809L126.705 25.7068C127.116 25.747 127.438 25.8273 127.669 25.9478C127.91 26.0583 128.08 26.2591 128.181 26.5504C128.291 26.8416 128.347 27.2785 128.347 27.8609C128.347 28.343 128.286 28.7346 128.166 29.0359C128.055 29.3271 127.88 29.5531 127.639 29.7138C127.398 29.8745 127.101 29.9799 126.75 30.0301C126.398 30.0904 125.992 30.1205 125.53 30.1205ZM133.619 30.1205C132.997 30.1205 132.474 30.0803 132.053 30C131.641 29.9197 131.31 29.7891 131.058 29.6083C130.807 29.4175 130.617 29.1715 130.486 28.8702C130.355 28.5589 130.27 28.1823 130.23 27.7404C130.19 27.2986 130.17 26.7763 130.17 26.1738C130.17 25.4608 130.2 24.8532 130.26 24.3511C130.32 23.8389 130.456 23.4271 130.667 23.1158C130.888 22.7945 131.229 22.5635 131.691 22.4229C132.153 22.2723 132.776 22.1969 133.559 22.1969C134.152 22.1969 134.634 22.2421 135.005 22.3325C135.387 22.4229 135.688 22.5635 135.909 22.7543C136.13 22.9451 136.291 23.2012 136.391 23.5226C136.502 23.8339 136.572 24.2105 136.602 24.6523C136.632 25.0842 136.647 25.5863 136.647 26.1587V26.5654H131.39C131.39 27.0877 131.415 27.5145 131.465 27.8459C131.515 28.1773 131.616 28.4334 131.766 28.6141C131.927 28.7949 132.173 28.9204 132.505 28.9907C132.846 29.061 133.308 29.0962 133.89 29.0962C134.131 29.0962 134.398 29.0911 134.689 29.0811C134.98 29.061 135.271 29.0359 135.563 29.0058C135.854 28.9757 136.115 28.9455 136.346 28.9154V29.9096C136.135 29.9498 135.874 29.9849 135.563 30.0151C135.261 30.0452 134.94 30.0703 134.598 30.0904C134.267 30.1105 133.941 30.1205 133.619 30.1205ZM135.457 25.9478V25.5411C135.457 25.0189 135.427 24.6071 135.367 24.3059C135.306 23.9946 135.201 23.7636 135.05 23.6129C134.91 23.4523 134.714 23.3468 134.463 23.2966C134.212 23.2464 133.9 23.2213 133.529 23.2213C133.047 23.2213 132.665 23.2564 132.384 23.3267C132.103 23.387 131.892 23.5025 131.751 23.6732C131.611 23.8439 131.515 24.09 131.465 24.4113C131.415 24.7327 131.39 25.1595 131.39 25.6917H135.743L135.457 25.9478ZM140.964 30.1205C140.402 30.1205 139.93 30.0552 139.548 29.9247C139.177 29.7941 138.896 29.5682 138.705 29.2468C138.524 28.9254 138.434 28.4735 138.434 27.8911C138.434 27.3086 138.499 26.8517 138.629 26.5203C138.77 26.1788 139.011 25.9378 139.353 25.7972C139.694 25.6566 140.171 25.5863 140.784 25.5863C140.884 25.5863 141.04 25.5913 141.251 25.6014C141.471 25.6014 141.723 25.6064 142.004 25.6164C142.285 25.6164 142.566 25.6214 142.847 25.6315C143.139 25.6315 143.405 25.6365 143.646 25.6466V25.1645C143.646 24.7126 143.616 24.3611 143.555 24.11C143.505 23.8489 143.395 23.6581 143.224 23.5376C143.053 23.4071 142.812 23.3267 142.501 23.2966C142.2 23.2564 141.798 23.2363 141.296 23.2363C141.075 23.2363 140.814 23.2464 140.512 23.2665C140.211 23.2765 139.915 23.2966 139.624 23.3267C139.342 23.3468 139.117 23.3719 138.946 23.402V22.4078C139.327 22.3375 139.754 22.2873 140.226 22.2572C140.708 22.217 141.205 22.1969 141.718 22.1969C142.26 22.1969 142.717 22.2321 143.088 22.3024C143.47 22.3626 143.776 22.4631 144.007 22.6037C144.248 22.7443 144.429 22.93 144.55 23.161C144.67 23.392 144.75 23.6732 144.791 24.0046C144.841 24.336 144.866 24.7226 144.866 25.1645V30H143.766L143.721 28.9154H143.631C143.47 29.2669 143.239 29.533 142.938 29.7138C142.646 29.8845 142.325 29.995 141.974 30.0452C141.622 30.0954 141.286 30.1205 140.964 30.1205ZM141.416 29.1112C141.707 29.1112 141.979 29.0962 142.23 29.066C142.481 29.0259 142.702 28.9556 142.893 28.8551C143.083 28.7547 143.234 28.6041 143.344 28.4032C143.455 28.1923 143.53 27.9664 143.57 27.7254C143.621 27.4743 143.646 27.1831 143.646 26.8517V26.46H141.085C140.693 26.46 140.392 26.4901 140.181 26.5504C139.97 26.6106 139.825 26.7362 139.744 26.927C139.674 27.1178 139.639 27.404 139.639 27.7856C139.639 28.1572 139.684 28.4384 139.774 28.6292C139.865 28.82 140.035 28.9506 140.286 29.0209C140.548 29.0811 140.924 29.1112 141.416 29.1112ZM147.477 30V22.3174H148.577L148.637 23.7937H148.727C148.858 23.3619 149.044 23.0305 149.285 22.7995C149.526 22.5685 149.817 22.4129 150.158 22.3325C150.5 22.2421 150.876 22.1969 151.288 22.1969V23.402C150.595 23.402 150.063 23.5125 149.691 23.7334C149.32 23.9544 149.064 24.2958 148.923 24.7578C148.782 25.2197 148.712 25.8022 148.712 26.5052V30H147.477ZM155.737 30.1205C155.154 30.1205 154.672 30.0703 154.29 29.9699C153.919 29.8694 153.618 29.7188 153.387 29.518C153.166 29.3171 153 29.061 152.889 28.7497C152.779 28.4384 152.704 28.0668 152.664 27.635C152.633 27.2031 152.618 26.7111 152.618 26.1587C152.618 25.5863 152.638 25.0842 152.679 24.6523C152.729 24.2205 152.814 23.8489 152.935 23.5376C153.065 23.2163 153.241 22.9602 153.462 22.7694C153.693 22.5786 153.989 22.438 154.351 22.3476C154.712 22.2471 155.159 22.1969 155.691 22.1969C156.043 22.1969 156.409 22.217 156.791 22.2572C157.183 22.2873 157.504 22.3325 157.755 22.3928V23.387C157.524 23.3468 157.238 23.3117 156.896 23.2815C156.565 23.2514 156.264 23.2363 155.993 23.2363C155.521 23.2363 155.139 23.2765 154.848 23.3569C154.567 23.4372 154.351 23.5828 154.2 23.7937C154.059 24.0046 153.964 24.3009 153.914 24.6825C153.864 25.0641 153.838 25.5562 153.838 26.1587C153.838 26.7713 153.864 27.2734 153.914 27.6651C153.964 28.0467 154.064 28.343 154.215 28.5539C154.376 28.7547 154.597 28.8953 154.878 28.9757C155.169 29.046 155.551 29.0811 156.023 29.0811C156.304 29.0811 156.61 29.066 156.942 29.0359C157.273 29.0058 157.569 28.9706 157.83 28.9305V29.9247C157.579 29.9749 157.258 30.0201 156.866 30.0603C156.475 30.1004 156.098 30.1205 155.737 30.1205ZM159.863 30V18.8076H161.099V23.3267H161.174C161.274 23.1158 161.42 22.925 161.611 22.7543C161.802 22.5836 162.063 22.453 162.394 22.3626C162.726 22.2622 163.147 22.212 163.66 22.212C164.222 22.212 164.674 22.2723 165.015 22.3928C165.367 22.5032 165.633 22.679 165.814 22.92C166.004 23.161 166.13 23.4723 166.19 23.854C166.251 24.2255 166.281 24.6724 166.281 25.1946V30H165.06V25.6164C165.06 25.0942 165.035 24.6825 164.985 24.3812C164.945 24.0699 164.86 23.8389 164.729 23.6883C164.599 23.5276 164.408 23.4221 164.157 23.3719C163.906 23.3217 163.574 23.2966 163.162 23.2966C162.67 23.2966 162.284 23.3619 162.003 23.4924C161.721 23.6129 161.515 23.7937 161.385 24.0347C161.254 24.2657 161.174 24.5519 161.144 24.8934C161.114 25.2248 161.099 25.6064 161.099 26.0382V30H159.863Z" fill="white"/>
<defs>
<linearGradient id="paint0_linear_3874_90156" x1="4.092" y1="3.81944" x2="181.366" y2="53.1762" gradientUnits="userSpaceOnUse">
<stop stop-color="#12182B"/>
<stop offset="1" stop-color="#0F2928"/>
</linearGradient>
<linearGradient id="paint1_linear_3874_90156" x1="6.64285" y1="4.61088e-06" x2="137.614" y2="73.7862" gradientUnits="userSpaceOnUse">
<stop stop-color="#163C3B"/>
<stop offset="1" stop-color="#52BFBC"/>
</linearGradient>
</defs>
</svg>
