<svg width="194" height="50" viewBox="0 0 194 50" fill="none" xmlns="http://www.w3.org/2000/svg">
<rect x="0.5" y="0.5" width="193" height="49" rx="11.5" fill="url(#paint0_linear_3874_90172)"/>
<rect x="0.5" y="0.5" width="193" height="49" rx="11.5" stroke="url(#paint1_linear_3874_90172)"/>
<path d="M36.4955 15.0002H31.4955C30.6671 15.0002 29.9955 15.6718 29.9955 16.5002C29.9955 17.3287 30.6671 18.0002 31.4955 18.0002H36.4955C37.3239 18.0002 37.9955 17.3287 37.9955 16.5002C37.9955 15.6718 37.3239 15.0002 36.4955 15.0002Z" stroke="#FCB24F" stroke-linecap="round" stroke-linejoin="round"/>
<path d="M37.9961 16.5002C39.5496 16.5471 40.4761 16.7203 41.1174 17.3616C41.9961 18.2403 41.9961 19.6545 41.9961 22.4829V28.9997C41.9961 31.8282 41.9961 33.2424 41.1174 34.1211C40.2387 34.9997 38.8245 34.9997 35.9961 34.9997H31.9961C29.1677 34.9997 27.7535 34.9997 26.8748 34.1211C25.9961 33.2424 25.9961 31.8282 25.9961 28.9998L25.9961 22.4829C25.9961 19.6545 25.9961 18.2403 26.8748 17.3616C27.5161 16.7203 28.4426 16.5471 29.996 16.5002" stroke="#FCB24F" stroke-linecap="round" stroke-linejoin="round"/>
<path d="M29.4967 24.0003L30.4967 25.0003L32.4967 22.5002" stroke="#FCB24F" stroke-linecap="round" stroke-linejoin="round"/>
<path d="M35.5 30.0002H38.5M35.5 24.0002H38.5" stroke="#FCB24F" stroke-linecap="round" stroke-linejoin="round"/>
<path d="M30.625 30.0002H30.5M30.75 30.0002C30.75 30.1382 30.6381 30.2502 30.5 30.2502C30.3619 30.2502 30.25 30.1382 30.25 30.0002C30.25 29.8621 30.3619 29.7502 30.5 29.7502C30.6381 29.7502 30.75 29.8621 30.75 30.0002Z" stroke="#FCB24F" stroke-linecap="round" stroke-linejoin="round"/>
<path d="M55.8031 30V19.6361H60.3373C61.0001 19.6361 61.5273 19.7214 61.919 19.8922C62.3207 20.0529 62.6169 20.2788 62.8077 20.57C63.0086 20.8613 63.1442 21.2077 63.2145 21.6094C63.2848 22.0011 63.3199 22.4329 63.3199 22.9049C63.3199 23.3569 63.2848 23.7837 63.2145 24.1854C63.1542 24.577 63.0236 24.9235 62.8228 25.2248C62.6219 25.526 62.3207 25.762 61.919 25.9328C61.5173 26.1035 60.98 26.1889 60.3071 26.1889H57.0985V30H55.8031ZM57.0985 25.0591H59.8854C60.3774 25.0591 60.7641 25.0189 61.0453 24.9386C61.3365 24.8582 61.5524 24.7327 61.693 24.562C61.8336 24.3812 61.924 24.1552 61.9642 23.8841C62.0043 23.6129 62.0244 23.2866 62.0244 22.9049C62.0244 22.5233 62.0043 22.1969 61.9642 21.9258C61.934 21.6546 61.8487 21.4337 61.7081 21.263C61.5775 21.0923 61.3666 20.9667 61.0754 20.8864C60.7942 20.796 60.4076 20.7508 59.9155 20.7508H57.0985V25.0591ZM69.5163 30.1205C68.7129 30.1205 68.0451 30.0803 67.5128 30C66.9906 29.9096 66.5738 29.754 66.2625 29.533C65.9613 29.3121 65.7403 29.0058 65.5997 28.6141C65.4591 28.2124 65.3687 27.7053 65.3286 27.0927C65.2884 26.47 65.2683 25.7118 65.2683 24.818C65.2683 23.9243 65.2884 23.1711 65.3286 22.5585C65.3687 21.9358 65.4591 21.4287 65.5997 21.037C65.7403 20.6353 65.9613 20.324 66.2625 20.1031C66.5738 19.8821 66.9906 19.7315 67.5128 19.6511C68.0451 19.5608 68.7129 19.5156 69.5163 19.5156C70.3197 19.5156 70.9825 19.5608 71.5047 19.6511C72.037 19.7315 72.4538 19.8821 72.755 20.1031C73.0664 20.324 73.2923 20.6353 73.4329 21.037C73.5735 21.4287 73.6639 21.9358 73.7041 22.5585C73.7442 23.1711 73.7643 23.9243 73.7643 24.818C73.7643 25.7118 73.7442 26.47 73.7041 27.0927C73.6639 27.7053 73.5735 28.2124 73.4329 28.6141C73.2923 29.0058 73.0664 29.3121 72.755 29.533C72.4538 29.754 72.037 29.9096 71.5047 30C70.9825 30.0803 70.3197 30.1205 69.5163 30.1205ZM69.5163 29.0058C70.0687 29.0058 70.5256 28.9907 70.8871 28.9606C71.2487 28.9204 71.5349 28.8351 71.7458 28.7045C71.9567 28.574 72.1173 28.3631 72.2278 28.0718C72.3383 27.7706 72.4035 27.3588 72.4236 26.8366C72.4538 26.3144 72.4688 25.6415 72.4688 24.818C72.4688 23.9946 72.4538 23.3217 72.4236 22.7995C72.4035 22.2773 72.3383 21.8706 72.2278 21.5793C72.1173 21.278 71.9567 21.0621 71.7458 20.9316C71.5349 20.801 71.2487 20.7207 70.8871 20.6906C70.5256 20.6504 70.0687 20.6303 69.5163 20.6303C68.964 20.6303 68.507 20.6504 68.1455 20.6906C67.794 20.7207 67.5078 20.801 67.2869 20.9316C67.076 21.0621 66.9153 21.278 66.8048 21.5793C66.7044 21.8706 66.6391 22.2773 66.609 22.7995C66.5789 23.3217 66.5638 23.9946 66.5638 24.818C66.5638 25.6415 66.5789 26.3144 66.609 26.8366C66.6391 27.3588 66.7044 27.7706 66.8048 28.0718C66.9153 28.3631 67.076 28.574 67.2869 28.7045C67.5078 28.8351 67.794 28.9204 68.1455 28.9606C68.507 28.9907 68.964 29.0058 69.5163 29.0058ZM79.9728 30V19.6361H81.7203L85.2603 27.8911H85.3356L88.8605 19.6361H90.6079V30H89.3426V21.7149H89.2823L85.7423 30H84.7933L81.2533 21.7149H81.193V30H79.9728ZM95.4773 30.1205C94.9149 30.1205 94.4429 30.0552 94.0613 29.9247C93.6897 29.7941 93.4085 29.5682 93.2177 29.2468C93.037 28.9254 92.9466 28.4735 92.9466 27.8911C92.9466 27.3086 93.0118 26.8517 93.1424 26.5203C93.283 26.1788 93.524 25.9378 93.8655 25.7972C94.2069 25.6566 94.6839 25.5863 95.2965 25.5863C95.397 25.5863 95.5526 25.5913 95.7635 25.6014C95.9844 25.6014 96.2355 25.6064 96.5167 25.6164C96.7979 25.6164 97.0791 25.6214 97.3603 25.6315C97.6515 25.6315 97.9176 25.6365 98.1587 25.6466V25.1645C98.1587 24.7126 98.1285 24.3611 98.0683 24.11C98.0181 23.8489 97.9076 23.6581 97.7369 23.5376C97.5661 23.4071 97.3251 23.3267 97.0138 23.2966C96.7125 23.2564 96.3108 23.2363 95.8087 23.2363C95.5878 23.2363 95.3267 23.2464 95.0254 23.2665C94.7241 23.2765 94.4278 23.2966 94.1366 23.3267C93.8554 23.3468 93.6295 23.3719 93.4587 23.402V22.4078C93.8404 22.3375 94.2672 22.2873 94.7392 22.2572C95.2212 22.217 95.7183 22.1969 96.2305 22.1969C96.7728 22.1969 97.2297 22.2321 97.6013 22.3024C97.9829 22.3626 98.2892 22.4631 98.5202 22.6037C98.7612 22.7443 98.942 22.93 99.0625 23.161C99.183 23.392 99.2633 23.6732 99.3035 24.0046C99.3537 24.336 99.3788 24.7226 99.3788 25.1645V30H98.2792L98.234 28.9154H98.1436C97.9829 29.2669 97.7519 29.533 97.4507 29.7138C97.1594 29.8845 96.8381 29.995 96.4866 30.0452C96.1351 30.0954 95.7987 30.1205 95.4773 30.1205ZM95.9292 29.1112C96.2204 29.1112 96.4916 29.0962 96.7427 29.066C96.9937 29.0259 97.2147 28.9556 97.4055 28.8551C97.5963 28.7547 97.7469 28.6041 97.8574 28.4032C97.9678 28.1923 98.0432 27.9664 98.0833 27.7254C98.1336 27.4743 98.1587 27.1831 98.1587 26.8517V26.46H95.5978C95.2061 26.46 94.9049 26.4901 94.694 26.5504C94.4831 26.6106 94.3375 26.7362 94.2571 26.927C94.1868 27.1178 94.1517 27.404 94.1517 27.7856C94.1517 28.1572 94.1969 28.4384 94.2873 28.6292C94.3776 28.82 94.5484 28.9506 94.7994 29.0209C95.0605 29.0811 95.4371 29.1112 95.9292 29.1112ZM101.99 30V22.3174H103.105L103.15 23.4171H103.24C103.351 23.1761 103.501 22.9652 103.692 22.7844C103.893 22.6037 104.159 22.4631 104.491 22.3626C104.832 22.2522 105.264 22.1969 105.786 22.1969C106.358 22.1969 106.815 22.2572 107.157 22.3777C107.498 22.4982 107.759 22.679 107.94 22.92C108.131 23.161 108.256 23.4723 108.317 23.854C108.377 24.2255 108.407 24.6724 108.407 25.1946V30H107.187V25.6164C107.187 25.0942 107.162 24.6825 107.112 24.3812C107.071 24.0699 106.986 23.8389 106.856 23.6883C106.725 23.5276 106.534 23.4221 106.283 23.3719C106.032 23.3217 105.701 23.2966 105.289 23.2966C104.797 23.2966 104.41 23.3619 104.129 23.4924C103.848 23.6129 103.642 23.7937 103.511 24.0347C103.381 24.2657 103.3 24.5519 103.27 24.8934C103.24 25.2248 103.225 25.6064 103.225 26.0382V30H101.99ZM113.071 30.1205C112.509 30.1205 112.037 30.0552 111.655 29.9247C111.284 29.7941 111.003 29.5682 110.812 29.2468C110.631 28.9254 110.541 28.4735 110.541 27.8911C110.541 27.3086 110.606 26.8517 110.736 26.5203C110.877 26.1788 111.118 25.9378 111.46 25.7972C111.801 25.6566 112.278 25.5863 112.891 25.5863C112.991 25.5863 113.147 25.5913 113.358 25.6014C113.579 25.6014 113.83 25.6064 114.111 25.6164C114.392 25.6164 114.673 25.6214 114.954 25.6315C115.246 25.6315 115.512 25.6365 115.753 25.6466V25.1645C115.753 24.7126 115.723 24.3611 115.662 24.11C115.612 23.8489 115.502 23.6581 115.331 23.5376C115.16 23.4071 114.919 23.3267 114.608 23.2966C114.307 23.2564 113.905 23.2363 113.403 23.2363C113.182 23.2363 112.921 23.2464 112.619 23.2665C112.318 23.2765 112.022 23.2966 111.731 23.3267C111.45 23.3468 111.224 23.3719 111.053 23.402V22.4078C111.434 22.3375 111.861 22.2873 112.333 22.2572C112.815 22.217 113.312 22.1969 113.825 22.1969C114.367 22.1969 114.824 22.2321 115.195 22.3024C115.577 22.3626 115.883 22.4631 116.114 22.6037C116.355 22.7443 116.536 22.93 116.657 23.161C116.777 23.392 116.857 23.6732 116.898 24.0046C116.948 24.336 116.973 24.7226 116.973 25.1645V30H115.873L115.828 28.9154H115.738C115.577 29.2669 115.346 29.533 115.045 29.7138C114.754 29.8845 114.432 29.995 114.081 30.0452C113.729 30.0954 113.393 30.1205 113.071 30.1205ZM113.523 29.1112C113.815 29.1112 114.086 29.0962 114.337 29.066C114.588 29.0259 114.809 28.9556 115 28.8551C115.19 28.7547 115.341 28.6041 115.451 28.4032C115.562 28.1923 115.637 27.9664 115.677 27.7254C115.728 27.4743 115.753 27.1831 115.753 26.8517V26.46H113.192C112.8 26.46 112.499 26.4901 112.288 26.5504C112.077 26.6106 111.932 26.7362 111.851 26.927C111.781 27.1178 111.746 27.404 111.746 27.7856C111.746 28.1572 111.791 28.4384 111.881 28.6292C111.972 28.82 112.142 28.9506 112.394 29.0209C112.655 29.0811 113.031 29.1112 113.523 29.1112ZM122.401 33.1031C122.08 33.1031 121.748 33.0931 121.407 33.073C121.075 33.063 120.759 33.0479 120.458 33.0278C120.156 33.0077 119.9 32.9877 119.689 32.9676V31.9734C119.93 31.9934 120.197 32.0085 120.488 32.0186C120.779 32.0386 121.065 32.0487 121.346 32.0487C121.638 32.0587 121.899 32.0637 122.13 32.0637C122.712 32.0637 123.169 32.0236 123.501 31.9432C123.832 31.8629 124.083 31.7223 124.254 31.5214C124.425 31.3206 124.53 31.0394 124.57 30.6779C124.62 30.3163 124.645 29.8544 124.645 29.292V28.9757H124.57C124.44 29.2569 124.259 29.4778 124.028 29.6385C123.797 29.7991 123.521 29.9146 123.199 29.9849C122.878 30.0452 122.511 30.0753 122.1 30.0753C121.537 30.0753 121.07 30.0151 120.699 29.8946C120.337 29.774 120.051 29.5732 119.84 29.292C119.629 29.0008 119.479 28.5991 119.388 28.0869C119.308 27.5747 119.268 26.932 119.268 26.1587C119.268 25.3754 119.313 24.7277 119.403 24.2155C119.494 23.7033 119.644 23.3016 119.855 23.0104C120.066 22.7191 120.352 22.5133 120.714 22.3928C121.085 22.2622 121.552 22.1969 122.115 22.1969C122.456 22.1969 122.793 22.2271 123.124 22.2873C123.455 22.3375 123.752 22.453 124.013 22.6338C124.284 22.8146 124.49 23.0757 124.63 23.4171H124.721L124.781 22.3174H125.881V29.0058C125.881 29.7489 125.841 30.3816 125.76 30.9038C125.69 31.426 125.539 31.8478 125.308 32.1692C125.077 32.4906 124.731 32.7266 124.269 32.8772C123.807 33.0278 123.184 33.1031 122.401 33.1031ZM122.582 29.0058C123.084 29.0058 123.481 28.9405 123.772 28.81C124.063 28.6694 124.274 28.4534 124.404 28.1622C124.515 27.9212 124.58 27.635 124.6 27.3036C124.63 26.9722 124.645 26.5855 124.645 26.1437C124.645 25.7219 124.635 25.3503 124.615 25.0289C124.595 24.6975 124.53 24.4163 124.419 24.1854C124.289 23.864 124.073 23.633 123.772 23.4924C123.47 23.3518 123.074 23.2815 122.582 23.2815C122.12 23.2815 121.748 23.3167 121.467 23.387C121.196 23.4472 120.99 23.5728 120.849 23.7636C120.709 23.9544 120.613 24.2406 120.563 24.6222C120.513 25.0038 120.488 25.511 120.488 26.1437C120.488 26.7763 120.513 27.2835 120.563 27.6651C120.613 28.0467 120.709 28.3329 120.849 28.5237C120.99 28.7146 121.196 28.8451 121.467 28.9154C121.748 28.9757 122.12 29.0058 122.582 29.0058ZM131.603 30.1205C130.98 30.1205 130.458 30.0803 130.036 30C129.624 29.9197 129.293 29.7891 129.042 29.6083C128.791 29.4175 128.6 29.1715 128.469 28.8702C128.339 28.5589 128.253 28.1823 128.213 27.7404C128.173 27.2986 128.153 26.7763 128.153 26.1738C128.153 25.4608 128.183 24.8532 128.243 24.3511C128.304 23.8389 128.439 23.4271 128.65 23.1158C128.871 22.7945 129.212 22.5635 129.674 22.4229C130.136 22.2723 130.759 22.1969 131.542 22.1969C132.135 22.1969 132.617 22.2421 132.988 22.3325C133.37 22.4229 133.671 22.5635 133.892 22.7543C134.113 22.9451 134.274 23.2012 134.374 23.5226C134.485 23.8339 134.555 24.2105 134.585 24.6523C134.615 25.0842 134.63 25.5863 134.63 26.1587V26.5654H129.373C129.373 27.0877 129.398 27.5145 129.448 27.8459C129.499 28.1773 129.599 28.4334 129.75 28.6141C129.91 28.7949 130.156 28.9204 130.488 28.9907C130.829 29.061 131.291 29.0962 131.874 29.0962C132.115 29.0962 132.381 29.0911 132.672 29.0811C132.963 29.061 133.255 29.0359 133.546 29.0058C133.837 28.9757 134.098 28.9455 134.329 28.9154V29.9096C134.118 29.9498 133.857 29.9849 133.546 30.0151C133.245 30.0452 132.923 30.0703 132.582 30.0904C132.25 30.1105 131.924 30.1205 131.603 30.1205ZM133.44 25.9478V25.5411C133.44 25.0189 133.41 24.6071 133.35 24.3059C133.29 23.9946 133.184 23.7636 133.034 23.6129C132.893 23.4523 132.697 23.3468 132.446 23.2966C132.195 23.2464 131.884 23.2213 131.512 23.2213C131.03 23.2213 130.649 23.2564 130.367 23.3267C130.086 23.387 129.875 23.5025 129.735 23.6732C129.594 23.8439 129.499 24.09 129.448 24.4113C129.398 24.7327 129.373 25.1595 129.373 25.6917H133.727L133.44 25.9478ZM136.884 30V22.3174H137.999L138.044 23.4171H138.134C138.225 23.1761 138.36 22.9652 138.541 22.7844C138.732 22.6037 138.978 22.4631 139.279 22.3626C139.59 22.2522 139.987 22.1969 140.469 22.1969C141.152 22.1969 141.659 22.2974 141.991 22.4982C142.322 22.689 142.553 22.9953 142.683 23.4171H142.774C142.874 23.1761 143.02 22.9652 143.211 22.7844C143.401 22.6037 143.658 22.4631 143.979 22.3626C144.3 22.2522 144.697 22.1969 145.169 22.1969C145.862 22.1969 146.379 22.3024 146.721 22.5133C147.062 22.7242 147.288 23.0506 147.398 23.4924C147.509 23.9343 147.564 24.5017 147.564 25.1946V30H146.344V25.6164C146.344 25.0942 146.324 24.6825 146.284 24.3812C146.244 24.0699 146.168 23.8389 146.058 23.6883C145.947 23.5276 145.782 23.4221 145.561 23.3719C145.34 23.3217 145.043 23.2966 144.672 23.2966C144.24 23.2966 143.899 23.3569 143.648 23.4774C143.396 23.5878 143.211 23.7586 143.09 23.9895C142.98 24.2205 142.909 24.5067 142.879 24.8482C142.849 25.1896 142.834 25.5863 142.834 26.0382V30H141.614V25.6164C141.614 25.0942 141.594 24.6825 141.554 24.3812C141.513 24.0699 141.438 23.8389 141.328 23.6883C141.217 23.5276 141.052 23.4221 140.831 23.3719C140.61 23.3217 140.313 23.2966 139.942 23.2966C139.51 23.2966 139.169 23.3619 138.917 23.4924C138.666 23.6129 138.486 23.7887 138.375 24.0197C138.265 24.2506 138.194 24.5369 138.164 24.8783C138.134 25.2197 138.119 25.6064 138.119 26.0382V30H136.884ZM153.301 30.1205C152.678 30.1205 152.156 30.0803 151.734 30C151.323 29.9197 150.991 29.7891 150.74 29.6083C150.489 29.4175 150.298 29.1715 150.168 28.8702C150.037 28.5589 149.952 28.1823 149.912 27.7404C149.871 27.2986 149.851 26.7763 149.851 26.1738C149.851 25.4608 149.881 24.8532 149.942 24.3511C150.002 23.8389 150.138 23.4271 150.348 23.1158C150.569 22.7945 150.911 22.5635 151.373 22.4229C151.835 22.2723 152.457 22.1969 153.241 22.1969C153.833 22.1969 154.315 22.2421 154.687 22.3325C155.068 22.4229 155.37 22.5635 155.591 22.7543C155.812 22.9451 155.972 23.2012 156.073 23.5226C156.183 23.8339 156.253 24.2105 156.284 24.6523C156.314 25.0842 156.329 25.5863 156.329 26.1587V26.5654H151.072C151.072 27.0877 151.097 27.5145 151.147 27.8459C151.197 28.1773 151.297 28.4334 151.448 28.6141C151.609 28.7949 151.855 28.9204 152.186 28.9907C152.528 29.061 152.99 29.0962 153.572 29.0962C153.813 29.0962 154.079 29.0911 154.371 29.0811C154.662 29.061 154.953 29.0359 155.244 29.0058C155.535 28.9757 155.797 28.9455 156.028 28.9154V29.9096C155.817 29.9498 155.556 29.9849 155.244 30.0151C154.943 30.0452 154.622 30.0703 154.28 30.0904C153.949 30.1105 153.622 30.1205 153.301 30.1205ZM155.139 25.9478V25.5411C155.139 25.0189 155.109 24.6071 155.048 24.3059C154.988 23.9946 154.883 23.7636 154.732 23.6129C154.591 23.4523 154.396 23.3468 154.145 23.2966C153.893 23.2464 153.582 23.2213 153.211 23.2213C152.729 23.2213 152.347 23.2564 152.066 23.3267C151.785 23.387 151.574 23.5025 151.433 23.6732C151.292 23.8439 151.197 24.09 151.147 24.4113C151.097 24.7327 151.072 25.1595 151.072 25.6917H155.425L155.139 25.9478ZM158.582 30V22.3174H159.697L159.742 23.4171H159.833C159.943 23.1761 160.094 22.9652 160.284 22.7844C160.485 22.6037 160.751 22.4631 161.083 22.3626C161.424 22.2522 161.856 22.1969 162.378 22.1969C162.951 22.1969 163.408 22.2572 163.749 22.3777C164.091 22.4982 164.352 22.679 164.532 22.92C164.723 23.161 164.849 23.4723 164.909 23.854C164.969 24.2255 164.999 24.6724 164.999 25.1946V30H163.779V25.6164C163.779 25.0942 163.754 24.6825 163.704 24.3812C163.664 24.0699 163.578 23.8389 163.448 23.6883C163.317 23.5276 163.127 23.4221 162.875 23.3719C162.624 23.3217 162.293 23.2966 161.881 23.2966C161.389 23.2966 161.003 23.3619 160.721 23.4924C160.44 23.6129 160.234 23.7937 160.104 24.0347C159.973 24.2657 159.893 24.5519 159.863 24.8934C159.833 25.2248 159.817 25.6064 159.817 26.0382V30H158.582ZM168.248 30V23.3569H166.696V22.3174H168.248V20.088H169.468V22.3174H171.306V23.3569H169.468V30H168.248Z" fill="white"/>
<defs>
<linearGradient id="paint0_linear_3874_90172" x1="4.268" y1="3.81944" x2="188.006" y2="57.1759" gradientUnits="userSpaceOnUse">
<stop stop-color="#12182B"/>
<stop offset="1" stop-color="#372001"/>
</linearGradient>
<linearGradient id="paint1_linear_3874_90172" x1="6.92857" y1="4.61088e-06" x2="140.7" y2="78.6058" gradientUnits="userSpaceOnUse">
<stop stop-color="#412601"/>
<stop offset="1" stop-color="#FCB24F"/>
</linearGradient>
</defs>
</svg>
