<svg width="124" height="50" viewBox="0 0 124 50" fill="none" xmlns="http://www.w3.org/2000/svg">
<rect x="0.5" y="0.5" width="123" height="49" rx="11.5" fill="url(#paint0_linear_3874_90168)"/>
<rect x="0.5" y="0.5" width="123" height="49" rx="11.5" stroke="url(#paint1_linear_3874_90168)"/>
<path d="M34.9767 32.5C37.4017 30.8876 39 28.1305 39 25C39 20.0294 34.9706 16 30 16C29.3126 16 28.6432 16.0771 28 16.223M38.5 32.5H34.9767V29M25 17.5156C22.588 19.1301 21 21.8796 21 25C21 29.9706 25.0294 34 30 34C30.6874 34 31.3568 33.9229 32 33.777M21.5 17.5156H25V21" stroke="#FC7459" stroke-linecap="round" stroke-linejoin="round"/>
<path d="M51.931 30V19.6361H56.6912C57.344 19.6361 57.8612 19.7164 58.2428 19.8771C58.6344 20.0277 58.9207 20.2487 59.1014 20.5399C59.2922 20.8211 59.4178 21.1525 59.478 21.5341C59.5383 21.9157 59.5684 22.3225 59.5684 22.7543C59.5684 23.1259 59.5333 23.5125 59.463 23.9142C59.4027 24.3059 59.2571 24.6624 59.0261 24.9837C58.8052 25.3051 58.4537 25.5411 57.9716 25.6917L59.719 30H58.3332L56.6159 25.6466L56.9774 25.8273C56.9071 25.8474 56.8218 25.8625 56.7213 25.8725C56.6209 25.8826 56.4853 25.8876 56.3146 25.8876H53.2265V30H51.931ZM53.2265 24.7578H56.1339C56.636 24.7578 57.0276 24.7176 57.3088 24.6373C57.6001 24.5569 57.811 24.4314 57.9415 24.2607C58.0821 24.09 58.1725 23.8841 58.2127 23.6431C58.2528 23.392 58.2729 23.0957 58.2729 22.7543C58.2729 22.4129 58.2528 22.1216 58.2127 21.8806C58.1825 21.6295 58.1022 21.4237 57.9716 21.263C57.8511 21.0923 57.6503 20.9667 57.3691 20.8864C57.0979 20.796 56.7213 20.7508 56.2393 20.7508H53.2265V24.7578ZM65.1068 30.1205C64.4842 30.1205 63.962 30.0803 63.5402 30C63.1285 29.9197 62.797 29.7891 62.546 29.6083C62.2949 29.4175 62.1041 29.1715 61.9736 28.8702C61.843 28.5589 61.7576 28.1823 61.7175 27.7404C61.6773 27.2986 61.6572 26.7763 61.6572 26.1738C61.6572 25.4608 61.6873 24.8532 61.7476 24.3511C61.8079 23.8389 61.9434 23.4271 62.1543 23.1158C62.3753 22.7945 62.7167 22.5635 63.1787 22.4229C63.6406 22.2723 64.2633 22.1969 65.0466 22.1969C65.6391 22.1969 66.1211 22.2421 66.4927 22.3325C66.8743 22.4229 67.1756 22.5635 67.3965 22.7543C67.6175 22.9451 67.7782 23.2012 67.8786 23.5226C67.989 23.8339 68.0593 24.2105 68.0895 24.6523C68.1196 25.0842 68.1347 25.5863 68.1347 26.1587V26.5654H62.8774C62.8774 27.0877 62.9025 27.5145 62.9527 27.8459C63.0029 28.1773 63.1033 28.4334 63.254 28.6141C63.4147 28.7949 63.6607 28.9204 63.9921 28.9907C64.3336 29.061 64.7955 29.0962 65.378 29.0962C65.619 29.0962 65.8851 29.0911 66.1764 29.0811C66.4676 29.061 66.7588 29.0359 67.0501 29.0058C67.3413 28.9757 67.6024 28.9455 67.8334 28.9154V29.9096C67.6225 29.9498 67.3614 29.9849 67.0501 30.0151C66.7488 30.0452 66.4274 30.0703 66.086 30.0904C65.7546 30.1105 65.4282 30.1205 65.1068 30.1205ZM66.9446 25.9478V25.5411C66.9446 25.0189 66.9145 24.6071 66.8542 24.3059C66.794 23.9946 66.6885 23.7636 66.5379 23.6129C66.3973 23.4523 66.2015 23.3468 65.9504 23.2966C65.6993 23.2464 65.388 23.2213 65.0165 23.2213C64.5344 23.2213 64.1528 23.2564 63.8716 23.3267C63.5904 23.387 63.3795 23.5025 63.2389 23.6732C63.0983 23.8439 63.0029 24.09 62.9527 24.4113C62.9025 24.7327 62.8774 25.1595 62.8774 25.6917H67.2308L66.9446 25.9478ZM71.0359 30V23.3569H69.4843V22.3174H71.0359V20.088H72.256V22.3174H74.0938V23.3569H72.256V30H71.0359ZM78.4081 30.1205C77.8457 30.1205 77.3888 30.0603 77.0373 29.9397C76.6958 29.8192 76.4347 29.6385 76.2539 29.3974C76.0732 29.1564 75.9477 28.8501 75.8774 28.4786C75.8171 28.0969 75.787 27.645 75.787 27.1228V22.3174H77.0222V26.701C77.0222 27.2132 77.0423 27.6249 77.0825 27.9363C77.1226 28.2476 77.208 28.4836 77.3385 28.6443C77.4791 28.7949 77.675 28.8953 77.926 28.9455C78.1771 28.9957 78.5035 29.0209 78.9052 29.0209C79.4073 29.0209 79.799 28.9606 80.0802 28.8401C80.3614 28.7095 80.5622 28.5288 80.6827 28.2978C80.8133 28.0568 80.8936 27.7706 80.9237 27.4391C80.9639 27.0977 80.984 26.7111 80.984 26.2792V22.3174H82.2042V30H81.1045L81.0593 28.9003H80.9539C80.8534 29.1414 80.7028 29.3523 80.502 29.533C80.3111 29.7138 80.045 29.8594 79.7036 29.9699C79.3621 30.0703 78.9303 30.1205 78.4081 30.1205ZM84.8047 30V22.3174H85.9043L85.9646 23.7937H86.055C86.1855 23.3619 86.3713 23.0305 86.6123 22.7995C86.8534 22.5685 87.1446 22.4129 87.486 22.3325C87.8275 22.2421 88.2041 22.1969 88.6158 22.1969V23.402C87.9229 23.402 87.3906 23.5125 87.0191 23.7334C86.6475 23.9544 86.3914 24.2958 86.2508 24.7578C86.1102 25.2197 86.0399 25.8022 86.0399 26.5052V30H84.8047ZM90.3359 30V22.3174H91.4506L91.4958 23.4171H91.5862C91.6967 23.1761 91.8473 22.9652 92.0381 22.7844C92.239 22.6037 92.5051 22.4631 92.8365 22.3626C93.178 22.2522 93.6098 22.1969 94.132 22.1969C94.7044 22.1969 95.1614 22.2572 95.5028 22.3777C95.8443 22.4982 96.1054 22.679 96.2861 22.92C96.4769 23.161 96.6025 23.4723 96.6627 23.854C96.723 24.2255 96.7531 24.6724 96.7531 25.1946V30H95.5329V25.6164C95.5329 25.0942 95.5078 24.6825 95.4576 24.3812C95.4175 24.0699 95.3321 23.8389 95.2015 23.6883C95.071 23.5276 94.8802 23.4221 94.6291 23.3719C94.378 23.3217 94.0466 23.2966 93.6349 23.2966C93.1428 23.2966 92.7562 23.3619 92.475 23.4924C92.1938 23.6129 91.9879 23.7937 91.8574 24.0347C91.7268 24.2657 91.6465 24.5519 91.6163 24.8934C91.5862 25.2248 91.5712 25.6064 91.5712 26.0382V30H90.3359ZM101.914 30.1205C101.623 30.1205 101.312 30.1105 100.981 30.0904C100.649 30.0703 100.323 30.0452 100.001 30.0151C99.68 29.995 99.3888 29.9649 99.1277 29.9247V28.9305C99.3687 28.9506 99.5997 28.9706 99.8206 28.9907C100.052 29.0108 100.278 29.0309 100.498 29.051C100.719 29.061 100.94 29.0711 101.161 29.0811C101.382 29.0811 101.608 29.0811 101.839 29.0811C102.361 29.0811 102.738 29.046 102.969 28.9757C103.21 28.8953 103.366 28.7648 103.436 28.584C103.516 28.4032 103.556 28.1672 103.556 27.876C103.556 27.5446 103.526 27.3036 103.466 27.1529C103.416 27.0023 103.32 26.9069 103.18 26.8667C103.049 26.8165 102.848 26.7763 102.577 26.7462L100.589 26.5203C100.117 26.47 99.7603 26.3696 99.5193 26.219C99.2783 26.0583 99.1126 25.8323 99.0222 25.5411C98.9318 25.2499 98.8866 24.8833 98.8866 24.4414C98.8866 23.9393 98.9569 23.5376 99.0975 23.2363C99.2381 22.9351 99.439 22.7091 99.7001 22.5585C99.9612 22.4078 100.278 22.3124 100.649 22.2723C101.021 22.222 101.437 22.1969 101.899 22.1969C102.161 22.1969 102.437 22.207 102.728 22.2271C103.019 22.2471 103.305 22.2723 103.587 22.3024C103.868 22.3325 104.109 22.3677 104.31 22.4078V23.402C104.049 23.3619 103.782 23.3317 103.511 23.3117C103.25 23.2815 102.979 23.2614 102.698 23.2514C102.427 23.2414 102.15 23.2363 101.869 23.2363C101.488 23.2363 101.161 23.2564 100.89 23.2966C100.619 23.3368 100.413 23.4372 100.273 23.5979C100.142 23.7586 100.077 24.0247 100.077 24.3963C100.077 24.6875 100.097 24.9084 100.137 25.0591C100.187 25.1997 100.283 25.3001 100.423 25.3603C100.564 25.4106 100.76 25.4507 101.011 25.4809L103.089 25.7068C103.501 25.747 103.823 25.8273 104.054 25.9478C104.295 26.0583 104.465 26.2591 104.566 26.5504C104.676 26.8416 104.731 27.2785 104.731 27.8609C104.731 28.343 104.671 28.7346 104.551 29.0359C104.44 29.3271 104.264 29.5531 104.023 29.7138C103.782 29.8745 103.486 29.9799 103.135 30.0301C102.783 30.0904 102.376 30.1205 101.914 30.1205Z" fill="white"/>
<defs>
<linearGradient id="paint0_linear_3874_90168" x1="2.728" y1="3.81944" x2="125.831" y2="26.669" gradientUnits="userSpaceOnUse">
<stop stop-color="#12182B"/>
<stop offset="1" stop-color="#370A01"/>
</linearGradient>
<linearGradient id="paint1_linear_3874_90168" x1="4.42857" y1="4.61088e-06" x2="105.235" y2="37.8616" gradientUnits="userSpaceOnUse">
<stop stop-color="#550F02"/>
<stop offset="1" stop-color="#FC7459"/>
</linearGradient>
</defs>
</svg>
