<svg width="143" height="40" viewBox="0 0 143 40" fill="none" xmlns="http://www.w3.org/2000/svg">
<path d="M104.657 8.70789C105.175 8.71812 107.522 8.72393 107.725 8.87604C108.575 9.51304 110.602 12.516 111.212 13.3753C113.116 16.0719 115.041 18.7539 116.987 21.4211C117.699 22.4034 119.346 24.7532 120.093 25.5838L120.328 25.6349C120.328 26.8231 120.389 29.3433 120.198 30.3875C119.803 29.994 119.092 28.942 118.754 28.4617L116.576 25.3878L109.896 15.9846C108.608 14.1539 106.846 11.5108 105.463 9.82908L105.281 9.73466C105.297 9.41751 104.856 9.01445 104.65 8.78978L104.657 8.70789Z" fill="#EDEFF7"/>
<path d="M85.1158 8.71212C86.0775 8.7218 87.0392 8.71239 88.0009 8.68396C87.9435 9.72367 87.8536 18.3196 88.0072 18.869L87.9753 19.0235C87.8722 19.9724 87.9483 30.0679 88.0563 30.4159L88.0542 30.5361C87.3554 30.4394 85.7578 30.4924 85.0293 30.5179L85.0819 30.3889C85.1559 26.5475 85.1808 22.7054 85.1587 18.8634C85.1718 15.4796 85.1573 12.0957 85.1158 8.71212Z" fill="#EDEFF7"/>
<path d="M74.2034 8.80593C75.1119 8.77494 76.1179 8.72009 77.0194 8.7113C76.8188 12.9339 76.9461 17.9063 76.9488 22.184L76.9502 27.1638C76.9516 28.0929 76.926 29.5151 77.0339 30.4116L76.4957 30.443C75.7124 30.4487 74.7743 30.433 74.009 30.509L74.0464 30.411C74.2394 30.0972 74.1695 22.9564 74.1702 22.1631C74.191 17.7902 74.1875 13.4174 74.1612 9.04457L74.2034 8.80593Z" fill="#EDEFF7"/>
<path d="M128.148 13.2015C128.457 12.3411 127.991 9.60552 128.416 9.11212C128.543 9.10306 128.618 9.08376 128.724 9.20522C129.62 10.2375 130.473 12.1615 131.319 13.1716L131.239 13.3492L131.237 23.5504C131.239 25.1701 131.172 26.8341 131.31 28.4412C131.388 29.3515 132.006 29.8773 132.829 30.1279C133.016 30.1527 133.24 30.1567 133.383 30.2668C132.272 30.5834 130.776 30.4296 129.785 29.823C129.181 29.4589 128.731 28.8873 128.517 28.2152C128.134 27.0091 128.252 23.5395 128.252 22.0466L128.252 16.255C128.254 15.556 128.345 13.8901 128.179 13.2856L128.149 13.2645L128.148 13.2015Z" fill="#EDEFF7"/>
<path d="M44.5967 13.1969C44.8588 12.3684 44.3915 9.48563 44.9456 9.14441C45.5246 9.26041 47.1463 12.4783 47.7352 13.1783L47.6319 13.3441C47.6012 17.0146 47.6031 20.6854 47.6376 24.3559C47.6588 25.8009 47.4747 27.5281 47.8617 28.9185C48.0477 29.5872 48.6514 29.8946 49.2578 30.1242C49.4149 30.1528 49.6836 30.1799 49.7996 30.2706C48.2078 30.7916 45.3973 30.1239 44.9722 28.2538C44.5256 26.2892 44.6856 23.8942 44.6862 21.8534L44.6828 15.9991C44.6863 15.4116 44.7684 13.8277 44.623 13.3358L44.5967 13.1969Z" fill="#EDEFF7"/>
<path d="M57.1611 8.9058L57.2378 8.75507C57.6022 8.66854 59.5612 8.78835 60.115 8.79236C61.5575 12.3796 62.9357 16.0307 64.3451 19.6337C65.245 21.9342 66.285 24.3277 67.1211 26.6413L67.1767 26.8236C66.8161 27.8241 66.1616 29.6588 65.7097 30.5573C65.4847 30.082 65.1838 29.1918 64.9898 28.675L63.7728 25.4949L59.4656 14.2514C59.0694 13.2193 57.9057 9.94254 57.4342 9.19238C57.2568 9.14105 57.2938 9.1158 57.1611 8.9058Z" fill="#EDEFF7"/>
<path d="M20.8077 30.4137C20.5136 29.8728 20.1635 28.8441 19.9475 28.2525L18.7039 24.8633L14.528 13.6478C13.9832 12.1415 14.3077 11.3608 14.8893 9.89397C15.0022 9.60926 15.1672 9.3749 15.4564 9.27246C15.7037 9.3904 16.091 10.5575 16.209 10.8584C18.7403 17.3155 20.9292 24.0006 23.5908 30.3999L23.0695 30.4463C22.3154 30.451 21.5613 30.4401 20.8077 30.4137Z" fill="#EDEFF7"/>
<path d="M30.5357 8.85883C32.5985 8.82659 35.2564 10.2081 35.9109 12.2803C36.6476 14.6128 35.9568 16.8756 33.6976 18.0022C32.7779 18.4608 31.9878 18.6284 31.0374 18.949C31.6729 19.1721 32.5884 19.3686 33.256 19.6029C36.6303 20.7875 37.1343 23.0647 37.1848 26.3049C37.2036 27.5124 37.1365 28.2749 37.6678 29.3813C37.9875 29.8188 38.3517 30.0787 38.7674 30.4213C37.9966 30.4681 37.0949 30.4266 36.3945 30.1142C33.0528 28.6237 34.6383 23.7912 33.6678 21.1828C33.0289 19.4656 31.5104 19.5293 30.2397 18.9907L30.1633 18.9578C31.1785 18.6024 31.9825 18.3309 32.5563 17.3361C33.4375 15.8085 33.4842 13.2424 33.0299 11.5569C32.5752 9.86963 31.8702 9.62262 30.5357 8.85883Z" fill="#EDEFF7"/>
<path d="M93.7933 30.3725C98.0041 30.1817 98.781 27.6882 99.3747 24.1005L99.4605 24.111C99.5137 24.6374 99.43 25.5269 99.4231 26.1132C99.4037 27.5424 99.4024 28.9717 99.419 30.4009C98.3334 30.4411 95.9319 30.5822 94.9453 30.5133C94.5467 30.4636 94.1786 30.5216 93.74 30.4613L93.7933 30.3725Z" fill="#EDEFF7"/>
<path d="M94.4742 15.2311C94.5537 16.5167 94.4707 18.2465 94.4866 19.5806C94.4977 20.5515 94.6049 22.4371 94.5247 23.2989C94.2368 20.9486 93.7774 19.8101 91.4707 18.9827L91.5011 18.8751C93.4695 18.1289 94.0819 17.3172 94.4742 15.2311Z" fill="#EDEFF7"/>
<path d="M94.6686 8.70435C95.5895 8.70407 97.2403 8.73001 98.1501 8.82249C98.166 10.3425 98.2871 12.6055 98.2186 14.0552C97.6277 11.2062 97.1704 9.28373 93.8245 8.82581C94.0037 8.71652 94.4361 8.71943 94.6686 8.70435Z" fill="#EDEFF7"/>
<path d="M105.281 9.73462L105.463 9.82904C105.389 10.4929 105.426 11.8117 105.426 12.5105L105.428 17.2792L105.429 25.667C105.429 27.0977 105.395 28.6662 105.436 30.0776L106.992 30.1651C107.384 30.137 107.473 30.1215 107.851 30.2177L107.836 30.259C107.025 30.2924 106.103 30.3219 105.29 30.288C104.598 30.2941 103.97 30.3055 103.279 30.2521C103.432 30.1204 104.942 30.0879 105.218 30.078C105.301 25.4496 105.162 20.7124 105.227 16.0805C105.254 14.125 105.144 11.6519 105.281 9.73462Z" fill="#EDEFF7"/>
<path d="M106.992 30.1651C107.384 30.1369 107.472 30.1215 107.851 30.2177L107.836 30.259C107.025 30.2924 106.103 30.3219 105.29 30.2879C105.76 30.2213 106.504 30.1941 106.992 30.1651Z" fill="#EDEFF7"/>
<path d="M57.161 8.90588C57.2937 9.11589 57.2567 9.14114 57.4341 9.19246C57.2435 9.62409 57.362 28.1511 57.357 30.3702C58.2231 30.3831 59.0727 30.284 59.9239 30.4825C59.7424 30.5925 55.0624 30.604 54.6851 30.5135L54.6675 30.4404C55.0011 30.3367 56.7371 30.3685 57.1983 30.3677C57.2605 25.5452 57.1997 20.5959 57.2025 15.7626L57.2103 11.342C57.2113 10.743 57.2437 9.45559 57.161 8.90588Z" fill="#EDEFF7"/>
<path d="M120.151 8.78298C119.612 8.7818 118.065 8.85395 117.651 8.64028C118.123 8.52967 122.79 8.5231 123.029 8.65992C122.336 8.8875 121.141 8.76949 120.358 8.7762C120.208 14.3242 120.378 20.0679 120.328 25.6348L120.093 25.5837C120.263 25.1483 120.19 10.4974 120.151 8.78298Z" fill="#EDEFF7"/>
<path d="M74.2034 8.80591L74.1612 9.04455C73.7924 9.54404 73.0597 11.6542 72.8044 12.3274L70.6035 18.104L68.2421 24.1554C67.91 25 67.4756 25.9891 67.1767 26.8237L67.1211 26.6414C68.0083 24.7537 73.5184 9.45238 74.2034 8.80591Z" fill="#EDEFF7"/>
<path d="M8.71099 26.3242C8.74212 26.3467 8.7707 26.3973 8.79554 26.4329C8.53006 27.4037 7.74837 29.2863 7.38181 30.3079C7.78954 30.3783 9.14701 30.3593 9.38204 30.5089C8.75914 30.5717 8.20986 30.5619 7.58467 30.5605C6.8775 30.565 6.26505 30.5854 5.55968 30.4946L5.54688 30.4496C6.11145 30.3631 6.57114 30.3722 7.13952 30.3682C7.69323 29.1333 8.11334 27.5474 8.71099 26.3242Z" fill="#EDEFF7"/>
<path d="M88.0563 30.4159C89.7396 30.3066 92.0256 30.4096 93.7934 30.3724L93.7401 30.4612C94.1787 30.5215 94.5468 30.4635 94.9453 30.5132C94.2749 30.6085 92.375 30.5773 91.5939 30.5745C90.6861 30.5712 88.8893 30.6304 88.0542 30.536L88.0563 30.4159Z" fill="#EDEFF7"/>
<path d="M88.2332 8.66649C89.5581 8.47177 93.2797 8.58369 94.6683 8.70433C94.4359 8.71941 94.0034 8.7165 93.8242 8.82579C91.9721 8.65902 89.8411 8.84876 88.2332 8.66649Z" fill="#EDEFF7"/>
<path d="M28.1314 8.71353C26.7661 8.71893 23.6304 8.80926 22.4094 8.67756C22.7835 8.49737 26.8936 8.58044 27.6244 8.58363L28.1314 8.71353Z" fill="#EDEFF7"/>
<path d="M47.7351 13.1783C48.2894 13.1777 51.5862 13.0918 51.8862 13.2988C50.8209 13.4046 48.7546 13.3473 47.6318 13.3442L47.7351 13.1783Z" fill="#EDEFF7"/>
<path d="M131.319 13.1717C132.323 13.1895 134.553 13.1003 135.387 13.2636L135.415 13.3035C134.323 13.3998 132.388 13.3489 131.239 13.3493L131.319 13.1717Z" fill="#EDEFF7"/>
<path d="M49.2578 30.1241C50.4831 30.0453 51.0713 29.5228 51.8755 28.6093L51.9234 28.5547L51.999 28.5956C51.6987 29.3912 50.6123 30.0913 49.7996 30.2705C49.6837 30.1798 49.4149 30.1527 49.2578 30.1241Z" fill="#EDEFF7"/>
<path d="M132.829 30.1279C133.599 30.067 133.987 29.9723 134.602 29.4497C134.809 29.2744 135.342 28.5252 135.535 28.6464C135.403 29.2622 134.042 30.1718 133.384 30.2668C133.24 30.1568 133.016 30.1528 132.829 30.1279Z" fill="#EDEFF7"/>
<path d="M77.0339 30.4116L77.1204 30.4023C77.5687 30.3566 79.5309 30.2978 79.8623 30.4957C79.4008 30.6477 77.0713 30.5403 76.4956 30.443L77.0339 30.4116Z" fill="#EDEFF7"/>
<path d="M85.0818 30.3888L85.0292 30.5178C84.6134 30.5796 82.562 30.6714 82.2991 30.4455C82.7343 30.3232 84.5311 30.3798 85.0818 30.3888Z" fill="#EDEFF7"/>
<path d="M23.5909 30.3999C23.9719 30.3673 25.8089 30.3599 26.1058 30.4834C25.3458 30.6224 23.8399 30.5717 23.0696 30.4463L23.5909 30.3999Z" fill="#EDEFF7"/>
<path d="M88.0072 18.869C89.1439 18.8745 90.3706 18.9006 91.5012 18.8751L91.4707 18.9827C90.363 19.0394 89.0969 19.0185 87.9753 19.0235L88.0072 18.869Z" fill="#EDEFF7"/>
<path d="M77.9195 8.60365C78.2793 8.54008 79.4748 8.54575 79.8076 8.64072L79.7827 8.72691L79.5689 8.75928C79.1192 8.76316 77.8226 8.78342 77.4539 8.68126L77.9195 8.60365Z" fill="#EDEFF7"/>
<path d="M40.8132 29.53L40.8693 29.6293C40.4454 30.1814 39.4201 30.4056 38.7577 30.4571L38.7019 30.3223C38.9249 30.1349 39.4322 30.2864 39.8985 30.0837C40.3489 29.8879 40.403 29.8345 40.8132 29.53Z" fill="#EDEFF7"/>
<path d="M29.3226 19.0244C28.5104 19.026 27.7532 19.0299 26.9405 18.9783C26.8417 18.9185 26.896 18.9412 26.7554 18.952C27.0093 18.8575 28.6088 18.8807 28.9414 18.8831L29.3226 19.0244Z" fill="#EDEFF7"/>
<path d="M27.6243 8.58362C28.1218 8.56405 30.0861 8.57463 30.4126 8.89925C29.7072 8.80878 28.8312 8.69727 28.1313 8.71353L27.6243 8.58362Z" fill="#EDEFF7"/>
<path d="M82.2134 8.60983C82.798 8.51154 83.9735 8.56162 84.5512 8.68772C84.0074 8.71718 82.6576 8.85179 82.2134 8.60983Z" fill="#EDEFF7"/>
<path d="M104.65 8.78971C104.167 8.78936 103.295 8.8207 102.869 8.65704L102.918 8.60018L102.909 8.67295L103.057 8.71231L103.132 8.57355C103.495 8.56041 104.299 8.6421 104.656 8.70781L104.65 8.78971Z" fill="#EDEFF7"/>
<path d="M44.6233 13.3357C44.1023 13.3494 43.336 13.3858 42.8501 13.2529C43.4779 13.1816 43.9649 13.1802 44.597 13.1968L44.6233 13.3357Z" fill="#EDEFF7"/>
<path d="M54.6736 8.60854C55.2805 8.49282 56.3737 8.61608 57.0011 8.69161C56.5019 8.71389 55.0539 8.84829 54.6736 8.60854Z" fill="#EDEFF7"/>
<path d="M128.179 13.2856C127.85 13.401 126.856 13.3495 126.521 13.2748C127.096 13.1644 127.562 13.1706 128.148 13.2015L128.149 13.2646L128.179 13.2856Z" fill="#EDEFF7"/>
<path d="M74.0089 30.509C73.6408 30.5538 73.0783 30.6252 72.731 30.5217L72.7379 30.4577C73.0942 30.336 73.6698 30.3695 74.0462 30.411L74.0089 30.509Z" fill="#EDEFF7"/>
<path d="M28.9417 18.8831C29.3119 18.8779 29.7145 18.8494 30.0658 18.953C29.927 19.0583 29.5167 19.0279 29.3229 19.0244L28.9417 18.8831Z" fill="#EDEFF7"/>
</svg>
