<svg width="78" height="40" viewBox="0 0 78 40" fill="none" xmlns="http://www.w3.org/2000/svg">
<g clip-path="url(#clip0_3376_19298)">
<path d="M40.3015 12.9694C40.4898 12.9735 42.3315 13.5638 42.6511 13.6416C44.1849 14.0131 45.7372 14.3021 47.3018 14.5072C51.971 15.1276 56.745 15.0274 61.4236 14.5614C62.8766 14.4167 64.2634 14.1419 65.6619 13.9924C65.3081 14.1634 64.2822 14.4718 63.8713 14.6042C61.9112 15.233 59.9266 15.7833 57.9225 16.2539C56.5638 16.6145 54.6969 16.962 53.3108 17.2129C48.6037 18.0558 43.8455 18.5839 39.0677 18.7938C38.3507 18.8304 37.6334 18.858 36.9161 18.8765C36.6756 18.8828 36.1429 18.91 35.9229 18.8758C35.9957 18.7673 36.9487 18.4155 37.1297 18.3298C38.9718 17.458 44.0496 15.8738 40.7263 13.3193C40.5936 13.2174 40.4082 13.0896 40.3015 12.9694Z" fill="#EDEFF7"/>
<path d="M20.1666 5H33.5155C33.7798 5.09122 34.5133 5.16331 34.8134 5.19729C35.3656 5.25671 35.9162 5.32894 36.465 5.41394C38.2845 5.70849 40.0905 6.07884 41.8792 6.524C44.4706 7.16349 46.8875 8.10251 49.4322 8.86669C52.8653 9.87015 56.345 10.7072 59.8592 11.375C61.8036 11.7527 63.7603 12.0633 65.7265 12.3065C66.3543 12.383 66.9836 12.4496 67.6137 12.5062C67.7934 12.5225 68.5562 12.5757 68.6663 12.6127L68.6254 12.6612C68.4182 12.7522 67.9231 12.8377 67.6701 12.8988C65.9915 13.2899 64.2957 13.6024 62.5882 13.8353C55.4077 14.8427 48.0969 14.3689 41.1063 12.4431C39.3804 11.9651 37.927 11.4342 36.2523 10.9028C35.1012 10.5476 33.941 10.2225 32.7729 9.92771C27.5376 8.62412 22.1952 7.79701 16.8109 7.45647C15.2511 7.34758 13.6889 7.27639 12.1257 7.24295C11.1821 7.21797 10.2607 7.1638 9.31909 7.24086C9.97931 6.95147 10.9037 6.72976 11.6168 6.54989C13.6145 6.04829 15.6358 5.6458 17.6732 5.34392C18.2616 5.25313 19.7182 5.135 20.1666 5Z" fill="#EDEFF7"/>
<path d="M43.7667 35.0002C43.3667 34.7896 43.0194 34.6353 42.6363 34.3862C41.5957 33.71 40.7156 32.5196 40.3543 31.3358C39.7468 29.3479 40.2321 26.8947 41.1765 25.0875C42.2069 23.116 44.1381 21.4247 46.2701 20.7683C47.8171 20.2919 49.7475 20.2894 51.19 21.0728C51.8742 21.4444 52.2516 21.7991 52.7738 22.341C52.8302 21.8665 52.9475 21.3023 53.0347 20.8254C54.2787 20.8108 55.5373 20.8389 56.7738 20.8197C56.5249 21.8913 56.3001 23.3966 56.0982 24.5074L54.7682 31.8148L54.3874 33.9573C54.3501 34.1693 54.249 34.8332 54.1802 35.0002H50.5009C50.4836 34.7346 50.6817 33.7855 50.7434 33.4689C50.2543 33.9188 49.502 34.3579 48.9017 34.6429C48.6697 34.7531 48.3449 34.8708 48.134 34.9887L48.1137 35.0002H43.7667ZM47.6776 32.0138C48.9844 31.8535 50.108 31.2038 50.9111 30.1732C52.1392 28.5977 52.6174 25.7693 50.8298 24.4023C50.1208 23.8601 49.0532 23.6474 48.1836 23.7728C45.4817 24.1151 43.5438 26.6332 43.8957 29.3231C43.9998 30.1534 44.4306 30.9079 45.093 31.4196C45.7784 31.9425 46.8332 32.1464 47.6776 32.0138Z" fill="#EDEFF7"/>
<path d="M9.80811 35.0003C9.41969 34.8135 8.99307 34.6183 8.63255 34.3855C7.61842 33.7307 6.7703 32.6247 6.37335 31.4893C5.70008 29.5237 6.11835 27.1866 6.98958 25.349C7.95492 23.313 9.83664 21.5698 11.9666 20.8221C14.285 20.0083 17.0876 20.3219 18.7252 22.3172C18.8076 21.8307 18.8915 21.2558 19.0029 20.782L22.7248 20.786C22.1067 23.9992 21.5422 27.2877 20.9586 30.5135L20.4523 33.3096C20.3587 33.8259 20.2585 34.4708 20.1338 34.9722C19.7765 34.9137 19.1108 34.9308 18.7246 34.9305L16.4368 34.9314C16.5145 34.4418 16.6025 33.9538 16.7007 33.4678C16.1013 33.9098 15.6473 34.2292 14.9771 34.5591C14.7962 34.6481 14.0625 34.9446 13.977 35.0003H9.80811ZM13.6547 31.9835C18.6187 31.3429 19.979 23.4089 14.1432 23.7353C12.7656 23.9286 11.6752 24.5283 10.8308 25.6597C9.62792 27.2715 9.25123 30.0629 11.0654 31.3998C11.8648 31.9884 12.7075 32.0513 13.6547 31.9835Z" fill="#EDEFF7"/>
<path d="M62.0697 22.2353C63.8648 21.0225 65.5498 20.1407 67.793 20.5545C69.6682 20.9004 71.017 22.3616 70.9377 24.3088C70.8772 25.7877 70.4967 27.1847 70.2655 28.6392C69.9107 30.6702 69.5171 32.6874 69.161 34.7179C69.1483 34.7899 69.1204 34.9303 69.1013 34.9999H65.4362C65.4877 34.4654 65.7107 33.4148 65.8114 32.8587L66.5941 28.5447C66.7577 27.616 66.8806 26.7844 66.9374 25.8398C67.0607 23.7805 65.0945 23.2736 63.5013 24.0932C61.325 25.2127 61.0618 27.7944 60.672 29.9562L60.0735 33.2659C59.9904 33.7231 59.8573 34.5992 59.7284 34.9999H56.0449C56.1212 34.4003 56.2521 33.8002 56.3543 33.2039C57.0633 29.0767 57.9111 24.953 58.5942 20.8234C59.8302 20.8163 61.1111 20.8467 62.3385 20.823C62.24 21.2942 62.1607 21.7637 62.0697 22.2353Z" fill="#EDEFF7"/>
<path d="M24.7356 30.4887C25.1618 31.0108 25.4041 31.2326 25.9967 31.6312C26.9019 32.2401 28.4602 32.3388 29.165 31.3703C29.9154 30.3392 28.0561 29.4103 27.3514 29.0752C25.7002 28.2504 23.8976 27.0238 24.0373 24.9458C24.2317 22.0555 27.2192 20.2508 29.9186 20.4268C31.6967 20.5428 33.1081 21.2725 34.0553 22.7742C33.2202 23.524 32.2245 24.2558 31.3585 25.0025C30.7322 24.3331 30.1652 23.7433 29.1341 23.6739C28.3594 23.6217 27.0389 24.1786 27.8395 25.1664C28.0608 25.4394 28.743 25.6924 29.0398 25.8848C30.7521 26.7937 32.892 27.7138 32.9179 29.9815C32.9328 31.2883 32.4714 32.4527 31.564 33.4006C31.0852 33.9009 30.4687 34.3572 29.8405 34.6523C29.6849 34.7253 29.1162 34.9399 29.0259 35.0002H24.5619C23.4879 34.4449 22.6502 34.0109 22.019 32.874C22.8378 32.099 23.7193 31.3672 24.5666 30.6223C24.6202 30.5752 24.6768 30.5293 24.7356 30.4887Z" fill="#EDEFF7"/>
<path d="M36.4048 20.7914C37.6496 20.7825 38.8943 20.7882 40.139 20.8085C39.8845 21.9364 39.659 23.4245 39.4484 24.5791L38.0913 32.045C38.0338 32.3653 37.6297 34.8326 37.5283 35.0001H33.8696C33.8739 34.6142 34.0376 33.8238 34.1128 33.4127L34.5946 30.7833L36.4048 20.7914Z" fill="#EDEFF7"/>
</g>
<defs>
<clipPath id="clip0_3376_19298">
<rect width="67.5" height="30" fill="white" transform="translate(5 5)"/>
</clipPath>
</defs>
</svg>
