<svg width="103" height="40" viewBox="0 0 103 40" fill="none" xmlns="http://www.w3.org/2000/svg">
<g clip-path="url(#clip0_3376_19368)">
<path d="M39.794 13.8943C41.4028 13.8264 43.6397 13.7899 45.0373 14.6753C45.9824 15.2741 46.0912 15.8821 46.3035 16.8424C46.4513 15.9452 46.6361 15.0545 46.8574 14.1726C47.7765 14.1142 49.3291 14.162 50.2915 14.1622L57.2577 14.156C57.0411 15.0936 56.8044 16.3144 56.5429 17.2152C55.5587 17.2074 54.6003 17.1944 53.6156 17.2141C53.4177 18.3694 50.3947 31.4474 50.2719 31.5615C50.1573 31.6684 46.4614 31.6166 45.9767 31.6155C46.4068 30.063 46.7983 28.1331 47.1628 26.549L49.3327 17.2036C48.3376 17.2009 47.2869 17.1822 46.2968 17.2193C46.2471 18.1547 46.1052 18.8272 45.8681 19.7316C44.5076 19.7209 43.1471 19.7198 41.7866 19.7284L41.9788 19.0116C42.0592 18.6101 42.1822 18.1236 42.1548 17.7185C42.0779 16.6166 40.5527 16.6507 40.0303 17.3822C39.5386 18.0706 39.3996 19.0903 39.4965 19.9164C39.8093 20.4401 40.436 20.8481 40.9119 21.224C42.0279 22.1052 43.5792 23.0889 44.3751 24.2739C45.0065 25.214 44.7132 26.6386 44.4639 27.6726C44.1335 29.0428 43.6022 30.3217 42.3502 31.0846C41.1511 31.8301 39.7192 31.918 38.3328 31.9185C36.6952 31.9191 34.3136 31.6725 33.3695 30.104C32.5936 28.815 33.1463 26.9554 33.4913 25.5902C34.7327 25.5671 36.5729 25.6634 37.7644 25.556C37.5971 26.1884 37.192 27.5729 37.3096 28.1575C37.3603 28.4217 37.5174 28.6535 37.7441 28.7985C38.4184 29.2363 39.4306 28.9132 39.8142 28.2511C40.1264 27.7121 40.5206 26.3987 40.2108 25.8499C39.2126 24.0809 35.8206 23.057 35.308 21.005C34.9357 19.5142 35.8075 16.865 36.6014 15.5811C37.494 14.1749 38.4178 14.2 39.794 13.8943Z" fill="#EDEFF7"/>
<path d="M62.5122 14.2279C65.2476 13.9268 67.6949 15.6041 66.8368 18.6339C66.2775 20.6069 64.2363 21.8278 62.5378 22.746C62.7428 23.149 62.909 23.6583 63.1522 24.1215C63.5295 24.8407 63.9207 25.4801 64.332 26.177C65.1369 24.9256 65.3302 23.9286 65.5926 22.4907C66.7392 22.4981 67.9554 22.516 69.0955 22.4727C68.61 24.7082 68.0161 26.7785 66.2555 28.3815C67.1188 28.9739 67.6753 29.1256 68.7169 29.0952C68.5451 29.6431 68.3873 30.2607 68.2332 30.8191C68.1791 31.0919 67.9914 31.6748 67.9078 31.9656C67.8859 31.968 67.8639 31.9702 67.842 31.9719C66.2009 32.1098 64.5739 31.8164 63.2946 30.7304C62.7344 30.948 62.2465 31.2129 61.6643 31.4237C60.1447 31.9596 58.4877 32.019 56.9414 31.587C54.3582 30.8654 53.2788 28.4714 54.0314 25.9658C54.6486 23.9093 56.4531 22.7638 58.2562 21.8032C57.525 19.0118 57.7244 15.6849 60.8109 14.5809C61.4225 14.362 61.8655 14.3008 62.5122 14.2279ZM60.1447 28.8701C60.6465 28.7973 60.9425 28.741 61.4178 28.5418C60.8767 28.04 60.098 26.5588 59.7693 25.8633C59.6712 25.6563 59.3244 24.8064 59.2156 24.7035C58.4098 25.5642 57.2127 27.1443 58.3066 28.3625C58.7123 28.814 59.5541 28.8692 60.1447 28.8701ZM61.7082 20.1924L62.1793 19.8616C62.8889 19.2677 63.5024 18.7465 63.5892 17.7483C63.6434 17.1274 63.3964 16.589 62.6928 16.6388C61.3235 17.154 61.5784 19.0261 61.7082 20.1924Z" fill="#EDEFF7"/>
<path d="M26.5275 14.1675C28.6699 14.0832 31.1756 14.1808 33.3762 14.1505C33.3091 15.8972 33.1052 17.858 32.9907 19.6209C32.7312 23.6148 32.3643 27.6378 32.1349 31.6324C30.8674 31.5631 29.1868 31.5895 27.908 31.6216C27.9942 30.5159 28.1324 28.8419 28.2809 27.7557L26.2854 27.7529C25.8844 27.7537 25.4835 27.7509 25.0826 27.7446C24.9291 28.3158 24.5089 29.2735 24.3075 29.8522C24.1901 30.1895 23.7522 31.3577 23.5928 31.6213C22.3904 31.5666 20.2338 31.5683 19.0212 31.6109C19.2334 31.2002 19.504 30.5008 19.6943 30.0534L20.9735 27.0565L24.4179 19.0343C25.0957 17.4513 25.8046 15.721 26.5275 14.1675ZM26.275 24.7224C27.0344 24.7209 27.8008 24.7141 28.5595 24.7222C28.5763 23.8546 29.3956 16.313 29.3135 16.0176C29.0939 16.5829 26.2734 24.7085 26.275 24.7224Z" fill="#EDEFF7"/>
<path d="M77.0593 14.1256L74.7423 24.1897C74.5298 25.1461 74.0363 26.7694 74.0284 27.6622C74.0261 27.8807 74.1059 28.0839 74.2595 28.2398C74.514 28.4973 74.9033 28.615 75.2586 28.6128C75.7937 28.6096 76.2442 28.3248 76.5276 27.8781C77.0416 27.0688 77.4352 24.7477 77.6607 23.7568C77.8946 22.7283 79.7261 14.386 79.9203 14.2101C80.1001 14.0471 83.6441 14.1297 84.1679 14.1359C84.0059 14.5376 83.6287 16.3215 83.5115 16.8337C82.87 20.045 81.941 23.2893 81.2729 26.5045C80.9517 27.9432 80.4698 29.6447 79.2938 30.633C77.227 32.3695 72.526 32.3921 70.5773 30.4782C69.4391 29.3604 69.7201 27.3217 70.024 25.9039C70.5348 23.5202 71.1352 21.0923 71.7025 18.714L72.3659 15.8851C72.441 15.5553 72.6801 14.2872 72.8482 14.1296C74.1703 14.0889 75.7222 14.1271 77.0593 14.1256Z" fill="#EDEFF7"/>
<path d="M12.5346 7.45166C13.1496 7.49423 13.9175 7.47671 14.5431 7.47701L17.7918 7.47775L27.5432 7.46761C26.8971 9.05768 26.0883 10.9077 25.3781 12.4706C23.0168 12.4251 20.3915 12.543 18.0811 12.4386C17.7049 13.8724 17.2046 15.8012 16.7508 17.1896C18.9342 17.1754 21.1176 17.1745 23.301 17.1869C22.779 18.552 21.9729 20.3942 21.3595 21.7244C20.8894 21.7197 16.4127 21.6805 16.3142 21.747C15.4445 25.0589 14.3429 28.4286 13.5027 31.7242L7.92432 31.7329C8.06914 31.3368 8.20178 30.4985 8.40469 30.2565C8.73276 30.0946 10.4759 30.1705 11.0114 30.1504C11.0807 29.8527 11.4253 29.0975 11.5574 28.7916L12.7222 26.1264L14.448 22.1461C14.7932 21.348 15.1307 20.5131 15.5136 19.7361C15.1847 19.2193 12.2868 12.1446 12.2432 11.8588C12.1753 11.4139 12.4434 7.98216 12.5346 7.45166Z" fill="#EDEFF7"/>
<path d="M86.2376 14.1591C88.5211 14.1735 90.8699 14.1349 93.1446 14.164C96.534 14.2625 96.8963 16.1307 96.2292 18.9289C95.1386 23.5034 95.3631 24.6773 90.2789 24.6698C89.5356 24.6742 88.7919 24.6674 88.0486 24.6496C87.9996 25.1291 87.7307 26.1646 87.6196 26.6866C87.2171 28.0878 86.8198 30.1468 86.4776 31.6159C85.1344 31.6677 83.562 31.6 82.1829 31.6256C82.9462 27.9869 83.9168 24.0866 84.7651 20.4462L85.6844 16.4423C85.8431 15.7515 86.0308 14.8211 86.2376 14.1591ZM88.784 21.4663C89.3657 21.46 90.7042 21.5384 91.1734 21.316C91.9615 20.6789 92.1338 19.3129 92.3107 18.3513C92.5913 16.8286 90.7285 17.242 89.7854 17.2092C89.5123 18.5676 89.129 20.121 88.784 21.4663Z" fill="#EDEFF7"/>
<path d="M5.82805 9.90771C7.20367 9.98068 9.1219 9.91426 10.5579 9.91808C10.849 10.4565 11.1407 11.1884 11.3915 11.7645L12.7382 14.8716C13.3697 16.3406 14.2989 18.2794 14.8266 19.7261C13.9497 21.929 12.8909 24.1823 11.9512 26.371C11.6508 27.0708 10.8775 28.9821 10.5563 29.5171C9.03454 29.5032 7.32593 29.4668 5.81201 29.5291C6.20649 28.674 6.56188 27.7794 6.93745 26.914L10.0723 19.7191C9.85143 19.1696 9.59993 18.5921 9.35561 18.053C8.13867 15.3674 7.05294 12.5847 5.82805 9.90771Z" fill="#414554"/>
<path d="M89.7666 25.5094C90.522 25.4233 91.2064 25.962 91.2998 26.7168C91.3932 27.4717 90.8614 28.161 90.1074 28.262C89.3431 28.3645 88.6419 27.8235 88.5471 27.058C88.4519 26.2925 89 25.5967 89.7666 25.5094ZM90.9828 26.8857C90.9851 26.4133 90.6747 25.9962 90.2213 25.8632C89.768 25.7302 89.2815 25.9134 89.028 26.3123C88.775 26.7113 88.817 27.2296 89.1303 27.5831C89.5164 28.0185 90.1817 28.0609 90.62 27.6783C90.0117 27.7136 90.0514 27.5707 89.8306 27.0535C89.8315 27.349 89.8768 27.633 89.5215 27.706C89.2773 27.5685 89.2969 27.4453 89.2769 27.204C89.2932 26.8164 89.3128 26.4289 89.3357 26.0416C89.6849 26.0493 90.3226 26.0271 90.5846 26.2993C90.6462 26.3634 90.6784 26.45 90.6742 26.5386C90.6611 26.7756 90.5285 26.9071 90.3465 27.0265C90.3357 27.2141 90.5215 27.4962 90.62 27.6783C90.8488 27.4784 90.9809 27.1898 90.9828 26.8857Z" fill="#EDEFF7"/>
<path d="M89.3354 26.0417C89.6847 26.0494 90.3224 26.0272 90.5843 26.2994C90.6459 26.3635 90.6782 26.45 90.674 26.5387C90.6609 26.7757 90.5283 26.9072 90.3462 27.0266C90.3355 27.2142 90.5213 27.4963 90.6198 27.6784C90.0115 27.7137 90.0512 27.5708 89.8303 27.0536C89.8313 27.3491 89.8765 27.6331 89.5213 27.7061C89.2771 27.5686 89.2967 27.4454 89.2766 27.2041C89.293 26.8165 89.3126 26.429 89.3354 26.0417Z" fill="#EDEFF7"/>
<path d="M89.1304 27.5832C89.242 27.4771 89.1299 27.3518 89.277 27.2041C89.297 27.4454 89.2774 27.5686 89.5216 27.7061C89.8769 27.6331 89.8316 27.3491 89.8307 27.0536C90.0515 27.5708 90.0118 27.7138 90.6202 27.6784C90.1818 28.061 89.5165 28.0186 89.1304 27.5832Z" fill="#EDEFF7" fill-opacity="0.0117647"/>
</g>
<defs>
<clipPath id="clip0_3376_19368">
<rect width="91.6667" height="27.5" fill="white" transform="translate(5.41675 6.25)"/>
</clipPath>
</defs>
</svg>
