<svg width="117" height="40" viewBox="0 0 117 40" fill="none" xmlns="http://www.w3.org/2000/svg">
<g clip-path="url(#clip0_3376_19443)">
<path d="M66.7862 10.959C67.2964 10.9463 67.8151 10.9225 68.3253 10.9366C68.9587 10.954 69.3003 11.0765 69.6101 11.6421C70.0114 12.3748 70.3646 13.1195 70.7326 13.8658L72.7427 17.9474L75.3483 23.2358C75.8373 24.2267 76.4279 25.3565 76.8625 26.3521C76.7383 21.5793 76.9143 16.7178 76.8562 11.9367C76.8519 11.5536 76.8815 11.0386 77.3722 10.9994C78.6892 10.8942 80.0681 10.9597 81.3994 10.9591L86.1547 10.9513C87.0044 10.9488 88.3119 10.9075 89.1208 11.0164C89.9033 11.1172 90.6557 11.3834 91.3271 11.7973C92.6199 12.5891 93.5488 13.858 93.9126 15.3293C94.2673 16.8075 94.0204 18.3659 93.2263 19.6622C92.4459 20.9378 91.1923 21.8528 89.7394 22.207C89.9995 22.5029 90.9195 23.7522 91.0924 24.0305C91.6549 24.9376 94.9314 28.991 94.96 29.5284L94.8738 29.6096C94.4799 29.7438 92.9355 29.659 92.4554 29.6534C91.9415 29.6475 91.5265 29.1172 91.2425 28.7297C90.837 28.1749 90.4088 27.5973 89.9937 27.0314L86.5787 22.3798C85.3722 22.3958 84.1641 22.4117 82.957 22.4066C82.6308 22.4053 82.073 22.4017 81.8303 22.1461C81.6585 21.9649 81.6855 21.2147 81.6913 20.9499C81.6971 20.6976 81.7092 20.3056 81.9239 20.1328C82.5092 19.6617 87.6087 20.1748 88.9067 19.844C89.4708 19.6971 89.9874 19.4065 90.4061 19.0008C92.3761 17.0886 91.1199 13.6802 88.3806 13.4761C87.3612 13.4001 86.3128 13.4369 85.2871 13.4374L79.605 13.4429C79.6388 13.8375 79.615 14.6267 79.6155 15.0505C79.6166 19.4719 79.6203 23.8927 79.6171 28.3148C79.6166 29.7307 79.3496 29.6375 78.0558 29.6389C77.2575 29.6398 76.4527 29.6442 75.6533 29.6073C75.4043 29.2644 74.9824 28.3351 74.7894 27.9314L73.4036 25.0331C72.4572 25.0339 64.7982 25.1502 64.5032 24.9406C64.4525 24.8325 64.4905 24.6049 64.5566 24.5118C64.9526 23.9519 65.0859 22.6898 65.9138 22.6809C68.0223 22.6581 70.16 22.622 72.268 22.6703C72.0818 22.3075 71.8915 21.8955 71.7255 21.5201C70.4814 18.7002 69.0211 15.909 67.8251 13.0751C67.6676 13.5261 66.8338 15.1518 66.5943 15.6448L63.9385 21.1016L61.2643 26.6026C60.9079 27.3382 60.1535 28.9934 59.75 29.6031C59.0141 29.669 58.203 29.618 57.4597 29.6446C57.1766 29.6547 56.6928 29.6228 56.4595 29.4632C56.3607 29.3956 56.3134 28.7734 56.3044 28.6405C56.2829 24.9781 56.2858 21.3143 56.2984 17.6518C56.2992 17.5637 56.3229 17.2592 56.3704 17.194C56.6563 16.8014 58.4055 14.5519 58.7661 14.5701C58.8364 14.7219 58.8671 14.9372 58.8666 15.1043C58.8629 17.8084 58.8697 20.5127 58.8755 23.2168C58.8777 24.1607 58.8999 25.1434 58.847 26.0841C59.3641 25.2302 60.2539 23.2764 60.7224 22.325L64.3309 14.9938C64.8966 13.8363 65.4882 12.5359 66.1332 11.4275C66.2644 11.2027 66.5536 11.06 66.7862 10.959Z" fill="#EDEFF7"/>
<path d="M20.0232 7.32799C20.05 7.32504 20.0768 7.3224 20.1037 7.32005C23.4063 7.02759 26.9371 8.3047 29.4633 10.4173C31.35 12.005 32.7551 14.0884 33.5201 16.4323C33.9805 17.8096 34.4261 18.7693 32.5858 18.6488C32.0339 18.6126 31.8713 18.79 31.6953 18.0518C31.1598 15.8058 30.0108 13.8104 28.2678 12.2788C26.0825 10.3232 23.204 9.32544 20.2768 9.50896C17.3212 9.68323 14.5608 11.0418 12.6202 13.2772C10.3008 15.9222 9.74043 18.6954 9.96119 22.095L13.0824 19.3444C14.9171 17.7304 16.3959 16.2403 19.1029 16.8994C19.8412 17.0791 20.3084 17.318 20.971 17.6917C22.1116 16.9952 23.3119 16.6303 24.6574 16.7884C26.3254 16.9845 27.499 18.1378 28.6885 19.2048C29.5434 19.9729 30.3932 20.7465 31.238 21.5255C31.7708 22.0151 33.2992 23.3674 33.6916 23.8783C33.6745 24.0699 33.6213 24.3232 33.5691 24.5092C32.6162 27.9092 30.2584 30.4382 27.2633 32.1684C27.0361 32.2861 26.8077 32.4013 26.5779 32.5139C26.2672 32.6645 25.4151 33.0585 25.0921 33.0775C23.8536 33.1506 22.5188 33.1059 21.2687 33.1105C19.8535 33.1157 18.4499 33.1158 17.0376 33.0996C16.8266 33.0972 16.4986 33.0004 16.2969 32.9256C14.5317 32.2716 12.8883 31.1767 11.5535 29.8541C11.3597 29.6685 10.9073 29.2061 10.8142 28.976C10.6367 28.5368 11.6678 27.7555 11.989 27.5257C12.0324 27.4946 12.2414 27.4806 12.2656 27.5023C12.8769 28.0532 13.4126 28.6451 14.0578 29.1647C14.9868 29.9269 16.0406 30.5228 17.1726 30.9261C19.9707 31.9262 23.0495 31.7897 25.7481 30.546C28.6789 29.1736 30.3415 27.053 31.4162 24.0774C30.2973 23.0094 29.1619 21.9588 28.0103 20.926C26.1798 19.2813 24.6623 17.496 22.0709 19.189C21.0718 19.8417 21.0464 19.7852 20.0938 19.2442C18.0187 18.0655 16.9331 18.2964 15.1667 19.8384C14.5825 20.3513 14.0028 20.8693 13.4277 21.3923C12.7168 22.0368 9.39286 25.3029 8.87903 25.3956C7.69055 25.1273 7.96853 20.6943 7.92321 19.8064C7.77728 16.9473 8.88977 14.4186 10.6875 12.1765C13.05 9.23021 16.2668 7.70851 20.0232 7.32799Z" fill="#EDEFF7"/>
<path d="M99.0465 10.974C99.0698 10.9695 99.1073 10.9614 99.1306 10.9612C101.277 10.92 103.377 10.996 105.53 10.9486C108.122 10.8916 110.703 12.6018 111.065 15.2859C111.089 15.465 111.082 15.7947 110.961 15.9401C110.719 16.1018 108.95 16.1006 108.905 15.9748C108.191 13.9804 107.765 13.4458 105.603 13.4393L101.314 13.4389C100.567 13.4391 99.3489 13.3674 98.6489 13.527C96.0799 14.1123 96.0772 17.9754 98.6235 18.6207C99.24 18.7769 100.046 18.7143 100.692 18.7122L104.109 18.7017C106.292 18.6957 108.066 18.5476 109.8 20.211C110.718 21.0923 111.273 22.112 111.292 23.4054C111.32 25.346 111.426 26.4672 109.951 27.9585C108.737 29.1859 107.403 29.6196 105.714 29.6295L101.131 29.6335C100.268 29.6342 98.9603 29.6827 98.1604 29.5175C97.3583 29.345 96.6001 29.0107 95.9313 28.535C94.8284 27.7555 93.9893 26.5113 93.7651 25.1712C93.6832 24.8398 93.717 24.2335 94.1675 24.2455C94.3594 24.2462 96.0756 24.1674 96.119 24.2823C96.5716 25.5081 97.0892 27.0307 98.6737 27.0863C101.218 27.1078 104.051 27.242 106.572 27.093C109.325 26.6136 109.753 22.5558 107.08 21.5922C106.361 21.3329 105.45 21.4016 104.685 21.4031L101.236 21.4118C100.375 21.4141 99.2041 21.458 98.3898 21.2878C97.6285 21.1236 96.9137 20.7894 96.2993 20.3099C95.2043 19.462 94.4979 18.2089 94.3388 16.8337C93.9576 13.7926 96.045 11.3386 99.0465 10.974Z" fill="#EDEFF7"/>
<path d="M38.6866 10.9586C39.1674 10.9433 40.2276 10.8358 40.5657 11.1851C41.4296 12.0777 42.2297 13.0753 43.0365 14.0262L48.5265 20.485C48.7576 20.1513 49.2444 19.5981 49.5231 19.2612L51.4726 16.9067L54.5836 13.1528C55.0081 12.641 56.0759 11.2764 56.5194 10.9609C56.9318 10.9346 58.6394 10.8608 58.8832 11.1038C58.889 11.2651 58.7996 11.4348 58.7008 11.5563C57.8161 12.6451 56.8891 13.737 55.9901 14.8127L50.5798 21.2806C50.0679 21.9067 49.5617 22.5856 48.9715 23.1371C48.6966 23.3938 48.2629 23.3762 47.9981 23.1027C47.5947 22.6858 47.2245 22.2362 46.8462 21.7953L44.8569 19.4827L42.1333 16.3336C41.6546 15.7794 41.0119 15.0723 40.5808 14.4988C40.638 15.3682 40.5902 16.7455 40.59 17.67L40.5862 23.9674L40.5863 27.1611C40.5896 27.6096 40.731 29.1595 40.3553 29.463C40.0701 29.6934 39.2158 29.6893 38.8732 29.6231C38.4228 29.536 38.187 29.333 38.2294 28.853C38.2197 24.5567 38.2226 20.2604 38.2235 15.9642L38.2246 12.8917C38.2248 12.435 38.2103 11.8693 38.258 11.4156C38.2791 11.2152 38.5238 11.0617 38.6866 10.9586Z" fill="#EDEFF7"/>
<path d="M13.1933 24.1243C13.9056 24.0944 15.4524 23.9939 16.0865 24.3214C16.7999 24.6899 16.5118 25.7534 15.6803 25.9552C15.5673 25.9602 15.3983 25.9712 15.2807 25.9641C14.4123 25.9112 11.9117 26.3887 12.4482 24.7196C12.5649 24.3568 12.8418 24.2137 13.1933 24.1243Z" fill="#EDEFF7"/>
<path d="M18.0339 24.1284C18.3958 24.0984 18.7573 24.0687 19.0829 24.249C19.9118 24.7081 19.7633 25.6936 18.8577 25.9541C18.4648 25.9881 18.1846 25.9606 17.8019 25.8954C17.0666 25.2733 17.1182 24.5009 18.0339 24.1284Z" fill="#EDEFF7"/>
</g>
<defs>
<clipPath id="clip0_3376_19443">
<rect width="105.417" height="27.5" fill="white" transform="translate(6.04175 6.25)"/>
</clipPath>
</defs>
</svg>
