<svg width="135" height="40" viewBox="0 0 135 40" fill="none" xmlns="http://www.w3.org/2000/svg">
<g clip-path="url(#clip0_3376_19364)">
<path d="M42.0448 17.5188H43.9019V24.4331C43.9019 27.0045 44.6019 28.9474 45.9734 30.2045C47.3305 31.4617 49.2876 32.1045 51.7734 32.1045H52.4019C52.7162 32.1045 52.9734 31.8474 52.9734 31.5331V29.6617C52.9734 29.3474 52.7162 29.0902 52.4019 29.0902H51.7734C50.8591 29.0902 50.0734 28.9331 49.4448 28.6331C48.8448 28.3331 48.3876 27.8759 48.0591 27.2331C47.7162 26.5617 47.5448 25.6331 47.5448 24.5045V17.5474H51.1162C51.4305 17.5474 51.6876 17.2902 51.6876 16.9759V15.0474C51.6876 14.7331 51.4305 14.4759 51.1162 14.4759H47.5448V8.61881C47.5448 8.30452 47.2876 8.04738 46.9734 8.04738H44.4876C44.1734 8.04738 43.9162 8.30452 43.9162 8.61881V14.4759H42.0591C41.7448 14.4759 41.4876 14.7331 41.4876 15.0474V16.9759C41.4876 17.2902 41.7448 17.5474 42.0591 17.5474L42.0448 17.5188ZM115.745 17.5188H113.259C112.945 17.5188 112.688 17.7617 112.688 18.0617V31.3188C112.688 31.6188 112.945 31.8617 113.259 31.8617H115.745C116.059 31.8617 116.316 31.6188 116.316 31.3188V18.0617C116.314 17.9885 116.298 17.9164 116.268 17.8495C116.239 17.7826 116.196 17.7222 116.143 17.6718C116.09 17.6214 116.027 17.582 115.959 17.5557C115.891 17.5294 115.818 17.5169 115.745 17.5188ZM123.031 30.2045C124.388 31.4617 126.345 32.1045 128.83 32.1045H129.459C129.773 32.1045 130.031 31.8474 130.031 31.5331V29.6617C130.031 29.3474 129.773 29.0902 129.459 29.0902H128.83C127.916 29.0902 127.131 28.9331 126.502 28.6188C125.902 28.3188 125.445 27.8617 125.116 27.2188C124.773 26.5474 124.602 25.6188 124.602 24.4902V17.5331H128.173C128.488 17.5331 128.745 17.2759 128.745 16.9617V15.0331C128.745 14.7188 128.488 14.4617 128.173 14.4617H124.602V8.60452C124.602 8.29023 124.345 8.03309 124.03 8.03309H121.545C121.23 8.03309 120.973 8.29023 120.973 8.60452V14.4617H119.116C118.802 14.4617 118.545 14.7188 118.545 15.0331V16.9617C118.545 17.2759 118.802 17.5331 119.116 17.5331H120.973V24.4474C120.973 27.0188 121.673 28.9617 123.045 30.2188L123.031 30.2045ZM112.988 12.4331C112.988 12.4331 113.116 12.4331 113.173 12.4474C112.488 12.8902 111.959 13.2617 111.616 13.5474C111.131 13.9474 110.959 14.2902 111.131 14.6045C111.245 14.8045 111.502 15.0045 111.902 15.2045L113.002 15.7759C113.102 15.8331 113.216 15.8331 113.316 15.7902L113.388 15.7617C113.502 15.7188 113.588 15.6188 113.616 15.4902C113.802 14.7474 113.973 14.1331 114.13 13.6331C114.159 13.5474 114.188 13.4759 114.216 13.3902C114.359 13.9617 114.488 14.4045 114.602 14.7045C114.773 15.1902 114.931 15.5188 115.088 15.6902C115.373 16.0188 115.745 15.9759 116.216 15.5759L117.331 14.4759C117.331 14.4759 117.431 14.3188 117.431 14.2188V14.1474C117.431 14.0331 117.359 13.9331 117.273 13.8759C116.788 13.5759 116.33 13.2617 115.888 12.9331L115.288 12.4617C115.531 12.4759 115.759 12.4902 115.959 12.5045C116.416 12.5188 116.802 12.5331 117.088 12.5045C117.388 12.5045 117.602 12.4617 117.745 12.3902C117.888 12.3331 118.002 12.2617 118.059 12.1759C118.23 11.9474 118.173 11.5474 117.888 11.0045L117.316 9.89023C117.294 9.84013 117.261 9.7959 117.219 9.76114C117.177 9.72639 117.127 9.70209 117.073 9.69023H117.002C116.888 9.63309 116.759 9.66166 116.659 9.74738C116.259 10.0759 115.845 10.4045 115.416 10.7474C115.259 10.8759 115.102 10.9902 114.945 11.0902C115.216 10.2759 115.402 9.63309 115.502 9.19023C115.645 8.59023 115.545 8.21881 115.216 8.09023C115.002 8.00452 114.673 8.00452 114.245 8.09023L113.002 8.34738C112.957 8.35535 112.914 8.37368 112.876 8.40093C112.839 8.42818 112.809 8.46363 112.788 8.50452L112.745 8.57595C112.688 8.67595 112.688 8.79023 112.745 8.89023C113.045 9.50452 113.273 10.0331 113.445 10.4759C113.516 10.6474 113.573 10.8331 113.631 11.0331C113.302 10.7474 113.016 10.5045 112.759 10.3045C112.302 9.94738 111.93 9.71881 111.63 9.64738C111.23 9.54738 110.945 9.79023 110.802 10.4045L110.73 10.7045L110.502 11.9474C110.488 12.0331 110.502 12.1331 110.573 12.1902L110.659 12.2902C110.716 12.3617 110.816 12.4045 110.902 12.4045C111.802 12.3617 112.502 12.3617 113.002 12.4045L112.988 12.4331ZM21.4591 16.0188C20.9448 14.9759 20.1591 14.1617 19.1305 13.6045C18.1162 13.0474 16.8448 12.7617 15.3448 12.7617C13.8448 12.7617 12.6162 13.1188 11.5162 13.8331V13.6045C11.5162 13.2902 11.2448 13.0474 10.9305 13.0474H8.63051C8.31622 13.0474 8.05908 13.3045 8.05908 13.6188V31.3045C8.05908 31.6188 8.31622 31.876 8.63051 31.876H11.1162C11.4305 31.876 11.6877 31.6188 11.6877 31.3045V19.2474C11.6877 17.4188 13.1734 15.9331 15.0019 15.9331H15.3877C16.7877 15.9902 17.9734 16.9331 18.3877 18.2045C18.4877 18.5331 18.5448 18.8759 18.5448 19.2331V31.2902C18.5448 31.6045 18.8019 31.8617 19.1162 31.8617H21.6305C21.9448 31.8617 22.2019 31.6045 22.2019 31.2902V19.6045C22.2019 18.2474 21.9448 17.0331 21.4448 16.0331L21.4591 16.0188ZM74.0591 14.5759C72.8734 13.3617 71.1591 12.7617 68.9876 12.7617C67.6162 12.7617 66.3876 13.0902 65.3019 13.7331V8.56166C65.3019 8.24738 65.0448 7.99023 64.7305 7.99023H62.2448C61.9305 7.99023 61.6734 8.24738 61.6734 8.56166V31.2759C61.6734 31.5902 61.9305 31.8474 62.2448 31.8474H64.7305C65.0448 31.8474 65.3019 31.5902 65.3019 31.2759V20.0188L65.3305 19.2188C65.3305 17.7045 66.3448 16.4331 67.7448 16.0331C68.0305 15.9474 68.3305 15.9045 68.6448 15.9045H68.8876C69.7642 15.9083 70.6035 16.2591 71.222 16.8803C71.8404 17.5014 72.1877 18.3423 72.1876 19.2188V31.3617C72.2305 31.6331 72.4734 31.8474 72.7591 31.8474H75.2734C75.5876 31.8474 75.8448 31.5902 75.8448 31.2759V19.5902C75.8448 17.4617 75.2448 15.7759 74.0591 14.5759ZM108.616 15.2188C107.345 13.6045 105.473 12.7902 103.045 12.7902C101.573 12.7902 100.316 13.0759 99.2876 13.6331V8.56166C99.2876 8.24738 99.0305 7.99023 98.7162 7.99023H96.2162C95.9019 7.99023 95.6448 8.24738 95.6448 8.56166V31.2759C95.6448 31.5902 95.9019 31.8474 96.2162 31.8474H98.5162C98.8305 31.8474 99.0876 31.6045 99.0876 31.2902V31.1331C100.159 31.7759 101.473 32.1045 103.031 32.1045C105.473 32.1045 107.345 31.3045 108.602 29.7331C109.831 28.2045 110.459 25.7474 110.459 22.4474C110.459 19.1474 109.831 16.7759 108.602 15.2045L108.616 15.2188ZM100.316 16.8617C100.859 16.1617 101.745 15.8188 103.002 15.8188C104.245 15.8188 105.116 16.1617 105.673 16.8617C105.888 17.1331 106.073 17.4902 106.23 17.9188C106.488 18.6902 106.702 20.0331 106.702 22.3759V22.5617C106.702 24.7474 106.502 26.0617 106.273 26.8617C106.116 27.3617 105.916 27.7617 105.673 28.0617C105.116 28.7617 104.245 29.1045 103.002 29.1045C101.745 29.1045 100.859 28.7617 100.316 28.0617C100.259 27.9902 100.216 27.9188 100.159 27.8474C100.13 27.8077 100.106 27.7645 100.088 27.7188C100.088 27.7188 100.088 27.6902 100.059 27.6759C99.7162 27.1045 99.3019 25.7331 99.3019 22.4759C99.3019 19.2188 99.7162 17.8474 100.059 17.2759C100.059 17.2759 100.073 17.2474 100.088 17.2331L100.173 17.0617C100.173 17.0617 100.173 17.0474 100.188 17.0331C100.188 17.0331 100.188 17.0188 100.202 17.0045L100.302 16.8617H100.316ZM38.6877 13.0331H36.4019C36.2528 13.033 36.1096 13.0913 36.0028 13.1954C35.8961 13.2995 35.8342 13.4412 35.8305 13.5902V13.7617C34.7591 13.1188 33.4305 12.7902 31.8591 12.7902C29.4305 12.7902 27.5591 13.6045 26.2877 15.2188C25.0591 16.7902 24.4305 19.2188 24.4305 22.4617C24.4305 25.7045 25.0305 28.1902 26.2877 29.7474C27.5448 31.3188 29.4162 32.1188 31.8591 32.1188C33.4305 32.1188 34.7591 31.7902 35.8162 31.1331V31.3045C35.8305 31.6188 36.0877 31.8617 36.4019 31.8617H38.6877C39.0019 31.8617 39.2591 31.6045 39.2591 31.2902V13.6045C39.2591 13.2902 39.0019 13.0331 38.6877 13.0331ZM32.3734 15.8331C32.4591 15.8331 32.5305 15.8474 32.6162 15.8617C32.6734 15.8617 32.7305 15.8617 32.7877 15.8759C32.8734 15.8759 32.9448 15.9045 33.0305 15.9331C33.0734 15.9331 33.1305 15.9474 33.1734 15.9617C33.2591 15.9902 33.3305 16.0045 33.4019 16.0331C33.4448 16.0331 33.4734 16.0617 33.5162 16.0759C33.6019 16.1045 33.6876 16.1474 33.7591 16.1902C33.7876 16.1902 33.8019 16.2045 33.8305 16.2188C33.9305 16.2759 34.0162 16.3331 34.1162 16.3902C34.3019 16.5188 34.4591 16.6759 34.5876 16.8474C34.6305 16.9045 34.6877 16.9759 34.7305 17.0474C34.7305 17.0617 34.7448 17.0759 34.7591 17.0902C34.8448 17.2331 34.9305 17.3902 35.0019 17.5617C35.0019 17.5759 35.0162 17.6045 35.0305 17.6188C35.0734 17.7188 35.1162 17.8331 35.1448 17.9331C35.3877 18.7188 35.6019 20.0474 35.6019 22.3474V22.5331C35.6019 24.7188 35.4019 26.0331 35.1734 26.8331C35.1019 27.0617 35.0162 27.2759 34.9162 27.4617C34.9162 27.476 34.9019 27.4902 34.8877 27.5045C34.8734 27.5331 34.8591 27.5617 34.8305 27.6045C34.8305 27.6331 34.8019 27.6474 34.7877 27.6759C34.7734 27.7045 34.7591 27.7331 34.7448 27.7474C34.7305 27.7759 34.7019 27.8045 34.6877 27.8331C34.6877 27.8474 34.6591 27.8759 34.6448 27.8902L34.5591 28.0188C34.0019 28.7188 33.1305 29.0617 31.8876 29.0617C30.6305 29.0617 29.7448 28.7188 29.2019 28.0188C29.1448 27.9474 29.1019 27.8759 29.0448 27.8045C29.0156 27.7649 28.9916 27.7217 28.9734 27.6759C28.9734 27.6759 28.9734 27.6474 28.9448 27.6331C28.9019 27.5617 28.8591 27.4617 28.8019 27.3617C28.5448 26.7902 28.3019 25.7617 28.2162 23.8759C28.2019 23.4474 28.1877 22.9617 28.1877 22.4331C28.1877 19.9759 28.4162 18.6045 28.6877 17.8331C28.7734 17.5759 28.8591 17.3902 28.9591 17.2474C28.9591 17.2474 28.9734 17.2188 28.9876 17.2045L29.0734 17.0331C29.0734 17.0331 29.0734 17.0188 29.0877 17.0045V16.9902L29.1877 16.8474C29.7305 16.1474 30.6162 15.8045 31.8734 15.8045H32.3162L32.3734 15.8331ZM92.3162 13.0331H90.0305C89.8814 13.033 89.7382 13.0913 89.6314 13.1954C89.5246 13.2995 89.4628 13.4412 89.4591 13.5902V13.7617C88.3876 13.1188 87.0591 12.7902 85.4876 12.7902C83.0591 12.7902 81.1876 13.6045 79.9162 15.2188C78.6876 16.7902 78.0591 19.2188 78.0591 22.4617C78.0591 25.7045 78.6591 28.1902 79.9162 29.7474C81.1734 31.3188 83.0448 32.1188 85.4876 32.1188C87.0591 32.1188 88.3876 31.7902 89.4448 31.1331V31.3045C89.4591 31.6188 89.7162 31.8617 90.0305 31.8617H92.3162C92.6305 31.8617 92.8876 31.6045 92.8876 31.2902V13.6045C92.8876 13.2902 92.6305 13.0331 92.3162 13.0331ZM86.0019 15.8331C86.0876 15.8331 86.1591 15.8474 86.2448 15.8617C86.3019 15.8617 86.3591 15.8617 86.4162 15.8759C86.5019 15.8759 86.5734 15.9045 86.6591 15.9331C86.7019 15.9331 86.7591 15.9474 86.8019 15.9617C86.8876 15.9902 86.9591 16.0045 87.0305 16.0331C87.0734 16.0331 87.1019 16.0617 87.1448 16.0759C87.2305 16.1045 87.3162 16.1474 87.3876 16.1902C87.4162 16.1902 87.4305 16.2045 87.4591 16.2188C87.5591 16.2759 87.6448 16.3331 87.7448 16.3902C87.9305 16.5188 88.0876 16.6759 88.2162 16.8474C88.2591 16.9045 88.3162 16.9759 88.3591 17.0474C88.3591 17.0617 88.3734 17.0759 88.3876 17.0902C88.4734 17.2331 88.5591 17.3902 88.6305 17.5617C88.6305 17.5759 88.6448 17.6045 88.6591 17.6188C88.7019 17.7188 88.7448 17.8331 88.7734 17.9331C89.0162 18.7188 89.2305 20.0474 89.2305 22.3474V22.5331C89.2305 24.7188 89.0305 26.0331 88.8019 26.8331C88.7305 27.0617 88.6448 27.2759 88.5448 27.4617C88.5448 27.476 88.5305 27.4902 88.5162 27.5045C88.5019 27.5331 88.4876 27.5617 88.4591 27.6045C88.4591 27.6331 88.4305 27.6474 88.4162 27.6759C88.4019 27.7045 88.3876 27.7331 88.3734 27.7474C88.3591 27.7759 88.3305 27.8045 88.3162 27.8331C88.3162 27.8474 88.2876 27.8759 88.2734 27.8902L88.1876 28.0188C87.6305 28.7188 86.7591 29.0617 85.5162 29.0617C84.2591 29.0617 83.3734 28.7188 82.8305 28.0188C82.7734 27.9474 82.7305 27.8759 82.6734 27.8045C82.6442 27.7649 82.6202 27.7217 82.6019 27.6759C82.6019 27.6759 82.6019 27.6474 82.5734 27.6331C82.5305 27.5617 82.4876 27.4617 82.4305 27.3617C82.1734 26.7902 81.9305 25.7617 81.8448 23.8759C81.8305 23.4474 81.8162 22.9617 81.8162 22.4331C81.8162 19.9759 82.0448 18.6045 82.3162 17.8331C82.4019 17.5759 82.4876 17.3902 82.5876 17.2474C82.5876 17.2474 82.6019 17.2188 82.6162 17.2045L82.7019 17.0331C82.7019 17.0331 82.7019 17.0188 82.7162 17.0045V16.9902L82.8162 16.8474C83.3591 16.1474 84.2448 15.8045 85.5019 15.8045H85.9448L86.0019 15.8331Z" fill="#EDEFF7"/>
</g>
<defs>
<clipPath id="clip0_3376_19364">
<rect width="125" height="25" fill="white" transform="translate(5 7.5)"/>
</clipPath>
</defs>
</svg>
