<svg width="112" height="40" viewBox="0 0 112 40" fill="none" xmlns="http://www.w3.org/2000/svg">
<g clip-path="url(#clip0_3376_19529)">
<path d="M76.0447 7.77428C76.4842 7.74439 77.211 7.77948 77.6757 7.78355C78.6853 7.79204 79.6954 7.79 80.7055 7.77742C81.0297 7.77305 81.9703 7.70733 82.1837 7.9252C82.2798 8.02322 82.3374 8.18681 82.335 8.32707C82.3167 9.20217 82.3128 10.0823 82.3118 10.9566L82.3128 17.2031L82.4251 32.8969C81.8112 32.9891 80.4626 32.9525 79.7767 32.9503C78.5251 32.9464 77.2416 32.9702 75.995 32.9492C75.8639 32.3409 75.8117 31.9822 75.7919 31.3766C75.3056 31.6509 74.9016 31.9581 74.4921 32.3302C73.5554 33.1813 71.3701 33.4218 70.1309 33.2849C68.8902 33.1092 67.9944 33.0267 66.8695 32.1937C61.6411 28.3214 62.2309 16.6178 69.0016 14.6441C69.1553 14.5993 69.2775 14.5745 69.4337 14.5079C70.8385 13.9085 72.6872 14.264 74.1157 14.6647C74.5246 14.7794 75.0065 15.4347 75.5278 15.3562C75.5599 15.3328 75.5988 15.3047 75.6441 15.2719C75.6801 14.9677 75.6426 14.6413 75.6264 14.3378C75.5185 12.268 75.6993 10.1914 75.5283 8.12376C75.5229 8.05467 75.5475 7.99624 75.582 7.93758C75.7008 7.80976 75.8708 7.80333 76.0447 7.77428ZM71.4633 27.8603C71.6411 27.97 71.8343 28.2641 72.0861 28.3905C72.5906 28.6438 73.4598 28.6861 73.9777 28.4934C74.5241 28.2904 75.1548 27.8054 75.379 27.2457C75.4978 26.9507 75.7678 26.3317 75.7984 25.9781C75.9319 24.4258 76.0221 22.1542 75.62 20.645C75.4677 20.0729 74.977 19.4675 74.4532 19.2461C73.8225 18.9715 72.8212 18.9624 72.1832 19.184C71.2622 19.5039 70.5517 20.9331 70.4197 21.8321C70.2112 23.2509 70.2231 24.9136 70.5246 26.3183C70.5586 26.4772 70.9538 27.1722 71.0558 27.4347C71.1755 27.5663 71.3317 27.7486 71.4633 27.8603Z" fill="#EDEFF7"/>
<path d="M71.4629 27.8602C71.354 28.0424 71.186 28.0967 70.9899 28.0495C70.7721 27.8189 70.8293 27.6296 71.0554 27.4347C71.1752 27.5662 71.3314 27.7486 71.4629 27.8602Z" fill="#EDEFF7"/>
<path d="M91.3405 14.2564C92.3068 14.2796 93.2602 14.1881 94.2398 14.2489C94.5719 14.2631 95.1025 14.2657 95.413 14.3373C97.2617 14.7638 98.9513 15.7032 100.213 17.1365C100.748 17.8122 101.208 18.6201 101.616 19.3799C101.757 19.6436 101.797 20.2484 101.867 20.5493C102.167 21.8533 102.103 23.2653 102.325 24.5582C102.126 24.8319 101.984 25.0117 101.713 25.2217C100.509 25.0673 90.9315 25.0071 90.4556 25.332C90.3092 25.6922 90.4915 26.7476 90.6458 27.1155C91.2503 28.558 92.8872 29.1239 94.3038 28.5793C94.7571 28.405 95.3297 27.4708 95.7579 27.0709C96.3033 27.1906 96.6621 27.2214 97.2243 27.2098C98.5192 27.1831 99.8215 27.2095 101.114 27.1677C101.401 27.1584 101.625 27.0794 101.851 27.2776C101.961 27.5023 101.916 27.7645 101.822 27.9935C100.934 30.1835 99.3844 31.6998 97.2686 32.7191C96.6147 33.0342 96.4788 32.889 95.8618 33.017C93.885 33.4271 90.9626 33.4242 89.0478 32.7469C87.0715 32.0574 85.4479 30.6134 84.5319 28.7303C84.4378 28.533 84.1776 28.0194 84.1904 27.8267C83.2996 26.6534 83.6154 22.6466 83.7356 21.1328C83.7524 20.9203 84.0904 20.1108 84.1904 19.8614C84.0919 19.4624 85.5317 17.3986 85.8958 17.0104C86.97 15.8655 88.2703 15.0173 89.8007 14.6477C90.3979 14.5034 90.6453 14.2932 91.3405 14.2564ZM93.4741 21.6166C95.0296 21.6199 96.0757 21.8535 95.1351 19.8861C95.0395 19.6864 94.9946 19.5205 94.9439 19.3075C94.1654 18.5374 93.4815 18.4435 92.4423 18.5173C91.1114 18.7624 90.4531 20.2427 90.4245 21.4759C91.1331 21.7153 92.6443 21.6231 93.4741 21.6166Z" fill="#EDEFF7"/>
<path d="M84.1904 27.8268C83.2996 26.6534 83.6154 22.6467 83.7356 21.1329C83.7524 20.9204 84.0904 20.1109 84.1904 19.8615C84.2683 21.258 84.1668 23.088 84.1944 24.5435C84.2072 25.2344 84.2427 27.2739 84.1904 27.8268Z" fill="#EDEFF7"/>
<path d="M37.7644 27.0967C39.2898 27.3759 41.2407 27.1283 42.8126 27.1988C43.0892 27.2113 43.8854 26.7239 43.904 27.5154C43.9319 28.7097 42.9244 29.8336 42.2041 30.6995C41.3214 31.6193 39.6175 32.716 38.3582 32.9888C36.8833 33.3083 35.0317 33.4172 33.537 33.2265C31.9776 33.1174 30.9792 32.8342 29.6407 32.038C27.4113 30.7118 26.2291 28.4812 25.7444 25.989C25.6791 25.6536 25.7021 25.1474 25.673 24.779C25.303 20.0948 27.464 15.3551 32.4967 14.5388C33.2284 14.4192 33.6994 14.244 34.5116 14.2153C36.3066 14.142 38.0944 14.4845 39.7354 15.2161C40.7518 15.6641 40.9385 15.8396 41.7528 16.5974C42.0177 16.8553 42.6262 17.5484 42.7855 17.8701C43.8449 19.1942 43.9783 21.0203 44.1509 22.6506C44.2231 23.3329 44.1979 23.9182 44.3551 24.6073C44.1298 24.8076 43.7667 25.0491 43.5124 25.2289C42.2541 25.1339 33.0571 24.9765 32.5878 25.2108C32.0626 25.8461 33.04 27.8037 33.5779 28.2854C34.17 28.8158 34.8935 28.7552 35.6177 28.7555C36.7183 28.7561 37.1022 27.8451 37.7644 27.0967ZM35.3932 21.6155C35.9653 21.6056 36.9287 21.5903 37.4922 21.5354C37.4822 19.9372 36.961 18.463 35.0939 18.4976C34.8859 18.503 34.678 18.5114 34.4702 18.5229C33.4782 18.6761 32.0068 20.6378 32.5948 21.4963C32.7468 21.7182 34.8575 21.6144 35.3932 21.6155Z" fill="#EDEFF7"/>
<path d="M33.0517 19.7122C33.2129 19.848 33.1889 20.0109 33.1318 20.1798C32.91 20.0015 32.975 19.9642 33.0517 19.7122Z" fill="#EDEFF7" fill-opacity="0.0117647"/>
<path d="M13.6596 16.4797C14.3971 16.1573 14.7098 15.7781 15.2846 15.2829C15.8822 14.7679 17.3234 14.4257 18.1189 14.2737C19.4176 14.0257 21.2683 14.4288 22.385 15.2188C23.7241 16.1659 24.4604 17.4936 24.7889 19.0734C24.8961 19.5895 24.8721 21.072 24.8708 21.6321L24.8703 24.6975C24.8711 25.38 24.8236 25.9973 24.9404 26.674C24.911 26.8768 24.9037 27.0452 24.9078 27.2505C24.9427 28.9716 24.9647 30.6944 24.9115 32.4151C24.907 32.5637 24.8871 32.7424 24.8648 32.8896C24.8585 32.896 24.8525 32.9027 24.8458 32.9087C24.7137 33.0267 18.7502 32.9692 18.1252 32.8836C18.0676 31.885 18.1148 30.6706 18.1079 29.6497C18.0901 27.02 18.1368 24.3794 18.1039 21.7498C18.0841 20.1676 18.0219 20.2993 17 19.326C16.9782 19.3213 16.9562 19.317 16.9341 19.3131C16.2208 19.1857 15.529 19.1477 14.9154 19.5849C13.7702 20.3981 13.844 22.0255 13.8425 23.2781C13.8393 25.7998 13.8392 28.3255 13.8374 30.8477C13.8369 31.5885 13.9913 32.1147 13.861 32.8667C13.0274 33.0227 11.2269 32.9552 10.304 32.9542C9.3423 32.9531 8.17223 33.0001 7.23512 32.9736C7.0582 32.0598 7.11248 30.2384 7.11191 29.2421L7.11005 23.1666L7.11773 17.6465C7.12159 16.7502 7.0768 15.8463 7.15676 14.9576C7.15759 14.8187 7.50088 14.6831 7.61612 14.6886C9.50561 14.7774 11.4076 14.6596 13.2931 14.7536C13.8806 14.7829 13.717 16.0701 13.6596 16.4797Z" fill="#EDEFF7"/>
<path d="M61.6265 14.6245C61.8906 14.5966 62.2365 14.733 62.4311 14.9081C62.5923 15.0535 62.5509 15.4056 62.5336 15.6131C62.4568 16.5302 62.4967 17.4379 62.4991 18.3574L62.4784 28.0618C62.4834 29.0646 62.4834 30.0685 62.4883 31.071C62.4917 31.7106 62.5878 32.2699 62.5361 32.9187C62.0557 32.9863 60.3232 32.9685 59.7649 32.956C58.6563 32.931 57.0766 33.016 56.0083 32.9186C55.8566 32.4195 55.9344 31.8436 55.7851 31.3403C55.7329 31.1638 55.6679 31.2476 55.5693 31.3349C54.857 31.9655 54.1968 32.8369 53.2226 33.0481C51.0377 33.5218 48.4066 33.6084 46.6917 31.9298C45.9506 31.1953 45.4259 30.2708 45.1751 29.2577C44.7685 27.6505 45.0288 24.2675 45.0105 22.3974C45.0251 20.5107 44.8479 18.5549 44.9355 16.6534C44.9541 16.2512 44.8472 15.2365 44.9636 14.9022C45.1024 14.7744 45.4562 14.6607 45.62 14.6891C46.6297 14.8642 50.7559 14.4959 51.4582 14.8245C51.6035 15.2176 51.5595 17.4739 51.5609 18.0461L51.5591 23.07C51.5559 24.4226 51.5254 25.6335 51.6402 26.9811C52.1238 27.4365 52.069 27.8486 52.7657 28.193C53.2155 28.4154 53.6634 28.4869 54.1454 28.3212C54.7957 28.0976 55.3087 27.6738 55.5723 27.0313C55.994 26.0032 55.8176 18.4251 55.8112 16.8097C55.8098 16.3108 55.6866 15.2419 55.8876 14.8257C56.1759 14.6012 60.6282 14.837 61.6265 14.6245Z" fill="#EDEFF7"/>
<path d="M102.011 29.6574C102.484 29.6411 105.228 29.653 105.511 29.7531C105.645 30.0616 105.536 31.0165 105.531 31.4289C105.521 32.2187 105.682 33.0534 105.344 33.7776C104.953 33.8112 102.199 33.8014 101.972 33.7471C101.602 33.3673 101.845 31.3251 101.776 30.7477C101.738 30.4314 101.791 29.9147 102.011 29.6574Z" fill="#EDEFF7"/>
</g>
<defs>
<clipPath id="clip0_3376_19529">
<rect width="100.833" height="27.5" fill="white" transform="translate(5.83325 6.25)"/>
</clipPath>
</defs>
</svg>
