<svg width="129" height="40" viewBox="0 0 129 40" fill="none" xmlns="http://www.w3.org/2000/svg">
<path d="M48.7183 13.2688C49.9528 13.1437 51.6307 13.2568 52.9135 13.2562C54.5936 13.2556 56.7512 13.1239 58.3628 13.2963C58.7167 13.3342 59.0862 13.4079 59.3736 13.6306C59.6555 13.8492 59.8365 14.07 59.8791 14.4304C59.978 15.2654 57.8724 24.9697 57.5014 26.2874C57.4044 26.6321 57.2982 26.9751 57.0726 27.2595C56.5664 27.8976 56.0009 28.1295 55.2067 28.2158C51.8209 28.175 48.4097 28.3 45.0319 28.1562C44.7867 28.1458 44.449 27.947 44.2357 27.8192C44.0686 27.5719 43.8937 27.2505 43.8663 26.95C43.7996 26.2183 45.955 16.2595 46.2453 15.2308C46.3574 14.8333 46.4996 14.4187 46.7715 14.1005C47.3021 13.4796 47.9441 13.3294 48.7183 13.2688ZM48.1152 26.1057C49.5247 26.1128 51.9888 26.1888 53.3237 26.0739C53.699 25.0356 54.2969 21.7917 54.5622 20.561C54.8208 19.362 55.5063 16.4776 55.6009 15.4324C54.1676 15.4528 51.8885 15.5319 50.4976 15.4173C50.3294 15.6951 50.2411 15.9461 50.1858 16.2645C49.6235 19.4992 48.6126 22.8853 48.1152 26.1057Z" fill="#EDEFF7"/>
<path d="M78.687 13.2604L85.7222 13.2528C86.9712 13.2529 88.2997 13.1985 89.5283 13.3334C90.4078 13.43 90.5795 14.4159 90.4585 15.1241C90.2171 16.5389 89.8892 17.9624 89.5874 19.3635C88.9513 22.2712 88.3363 25.1835 87.7424 28.1002C86.3435 28.0866 84.9439 28.0882 83.545 28.1051C83.6682 27.2746 84.0031 25.9618 84.172 25.0372C84.3486 24.3263 84.4718 23.7304 84.6019 23.009C82.8379 23.037 81.0829 22.9987 79.3069 23.0407C79.0536 24.653 78.592 26.4416 78.3035 28.0946C76.9412 28.0988 75.4368 28.0501 74.0928 28.124C74.4291 26.0353 75.087 23.5209 75.5205 21.3161C75.9265 19.2472 76.4824 16.4912 77.0791 14.4608C77.2487 13.8816 78.0762 13.4438 78.687 13.2604ZM79.7995 20.9003C81.104 20.9532 83.8722 20.8036 84.9664 20.9774C85.2852 20.2718 86.1268 16.1658 86.2147 15.3558L82.8449 15.3519C82.4178 15.3522 81.4376 15.378 81.0555 15.3383C80.8205 15.9123 79.9071 20.1317 79.7995 20.9003Z" fill="#EDEFF7"/>
<path d="M31.4783 13.2582L38.8305 13.2563C39.7973 13.2565 43.4639 13.1381 44.0713 13.5335C44.3797 13.7308 44.5944 14.045 44.666 14.4039C44.7916 15.0576 43.5826 20.3306 43.0528 21.0465C42.3096 22.0508 40.8703 22.4529 39.7005 22.6746C42.8374 24.2208 42.5264 24.9836 41.9133 28.1832C41.1789 28.2649 39.2345 28.2165 38.3883 28.2169C38.1366 28.2251 38.059 28.2221 37.812 28.1753C37.707 27.8684 38.5731 24.2434 38.7387 23.6827C37.2319 23.5845 34.9023 23.6302 33.3671 23.6796C33.2578 24.697 32.6851 27.0964 32.4566 28.2056C31.0974 28.2376 29.634 28.213 28.2688 28.2108C28.7778 25.3004 29.6269 21.8583 30.2415 18.9211L30.9861 15.3341C31.1041 14.7657 31.2767 13.7738 31.4783 13.2582ZM33.8155 21.4601C34.3196 21.5465 38.6562 21.6047 39.0967 21.5238C39.5545 19.9833 40.075 17.138 40.4331 15.4618C39.123 15.432 36.3434 15.5569 35.232 15.4052C34.6433 17.0596 34.3821 19.6662 33.8155 21.4601Z" fill="#EDEFF7"/>
<path d="M92.7116 13.2619C95.0752 13.235 97.4416 13.2551 99.8052 13.2551C101.17 13.2551 102.583 13.1804 103.941 13.2793C104.285 13.3044 104.798 13.3515 105.094 13.5374C105.399 13.7296 105.611 14.0977 105.686 14.4442C105.873 15.3131 104.58 20.2568 104.017 21.1251C103.385 22.0978 101.797 22.463 100.739 22.6856C102.027 23.3006 103.61 24.1048 103.321 25.9183C103.258 26.3107 103.052 28.0446 102.851 28.122C102.404 28.2935 99.8861 28.2159 99.3478 28.225C99.1536 28.2399 99.1114 28.2381 98.92 28.2043C98.7209 27.8508 99.5821 24.2951 99.7496 23.6859C98.4858 23.5684 95.8535 23.6491 94.4869 23.6537C94.2604 24.7433 93.7995 27.2843 93.4807 28.2251C92.7271 28.2165 90.0335 28.26 89.4684 28.166C89.4417 27.5557 90.0089 25.1069 90.1623 24.3841L91.6378 17.4289C91.9094 16.1454 92.1789 14.7858 92.4689 13.5015C92.509 13.3245 92.5491 13.3421 92.7116 13.2619ZM94.9084 21.4881C96.2778 21.6121 98.6202 21.5409 100.055 21.5342L100.175 21.493C100.426 20.4121 100.639 19.2652 100.881 18.176C101.033 17.4899 101.379 16.0648 101.407 15.4294C100.006 15.4537 97.7787 15.531 96.4192 15.425C96.3425 15.519 96.1891 15.7208 96.1624 15.8341C95.7219 17.7168 95.382 19.6108 94.9084 21.4881Z" fill="#EDEFF7"/>
<path d="M6.74235 7.48206C8.53866 8.35421 10.0632 9.17788 11.8023 10.0614L18.8855 13.6374C19.6457 14.0275 24.6537 16.4316 24.9108 16.7719C24.8845 17.0022 24.7047 17.1015 24.4781 17.2692C22.3801 18.8215 20.2697 20.3758 18.1896 21.9518C17.6188 22.3841 16.3885 23.2421 15.894 23.6929C17.0132 25.0303 18.3696 27.0144 19.4647 28.4529C20.1481 29.3505 22.2617 32.1321 22.6287 32.9593C21.1979 31.8344 9.70441 24.046 9.55312 23.7542C9.53842 23.606 9.50253 23.4853 9.62644 23.3633C10.7945 22.2128 12.0278 21.1058 13.1583 19.9177C14.1916 18.8317 15.4874 17.9505 16.4672 16.8204C14.1425 14.6091 11.6787 12.4912 9.27644 10.3599C8.3512 9.53898 7.48056 8.66104 6.54272 7.84058C6.57939 7.64626 6.60648 7.61672 6.74235 7.48206Z" fill="#EDEFF7"/>
<path d="M61.7514 14.1801C61.9808 13.848 61.9879 13.5272 62.4551 13.4837C63.341 13.4013 64.4239 13.3941 65.1916 13.8975C65.8263 14.3134 65.3563 14.8869 65.6349 15.4622C65.6448 15.8219 65.1389 17.8512 65.0439 18.2967L63.3825 26.0905C65.1191 26.1324 66.8804 26.1005 68.6255 26.1292C69.2968 23.6368 69.7274 20.7987 70.334 18.2763C70.5303 17.4593 70.7203 16.1336 70.9602 15.376C71.2227 15.1894 71.4282 14.4817 71.6512 14.1745C72.1325 13.5115 74.767 13.2067 75.2828 13.6263C75.3785 13.7731 75.344 14.0664 75.3391 14.2549C75.3475 14.5606 74.824 16.7343 74.7333 17.2134C74.1781 20.1529 73.3527 23.2457 72.8622 26.1818C71.571 26.2764 70.0581 26.1408 68.7015 26.2271C68.641 26.9244 68.4897 27.5701 68.2835 28.2365C66.4849 28.1922 64.6857 28.1939 62.8878 28.2414C62.8871 27.7725 63.1454 26.758 63.2411 26.2114C62.1026 26.1157 60.4329 26.2401 59.1553 26.1725C59.495 24.9498 59.7616 23.51 60.0248 22.2567L61.0944 17.2605C61.2891 16.3245 61.4988 15.0764 61.7514 14.1801Z" fill="#EDEFF7"/>
<path d="M107.261 15.2846C107.499 15.0667 107.746 14.4265 108.078 14.0731C108.534 13.5406 109.341 13.488 110.019 13.4879C113.585 13.4877 117.155 13.4843 120.72 13.4851C120.85 13.4852 121.093 13.7243 121.192 13.8165C120.785 14.7251 120.181 15.4151 119.105 15.448C116.702 15.5214 114.285 15.3853 111.884 15.4745C111.091 15.4994 110.899 17.7458 110.768 18.4529C112.623 18.5206 114.526 18.4477 116.383 18.4716C117.141 18.4813 118.31 18.4285 119.041 18.5236C119.654 18.9402 120.028 19.5007 119.839 20.2807C119.358 22.2658 119.044 24.3035 118.54 26.2797C117.989 28.4392 116.182 28.2206 114.48 28.2189L110.904 28.2127L106.922 28.2116C106.409 28.2125 104.962 28.3204 104.608 28.068C104.533 27.9084 104.506 27.8536 104.57 27.6829C104.759 27.1793 105.33 26.559 105.819 26.348C106.909 25.8776 112.808 26.1204 114.423 26.1121C114.717 24.5157 115.413 21.9641 115.57 20.4859C114.187 20.6943 112.177 20.5232 110.685 20.5547C109.558 20.5784 106.619 20.9499 106.525 19.2648C106.53 18.4444 107.005 16.0184 107.261 15.2846Z" fill="#EDEFF7"/>
<path d="M5.77175 8.78479C6.25432 8.98031 8.42702 10.9631 8.82381 11.424C8.67119 13.6619 8.80376 16.3716 8.79419 18.6478C8.7768 22.7632 8.75091 26.9165 8.81121 31.0301C8.32977 30.7724 7.98765 30.5313 7.54385 30.222C7.08957 29.9418 6.17967 29.2987 5.77788 28.9669C5.76838 27.8193 5.77253 26.6717 5.79026 25.5242C6.34812 24.9734 7.27104 24.5197 7.96373 23.7872C7.10625 23.4294 6.59567 23.1776 5.80258 22.724C5.73735 21.3019 5.78871 19.7397 5.77759 18.3074C5.75304 15.1405 5.81461 11.9505 5.77175 8.78479Z" fill="#EDEFF7"/>
<path d="M107.26 15.2846C107.362 14.4059 108.23 13.4594 109.128 13.3091C109.744 13.2062 110.61 13.2527 111.25 13.2537L114.789 13.2618C116.5 13.2656 119.6 13.1536 121.212 13.2735C121.288 13.4368 121.223 13.6154 121.191 13.8164C121.093 13.7242 120.849 13.4852 120.72 13.4851C117.154 13.4843 113.584 13.4876 110.019 13.4879C109.341 13.488 108.533 13.5406 108.078 14.0731C107.745 14.4265 107.499 15.0667 107.26 15.2846Z" fill="#EDEFF7" fill-opacity="0.964706"/>
<path d="M70.9602 15.376C71.3289 13.2088 73.2471 13.1622 75.0365 13.2276C75.1589 13.232 75.2891 13.2522 75.4094 13.2722L75.4876 13.387C75.4953 13.7397 75.432 13.9212 75.3391 14.2549C75.344 14.0664 75.3785 13.7732 75.2828 13.6263C74.767 13.2067 72.1325 13.5115 71.6512 14.1745C71.4281 14.4817 71.2227 15.1894 70.9602 15.376Z" fill="#EDEFF7" fill-opacity="0.964706"/>
<path d="M61.9396 13.285C63.5284 13.2032 66.3452 12.9079 65.6345 15.4623C65.3558 14.8869 65.8259 14.3134 65.1912 13.8975C64.4235 13.3941 63.3405 13.4013 62.4546 13.4837C61.9874 13.5272 61.9804 13.8481 61.751 14.1801C61.7939 13.7888 61.8213 13.6603 61.9396 13.285Z" fill="#EDEFF7" fill-opacity="0.964706"/>
<path d="M6.54336 7.84063C6.20082 7.64471 6.02596 7.37519 5.81641 7.05884C6.12742 7.19515 6.43633 7.33626 6.74299 7.4821C6.60711 7.61676 6.58002 7.6463 6.54336 7.84063Z" fill="#EDEFF7" fill-opacity="0.913725"/>
</svg>
