<svg width="153" height="40" viewBox="0 0 153 40" fill="none" xmlns="http://www.w3.org/2000/svg">
<g clip-path="url(#clip0_3376_19455)">
<path d="M6.75146 24.3402L6.85049 24.328C7.06703 24.3036 7.20805 24.2548 7.3883 24.3565C7.52805 24.8206 7.55783 25.2874 7.70067 25.742C8.93712 29.6769 13.0259 31.513 16.905 30.429C19.1643 29.7975 20.534 27.5231 19.7684 25.2196C19.1029 23.4879 17.3656 22.5882 15.8363 21.8246C12.468 20.1437 7.11222 18.6491 6.87781 14.1403C6.55036 7.84223 14.2855 6.14237 18.9442 8.34901C20.0405 8.87137 21.0244 9.60308 21.8408 10.5021C21.8689 10.9032 22.1002 13.7426 22.004 14.0177C21.8282 14.181 21.6751 14.2548 21.4284 14.1939C21.1584 13.7006 21.0379 12.996 20.8278 12.4459C20.291 11.0394 19.335 9.85578 18.0255 9.11188C15.4806 7.66676 10.595 8.00009 9.70594 11.3544C9.4444 12.3538 9.59178 13.4161 10.1155 14.307C12.4257 18.1864 21.3793 18.4771 22.6101 23.6634C24.1176 30.0163 17.1736 32.6627 12.0895 31.2711C10.1711 30.746 8.19861 29.7054 6.96467 28.2006C6.92799 27.4371 6.89688 26.0645 6.75146 25.3585V24.3402Z" fill="#EDEFF7"/>
<path d="M145.505 12.2399V15.2317C145.421 15.2128 145.327 15.185 145.243 15.1626C145.051 14.8408 145.133 13.3754 145.138 12.8727C144.912 13.3666 144.442 14.9485 144.057 15.1206L143.92 15.061C143.633 14.6769 143.141 13.2812 142.938 12.7554C142.948 13.3083 143.062 14.7812 142.843 15.1863L142.666 15.183L142.788 15.2351L142.709 15.2317C142.507 14.9275 142.564 12.7737 142.639 12.3198C142.773 12.2189 142.696 12.2568 142.904 12.2636C143.395 12.5651 143.838 14.0725 144.064 14.687C144.349 13.9709 144.591 13.0732 144.977 12.4025C145.087 12.2114 145.274 12.2534 145.505 12.2399Z" fill="#EDEFF7"/>
<path d="M49.135 14.7765C51.142 14.6512 53.1796 15.2449 54.7024 16.5958C58.0295 19.5478 58.1749 25.9454 55.2561 29.213C53.9096 30.7211 52.0308 31.4785 50.0266 31.5734C45.4692 31.8837 42.2359 28.5659 41.9348 24.1554C41.598 19.2219 43.9149 15.1541 49.135 14.7765ZM49.4231 15.6574C48.3623 15.7502 47.6085 16.0105 46.886 16.8741C45.2923 18.7793 45.1369 22.1917 45.3264 24.5636C45.4615 26.254 46.0026 28.864 47.3928 29.9757C48.1058 30.5453 48.892 30.7601 49.7893 30.7052C50.8347 30.6266 51.545 30.3614 52.2493 29.5167C54.7523 26.516 55.0404 15.4534 49.4231 15.6574Z" fill="#EDEFF7"/>
<path d="M31.9775 14.7779C33.9348 14.6458 36.0329 15.2486 37.458 16.6314C39.1851 18.3075 39.6592 20.475 39.6875 22.7906L27.9902 22.7935C28.0942 26.2312 28.8479 30.3825 33.2353 30.4957C34.9758 30.5403 36.3266 29.8592 37.5518 28.6431C38.0395 28.1107 38.3264 27.59 38.6826 26.9654L39.3008 27.3033C38.3126 29.7992 36.0754 31.3667 33.4238 31.5611C28.5451 31.9187 25.0578 28.8971 24.7139 24.0191C24.3684 19.1189 26.8011 15.1153 31.9775 14.7779ZM32.2627 15.6578C28.7803 15.9207 28.2374 19.0878 28.0273 21.9537L32.3174 21.9576L36.4648 21.9459C36.3581 19.177 35.6874 15.7597 32.2627 15.6578Z" fill="#EDEFF7"/>
<path d="M100.417 7.77441L104.584 7.77915L104.564 23.3151C105.426 22.3767 110.206 17.3645 110.454 16.6674C110.744 15.8544 109.793 15.9817 109.572 15.4932L109.636 15.3273C110.095 15.0786 112.595 15.3422 113.265 15.2202C113.566 15.1653 113.939 15.1653 114.106 15.4614C114.095 15.5413 114.086 15.6213 114.076 15.7006C113.662 15.8503 113.189 15.9871 112.788 16.1579C111.97 16.5068 111.318 17.2209 110.696 17.855C109.884 18.6836 109.085 19.5786 108.315 20.46C108.805 21.0583 109.842 22.6924 110.318 23.3957L114.388 29.437C115.194 30.4865 114.971 30.0684 115.955 30.7053C116.019 30.9065 116.024 30.8923 115.97 31.0942C115.441 31.1552 114.566 31.1301 114.011 31.1294L110.526 31.1165L110.426 31.0081C110.468 30.3496 110.685 30.79 111.053 30.309C111.123 29.6789 109.716 27.832 109.298 27.21L106.261 22.6972C105.725 23.2405 105.095 23.9838 104.575 24.5657C104.583 26.2229 104.517 27.8815 104.611 29.5352C104.661 30.4289 105.666 30.4106 105.734 31.0352C105.475 31.1972 100.963 31.1531 100.492 31.0718L100.454 30.9079C100.717 30.2493 101.585 30.5684 101.557 29.1084C101.533 27.7934 101.54 26.3659 101.54 25.0427L101.542 15.46L101.547 11.2175C101.547 9.9072 101.843 8.80219 100.586 8.27374C100.397 8.19447 100.433 7.97021 100.417 7.77441Z" fill="#EDEFF7"/>
<path d="M133.556 14.7778C133.723 14.7744 133.889 14.7737 134.055 14.7751C136.714 14.8008 138.754 16.0759 139.238 18.8042C139.408 19.7642 139.349 21.2818 139.347 22.3008L139.327 27.5298C139.324 28.3631 139.234 29.2087 139.529 30.0129C139.755 30.6287 140.683 30.4919 140.58 30.9953C140.356 31.2121 135.417 31.1822 135.232 31.0617C135.181 30.7947 135.151 30.9045 135.244 30.6978C135.89 30.4173 136.274 30.1518 136.291 29.3726C136.331 27.6037 136.306 25.8286 136.303 24.0576V20.6843C136.302 18.6308 136.383 16.0318 133.597 15.8435C132.271 15.7412 130.961 16.189 129.975 17.082C129.448 17.5949 128.885 18.3421 128.866 19.1043C128.774 22.622 128.767 26.1816 128.842 29.6978C128.85 30.0867 129.873 30.626 129.975 30.9932L129.883 31.105C129.23 31.1362 125.086 31.2168 124.738 31.0637C124.709 30.8753 124.686 30.8604 124.756 30.6904C126.101 29.9627 125.793 29.2358 125.789 27.8875L125.787 24.6192L125.79 19.4045C125.791 18.6612 125.787 17.7419 125.796 17.0054C125.808 16.0061 124.702 15.8394 124.703 15.3516C124.915 15.147 128.208 15.2405 128.74 15.2432C128.77 15.874 128.761 16.5854 128.767 17.2222C128.901 17.0528 129.04 16.8869 129.183 16.7256C130.343 15.4092 131.851 14.8916 133.556 14.7778Z" fill="#EDEFF7"/>
<path d="M63.4411 15.2351L63.4379 23.7711C63.4378 24.2826 63.4251 24.8225 63.4377 25.328C63.4551 26.267 63.3877 27.267 63.5481 28.1925C64.0962 31.3137 68.2465 30.9533 69.9643 29.1078C70.8596 28.1464 71.0141 27.3923 71.0133 26.1051C71.011 23.0217 71.0114 19.937 70.9991 16.8537C70.9961 16.0935 69.9526 15.8219 69.9324 15.328C70.2067 15.1626 73.4862 15.2331 74.0348 15.2351L74.0319 18.4364L74.0298 25.5732C74.0292 26.8869 73.9005 28.7318 74.2184 30.017C74.3239 30.4431 75.2658 30.498 75.2272 31.0149C75.007 31.2202 71.9886 31.1288 71.4715 31.1267C71.2897 30.4675 71.1618 29.6945 71.0644 29.019C70.0929 30.2318 69.3564 30.9486 67.7934 31.3639C66.1973 31.788 64.1186 31.6667 62.6816 30.8009C60.0486 29.2141 60.4074 26.2311 60.4109 23.5868L60.419 18.7602C60.4198 18.1308 60.4505 17.1925 60.371 16.58C60.3016 16.2555 59.9696 15.998 59.7047 15.8598C59.2797 15.6389 59.3482 15.6328 59.3296 15.2433C60.6817 15.2229 62.0855 15.2379 63.4411 15.2351Z" fill="#EDEFF7"/>
<path d="M91.0315 14.7778C93.8635 14.5637 95.9936 15.5291 97.7463 17.7019C97.0959 18.2696 96.4509 18.8435 95.812 19.4234C95.7334 18.3977 95.5925 17.6396 94.8256 16.8184C93.249 14.9397 87.3622 15.1707 87.7687 18.3882C88.1759 21.6165 94.7111 21.8828 96.7402 23.979C98.4082 25.7032 98.4272 28.0847 96.9204 29.7737C95.6237 31.2276 93.4618 31.5224 91.6779 31.5928C91.4177 31.584 91.1576 31.5698 90.8981 31.5501C88.2992 31.3394 86.6603 30.5176 84.999 28.5583C85.6542 27.9837 86.2348 27.2771 86.9347 26.7412C87.1372 27.939 87.3852 28.8997 88.415 29.689C89.6352 30.6233 91.0383 30.8699 92.5444 30.6816C93.3432 30.6253 94.6752 30.1673 95.0973 29.4309C97.1359 25.8699 91.8506 24.9837 89.6399 24.086C87.7829 23.332 85.5248 22.2371 85.3649 19.9702C85.1128 16.4038 87.999 14.9756 91.0315 14.7778Z" fill="#EDEFF7"/>
<path d="M77.6402 7.77173L81.815 7.78054L81.8123 23.475L81.8103 27.5556C81.8076 28.1667 81.769 28.8869 81.8252 29.4973C81.9011 30.3239 82.8794 30.5597 82.9722 30.9316L82.8808 31.0725C82.5888 31.2026 82.2033 31.145 81.8679 31.1301C80.4973 31.1247 79.0989 31.1559 77.7337 31.1335L77.6531 31.0244C77.7222 30.038 78.7087 30.9072 78.7554 29.3395C78.7927 28.0786 78.7805 26.7785 78.7791 25.5136L78.7798 19.0007L78.7812 12.6694C78.7812 11.582 78.792 10.4533 78.7676 9.38081C78.7507 8.62945 78.1687 8.54544 77.6965 8.20059C77.6138 8.14097 77.6436 7.91604 77.6402 7.77173Z" fill="#EDEFF7"/>
<path d="M116.918 15.2418L121.049 15.2371L121.052 26.2662C121.051 27.235 121.015 28.5663 121.061 29.5474C121.086 30.088 122.066 30.6598 122.147 30.9247L122.071 31.0596C121.784 31.2012 121.401 31.1415 121.064 31.128C120.086 31.13 117.904 31.1944 117.023 31.0873C116.892 30.9803 116.944 31.0494 116.916 30.8394C117.09 30.5026 117.521 30.4694 117.693 30.2635C118.151 29.7181 118.02 28.3001 118.021 27.6564L118.023 24.1727C118.025 21.752 118.047 19.2764 117.998 16.8583C117.983 16.1016 117.447 15.9993 116.969 15.6503C116.896 15.5961 116.92 15.3705 116.918 15.2418Z" fill="#EDEFF7"/>
<path d="M118.85 9.0231C119.553 8.81443 120.315 9.0021 120.841 9.51362C121.368 10.0251 121.577 10.7812 121.388 11.4906C121.2 12.1999 120.643 12.7521 119.932 12.935C118.86 13.2108 117.765 12.5766 117.47 11.5102C117.175 10.4438 117.788 9.33747 118.85 9.0231Z" fill="#EDEFF7"/>
<path d="M140.928 12.588L141.306 12.5609C141.296 13.2106 141.377 14.481 141.245 15.107C141.229 15.1876 141.142 15.189 141.047 15.2174L140.957 15.1537C140.896 14.649 140.931 13.2012 140.928 12.588Z" fill="#EDEFF7"/>
<path d="M140.928 12.5881C140.556 12.5901 140.329 12.6172 139.984 12.4675L140.027 12.3801C140.569 12.2419 141.776 12.1741 142.269 12.3198L142.254 12.4424C141.874 12.6294 141.731 12.6003 141.306 12.561L140.928 12.5881Z" fill="#EDEFF7"/>
</g>
<defs>
<clipPath id="clip0_3376_19455">
<rect width="141.667" height="25" fill="white" transform="translate(5.4165 7.5)"/>
</clipPath>
</defs>
</svg>
