<svg width="167" height="40" viewBox="0 0 167 40" fill="none" xmlns="http://www.w3.org/2000/svg">
<path d="M66.0105 10.0481C67.113 10.0689 70.737 9.84833 71.3131 10.3801C71.4241 11.1051 71.3908 12.546 71.3896 13.3295C71.3878 15.0704 71.3762 16.8113 71.3547 18.552C71.3412 19.8334 71.4689 29.3382 71.1264 29.8481C70.9188 29.883 70.6551 29.908 70.4368 29.9052C67.0497 29.8605 67.6625 30.5514 67.6518 26.9515L67.642 20.0943C67.6309 19.3882 67.8684 16.1496 67.454 15.8482C67.1098 16.5044 66.605 18.0927 66.2992 18.8605C65.3053 21.3562 64.4198 23.9919 63.385 26.4628C62.5763 26.4603 60.6917 26.704 60.0378 26.3024C59.4578 25.9461 56.5285 16.3273 55.8442 15.8491L55.7732 15.9086C55.6237 16.5829 55.7753 17.495 55.7532 18.0583C55.6943 19.5592 55.9384 29.5085 55.6028 29.8518C54.7084 29.96 53.4955 29.8841 52.5743 29.8952C52.3534 29.8978 52.2551 29.7233 52.1265 29.5703C52.0208 29.1443 51.9684 11.1481 52.131 10.4351C52.179 10.2247 52.4021 10.1392 52.5706 10.0361C53.6292 10.1376 56.6199 9.91423 57.3436 10.163C58.061 10.719 60.4904 18.6829 61.1306 19.9658C61.207 20.1188 61.3549 20.8624 61.4565 21.1343L61.6684 21.1791C61.8207 21.1325 61.9717 21.1281 62.0258 20.956C62.97 17.9505 64.11 15.0058 65.1596 12.035C65.3898 11.3834 65.6653 10.6383 66.0105 10.0481Z" fill="#EDEFF7"/>
<path d="M29.5708 10.0635L34.4951 10.0586C35.8723 10.056 38.2563 9.80297 39.1726 10.9656C39.8974 11.8852 39.5425 14.5604 39.594 15.7292C39.636 16.679 39.6425 17.7464 39.6104 18.6889C39.5792 19.6041 39.0206 20.0967 38.3756 20.6264C38.8255 20.9407 39.0527 21.1089 39.4641 21.4887C39.6363 22.4056 39.7291 29.0728 39.4811 29.7984C39.2492 29.9839 36.4621 29.9656 36.1034 29.7374C35.8602 29.1109 36.092 23.8335 35.9853 22.6674C35.9248 22.5938 35.861 22.5225 35.7884 22.4607C35.5195 22.2314 30.0395 22.2649 29.3654 22.3295C29.1863 22.3467 28.8752 22.3773 28.7345 22.4982C28.2028 22.955 29.0353 29.0827 28.4011 29.851C28.1254 29.9131 25.4959 29.9444 25.2434 29.8826C25.2048 29.8529 25.1017 29.7895 25.0864 29.7481C24.9173 29.2893 24.9992 12.7554 25.0295 11.1865C25.0353 10.8827 25.0185 10.4979 25.1449 10.2201C25.6146 9.9801 28.7766 10.0716 29.5708 10.0635ZM35.8273 18.6534C36.1637 17.9326 35.9582 16.4347 36.0073 15.6073C36.0429 15.0064 36.1052 14.0738 35.6285 13.6419C35.0966 13.5272 29.3447 13.5219 28.7215 13.6178C28.5287 14.2061 28.3706 18.6319 28.9649 18.6906C29.8481 18.7778 35.2251 18.9791 35.7824 18.6789C35.7976 18.6707 35.8126 18.6622 35.8273 18.6534Z" fill="#EDEFF7"/>
<path d="M112.506 22.8852C112.587 20.0205 112.397 16.7815 112.481 13.8864C112.509 12.8906 112.39 11.1341 112.523 10.2455C112.804 10.0048 115.595 9.95612 115.867 10.1727C116.314 10.8073 115.868 26.4786 116.025 28.6194C116.039 28.8054 116.024 29.5599 116.017 29.7886C116.011 29.7929 116.005 29.7971 116 29.8014C115.63 30.0893 112.549 29.9075 111.88 29.8964C109.818 26.0951 107.878 22.2095 105.845 18.391C105.71 18.1363 105.366 17.4834 105.068 17.4465C105.045 17.836 105.048 18.2191 105.071 18.6076C105.241 21.4496 105.184 24.2933 105.184 27.1391C105.184 27.8779 105.241 29.1226 104.974 29.7884C104.708 30.0523 103.526 29.8563 103.107 29.8867C102.691 29.9168 101.829 30.0273 101.509 29.7783C101.355 29.393 101.42 26.8572 101.419 26.2822L101.415 19.6508L101.408 13.6582C101.407 12.66 101.395 11.6234 101.428 10.6242C101.438 10.2987 101.506 10.2561 101.692 10.0379C102.453 10.0597 104.794 9.85192 105.356 10.1409C105.943 10.4421 109.816 18.187 110.431 19.3658C111.019 20.4923 111.589 22.0242 112.506 22.8852Z" fill="#EDEFF7"/>
<path d="M76.3224 10.0443C77.3009 10.1204 78.9396 10.0763 79.9605 10.0767L86.626 10.0777C87.4379 10.0775 89.426 10.0223 90.1053 10.1251C90.534 10.5274 90.5389 13.0635 90.2322 13.4228C89.4764 13.7788 81.1564 13.4848 79.3885 13.6215C79.2828 14.2964 79.1729 18.2902 79.4372 18.5494C80.0973 19.1966 85.2829 18.5871 86.4234 18.8132C86.6431 18.8568 86.6659 18.9885 86.7789 19.1772L86.7708 22.3096C86.0256 22.3554 79.4962 22.1499 79.3578 22.5357C79.0629 23.3576 79.6058 29.2898 79.1211 29.9065C78.8936 29.9627 75.9091 29.937 75.7464 29.7597C75.67 29.406 75.6552 10.493 75.7178 10.2742C75.9602 10.0606 75.9751 10.1107 76.3224 10.0443Z" fill="#EDEFF7"/>
<path d="M143.747 10.0545C147.618 10.0647 147.102 9.19037 148.783 12.759L150.775 17.0091C151.084 17.6773 151.373 18.4199 151.71 19.0641L151.885 19.0615C152.379 18.752 153.006 17.0949 153.286 16.4974L155.753 11.1985C156.014 10.6453 156.381 9.88925 157.065 10.028C157.8 10.1772 159.878 9.77134 160.233 10.3737C160.015 10.9798 159.535 11.8268 159.234 12.4455L156.786 17.3941C155.903 19.266 154.473 21.8827 153.771 23.7713C153.504 24.4884 154.001 29.0265 153.577 29.8068C153.273 29.9677 150.631 29.9375 150.214 29.816C149.876 29.2642 150.312 24.3726 149.996 23.5528C149.569 22.4484 148.794 20.9941 148.256 19.9094L144.937 13.1442C144.524 12.3111 144.031 11.3548 143.657 10.4948C143.601 10.3665 143.675 10.1756 143.747 10.0545Z" fill="#EDEFF7"/>
<path d="M127.694 10.045C128.828 10.0702 141.435 9.98897 141.62 10.1445C141.862 10.5919 141.845 12.964 141.754 13.4163C141.472 13.7135 137.144 13.5611 136.35 13.6233C136.227 14.5254 136.28 16.5857 136.28 17.5535L136.289 24.9122C136.294 25.7486 136.397 29.3411 136.147 29.8321C135.885 29.9417 133.197 29.967 132.786 29.801C132.559 29.549 132.664 26.0185 132.665 25.4252L132.666 17.172C132.665 16.5858 132.691 14.2355 132.576 13.8395C132.374 13.1453 128.093 13.8781 127.4 13.4913C127.319 13.4465 127.154 13.3778 127.156 13.2663C127.18 12.3687 126.987 11.188 127.188 10.3489C127.232 10.168 127.551 10.0959 127.694 10.045Z" fill="#EDEFF7"/>
<path d="M7.72409 10.0464C10.899 10.1703 14.2648 10.0274 17.4532 10.0732C18.4125 10.0869 21.0326 9.96721 21.7937 10.1332C22.0397 10.4764 22.0479 13.2179 21.7767 13.5336C21.371 13.6384 17.3929 13.5612 16.5068 13.6271C16.3715 14.5034 16.4212 16.6223 16.4206 17.5927L16.4194 24.9064C16.4074 25.9569 16.5386 28.9329 16.3367 29.7572C16.0554 30.0046 13.3627 29.9581 12.9995 29.8078C12.8721 29.6715 12.8069 29.6478 12.8082 29.4618C12.8156 28.3563 12.8339 27.2072 12.8353 26.1057L12.8372 18.3867C12.8366 16.9311 12.8919 14.9874 12.7448 13.5809C11.7425 13.4913 7.88496 13.8368 7.37136 13.3017C7.27031 12.8213 7.37647 11.0782 7.33453 10.4264C7.32319 10.2503 7.58051 10.1227 7.72409 10.0464Z" fill="#EDEFF7"/>
<path d="M122.618 10.0676C123.112 10.0436 123.703 9.93954 124.065 10.2522C124.548 11.5423 124.039 19.0966 124.218 21.0908C124.282 21.7974 124.196 29.4629 124.135 29.646C123.69 30.0646 122.62 29.914 121.985 29.8966C121.498 29.9034 121.011 29.9074 120.523 29.9085L120.523 29.8924C120.397 27.7645 120.527 10.2958 120.636 10.1728C121.088 10.0131 122.097 10.063 122.618 10.0676Z" fill="#EDEFF7"/>
<path d="M93.6441 10.041C94.2501 10.0378 96.3684 10.0031 96.8451 10.1296C97.0753 11.2121 97.0249 29.4266 96.8728 29.8163C96.8541 29.8648 96.7678 29.8855 96.7198 29.9067C95.9682 29.8984 94.0451 29.9884 93.4415 29.7825C93.3227 29.6463 93.3122 29.1513 93.3113 28.951C93.2788 22.8433 93.2821 16.734 93.2764 10.6262C93.2764 10.3177 93.4399 10.2366 93.6441 10.041Z" fill="#EDEFF7"/>
<path d="M44.29 10.021C45.0426 10.0839 47.1743 9.93171 47.6379 10.2428C47.7171 10.8388 47.7161 11.4398 47.713 12.0401C47.6846 17.4839 47.6511 22.933 47.7223 28.3761C47.7284 28.8389 47.856 29.3445 47.7045 29.7864C47.3581 29.9737 44.6398 29.9517 44.1942 29.8536C44.1849 29.8127 44.1765 29.7715 44.1691 29.7302C44.0471 29.0639 44.0829 27.4949 44.0824 26.7567L44.0837 21.6877L44.0795 14.4772C44.0782 13.6752 43.9452 10.5194 44.29 10.021Z" fill="#EDEFF7"/>
</svg>
