<svg width="94" height="40" viewBox="0 0 94 40" fill="none" xmlns="http://www.w3.org/2000/svg">
<g clip-path="url(#clip0_3376_19674)">
<g clip-path="url(#clip1_3376_19674)">
<circle cx="57.9232" cy="18.2609" r="14.7826" fill="#9CA3AF"/>
<path d="M87.0904 24.3388C88.515 24.2492 89.0646 24.455 90.1524 25.3208C90.7147 24.7014 91.0862 24.1943 92.0881 24.3404C92.9124 24.4604 93.2633 25.5035 92.6099 26.0552C92.4845 26.1612 91.9937 26.1754 91.8166 26.126C91.237 25.9639 91.6485 25.2544 91.454 24.9042C91.4225 24.8913 91.3596 24.8725 91.3356 24.88C90.2003 25.247 90.586 25.773 90.8767 26.5867C91.5893 28.5807 90.2187 30.6734 88.1548 30.9682C86.7508 31.1688 86.0627 30.6716 85.0115 29.8766C84.5559 30.5889 84.4709 31.3338 84.9392 32.0641C85.6343 32.4457 86.5864 32.3439 87.3549 32.3563C89.0693 32.3838 90.8232 32.1793 92.1139 33.5104C92.6954 34.1385 92.7804 35.4271 92.6499 36.2306C92.4996 37.2227 91.8246 37.9677 91.0214 38.5367C88.9941 39.9733 84.9303 39.8667 83.4159 37.7039C82.5056 36.4044 83.5892 34.7963 84.7551 34.015C84.0528 33.6969 83.6461 33.2179 83.5526 32.4962C83.392 31.2487 83.779 30.4548 84.6963 29.6571C84.8523 29.5218 84.3328 28.7133 84.2713 28.4354C84.082 27.5608 84.2478 26.6467 84.732 25.8941C85.2816 25.0303 86.1083 24.5563 87.0904 24.3388ZM90.0632 38.5498C91.2562 37.8023 91.7743 36.4893 91.0115 35.2068C90.7438 34.7573 90.275 34.4959 89.7757 34.3945C88.5864 34.1559 86.5155 34.4701 85.4018 34.2248C84.9453 34.8567 84.8744 34.9852 84.7738 35.7548C84.3981 38.6212 86.2356 39.4158 88.7856 39.0128C89.1693 38.9521 89.7222 38.8106 90.0632 38.5498ZM88.0129 30.5804C88.857 30.2858 89.0251 29.3634 89.0514 28.5799C89.0914 27.3956 89.2309 25.7265 88.3939 24.8147C87.9101 24.7032 87.7306 24.6677 87.2403 24.7153C85.965 25.0223 86.206 27.4041 86.2041 28.4222C86.2036 28.7549 86.2684 29.1419 86.3413 29.4663C86.5719 30.4954 87.1102 30.6113 88.0129 30.5804Z" fill="white"/>
<path d="M23.7372 18.3253C24.7831 18.3336 25.8725 18.3289 26.9138 18.3656C26.9762 19.0641 26.9543 20.0989 26.9547 20.8192L26.9539 24.8284C27.4634 24.6492 27.5466 24.4239 28.1818 24.3465C30.9408 24.0063 33.2713 26.9101 32.8565 29.5433C32.6327 30.9639 31.9656 31.899 30.8303 32.7474C29.8634 33.3991 28.4017 33.6915 27.3395 33.1062C27.2256 33.0435 27.0807 32.9532 26.9519 32.9735C26.9118 33.0397 26.9118 33.1067 26.9033 33.1842C26.6637 33.3354 24.2447 33.2246 23.8137 33.2295C23.7568 33.2301 23.6506 33.156 23.6049 33.1182L23.6045 33.0462C23.8569 32.8722 24.5613 32.887 24.8886 32.8775C24.8203 30.8044 24.8727 28.4751 24.8735 26.3744C24.8743 23.8857 24.825 21.2463 24.8829 18.769C24.6918 18.7725 24.5006 18.7747 24.3095 18.7756C24.0562 18.7764 23.8151 18.7985 23.6349 18.6197C23.6409 18.4355 23.635 18.4935 23.7372 18.3253ZM26.9748 25.3373C26.8798 27.2985 27.003 29.3368 26.9525 31.3057C26.945 31.5954 26.952 32.1599 27.1155 32.4237C27.6445 33.0355 28.5991 33.1046 29.3358 32.9409C31.2268 32.4779 30.7822 27.6915 30.5087 26.2704C30.3043 25.2086 29.6084 24.593 28.4894 24.7118C27.8449 24.7808 27.5006 24.944 26.9748 25.3373Z" fill="white"/>
<path d="M52.8967 0.992676C53.4735 1.48727 54.776 3.14333 55.2655 3.80983C55.4082 4.16413 55.7601 4.61115 55.9601 4.95259C56.784 6.35857 57.769 8.50924 57.8906 10.1671C58.0611 12.4867 57.9653 16.9474 57.1316 19.0815C57.1213 19.1088 57.11 19.1358 57.0987 19.1627L57.0273 19.1969C56.5736 18.7387 56.0931 18.2682 55.6783 17.7771C53.3054 14.9689 52.102 11.3137 52.2523 7.64878C52.2894 6.73972 52.3744 5.83395 52.4458 4.9247C52.6102 3.73212 52.8 2.18673 52.8967 0.992676Z" fill="white"/>
<path d="M48.7529 25.1666C49.4448 24.5164 49.9981 24.2555 50.9633 24.2824C51.8661 24.3076 52.7055 24.5391 53.3367 25.2173C54.3762 26.3347 54.2344 27.734 54.2452 29.1348C54.2546 30.3647 54.2137 31.6079 54.2475 32.8314C54.6345 32.8263 55.4838 32.6468 55.4786 33.1478C55.4781 33.184 55.4772 33.2202 55.4758 33.2564C54.822 33.2538 54.1616 33.2489 53.5087 33.2516C52.7764 33.2546 51.5523 33.3384 50.8882 33.1944C50.8097 33.0902 50.8323 33.1367 50.8257 32.9792C51.0483 32.7078 51.6557 32.8988 52.0465 32.7645L52.0582 32.6273L52.031 32.5667C51.9234 32.5045 51.8384 32.5292 51.7595 32.4737L49.4809 30.8709C49.363 30.7867 48.8896 30.407 48.8182 30.3804C48.7397 31.1651 48.7233 32.0812 48.7177 32.8758L49.6463 32.87L49.875 32.9179L49.9901 32.9743L50.0033 33.0586C49.6467 33.427 47.0018 33.1771 46.3555 33.2543C46.2155 33.271 45.6326 33.2528 45.4861 33.2378C45.3621 33.1329 45.386 33.1795 45.332 33.0339L45.3776 32.9583C45.6439 32.8036 46.2696 32.8609 46.5979 32.8724C46.5002 31.3313 46.6505 29.422 46.5669 27.793C46.6397 27.1076 46.5908 25.6625 46.5824 24.9224C46.2921 24.9256 45.7139 24.9514 45.4546 24.8901C45.3654 24.7961 45.3738 24.7359 45.3663 24.6093L45.4133 24.5017C45.6956 24.4129 48.31 24.452 48.7158 24.48C48.7313 24.7035 48.7529 24.9439 48.7529 25.1666Z" fill="white"/>
<path d="M48.8175 30.3804C48.67 30.1746 48.7386 26.8267 48.7621 26.293C48.7982 25.4762 49.9936 24.5516 50.895 24.758C52.6827 25.1674 51.9777 28.2009 52.1087 29.5955C52.166 30.2064 52.1407 32.0705 52.0575 32.6273L52.0303 32.5667C51.9227 32.5045 51.8377 32.5292 51.7588 32.4737L49.4803 30.8709C49.3624 30.7867 48.8889 30.407 48.8175 30.3804Z" fill="#9CA3AF"/>
<path d="M75.9414 24.4671C78.3853 24.1458 80.6225 25.876 80.9254 28.321C81.2284 30.7659 79.4801 32.9893 77.032 33.2734C74.6102 33.5544 72.4148 31.83 72.1152 29.4112C71.8155 26.9924 73.5238 24.785 75.9414 24.4671ZM76.9207 33.015C78.5031 32.6177 78.5858 31.386 78.6591 29.9344C78.7178 28.7659 78.6887 27.4946 78.4458 26.3497C78.0964 25.0297 77.506 24.6729 76.2049 24.7558C75.8066 24.8222 75.2772 24.9803 75.0752 25.3671C74.2425 26.9628 74.3087 29.2637 74.5478 31.0067C74.7619 32.5644 75.3989 33.068 76.9207 33.015Z" fill="white"/>
<path d="M59.6036 18.7851C61.3824 15.1419 63.5153 12.4529 67.0855 10.4304C68.0249 14.9323 65.0362 18.502 62.071 21.479C61.5646 21.987 61.0385 22.5234 60.4989 22.9923C59.8709 23.5559 59.5261 23.8207 58.8178 24.2876L58.7201 24.2349C58.457 24.3175 58.3523 24.3431 58.0658 24.3352C58.0813 24.1477 58.0958 24.0137 58.0794 23.8238C58.0634 23.838 58.0376 23.8441 58.0151 23.8526C57.9282 23.5421 58.3744 22.0857 58.4862 21.6849C58.7642 20.775 59.1903 19.639 59.6036 18.7851Z" fill="#9CA3AF"/>
<path d="M59.6035 18.7851C61.3823 15.1419 63.5152 12.4529 67.0854 10.4304C68.0249 14.9323 65.0361 18.502 62.0709 21.479C61.5645 21.987 61.0385 22.5234 60.4988 22.9923L60.3917 22.9174C60.9135 22.45 61.4236 21.8893 61.9046 21.3755C64.4776 18.6278 67.0211 15.2061 66.7416 11.2528C66.0977 11.6963 65.4424 12.0803 64.8238 12.5713C62.5411 14.3834 61.0263 16.4009 59.7064 18.9616C59.6796 18.9262 59.6275 18.8277 59.6035 18.7851Z" fill="white"/>
<path d="M59.6042 18.7852C59.6282 18.8277 59.6803 18.9262 59.7071 18.9616C59.2924 19.8482 58.8485 20.8591 58.5596 21.7899L58.4868 21.6849C58.7649 20.775 59.1909 19.639 59.6042 18.7852Z" fill="white"/>
<path d="M60.3919 22.9174L60.499 22.9922C59.871 23.5559 59.5262 23.8207 58.8179 24.2876L58.7202 24.2348C59.3181 23.8667 59.8588 23.3753 60.3919 22.9174Z" fill="white"/>
<path d="M58.4862 21.6849L58.559 21.7899C58.4505 22.2356 58.0911 23.4496 58.0794 23.8239C58.0634 23.838 58.0376 23.8441 58.0151 23.8526C57.9282 23.5421 58.3744 22.0858 58.4862 21.6849Z" fill="white"/>
<path d="M-0.433621 18.879C1.50672 18.7945 3.54514 18.9487 5.49522 18.8735C5.72861 18.8645 6.06708 18.9002 6.21236 19.109L6.17056 19.1772C5.78878 19.3065 4.7024 19.2537 4.24007 19.2457C4.2854 20.1284 4.26454 21.2154 4.26529 22.1086L4.26313 26.9189C4.25905 28.5209 4.00043 31.15 5.23636 32.3481C6.32274 33.4011 9.24985 33.1817 10.303 32.096C10.7916 31.5924 11.1713 30.9602 11.3061 30.2538C11.5474 28.9018 11.4605 27.404 11.459 26.0252C11.45 23.7748 11.454 21.5243 11.4713 19.2739C11.0281 19.2508 9.8135 19.3424 9.50739 19.1016L9.50894 19.0246C9.73501 18.8166 10.3746 18.8735 10.7115 18.8733C11.1258 18.8723 13.7079 18.7406 13.816 19.1092C13.5646 19.3487 12.2729 19.2504 11.8875 19.2443C11.9382 21.5076 11.8849 23.933 11.8964 26.2062C11.8268 28.2306 12.2748 30.7149 10.6675 32.2885C8.9825 33.9382 5.70555 33.8531 3.6977 32.9102C0.9779 31.6329 1.47905 28.6007 1.48007 26.1161C1.46781 23.8349 1.47118 21.5536 1.49017 19.2723C1.03184 19.2369 -0.128561 19.3637 -0.419947 19.1648C-0.485617 19.0231 -0.464076 19.0577 -0.433621 18.879Z" fill="white"/>
<path d="M53.2974 22.8986C52.0499 22.2972 50.9329 21.4551 50.0119 20.4207C48.5948 18.8093 47.6413 16.8726 47.0147 14.8338C46.9127 14.43 46.3881 13.3567 46.816 13.0465C47.4017 12.6221 48.4567 13.3942 48.8864 13.7582C50.3557 15.0031 51.7761 16.2881 53.1692 17.614C54.2768 18.6684 55.4116 19.7851 56.358 20.9854L56.2402 21.0437C56.731 21.689 57.3115 22.5035 57.4111 23.3121L57.3336 23.5759L57.3191 23.6611C56.8188 24.1115 53.8151 23.2551 53.2974 22.8986Z" fill="#9CA3AF"/>
<path d="M53.2974 22.8986C52.0499 22.2972 50.9329 21.4551 50.0119 20.4207C48.5948 18.8093 47.6413 16.8726 47.0147 14.8338C46.9127 14.43 46.3881 13.3567 46.816 13.0465C47.4017 12.6221 48.4567 13.3942 48.8864 13.7582C50.3557 15.0031 51.7761 16.2881 53.1692 17.614C54.2768 18.6684 55.4116 19.7851 56.358 20.9854L56.2402 21.0437C54.552 19.0153 52.2162 17.2765 50.2218 15.5468C49.5506 14.9648 48.0273 13.6267 47.2115 13.4261C47.9663 16.8306 49.5187 20.3836 52.5689 22.3265C52.8334 22.4959 53.1072 22.6504 53.3895 22.7893C53.3458 22.8737 53.3665 22.8661 53.2974 22.8986Z" fill="white"/>
<path d="M53.3899 22.7893C54.3556 23.2276 56.2842 23.8682 57.334 23.5759L57.3195 23.6611C56.8192 24.1115 53.8155 23.2551 53.2979 22.8986C53.3669 22.8661 53.3462 22.8737 53.3899 22.7893Z" fill="white"/>
<path d="M38.5379 24.2832C39.2426 24.1376 40.5377 24.3747 41.1537 24.8048C42.5869 25.8057 42.5077 27.5344 42.5021 29.0614L42.4906 31.3062C42.4889 31.6948 42.3898 32.6643 42.7117 32.8701C43.1457 32.941 43.3196 32.4452 43.6414 32.3188L43.6954 32.3509C43.8187 33.19 42.6292 33.5045 41.9845 33.407C41.2617 33.2977 41.0287 33.103 40.5942 32.5471C39.4753 33.6358 37.716 33.6836 36.417 32.8962C36.0921 32.7051 35.8457 32.4049 35.7217 32.0491C35.517 31.4696 35.5462 30.4973 35.828 29.9461C36.7137 28.2132 38.863 28.6728 40.3506 28.1484C40.3595 27.3038 40.4218 26.3607 40.2488 25.5384C40.1333 24.9895 39.4408 24.523 38.8798 24.7071C37.7085 25.0813 39.2159 26.6987 37.9751 27.0322C37.4309 27.1785 36.7339 27.1188 36.5801 26.4673C36.2764 25.1804 37.4398 24.5011 38.5379 24.2832ZM38.0506 32.7399C38.488 32.9694 38.8836 33.0816 39.3679 32.9188C40.1939 32.6412 40.3846 32.1681 40.3893 31.3559C40.3944 30.465 40.4175 29.6057 40.3813 28.7311L40.3288 28.6642C37.9919 29.0212 37.6239 28.9016 37.6972 31.6075C37.7065 31.9494 37.7832 32.509 38.0506 32.7399Z" fill="white"/>
<path d="M68.6509 24.8721C68.3538 24.8765 67.7021 24.9652 67.5047 24.7419C67.4679 24.5718 67.4617 24.6362 67.5099 24.485C67.8146 24.3382 69.8801 24.41 70.3302 24.4467C70.4437 24.4559 70.4346 24.471 70.4856 24.5446C70.478 24.6336 70.489 24.7232 70.4308 24.7709C70.2358 24.9308 69.4438 24.8744 69.1596 24.872L67.2033 30.1576L65.1059 35.829C64.7273 36.8533 64.147 39.0596 63.1543 39.525C62.7605 39.7057 62.3113 39.724 61.9037 39.5759C60.3183 38.9871 60.8971 36.5278 62.5912 37.0731C62.9407 37.1856 63.0857 37.6011 63.1534 37.9341C63.0504 38.3359 62.7486 38.7235 62.8415 38.9818C62.9159 39.0377 62.9293 39.0519 63.028 39.0431C63.1877 39.0286 63.3541 38.8391 63.4442 38.7211C63.9134 38.1077 65.2084 34.3357 65.5584 33.3542C65.3567 32.8838 65.1469 32.4169 64.9295 31.9538C63.9081 29.6946 62.7734 27.0384 61.6796 24.8469C61.4345 24.8597 60.7746 24.9252 60.602 24.8094C60.5128 24.6767 60.5252 24.7373 60.5515 24.5834C60.5758 24.5522 60.664 24.4505 60.6902 24.4486C61.3663 24.3998 64.7364 24.3633 65.1149 24.4693L65.154 24.5476C65.1292 24.7348 65.1617 24.6719 65.0377 24.813C64.7969 24.9235 64.3473 24.8744 64.0631 24.867C64.7802 26.6751 65.7286 28.8919 66.5406 30.6459C67.1289 28.8013 68.0106 26.7581 68.6509 24.8721Z" fill="white"/>
<path d="M19.5178 24.3335C20.6251 24.2764 21.8622 24.6197 21.528 26.1313C21.3835 26.7849 20.6499 26.9982 20.0385 26.7954C18.9917 26.4484 19.8173 25.4132 19.6103 24.9867C19.1078 24.4904 18.3981 25.4842 18.3055 25.9406C18.1147 26.8811 18.1735 27.8682 18.1761 28.8299C18.1889 30.1683 18.1864 31.5067 18.1688 32.845C18.4888 32.8575 19.2044 32.8456 19.4503 33.03L19.4597 33.1008C19.3073 33.2836 19.0598 33.2445 18.8366 33.2457C18.2451 33.2394 15.3343 33.2993 14.9739 33.1913C14.8869 33.0725 14.9016 33.1266 14.9113 32.9891C15.1138 32.8023 15.7977 32.8634 16.1006 32.8681L16.1038 24.849C15.8098 24.8561 15.077 24.934 14.8848 24.6971L14.8967 24.5837C15.0955 24.4483 17.7791 24.4851 18.1242 24.5455C18.2242 24.6899 18.1158 24.7446 18.1865 24.9756C18.5976 25.0134 18.6798 24.4618 19.5178 24.3335Z" fill="white"/>
<path d="M57.0279 19.1969L57.0993 19.1627C57.2139 19.6347 57.2961 20.3057 57.36 20.7965C57.5197 22.0249 57.6437 23.0653 57.9129 24.2732C57.9115 24.4576 57.8983 24.6642 57.9462 24.8399C57.9969 25.2302 58.0599 25.6178 58.12 26.0068C58.1581 26.2531 58.1679 26.3878 57.8964 26.4652L57.8171 26.4183C57.6545 26.0778 57.578 24.0346 57.4117 23.3121C57.3121 22.5034 56.7316 21.689 56.2407 21.0437L56.3586 20.9853C56.8466 21.5894 57.0538 22.0567 57.3464 22.752C57.3694 22.1407 57.144 19.8298 57.0279 19.1969Z" fill="white"/>
<path d="M57.9129 24.2732L58.0665 24.3352C58.353 24.3431 58.4577 24.3175 58.7207 24.2349L58.8184 24.2876C58.2553 24.5768 57.9185 24.2058 57.9462 24.8399C57.8983 24.6642 57.9114 24.4576 57.9129 24.2732Z" fill="white"/>
</g>
</g>
<defs>
<clipPath id="clip0_3376_19674">
<rect width="93.75" height="40" fill="white"/>
</clipPath>
<clipPath id="clip1_3376_19674">
<rect width="95" height="40" fill="white" transform="translate(-1.25)"/>
</clipPath>
</defs>
</svg>
