<svg width="104" height="40" viewBox="0 0 104 40" fill="none" xmlns="http://www.w3.org/2000/svg">
<g clip-path="url(#clip0_3376_19612)">
<path d="M4.18262 5H99.1045V35H4.18262V5Z" fill="#EDEFF7"/>
<path d="M7.92787 7.98321C9.27321 7.95266 10.7036 7.97582 12.0538 7.97576L19.6679 7.97567L42.6032 7.97603L95.5812 7.98252L95.5728 32.2681L7.93191 32.2628C7.89926 29.5759 7.9304 26.8123 7.93035 24.1195L7.92787 7.98321Z" fill="#12182B"/>
<path d="M31.5723 8.70068C33.8296 8.77491 36.5178 8.71121 38.7926 8.71124L52.7436 8.71133L94.7993 8.70968L94.8021 20.6178C94.8031 24.2258 94.8401 27.9004 94.7947 31.5038C91.2041 31.4261 87.3933 31.4886 83.7897 31.4887L63.0992 31.489L42.5441 31.4878C38.9489 31.4878 35.1509 31.4246 31.5679 31.5037C31.5159 28.2891 31.5648 24.9319 31.5646 21.7075L31.5723 8.70068Z" fill="#EDEFF7"/>
<path d="M45.4401 15.2844L47.9278 15.2924C47.0199 16.7142 46.1296 18.2383 45.2408 19.6839C46.1378 21.1175 47.0226 22.5588 47.8951 24.0075C47.2443 24.0547 46.1784 24.0199 45.4879 24.0242C45.1457 23.4044 44.1407 21.6758 43.9824 21.1009C43.533 22.0516 42.9375 23.0899 42.4276 24.0212L40.0317 24.0167C40.2009 23.6568 40.7074 22.8688 40.9283 22.5081L42.6631 19.6801C41.765 18.233 40.8829 16.747 40.0005 15.2882L42.4811 15.2854L43.9976 18.1886C44.138 17.594 45.1048 15.9096 45.4401 15.2844Z" fill="#12182B"/>
<path d="M84.9155 15.28L87.4141 15.2891C86.4899 16.71 85.6501 18.2588 84.7175 19.6713C85.5032 20.8562 86.6813 22.7959 87.3821 24.0271C86.6002 24.0016 85.7298 24.0185 84.9414 24.0178C84.8969 23.9133 84.8459 23.8132 84.7908 23.7141C84.3157 22.8619 83.8791 21.9883 83.4073 21.1344C83.1454 21.848 82.2963 23.309 81.8963 24.0361C81.1571 23.9964 80.2648 24.016 79.5121 24.0158C79.7601 23.5348 80.1536 22.9259 80.4414 22.4545L82.1475 19.68C81.2488 18.3473 80.364 16.6825 79.4653 15.2915C80.2857 15.2775 81.1306 15.2849 81.9529 15.282C82.2856 15.9061 83.2599 17.6245 83.3966 18.1985C83.8851 17.2063 84.4056 16.2596 84.9155 15.28Z" fill="#12182B"/>
<path d="M73.9339 15.2817L76.4219 15.2899C75.5278 16.7172 74.6454 18.2829 73.729 19.6791C74.5888 21.002 75.5988 22.6638 76.3969 24.0231C75.5932 24.0117 74.7724 24.0194 73.9668 24.0187C73.5006 23.0806 72.9152 22.0915 72.4262 21.1379C72.1861 21.7858 71.2781 23.3868 70.9064 24.0262C70.3359 24.0178 69.0247 23.9784 68.5056 24.0429C69.1985 22.7505 70.3743 20.9552 71.1595 19.678C70.2511 18.2412 69.4015 16.7055 68.4727 15.2897L70.9667 15.2825C71.3287 15.9492 72.2246 17.5455 72.4104 18.1825C72.9124 17.2771 73.4375 16.2136 73.9339 15.2817Z" fill="#12182B"/>
<path d="M56.1549 15.2816L58.6378 15.2903C58.0089 16.457 57.3183 17.653 56.6694 18.8136C56.1869 19.6772 55.7221 20.1644 55.7526 21.2007C55.7795 22.1187 55.7628 23.093 55.761 24.0157L53.5956 24.0176C53.5803 23.0499 53.6438 21.4248 53.5604 20.5249C53.5344 20.2434 52.1588 17.9473 51.94 17.5057C51.6522 16.9251 51.0835 15.8604 50.7456 15.2908L53.1655 15.2819C53.5047 15.99 54.5031 17.9338 54.6199 18.6398C54.6797 18.5284 54.7325 18.4146 54.7826 18.2986C55.2229 17.285 55.7119 16.2936 56.1549 15.2816Z" fill="#12182B"/>
<path d="M63.2481 13.3042L63.9188 13.3005L63.9225 26.8804L63.2407 26.8794C63.2792 25.4618 63.2435 23.8703 63.2435 22.4412L63.2481 13.3042Z" fill="#12182B"/>
<path d="M8.67701 8.7002C11.2153 8.75887 13.9497 8.71167 16.5017 8.71172L30.7864 8.70759L30.7823 31.5108C29.662 31.4503 28.2291 31.4886 27.0936 31.4884H20.4776L13.0153 31.4886C11.6314 31.4882 10.0443 31.453 8.67484 31.5102C8.63337 28.6828 8.67246 25.7518 8.67226 22.9174L8.67701 8.7002Z" fill="#EDEFF7"/>
<path d="M12.155 13.3003L18.692 13.3035L18.6919 15.3071C18.2985 15.3179 17.8741 15.3066 17.4779 15.3028C18.2042 16.1479 19.0514 17.0905 19.7374 17.95C20.4396 17.0752 21.2565 16.155 21.9892 15.2954C21.63 15.3259 21.1826 15.3102 20.8139 15.3063L20.8208 13.3L27.307 13.3034L27.3102 15.3076C26.6949 15.3056 26.0796 15.3094 25.4644 15.319C24.9657 15.833 24.3402 16.5794 23.8522 17.1292L20.651 20.7339L18.3585 23.3252C17.9788 23.7538 17.3463 24.5049 16.9355 24.8653C17.5231 24.8667 18.1106 24.8718 18.6982 24.8806C18.6835 25.5342 18.6949 26.2237 18.6963 26.8804L12.1479 26.8804L12.1507 24.8754C12.5725 24.862 13.02 24.8689 13.444 24.8689C13.9501 24.3945 14.7424 23.4584 15.2281 22.921C16.1368 21.9155 17.104 20.8783 17.9864 19.8552C17.5743 19.427 17.0399 18.778 16.6394 18.3188L14.0181 15.3084C13.4014 15.3153 12.7688 15.3079 12.1508 15.3074L12.155 13.3003Z" fill="#12182B"/>
<path d="M20.8144 24.8792C21.0671 24.8653 21.3462 24.8679 21.6008 24.8713C23.4992 24.897 25.4189 24.8287 27.3152 24.8854C27.3084 25.5504 27.3086 26.2156 27.3156 26.8806L20.8086 26.8798C20.8259 26.2358 20.8139 25.5274 20.8144 24.8792Z" fill="#12182B"/>
</g>
<defs>
<clipPath id="clip0_3376_19612">
<rect width="93.75" height="30" fill="white" transform="translate(5 5)"/>
</clipPath>
</defs>
</svg>
