<svg width="113" height="40" viewBox="0 0 113 40" fill="none" xmlns="http://www.w3.org/2000/svg">
<path d="M38.0396 9.77674C39.2346 9.67864 41.2836 9.67318 42.5349 9.73928C45.6995 9.90651 49.402 9.03058 52.0389 11.1041C54.9669 13.4064 54.9254 17.9648 52.2747 20.4269C51.4316 21.2101 50.3482 21.7046 49.1931 21.7773C47.3975 21.8403 45.4866 21.8021 43.6943 21.7993C41.7436 21.8078 39.7929 21.7987 37.8424 21.7722C36.9249 21.7674 35.8773 21.8014 34.9737 21.76C35.2786 26.0209 37.1909 25.7168 40.7004 25.7155L46.212 25.7133L49.8663 25.7049C50.3655 25.7039 51.3901 25.6764 51.8543 25.7542C52.2313 25.8182 52.5902 25.9628 52.9064 26.1781C53.4028 26.5176 53.7493 27.0109 53.8572 27.6063C53.9658 28.1897 53.8366 28.7923 53.4982 29.2798C52.6712 30.4655 51.445 30.2507 50.2074 30.2793C48.8202 30.3114 47.44 30.2377 46.0572 30.2302L40.8122 30.23C39.7026 30.231 38.4975 30.3035 37.428 30.1235C33.8898 29.528 31.3569 27.4158 30.8512 23.7688C30.626 22.6535 30.6677 21.5701 30.6275 20.4512C30.4341 15.0739 32.22 10.7592 38.0396 9.77674ZM45.9869 17.3714C46.6243 17.3738 48.235 17.4632 48.7217 17.3334C50.5491 16.846 50.1706 14.28 48.3023 14.0431C47.2216 13.9061 46.2885 14.038 45.2141 13.9896C43.3535 14.011 41.45 13.958 39.6002 13.9962C39.5142 13.9982 39.4282 14.0013 39.3423 14.0053C37.2229 14.1234 35.7956 15.3017 35.3402 17.378L45.9869 17.3714Z" fill="#EDEFF7"/>
<path d="M63.5294 9.72744C63.6897 9.71945 63.8501 9.71428 64.011 9.71186L70.6285 9.70876C73.4152 9.70927 75.6966 9.41171 77.8334 11.5059C81.3695 14.9719 79.1443 21.8306 73.9418 21.767C72.3006 21.747 70.6769 21.7598 69.0549 21.7467L60.2797 21.7412C60.2836 22.168 60.3416 22.6392 60.4214 23.0591C60.9987 26.1079 63.7229 25.6817 66.0859 25.6811L72.008 25.6798L75.2904 25.671C75.7945 25.6698 76.8134 25.6408 77.2742 25.7351C77.6461 25.8113 77.9954 25.9731 78.2942 26.2075C78.7803 26.5864 79.1038 27.1127 79.1786 27.7281C79.2512 28.3061 79.0909 28.8892 78.7325 29.3486C77.8756 30.4316 76.5011 30.2323 75.2757 30.224L71.7914 30.1984L66.2237 30.187C63.3459 30.1792 61.0392 30.2414 58.6177 28.3419C56.9416 27.0274 56.2468 24.9812 56.1005 22.8948C55.8698 19.5994 55.7354 15.4005 57.9026 12.6567C59.2253 11.0431 61.4989 9.93646 63.5294 9.72744ZM60.6504 17.3523L71.1219 17.3475C71.9529 17.3533 74.1134 17.5634 74.6934 16.9649C75.7995 15.8234 75.0563 14.2486 73.5721 13.9959C72.6618 13.8755 71.621 13.9447 70.6949 13.9467L64.8504 13.9507C62.7625 14.0416 60.9874 15.1549 60.6504 17.3523Z" fill="#EDEFF7"/>
<path d="M7.54939 9.94798C8.11499 9.84138 9.71165 9.91457 10.3708 9.91552L15.4422 9.91963L20.3586 9.91355C22.9516 9.91091 24.4565 9.74492 26.6017 11.4996C28.7741 13.2764 29.1939 16.2588 28.0446 18.7138C27.0223 20.8975 24.3344 22.1356 22.0278 22.0854C18.7612 22.1204 15.5211 22.1305 12.2577 22.1424C11.75 22.1443 11.1935 22.4225 10.87 22.8106C10.5654 23.1757 10.4172 23.6463 10.4577 24.12C10.6912 26.5817 13.47 25.9866 15.3071 25.9822L23.243 25.9918C24.2722 25.9912 25.302 25.9896 26.3307 25.9905C27.0437 25.9912 27.679 25.9835 28.259 26.4638C29.1771 27.2242 29.3028 28.6819 28.5243 29.585C28.0862 30.0931 27.6431 30.2383 26.9988 30.2887L16.673 30.2923L13.6889 30.2963C11.7705 30.302 10.2526 30.2912 8.61617 29.112C5.77972 27.0681 5.19432 22.9894 7.26076 20.1847C9.12709 17.6517 11.6662 17.7697 14.4677 17.7765L19.7229 17.7908C21.0558 17.7946 23.1596 18.0824 24.0162 16.8752C24.6992 15.9126 23.9418 14.8023 22.8942 14.5532C21.6727 14.2628 20.3539 14.3625 19.0962 14.3621L11.4036 14.3655C10.0932 14.3674 8.79013 14.3992 7.47186 14.332C5.77415 14.2455 4.76177 12.2808 5.77072 10.8894C6.22143 10.2678 6.82085 10.0578 7.54939 9.94798Z" fill="#EDEFF7"/>
<path d="M83.6756 10.2848C84.5663 10.1042 85.8187 10.8526 85.9891 11.7674C86.1444 12.6002 86.0859 13.5927 86.0848 14.449L86.0769 20.6165C86.0758 21.4837 86.0111 22.9209 86.1337 23.7405C86.5191 26.3168 90.2229 25.8798 92.1628 25.8769L99.8966 25.9133C101.095 25.917 102.356 25.8735 103.546 25.9322C104.475 25.9781 105.41 26.7314 105.56 27.6915C105.654 28.3249 105.495 28.9697 105.117 29.4869C104.799 29.919 104.462 30.1161 103.942 30.1966C103.009 30.2336 101.904 30.2043 100.95 30.204L95.2718 30.2022L91.4814 30.2066C88.8788 30.21 86.4437 30.2101 84.2197 28.6444C83.0224 27.8014 82.0047 26.2569 81.7397 24.8125C81.6153 24.1362 81.6705 23.0492 81.6693 22.3404L81.6677 18.4083L81.6688 14.3835C81.6699 12.5852 81.2991 10.618 83.6756 10.2848Z" fill="#EDEFF7"/>
<path d="M102.989 19.8848C104.278 19.7887 105.402 20.7524 105.504 22.0407C105.605 23.329 104.646 24.457 103.358 24.5638C102.062 24.6712 100.926 23.7052 100.824 22.4093C100.722 21.1135 101.693 19.9815 102.989 19.8848ZM103.413 24.0409C104.417 23.9023 105.118 22.9766 104.98 21.9731C104.841 20.9696 103.916 20.2681 102.912 20.4062C101.908 20.5443 101.206 21.4702 101.344 22.4742C101.482 23.4781 102.409 24.1796 103.413 24.0409Z" fill="#EDEFF7"/>
<path d="M102.252 21.0831C102.812 21.0677 103.921 20.9429 104.145 21.5693C104.116 21.925 103.89 22.1134 103.652 22.3674C103.75 22.7263 104.243 22.9385 104.213 23.298C104.072 23.3977 103.897 23.3565 103.72 23.3397C103.516 23.038 103.234 22.5168 102.888 22.443L102.778 22.5368C102.677 22.7442 102.713 23.1042 102.719 23.3478L102.244 23.356L102.252 21.0831ZM103.571 21.9774C103.601 21.7302 103.626 21.7986 103.536 21.5919C103.331 21.4445 102.977 21.4835 102.714 21.4857C102.722 21.7369 102.684 21.8002 102.802 21.9894C102.976 22.096 103.362 22.0168 103.571 21.9774Z" fill="#EDEFF7"/>
</svg>
