<svg width="27" height="19" viewBox="0 0 27 19" fill="none" xmlns="http://www.w3.org/2000/svg">
<path d="M24.5319 0.0625H2.40625C1.10267 0.0625 0.046875 1.12485 0.046875 2.42188V16.5781C0.046875 17.8829 1.11043 18.9375 2.40625 18.9375H24.5319C25.8246 18.9375 26.8913 17.8873 26.8913 16.5781V2.42188C26.8913 1.12715 25.8397 0.0625 24.5319 0.0625ZM24.2015 1.63542C23.7195 2.11489 15.4239 10.3668 15.1374 10.6517C14.6918 11.0974 14.0993 11.3428 13.4691 11.3428C12.8389 11.3428 12.2464 11.0973 11.7993 10.6503C11.6067 10.4586 3.40259 2.29782 2.73667 1.63542H24.2015ZM1.61979 16.258V2.74301L8.41678 9.50419L1.61979 16.258ZM2.73766 17.3646L9.53198 10.6135L10.6885 11.764C11.4313 12.5067 12.4188 12.9157 13.4691 12.9157C14.5194 12.9157 15.5069 12.5067 16.2482 11.7654L17.4062 10.6135L24.2005 17.3646H2.73766ZM25.3184 16.258L18.5214 9.50419L25.3184 2.74301V16.258Z" fill="#8E59FF"/>
</svg>
