<svg width="17" height="27" viewBox="0 0 17 27" fill="none" xmlns="http://www.w3.org/2000/svg">
<path d="M13.1504 0.5H2.94335C1.33334 0.5 0.0234375 1.80985 0.0234375 3.41992V23.58C0.0234375 25.1901 1.33329 26.4999 2.94335 26.4999H13.1504C14.7604 26.4999 16.0703 25.1901 16.0703 23.58V3.41992C16.0703 1.80985 14.7604 0.5 13.1504 0.5ZM2.94335 2.02343H13.1504C13.9204 2.02343 14.5468 2.64992 14.5468 3.41992V20.5586H1.54687V3.41992C1.54687 2.64992 2.17336 2.02343 2.94335 2.02343ZM13.1504 24.9766H2.94335C2.17331 24.9766 1.54687 24.3501 1.54687 23.5801V22.082H14.5468V23.58C14.5468 24.3501 13.9204 24.9766 13.1504 24.9766Z" fill="#8E59FF"/>
<path d="M8.04688 22.6914C7.6262 22.6914 7.28516 23.0325 7.28516 23.4531V23.5547C7.28516 23.9754 7.6262 24.3164 8.04688 24.3164C8.46755 24.3164 8.80859 23.9754 8.80859 23.5547V23.4531C8.80859 23.0325 8.4676 22.6914 8.04688 22.6914Z" fill="#8E59FF"/>
</svg>
