<svg width="26" height="25" viewBox="0 0 26 25" fill="none" xmlns="http://www.w3.org/2000/svg">
<path d="M24.4503 17.8576C24.4072 17.8219 19.5412 14.3395 18.2209 14.5678C17.5863 14.6799 17.2231 15.1122 16.4959 15.9791C16.3789 16.1189 16.097 16.4528 15.8792 16.6909C15.4196 16.5411 14.9713 16.3587 14.5378 16.1449C12.2998 15.0553 10.4916 13.2471 9.402 11.0091C9.1882 10.5755 9.00574 10.1272 8.856 9.66763C9.09488 9.44906 9.42962 9.16712 9.57263 9.04688C10.4347 8.32375 10.8669 7.96056 10.9791 7.32519C11.209 6.00975 7.725 1.13963 7.68925 1.09575C7.53059 0.870733 7.32395 0.683751 7.08424 0.548301C6.84453 0.412851 6.57774 0.332313 6.30312 0.3125C4.891 0.3125 0.859375 5.54175 0.859375 6.42331C0.859375 6.4745 0.933313 11.6777 7.34963 18.2046C13.8691 24.6136 19.0724 24.6875 19.1236 24.6875C20.0051 24.6875 25.2344 20.6559 25.2344 19.2437C25.2146 18.969 25.134 18.7022 24.9984 18.4624C24.8628 18.2227 24.6756 18.0161 24.4503 17.8576ZM19.0342 23.0576C18.3241 22.9991 13.9577 22.4231 8.4985 17.0597C3.10756 11.5713 2.54612 7.19275 2.49006 6.51431C3.55507 4.84271 4.84127 3.32283 6.31369 1.996C6.34619 2.0285 6.38925 2.07725 6.4445 2.14062C7.57373 3.68212 8.5465 5.33234 9.34838 7.06681C9.08761 7.32915 8.81199 7.57628 8.52288 7.807C8.07453 8.14862 7.66283 8.53581 7.29437 8.96237L7.09694 9.23862L7.15544 9.57256C7.32739 10.3174 7.59074 11.0381 7.9395 11.7184C9.18903 14.2843 11.2624 16.3574 13.8285 17.6066C14.5086 17.9558 15.2294 18.2195 15.9743 18.3914L16.3083 18.4499L16.5845 18.2525C17.0127 17.8824 17.4015 17.4691 17.7447 17.0191C17.9991 16.7153 18.3395 16.3098 18.4679 16.1953C20.2073 16.9963 21.8617 17.9703 23.4062 19.1024C23.4737 19.1593 23.5208 19.2031 23.5525 19.2316C22.2259 20.7044 20.706 21.9909 19.0342 23.056V23.0576Z" fill="#8E59FF"/>
</svg>
