<svg width="402" height="511" viewBox="0 0 402 511" fill="none" xmlns="http://www.w3.org/2000/svg">
<mask id="path-2-outside-1_4263_20284" maskUnits="userSpaceOnUse" x="0.046875" y="0" width="401" height="510" fill="black">
<rect fill="white" x="0.046875" width="401" height="510"/>
<path d="M390.047 2C395.017 2.00007 399.047 6.02949 399.047 11V452.25C399.047 457.773 394.57 462.25 389.047 462.25H363C357.477 462.25 353 466.727 353 472.25V498C353 503.523 348.523 508 343 508H11.0469C6.0763 508 2.04688 503.971 2.04688 499V11C2.04688 6.02944 6.07631 2 11.0469 2H390.047Z"/>
</mask>
<path d="M390.047 2C395.017 2.00007 399.047 6.02949 399.047 11V452.25C399.047 457.773 394.57 462.25 389.047 462.25H363C357.477 462.25 353 466.727 353 472.25V498C353 503.523 348.523 508 343 508H11.0469C6.0763 508 2.04688 503.971 2.04688 499V11C2.04688 6.02944 6.07631 2 11.0469 2H390.047Z" fill="white"/>
<path d="M390.047 2L390.047 0H390.047V2ZM2.04688 11H0.046875V11H2.04688ZM390.047 2L390.047 4C393.913 4.00006 397.047 7.13409 397.047 11H399.047H401.047C401.047 4.9249 396.122 9.07183e-05 390.047 0L390.047 2ZM399.047 11H397.047V452.25H399.047H401.047V11H399.047ZM389.047 462.25V460.25H363V462.25V464.25H389.047V462.25ZM353 472.25H351V498H353H355V472.25H353ZM343 508V506H11.0469V508V510H343V508ZM11.0469 508V506C7.18087 506 4.04688 502.866 4.04688 499H2.04688H0.046875C0.046875 505.075 4.97173 510 11.0469 510V508ZM2.04688 499H4.04688V11H2.04688H0.046875V499H2.04688ZM2.04688 11H4.04688C4.04688 7.13401 7.18088 4 11.0469 4V2V0C4.97174 0 0.0468763 4.92487 0.046875 11H2.04688ZM11.0469 2V4H390.047V2V0H11.0469V2ZM353 498H351C351 502.418 347.418 506 343 506V508V510C349.627 510 355 504.627 355 498H353ZM363 462.25V460.25C356.373 460.25 351 465.623 351 472.25H353H355C355 467.832 358.582 464.25 363 464.25V462.25ZM399.047 452.25H397.047C397.047 456.668 393.465 460.25 389.047 460.25V462.25V464.25C395.674 464.25 401.047 458.877 401.047 452.25H399.047Z" fill="white" mask="url(#path-2-outside-1_4263_20284)"/>
<g clip-path="url(#clip0_4263_20284)">
<g opacity="0.08" filter="url(#filter0_f_4263_20284)">
<path d="M350 530.75C350 495.344 335.935 461.387 310.899 436.351C285.863 411.315 251.906 397.25 216.5 397.25C181.094 397.25 147.137 411.315 122.101 436.351C97.0651 461.387 83 495.344 83 530.75L216.5 530.75H350Z" fill="#DD4062"/>
</g>
</g>
<defs>
<filter id="filter0_f_4263_20284" x="-17" y="297.25" width="467" height="333.5" filterUnits="userSpaceOnUse" color-interpolation-filters="sRGB">
<feFlood flood-opacity="0" result="BackgroundImageFix"/>
<feBlend mode="normal" in="SourceGraphic" in2="BackgroundImageFix" result="shape"/>
<feGaussianBlur stdDeviation="50" result="effect1_foregroundBlur_4263_20284"/>
</filter>
<clipPath id="clip0_4263_20284">
<rect width="372" height="172" fill="white" transform="translate(23 335.25)"/>
</clipPath>
</defs>
</svg>
