<svg width="118" height="74" viewBox="0 0 118 74" fill="none" xmlns="http://www.w3.org/2000/svg">
<path d="M63.3895 7.61654L53.4103 12.4068C52.6423 12.7754 51.8216 12.8678 50.9851 12.6804C50.4377 12.5578 50.1639 12.4964 49.9434 12.4713C47.2061 12.1587 45.5 14.3251 45.5 16.8164V18.1835C45.5 20.6749 47.2061 22.8413 49.9434 22.5287C50.1639 22.5035 50.4377 22.4422 50.9851 22.3196C51.8216 22.1321 52.6423 22.2245 53.4103 22.5932L63.3895 27.3835C65.6801 28.4831 66.8255 29.0329 68.1026 28.6043C69.3795 28.1758 69.8179 27.2561 70.6946 25.417C73.1018 20.3668 73.1018 14.6333 70.6946 9.58294C69.8179 7.74379 69.3795 6.82421 68.1026 6.39565C66.8255 5.9671 65.6801 6.51691 63.3895 7.61654Z" stroke="white" stroke-width="1.5" stroke-linecap="round" stroke-linejoin="round"/>
<path d="M60.5 26.5V27.25C60.5 29.1762 60.5 30.1392 60.164 30.6829C59.716 31.4079 58.8968 31.8175 58.048 31.7409C57.4114 31.6836 56.6409 31.1056 55.1 29.95L53.3 28.6C51.8338 27.5003 51.5 26.8327 51.5 25V22.75" stroke="white" stroke-width="1.5" stroke-linecap="round" stroke-linejoin="round"/>
<path d="M52.25 22V13" stroke="white" stroke-width="1.5" stroke-linecap="round" stroke-linejoin="round"/>
<path d="M4.54325 65L8.45985 54.6361H10.0867L13.9883 65H12.6476L11.5781 62.168H6.92334L5.85381 65H4.54325ZM7.315 61.0382H11.1864L9.28836 55.9617H9.21304L7.315 61.0382ZM18.2302 65.1205C17.6778 65.1205 17.2159 65.0603 16.8443 64.9397C16.4828 64.8192 16.1965 64.6134 15.9856 64.3221C15.7748 64.0209 15.6241 63.6141 15.5337 63.102C15.4433 62.5898 15.3982 61.9471 15.3982 61.1738C15.3982 60.3905 15.4383 59.7427 15.5187 59.2306C15.609 58.7083 15.7597 58.3016 15.9706 58.0104C16.1815 57.7191 16.4677 57.5133 16.8292 57.3928C17.1908 57.2622 17.6477 57.1969 18.2 57.1969C18.6118 57.1969 18.9783 57.2321 19.2997 57.3024C19.621 57.3626 19.8972 57.4731 20.1282 57.6338C20.3692 57.7945 20.56 58.0154 20.7006 58.2966H20.7759V53.8076H22.0112V65H20.9115L20.8513 63.9003H20.7609C20.6203 64.2518 20.4144 64.518 20.1433 64.6987C19.8822 64.8694 19.5859 64.9799 19.2545 65.0301C18.9231 65.0904 18.5816 65.1205 18.2302 65.1205ZM18.7122 64.0359C19.2244 64.0359 19.6311 63.9656 19.9324 63.825C20.2336 63.6844 20.4445 63.4635 20.5651 63.1622C20.6655 62.881 20.7257 62.5747 20.7458 62.2433C20.7659 61.9119 20.7759 61.5203 20.7759 61.0683C20.7759 60.6968 20.7659 60.3603 20.7458 60.0591C20.7257 59.7477 20.6705 59.4766 20.5801 59.2456C20.4496 58.9042 20.2336 58.6631 19.9324 58.5226C19.6311 58.3719 19.2143 58.2966 18.6821 58.2966C18.2302 58.2966 17.8686 58.3267 17.5975 58.387C17.3263 58.4472 17.1205 58.5778 16.9799 58.7786C16.8393 58.9694 16.7439 59.2557 16.6936 59.6373C16.6434 60.0089 16.6183 60.516 16.6183 61.1587C16.6183 61.8014 16.6434 62.3136 16.6936 62.6952C16.7439 63.0769 16.8393 63.3631 16.9799 63.5539C17.1205 63.7447 17.3263 63.8752 17.5975 63.9455C17.8787 64.0058 18.2502 64.0359 18.7122 64.0359ZM26.528 65L23.711 57.3174H24.9915L27.251 63.7196H27.3715L29.6161 57.3174H30.8814L28.0645 65H26.528ZM35.5739 65.1205C34.9513 65.1205 34.4291 65.0803 34.0073 65C33.5955 64.9197 33.2641 64.7891 33.0131 64.6083C32.762 64.4175 32.5712 64.1715 32.4406 63.8702C32.3101 63.5589 32.2247 63.1823 32.1846 62.7404C32.1444 62.2986 32.1243 61.7763 32.1243 61.1738C32.1243 60.4608 32.1544 59.8532 32.2147 59.3511C32.2749 58.8389 32.4105 58.4271 32.6214 58.1158C32.8423 57.7945 33.1838 57.5635 33.6457 57.4229C34.1077 57.2723 34.7303 57.1969 35.5137 57.1969C36.1062 57.1969 36.5882 57.2421 36.9598 57.3325C37.3414 57.4229 37.6427 57.5635 37.8636 57.7543C38.0846 57.9451 38.2452 58.2012 38.3457 58.5226C38.4561 58.8339 38.5264 59.2105 38.5566 59.6523C38.5867 60.0842 38.6017 60.5863 38.6017 61.1587V61.5654H33.3445C33.3445 62.0877 33.3696 62.5145 33.4198 62.8459C33.47 63.1773 33.5704 63.4334 33.7211 63.6141C33.8817 63.7949 34.1278 63.9204 34.4592 63.9907C34.8006 64.061 35.2626 64.0962 35.8451 64.0962C36.0861 64.0962 36.3522 64.0911 36.6435 64.0811C36.9347 64.061 37.2259 64.0359 37.5172 64.0058C37.8084 63.9757 38.0695 63.9455 38.3005 63.9154V64.9096C38.0896 64.9498 37.8285 64.9849 37.5172 65.0151C37.2159 65.0452 36.8945 65.0703 36.5531 65.0904C36.2217 65.1105 35.8953 65.1205 35.5739 65.1205ZM37.4117 60.9478V60.5411C37.4117 60.0189 37.3816 59.6071 37.3213 59.3059C37.2611 58.9946 37.1556 58.7636 37.005 58.6129C36.8644 58.4523 36.6686 58.3468 36.4175 58.2966C36.1664 58.2464 35.8551 58.2213 35.4835 58.2213C35.0015 58.2213 34.6199 58.2564 34.3387 58.3267C34.0575 58.387 33.8466 58.5025 33.706 58.6732C33.5654 58.8439 33.47 59.09 33.4198 59.4113C33.3696 59.7327 33.3445 60.1595 33.3445 60.6917H37.6979L37.4117 60.9478ZM40.8552 65V57.3174H41.9549L42.0151 58.7937H42.1055C42.2361 58.3619 42.4218 58.0305 42.6629 57.7995C42.9039 57.5685 43.1951 57.4129 43.5366 57.3325C43.878 57.2421 44.2546 57.1969 44.6664 57.1969V58.402C43.9734 58.402 43.4412 58.5125 43.0696 58.7334C42.698 58.9544 42.4419 59.2958 42.3013 59.7578C42.1607 60.2197 42.0904 60.8022 42.0904 61.5052V65H40.8552ZM47.0342 65V58.3569H45.4826V57.3174H47.0342V55.088H48.2544V57.3174H50.0922V58.3569H48.2544V65H47.0342ZM51.7552 55.1483V53.8076H53.0657V55.1483H51.7552ZM51.7853 65V57.3174H53.0205V65H51.7853ZM58.171 65.1205C57.8797 65.1205 57.5684 65.1105 57.237 65.0904C56.9056 65.0703 56.5792 65.0452 56.2579 65.0151C55.9365 64.995 55.6453 64.9649 55.3841 64.9247V63.9305C55.6252 63.9506 55.8561 63.9706 56.0771 63.9907C56.3081 64.0108 56.534 64.0309 56.755 64.051C56.9759 64.061 57.1968 64.0711 57.4178 64.0811C57.6387 64.0811 57.8647 64.0811 58.0956 64.0811C58.6179 64.0811 58.9944 64.046 59.2254 63.9757C59.4664 63.8953 59.6221 63.7648 59.6924 63.584C59.7727 63.4032 59.8129 63.1672 59.8129 62.876C59.8129 62.5446 59.7828 62.3036 59.7225 62.1529C59.6723 62.0023 59.5769 61.9069 59.4363 61.8667C59.3058 61.8165 59.1049 61.7763 58.8338 61.7462L56.8453 61.5203C56.3733 61.47 56.0168 61.3696 55.7758 61.219C55.5348 61.0583 55.3691 60.8323 55.2787 60.5411C55.1883 60.2499 55.1431 59.8833 55.1431 59.4414C55.1431 58.9393 55.2134 58.5376 55.354 58.2363C55.4946 57.9351 55.6955 57.7091 55.9566 57.5585C56.2177 57.4078 56.534 57.3124 56.9056 57.2723C57.2772 57.222 57.6939 57.1969 58.1559 57.1969C58.417 57.1969 58.6932 57.207 58.9844 57.2271C59.2756 57.2471 59.5619 57.2723 59.843 57.3024C60.1242 57.3325 60.3653 57.3677 60.5661 57.4078V58.402C60.305 58.3619 60.0389 58.3317 59.7677 58.3117C59.5066 58.2815 59.2355 58.2614 58.9543 58.2514C58.6831 58.2414 58.407 58.2363 58.1258 58.2363C57.7441 58.2363 57.4178 58.2564 57.1466 58.2966C56.8755 58.3368 56.6696 58.4372 56.529 58.5979C56.3984 58.7586 56.3332 59.0247 56.3332 59.3963C56.3332 59.6875 56.3533 59.9084 56.3934 60.0591C56.4436 60.1997 56.539 60.3001 56.6796 60.3603C56.8202 60.4106 57.0161 60.4507 57.2671 60.4809L59.3459 60.7068C59.7577 60.747 60.079 60.8273 60.31 60.9478C60.551 61.0583 60.7218 61.2591 60.8222 61.5504C60.9327 61.8416 60.9879 62.2785 60.9879 62.8609C60.9879 63.343 60.9276 63.7346 60.8071 64.0359C60.6967 64.3271 60.5209 64.5531 60.2799 64.7138C60.0389 64.8745 59.7426 64.9799 59.3911 65.0301C59.0396 65.0904 58.6329 65.1205 58.171 65.1205ZM66.2606 65.1205C65.6379 65.1205 65.1157 65.0803 64.6939 65C64.2822 64.9197 63.9508 64.7891 63.6997 64.6083C63.4487 64.4175 63.2579 64.1715 63.1273 63.8702C62.9968 63.5589 62.9114 63.1823 62.8712 62.7404C62.8311 62.2986 62.811 61.7763 62.811 61.1738C62.811 60.4608 62.8411 59.8532 62.9014 59.3511C62.9616 58.8389 63.0972 58.4271 63.3081 58.1158C63.529 57.7945 63.8705 57.5635 64.3324 57.4229C64.7944 57.2723 65.417 57.1969 66.2003 57.1969C66.7928 57.1969 67.2749 57.2421 67.6465 57.3325C68.0281 57.4229 68.3294 57.5635 68.5503 57.7543C68.7712 57.9451 68.9319 58.2012 69.0323 58.5226C69.1428 58.8339 69.2131 59.2105 69.2432 59.6523C69.2734 60.0842 69.2884 60.5863 69.2884 61.1587V61.5654H64.0311C64.0311 62.0877 64.0562 62.5145 64.1065 62.8459C64.1567 63.1773 64.2571 63.4334 64.4077 63.6141C64.5684 63.7949 64.8145 63.9204 65.1459 63.9907C65.4873 64.061 65.9493 64.0962 66.5317 64.0962C66.7728 64.0962 67.0389 64.0911 67.3301 64.0811C67.6214 64.061 67.9126 64.0359 68.2038 64.0058C68.4951 63.9757 68.7562 63.9455 68.9871 63.9154V64.9096C68.7762 64.9498 68.5151 64.9849 68.2038 65.0151C67.9025 65.0452 67.5812 65.0703 67.2397 65.0904C66.9083 65.1105 66.5819 65.1205 66.2606 65.1205ZM68.0984 60.9478V60.5411C68.0984 60.0189 68.0682 59.6071 68.008 59.3059C67.9477 58.9946 67.8423 58.7636 67.6917 58.6129C67.5511 58.4523 67.3552 58.3468 67.1042 58.2966C66.8531 58.2464 66.5418 58.2213 66.1702 58.2213C65.6882 58.2213 65.3065 58.2564 65.0254 58.3267C64.7442 58.387 64.5333 58.5025 64.3927 58.6732C64.2521 58.8439 64.1567 59.09 64.1065 59.4113C64.0562 59.7327 64.0311 60.1595 64.0311 60.6917H68.3846L68.0984 60.9478ZM71.5419 65V57.3174H72.6566L72.7018 58.4171H72.7922C72.8826 58.1761 73.0181 57.9652 73.1989 57.7844C73.3897 57.6037 73.6357 57.4631 73.937 57.3626C74.2483 57.2522 74.645 57.1969 75.1271 57.1969C75.81 57.1969 76.3171 57.2974 76.6485 57.4982C76.9799 57.689 77.2109 57.9953 77.3414 58.4171H77.4318C77.5323 58.1761 77.6779 57.9652 77.8687 57.7844C78.0595 57.6037 78.3156 57.4631 78.6369 57.3626C78.9583 57.2522 79.355 57.1969 79.827 57.1969C80.5199 57.1969 81.0371 57.3024 81.3786 57.5133C81.72 57.7242 81.946 58.0506 82.0564 58.4924C82.1669 58.9343 82.2221 59.5017 82.2221 60.1946V65H81.002V60.6164C81.002 60.0942 80.9819 59.6825 80.9417 59.3812C80.9015 59.0699 80.8262 58.8389 80.7157 58.6883C80.6053 58.5276 80.4396 58.4221 80.2186 58.3719C79.9977 58.3217 79.7014 58.2966 79.3299 58.2966C78.898 58.2966 78.5566 58.3569 78.3055 58.4774C78.0545 58.5878 77.8687 58.7586 77.7482 58.9895C77.6377 59.2205 77.5674 59.5067 77.5373 59.8482C77.5071 60.1896 77.4921 60.5863 77.4921 61.0382V65H76.2719V60.6164C76.2719 60.0942 76.2518 59.6825 76.2117 59.3812C76.1715 59.0699 76.0962 58.8389 75.9857 58.6883C75.8752 58.5276 75.7095 58.4221 75.4886 58.3719C75.2677 58.3217 74.9714 58.2966 74.5998 58.2966C74.168 58.2966 73.8266 58.3619 73.5755 58.4924C73.3244 58.6129 73.1437 58.7887 73.0332 59.0197C72.9227 59.2506 72.8524 59.5369 72.8223 59.8783C72.7922 60.2197 72.7771 60.6064 72.7771 61.0382V65H71.5419ZM87.959 65.1205C87.3363 65.1205 86.8141 65.0803 86.3923 65C85.9806 64.9197 85.6492 64.7891 85.3981 64.6083C85.1471 64.4175 84.9563 64.1715 84.8257 63.8702C84.6951 63.5589 84.6098 63.1823 84.5696 62.7404C84.5294 62.2986 84.5094 61.7763 84.5094 61.1738C84.5094 60.4608 84.5395 59.8532 84.5997 59.3511C84.66 58.8389 84.7956 58.4271 85.0065 58.1158C85.2274 57.7945 85.5689 57.5635 86.0308 57.4229C86.4928 57.2723 87.1154 57.1969 87.8987 57.1969C88.4912 57.1969 88.9733 57.2421 89.3449 57.3325C89.7265 57.4229 90.0277 57.5635 90.2487 57.7543C90.4696 57.9451 90.6303 58.2012 90.7307 58.5226C90.8412 58.8339 90.9115 59.2105 90.9416 59.6523C90.9717 60.0842 90.9868 60.5863 90.9868 61.1587V61.5654H85.7295C85.7295 62.0877 85.7546 62.5145 85.8049 62.8459C85.8551 63.1773 85.9555 63.4334 86.1061 63.6141C86.2668 63.7949 86.5129 63.9204 86.8443 63.9907C87.1857 64.061 87.6477 64.0962 88.2301 64.0962C88.4711 64.0962 88.7373 64.0911 89.0285 64.0811C89.3197 64.061 89.611 64.0359 89.9022 64.0058C90.1934 63.9757 90.4546 63.9455 90.6855 63.9154V64.9096C90.4746 64.9498 90.2135 64.9849 89.9022 65.0151C89.6009 65.0452 89.2796 65.0703 88.9381 65.0904C88.6067 65.1105 88.2803 65.1205 87.959 65.1205ZM89.7968 60.9478V60.5411C89.7968 60.0189 89.7666 59.6071 89.7064 59.3059C89.6461 58.9946 89.5407 58.7636 89.39 58.6129C89.2494 58.4523 89.0536 58.3468 88.8026 58.2966C88.5515 58.2464 88.2402 58.2213 87.8686 58.2213C87.3866 58.2213 87.0049 58.2564 86.7237 58.3267C86.4426 58.387 86.2317 58.5025 86.0911 58.6732C85.9505 58.8439 85.8551 59.09 85.8049 59.4113C85.7546 59.7327 85.7295 60.1595 85.7295 60.6917H90.083L89.7968 60.9478ZM93.2403 65V57.3174H94.355L94.4002 58.4171H94.4906C94.601 58.1761 94.7517 57.9652 94.9425 57.7844C95.1433 57.6037 95.4095 57.4631 95.7409 57.3626C96.0823 57.2522 96.5141 57.1969 97.0363 57.1969C97.6088 57.1969 98.0657 57.2572 98.4072 57.3777C98.7486 57.4982 99.0097 57.679 99.1905 57.92C99.3813 58.161 99.5068 58.4723 99.5671 58.854C99.6273 59.2255 99.6575 59.6724 99.6575 60.1946V65H98.4373V60.6164C98.4373 60.0942 98.4122 59.6825 98.362 59.3812C98.3218 59.0699 98.2364 58.8389 98.1059 58.6883C97.9753 58.5276 97.7845 58.4221 97.5335 58.3719C97.2824 58.3217 96.951 58.2966 96.5392 58.2966C96.0472 58.2966 95.6605 58.3619 95.3793 58.4924C95.0981 58.6129 94.8923 58.7937 94.7617 59.0347C94.6312 59.2657 94.5508 59.5519 94.5207 59.8934C94.4906 60.2248 94.4755 60.6064 94.4755 61.0382V65H93.2403ZM102.906 65V58.3569H101.354V57.3174H102.906V55.088H104.126V57.3174H105.964V58.3569H104.126V65H102.906ZM110.218 65.1205C109.926 65.1205 109.615 65.1105 109.284 65.0904C108.952 65.0703 108.626 65.0452 108.305 65.0151C107.983 64.995 107.692 64.9649 107.431 64.9247V63.9305C107.672 63.9506 107.903 63.9706 108.124 63.9907C108.355 64.0108 108.581 64.0309 108.802 64.051C109.023 64.061 109.244 64.0711 109.464 64.0811C109.685 64.0811 109.911 64.0811 110.142 64.0811C110.665 64.0811 111.041 64.046 111.272 63.9757C111.513 63.8953 111.669 63.7648 111.739 63.584C111.819 63.4032 111.86 63.1672 111.86 62.876C111.86 62.5446 111.829 62.3036 111.769 62.1529C111.719 62.0023 111.624 61.9069 111.483 61.8667C111.352 61.8165 111.152 61.7763 110.88 61.7462L108.892 61.5203C108.42 61.47 108.064 61.3696 107.823 61.219C107.581 61.0583 107.416 60.8323 107.325 60.5411C107.235 60.2499 107.19 59.8833 107.19 59.4414C107.19 58.9393 107.26 58.5376 107.401 58.2363C107.541 57.9351 107.742 57.7091 108.003 57.5585C108.264 57.4078 108.581 57.3124 108.952 57.2723C109.324 57.222 109.741 57.1969 110.203 57.1969C110.464 57.1969 110.74 57.207 111.031 57.2271C111.322 57.2471 111.609 57.2723 111.89 57.3024C112.171 57.3325 112.412 57.3677 112.613 57.4078V58.402C112.352 58.3619 112.086 58.3317 111.814 58.3117C111.553 58.2815 111.282 58.2614 111.001 58.2514C110.73 58.2414 110.454 58.2363 110.172 58.2363C109.791 58.2363 109.464 58.2564 109.193 58.2966C108.922 58.3368 108.716 58.4372 108.576 58.5979C108.445 58.7586 108.38 59.0247 108.38 59.3963C108.38 59.6875 108.4 59.9084 108.44 60.0591C108.49 60.1997 108.586 60.3001 108.726 60.3603C108.867 60.4106 109.063 60.4507 109.314 60.4809L111.393 60.7068C111.804 60.747 112.126 60.8273 112.357 60.9478C112.598 61.0583 112.768 61.2591 112.869 61.5504C112.979 61.8416 113.035 62.2785 113.035 62.8609C113.035 63.343 112.974 63.7346 112.854 64.0359C112.743 64.3271 112.568 64.5531 112.327 64.7138C112.086 64.8745 111.789 64.9799 111.438 65.0301C111.086 65.0904 110.68 65.1205 110.218 65.1205Z" fill="#BABCC9"/>
</svg>
