<svg width="118" height="74" viewBox="0 0 118 74" fill="none" xmlns="http://www.w3.org/2000/svg">
<path d="M62.7501 16.75C62.7501 18.821 61.0711 20.5 59.0001 20.5C56.9289 20.5 55.25 18.821 55.25 16.75C55.25 14.6789 56.9289 13 59.0001 13C61.0711 13 62.7501 14.6789 62.7501 16.75Z" stroke="white" stroke-width="1.5" stroke-linecap="round" stroke-linejoin="round"/>
<path d="M74 16.75V9.14058C74 8.28834 73.5134 7.51678 72.6994 7.26448C71.2855 6.82632 68.7191 6.25 65 6.25C58.1313 6.25 56.295 8.7662 46.817 6.88541C45.3812 6.60049 44 7.66797 44 9.13174V24.1573C44 25.1898 44.709 26.0965 45.7172 26.3188C54.068 28.1603 56.8358 26.7993 61.25 26.1789" stroke="white" stroke-width="1.5" stroke-linecap="round" stroke-linejoin="round"/>
<path d="M44 12.25C46.927 12.25 49.5572 9.8576 49.8935 7.38125M68.7507 7C68.7507 10.0595 71.3982 12.9535 74 12.9535M50.0007 26.4941C50.0007 23.1805 47.3144 20.4941 44.0007 20.4941" stroke="white" stroke-width="1.5" stroke-linecap="round" stroke-linejoin="round"/>
<path d="M65 24.25C65 23.4216 65.6716 22.75 66.5 22.75H74L71.75 19.75M74 27.25C74 28.0784 73.3284 28.75 72.5 28.75H65L67.25 31.75" stroke="white" stroke-width="1.5" stroke-linecap="round" stroke-linejoin="round"/>
<path d="M33.3577 65V54.6361H39.7899V55.7508H34.6531V59.4414H39.2325V60.5562H34.6531V65H33.3577ZM41.6342 55.1483V53.8076H42.9447V55.1483H41.6342ZM41.6643 65V57.3174H42.8995V65H41.6643ZM45.4891 65V57.3174H46.6038L46.649 58.4171H46.7394C46.8499 58.1761 47.0005 57.9652 47.1913 57.7844C47.3922 57.6037 47.6583 57.4631 47.9897 57.3626C48.3311 57.2522 48.763 57.1969 49.2852 57.1969C49.8576 57.1969 50.3145 57.2572 50.656 57.3777C50.9974 57.4982 51.2585 57.679 51.4393 57.92C51.6301 58.161 51.7557 58.4723 51.8159 58.854C51.8762 59.2255 51.9063 59.6724 51.9063 60.1946V65H50.6861V60.6164C50.6861 60.0942 50.661 59.6825 50.6108 59.3812C50.5706 59.0699 50.4853 58.8389 50.3547 58.6883C50.2242 58.5276 50.0334 58.4221 49.7823 58.3719C49.5312 58.3217 49.1998 58.2966 48.7881 58.2966C48.296 58.2966 47.9094 58.3619 47.6282 58.4924C47.347 58.6129 47.1411 58.7937 47.0105 59.0347C46.88 59.2657 46.7997 59.5519 46.7695 59.8934C46.7394 60.2248 46.7243 60.6064 46.7243 61.0382V65H45.4891ZM56.5705 65.1205C56.0082 65.1205 55.5362 65.0552 55.1545 64.9247C54.783 64.7941 54.5018 64.5682 54.311 64.2468C54.1302 63.9254 54.0398 63.4735 54.0398 62.8911C54.0398 62.3086 54.1051 61.8517 54.2357 61.5203C54.3762 61.1788 54.6173 60.9378 54.9587 60.7972C55.3002 60.6566 55.7772 60.5863 56.3898 60.5863C56.4902 60.5863 56.6459 60.5913 56.8568 60.6014C57.0777 60.6014 57.3288 60.6064 57.6099 60.6164C57.8911 60.6164 58.1723 60.6214 58.4535 60.6315C58.7448 60.6315 59.0109 60.6365 59.2519 60.6466V60.1645C59.2519 59.7126 59.2218 59.3611 59.1615 59.11C59.1113 58.8489 59.0008 58.6581 58.8301 58.5376C58.6594 58.4071 58.4184 58.3267 58.1071 58.2966C57.8058 58.2564 57.4041 58.2363 56.9019 58.2363C56.681 58.2363 56.4199 58.2464 56.1186 58.2665C55.8174 58.2765 55.5211 58.2966 55.2299 58.3267C54.9487 58.3468 54.7227 58.3719 54.552 58.402V57.4078C54.9336 57.3375 55.3604 57.2873 55.8324 57.2572C56.3145 57.217 56.8116 57.1969 57.3237 57.1969C57.866 57.1969 58.323 57.2321 58.6945 57.3024C59.0762 57.3626 59.3825 57.4631 59.6134 57.6037C59.8545 57.7443 60.0352 57.93 60.1557 58.161C60.2762 58.392 60.3566 58.6732 60.3968 59.0046C60.447 59.336 60.4721 59.7226 60.4721 60.1645V65H59.3724L59.3272 63.9154H59.2368C59.0762 64.2669 58.8452 64.533 58.5439 64.7138C58.2527 64.8845 57.9313 64.995 57.5798 65.0452C57.2283 65.0954 56.8919 65.1205 56.5705 65.1205ZM57.0225 64.1112C57.3137 64.1112 57.5848 64.0962 57.8359 64.066C58.087 64.0259 58.3079 63.9556 58.4987 63.8551C58.6895 63.7547 58.8402 63.6041 58.9506 63.4032C59.0611 63.1923 59.1364 62.9664 59.1766 62.7254C59.2268 62.4743 59.2519 62.1831 59.2519 61.8517V61.46H56.6911C56.2994 61.46 55.9981 61.4901 55.7872 61.5504C55.5763 61.6106 55.4307 61.7362 55.3504 61.927C55.2801 62.1178 55.2449 62.404 55.2449 62.7856C55.2449 63.1572 55.2901 63.4384 55.3805 63.6292C55.4709 63.82 55.6416 63.9506 55.8927 64.0209C56.1538 64.0811 56.5304 64.1112 57.0225 64.1112ZM63.0832 65V57.3174H64.1979L64.2431 58.4171H64.3335C64.4439 58.1761 64.5946 57.9652 64.7854 57.7844C64.9862 57.6037 65.2524 57.4631 65.5838 57.3626C65.9252 57.2522 66.3571 57.1969 66.8793 57.1969C67.4517 57.1969 67.9086 57.2572 68.2501 57.3777C68.5915 57.4982 68.8526 57.679 69.0334 57.92C69.2242 58.161 69.3497 58.4723 69.41 58.854C69.4702 59.2255 69.5004 59.6724 69.5004 60.1946V65H68.2802V60.6164C68.2802 60.0942 68.2551 59.6825 68.2049 59.3812C68.1647 59.0699 68.0794 58.8389 67.9488 58.6883C67.8182 58.5276 67.6274 58.4221 67.3764 58.3719C67.1253 58.3217 66.7939 58.2966 66.3822 58.2966C65.8901 58.2966 65.5034 58.3619 65.2222 58.4924C64.9411 58.6129 64.7352 58.7937 64.6046 59.0347C64.4741 59.2657 64.3937 59.5519 64.3636 59.8934C64.3335 60.2248 64.3184 60.6064 64.3184 61.0382V65H63.0832ZM74.9028 65.1205C74.3203 65.1205 73.8382 65.0703 73.4566 64.9699C73.0851 64.8694 72.7838 64.7188 72.5528 64.518C72.3319 64.3171 72.1662 64.061 72.0557 63.7497C71.9452 63.4384 71.8699 63.0668 71.8297 62.635C71.7996 62.2031 71.7845 61.7111 71.7845 61.1587C71.7845 60.5863 71.8046 60.0842 71.8448 59.6523C71.895 59.2205 71.9804 58.8489 72.1009 58.5376C72.2314 58.2163 72.4072 57.9602 72.6281 57.7694C72.8591 57.5786 73.1554 57.438 73.5169 57.3476C73.8784 57.2471 74.3253 57.1969 74.8576 57.1969C75.2091 57.1969 75.5756 57.217 75.9572 57.2572C76.3489 57.2873 76.6702 57.3325 76.9213 57.3928V58.387C76.6903 58.3468 76.4041 58.3117 76.0627 58.2815C75.7313 58.2514 75.43 58.2363 75.1588 58.2363C74.6868 58.2363 74.3052 58.2765 74.014 58.3569C73.7328 58.4372 73.5169 58.5828 73.3662 58.7937C73.2256 59.0046 73.1302 59.3009 73.08 59.6825C73.0298 60.0641 73.0047 60.5562 73.0047 61.1587C73.0047 61.7713 73.0298 62.2734 73.08 62.6651C73.1302 63.0467 73.2307 63.343 73.3813 63.5539C73.542 63.7547 73.7629 63.8953 74.0441 63.9757C74.3354 64.046 74.717 64.0811 75.189 64.0811C75.4702 64.0811 75.7765 64.066 76.1079 64.0359C76.4393 64.0058 76.7355 63.9706 76.9966 63.9305V64.9247C76.7456 64.9749 76.4242 65.0201 76.0325 65.0603C75.6409 65.1004 75.2643 65.1205 74.9028 65.1205ZM82.1629 65.1205C81.5403 65.1205 81.0181 65.0803 80.5963 65C80.1845 64.9197 79.8531 64.7891 79.6021 64.6083C79.351 64.4175 79.1602 64.1715 79.0297 63.8702C78.8991 63.5589 78.8137 63.1823 78.7736 62.7404C78.7334 62.2986 78.7133 61.7763 78.7133 61.1738C78.7133 60.4608 78.7434 59.8532 78.8037 59.3511C78.864 58.8389 78.9995 58.4271 79.2104 58.1158C79.4314 57.7945 79.7728 57.5635 80.2348 57.4229C80.6967 57.2723 81.3194 57.1969 82.1027 57.1969C82.6952 57.1969 83.1772 57.2421 83.5488 57.3325C83.9304 57.4229 84.2317 57.5635 84.4526 57.7543C84.6736 57.9451 84.8343 58.2012 84.9347 58.5226C85.0451 58.8339 85.1154 59.2105 85.1456 59.6523C85.1757 60.0842 85.1908 60.5863 85.1908 61.1587V61.5654H79.9335C79.9335 62.0877 79.9586 62.5145 80.0088 62.8459C80.059 63.1773 80.1594 63.4334 80.3101 63.6141C80.4708 63.7949 80.7168 63.9204 81.0482 63.9907C81.3897 64.061 81.8516 64.0962 82.4341 64.0962C82.6751 64.0962 82.9412 64.0911 83.2325 64.0811C83.5237 64.061 83.8149 64.0359 84.1062 64.0058C84.3974 63.9757 84.6585 63.9455 84.8895 63.9154V64.9096C84.6786 64.9498 84.4175 64.9849 84.1062 65.0151C83.8049 65.0452 83.4835 65.0703 83.1421 65.0904C82.8107 65.1105 82.4843 65.1205 82.1629 65.1205ZM84.0007 60.9478V60.5411C84.0007 60.0189 83.9706 59.6071 83.9103 59.3059C83.8501 58.9946 83.7446 58.7636 83.594 58.6129C83.4534 58.4523 83.2576 58.3468 83.0065 58.2966C82.7554 58.2464 82.4441 58.2213 82.0725 58.2213C81.5905 58.2213 81.2089 58.2564 80.9277 58.3267C80.6465 58.387 80.4356 58.5025 80.295 58.6732C80.1544 58.8439 80.059 59.09 80.0088 59.4113C79.9586 59.7327 79.9335 60.1595 79.9335 60.6917H84.2869L84.0007 60.9478Z" fill="#BABCC9"/>
</svg>
