<svg width="118" height="74" viewBox="0 0 118 74" fill="none" xmlns="http://www.w3.org/2000/svg">
<path d="M59 34C57.7727 34 56.6003 33.5047 54.2554 32.5143C48.4185 30.0486 45.5 28.8157 45.5 26.742C45.5 26.1613 45.5 16.0968 45.5 11.5M59 34C60.2273 34 61.3997 33.5047 63.7447 32.5143C69.5816 30.0486 72.5 28.8157 72.5 26.742V11.5M59 34V18.0322" stroke="white" stroke-width="1.5" stroke-linecap="round" stroke-linejoin="round"/>
<path d="M53.4889 15.5371L49.1071 13.4168C46.7024 12.2532 45.5 11.6713 45.5 10.75C45.5 9.82866 46.7024 9.24685 49.1071 8.08322L53.4889 5.96293C56.1932 4.65431 57.5455 4 59 4C60.4545 4 61.8068 4.6543 64.5111 5.96293L68.893 8.08322C71.2976 9.24685 72.5 9.82866 72.5 10.75C72.5 11.6713 71.2976 12.2532 68.893 13.4168L64.5111 15.5371C61.8068 16.8457 60.4545 17.5 59 17.5C57.5455 17.5 56.1932 16.8457 53.4889 15.5371Z" stroke="white" stroke-width="1.5" stroke-linecap="round" stroke-linejoin="round"/>
<path d="M50 19L53 20.5" stroke="white" stroke-width="1.5" stroke-linecap="round" stroke-linejoin="round"/>
<path d="M66.5 7L51.5 14.5" stroke="white" stroke-width="1.5" stroke-linecap="round" stroke-linejoin="round"/>
<path d="M26.9217 65V54.6361H28.2172V65H26.9217ZM31.0211 65V57.3174H32.1358L32.181 58.4171H32.2714C32.3818 58.1761 32.5325 57.9652 32.7233 57.7844C32.9241 57.6037 33.1902 57.4631 33.5217 57.3626C33.8631 57.2522 34.2949 57.1969 34.8171 57.1969C35.3896 57.1969 35.8465 57.2572 36.1879 57.3777C36.5294 57.4982 36.7905 57.679 36.9713 57.92C37.1621 58.161 37.2876 58.4723 37.3479 58.854C37.4081 59.2255 37.4382 59.6724 37.4382 60.1946V65H36.2181V60.6164C36.2181 60.0942 36.193 59.6825 36.1428 59.3812C36.1026 59.0699 36.0172 58.8389 35.8867 58.6883C35.7561 58.5276 35.5653 58.4221 35.3142 58.3719C35.0632 58.3217 34.7318 58.2966 34.32 58.2966C33.8279 58.2966 33.4413 58.3619 33.1601 58.4924C32.8789 58.6129 32.6731 58.7937 32.5425 59.0347C32.4119 59.2657 32.3316 59.5519 32.3015 59.8934C32.2714 60.2248 32.2563 60.6064 32.2563 61.0382V65H31.0211ZM41.9669 65L39.15 57.3174H40.4304L42.69 63.7196H42.8105L45.055 57.3174H46.3204L43.5034 65H41.9669ZM51.0129 65.1205C50.3902 65.1205 49.868 65.0803 49.4462 65C49.0345 64.9197 48.7031 64.7891 48.452 64.6083C48.201 64.4175 48.0102 64.1715 47.8796 63.8702C47.749 63.5589 47.6637 63.1823 47.6235 62.7404C47.5833 62.2986 47.5633 61.7763 47.5633 61.1738C47.5633 60.4608 47.5934 59.8532 47.6536 59.3511C47.7139 58.8389 47.8495 58.4271 48.0604 58.1158C48.2813 57.7945 48.6227 57.5635 49.0847 57.4229C49.5467 57.2723 50.1693 57.1969 50.9526 57.1969C51.5451 57.1969 52.0272 57.2421 52.3987 57.3325C52.7804 57.4229 53.0816 57.5635 53.3026 57.7543C53.5235 57.9451 53.6842 58.2012 53.7846 58.5226C53.8951 58.8339 53.9654 59.2105 53.9955 59.6523C54.0256 60.0842 54.0407 60.5863 54.0407 61.1587V61.5654H48.7834C48.7834 62.0877 48.8085 62.5145 48.8587 62.8459C48.909 63.1773 49.0094 63.4334 49.16 63.6141C49.3207 63.7949 49.5667 63.9204 49.8982 63.9907C50.2396 64.061 50.7016 64.0962 51.284 64.0962C51.525 64.0962 51.7912 64.0911 52.0824 64.0811C52.3736 64.061 52.6649 64.0359 52.9561 64.0058C53.2473 63.9757 53.5084 63.9455 53.7394 63.9154V64.9096C53.5285 64.9498 53.2674 64.9849 52.9561 65.0151C52.6548 65.0452 52.3335 65.0703 51.992 65.0904C51.6606 65.1105 51.3342 65.1205 51.0129 65.1205ZM52.8507 60.9478V60.5411C52.8507 60.0189 52.8205 59.6071 52.7603 59.3059C52.7 58.9946 52.5946 58.7636 52.4439 58.6129C52.3033 58.4523 52.1075 58.3468 51.8564 58.2966C51.6054 58.2464 51.2941 58.2213 50.9225 58.2213C50.4404 58.2213 50.0588 58.2564 49.7776 58.3267C49.4964 58.387 49.2856 58.5025 49.145 58.6732C49.0044 58.8439 48.909 59.09 48.8587 59.4113C48.8085 59.7327 48.7834 60.1595 48.7834 60.6917H53.1369L52.8507 60.9478ZM56.2942 65V57.3174H57.4089L57.4541 58.4171H57.5445C57.6549 58.1761 57.8056 57.9652 57.9964 57.7844C58.1972 57.6037 58.4634 57.4631 58.7948 57.3626C59.1362 57.2522 59.568 57.1969 60.0902 57.1969C60.6627 57.1969 61.1196 57.2572 61.4611 57.3777C61.8025 57.4982 62.0636 57.679 62.2444 57.92C62.4352 58.161 62.5607 58.4723 62.621 58.854C62.6812 59.2255 62.7114 59.6724 62.7114 60.1946V65H61.4912V60.6164C61.4912 60.0942 61.4661 59.6825 61.4159 59.3812C61.3757 59.0699 61.2903 58.8389 61.1598 58.6883C61.0292 58.5276 60.8384 58.4221 60.5874 58.3719C60.3363 58.3217 60.0049 58.2966 59.5931 58.2966C59.1011 58.2966 58.7144 58.3619 58.4332 58.4924C58.152 58.6129 57.9462 58.7937 57.8156 59.0347C57.6851 59.2657 57.6047 59.5519 57.5746 59.8934C57.5445 60.2248 57.5294 60.6064 57.5294 61.0382V65H56.2942ZM65.9596 65V58.3569H64.408V57.3174H65.9596V55.088H67.1798V57.3174H69.0176V58.3569H67.1798V65H65.9596ZM73.6801 65.1205C73.0474 65.1205 72.5201 65.0803 72.0984 65C71.6866 64.9297 71.3602 64.8092 71.1192 64.6385C70.8782 64.4677 70.6974 64.2317 70.5769 63.9305C70.4664 63.6292 70.3961 63.2526 70.366 62.8007C70.3359 62.3387 70.3208 61.7914 70.3208 61.1587C70.3208 60.526 70.3359 59.9837 70.366 59.5318C70.3961 59.0699 70.4664 58.6883 70.5769 58.387C70.6974 58.0857 70.8782 57.8497 71.1192 57.679C71.3602 57.5083 71.6866 57.3877 72.0984 57.3174C72.5201 57.2371 73.0474 57.1969 73.6801 57.1969C74.3228 57.1969 74.85 57.2371 75.2618 57.3174C75.6735 57.3877 75.9999 57.5083 76.2409 57.679C76.492 57.8497 76.6727 58.0857 76.7832 58.387C76.9037 58.6883 76.979 59.0699 77.0092 59.5318C77.0393 59.9837 77.0544 60.526 77.0544 61.1587C77.0544 61.7914 77.0393 62.3387 77.0092 62.8007C76.979 63.2526 76.9037 63.6292 76.7832 63.9305C76.6727 64.2317 76.492 64.4677 76.2409 64.6385C75.9999 64.8092 75.6735 64.9297 75.2618 65C74.85 65.0803 74.3228 65.1205 73.6801 65.1205ZM73.6801 64.0811C74.2224 64.0811 74.6391 64.046 74.9304 63.9757C75.2216 63.9054 75.4275 63.7698 75.548 63.5689C75.6785 63.3681 75.7538 63.0769 75.7739 62.6952C75.8041 62.3036 75.8191 61.7914 75.8191 61.1587C75.8191 60.526 75.8041 60.0189 75.7739 59.6373C75.7538 59.2456 75.6785 58.9494 75.548 58.7485C75.4275 58.5477 75.2216 58.4121 74.9304 58.3418C74.6391 58.2715 74.2224 58.2363 73.6801 58.2363C73.1478 58.2363 72.731 58.2715 72.4298 58.3418C72.1385 58.4121 71.9326 58.5477 71.8121 58.7485C71.6916 58.9494 71.6163 59.2456 71.5862 59.6373C71.5561 60.0189 71.541 60.526 71.541 61.1587C71.541 61.7914 71.5561 62.3036 71.5862 62.6952C71.6163 63.0769 71.6916 63.3681 71.8121 63.5689C71.9326 63.7698 72.1385 63.9054 72.4298 63.9757C72.731 64.046 73.1478 64.0811 73.6801 64.0811ZM79.3312 65V57.3174H80.4309L80.4911 58.7937H80.5815C80.7121 58.3619 80.8979 58.0305 81.1389 57.7995C81.3799 57.5685 81.6711 57.4129 82.0126 57.3325C82.354 57.2421 82.7306 57.1969 83.1424 57.1969V58.402C82.4494 58.402 81.9172 58.5125 81.5456 58.7334C81.174 58.9544 80.9179 59.2958 80.7774 59.7578C80.6368 60.2197 80.5665 60.8022 80.5665 61.5052V65H79.3312ZM87.815 68.1031C87.5238 68.1031 87.2175 68.0931 86.8961 68.073C86.5848 68.063 86.2835 68.0479 85.9923 68.0278C85.7111 68.0178 85.46 67.9977 85.2391 67.9676V66.9884C85.5705 66.9985 85.8718 67.0085 86.1429 67.0186C86.4241 67.0386 86.6802 67.0487 86.9112 67.0487C87.1522 67.0587 87.3681 67.0637 87.5589 67.0637C88.1414 67.0637 88.5983 67.0186 88.9297 66.9282C89.2712 66.8378 89.5222 66.6871 89.6829 66.4763C89.8436 66.2754 89.944 66.0043 89.9842 65.6628C90.0344 65.3214 90.0595 64.9046 90.0595 64.4125V63.9606H89.9691C89.8888 64.1614 89.7532 64.3472 89.5624 64.518C89.3716 64.6887 89.1105 64.8243 88.7791 64.9247C88.4477 65.0251 88.0158 65.0753 87.4836 65.0753C86.9212 65.0753 86.4643 65.0201 86.1128 64.9096C85.7713 64.7891 85.5102 64.6083 85.3295 64.3673C85.1487 64.1163 85.0232 63.8049 84.9529 63.4334C84.8926 63.0618 84.8625 62.6199 84.8625 62.1077V57.3174H86.0977V61.6709C86.0977 62.1931 86.1178 62.6099 86.158 62.9212C86.1981 63.2325 86.2835 63.4685 86.4141 63.6292C86.5546 63.7798 86.7505 63.8803 87.0015 63.9305C87.2526 63.9807 87.579 64.0058 87.9807 64.0058C88.4828 64.0058 88.8745 63.9455 89.1557 63.825C89.4369 63.6945 89.6377 63.5087 89.7582 63.2677C89.8888 63.0266 89.9691 62.7404 89.9992 62.409C90.0394 62.0676 90.0595 61.686 90.0595 61.2642V57.3174H91.2797V64.051C91.2797 64.7841 91.2395 65.4067 91.1592 65.9189C91.0889 66.4411 90.9332 66.8579 90.6922 67.1692C90.4612 67.4906 90.1147 67.7266 89.6528 67.8772C89.1908 68.0278 88.5782 68.1031 87.815 68.1031Z" fill="#BABCC9"/>
</svg>
