<svg width="118" height="74" viewBox="0 0 118 74" fill="none" xmlns="http://www.w3.org/2000/svg">
<path d="M45.5 17.5L49.25 13.75C50.7756 12.2244 51.5384 11.4616 52.4558 11.2924C52.8156 11.2261 53.1844 11.2261 53.5442 11.2924C54.4616 11.4616 55.2244 12.2244 56.75 13.75C58.2756 15.2756 59.0384 16.0384 59.9558 16.2076C60.3157 16.2739 60.6843 16.2739 61.0442 16.2076C61.9616 16.0384 62.7244 15.2756 64.25 13.75L72.5 5.5" stroke="white" stroke-width="1.5" stroke-linecap="round" stroke-linejoin="round"/>
<path d="M45.5 23.5V32.5M54.5 20.5V32.5M63.5 25V32.5M72.5 14.5V32.5" stroke="white" stroke-width="1.5" stroke-linecap="round" stroke-linejoin="round"/>
<path d="M1.92074 65V54.6361H3.66814L7.20814 62.8911H7.28346L10.8084 54.6361H12.5558V65H11.2904V56.7149H11.2302L7.69019 65H6.74116L3.20116 56.7149H3.14091V65H1.92074ZM17.4252 65.1205C16.8628 65.1205 16.3908 65.0552 16.0092 64.9247C15.6376 64.7941 15.3564 64.5682 15.1656 64.2468C14.9848 63.9254 14.8945 63.4735 14.8945 62.8911C14.8945 62.3086 14.9597 61.8517 15.0903 61.5203C15.2309 61.1788 15.4719 60.9378 15.8134 60.7972C16.1548 60.6566 16.6318 60.5863 17.2444 60.5863C17.3448 60.5863 17.5005 60.5913 17.7114 60.6014C17.9323 60.6014 18.1834 60.6064 18.4646 60.6164C18.7458 60.6164 19.027 60.6214 19.3082 60.6315C19.5994 60.6315 19.8655 60.6365 20.1065 60.6466V60.1645C20.1065 59.7126 20.0764 59.3611 20.0162 59.11C19.966 58.8489 19.8555 58.6581 19.6848 58.5376C19.514 58.4071 19.273 58.3267 18.9617 58.2966C18.6604 58.2564 18.2587 58.2363 17.7566 58.2363C17.5357 58.2363 17.2745 58.2464 16.9733 58.2665C16.672 58.2765 16.3757 58.2966 16.0845 58.3267C15.8033 58.3468 15.5774 58.3719 15.4066 58.402V57.4078C15.7882 57.3375 16.2151 57.2873 16.6871 57.2572C17.1691 57.217 17.6662 57.1969 18.1784 57.1969C18.7207 57.1969 19.1776 57.2321 19.5492 57.3024C19.9308 57.3626 20.2371 57.4631 20.4681 57.6037C20.7091 57.7443 20.8899 57.93 21.0104 58.161C21.1309 58.392 21.2112 58.6732 21.2514 59.0046C21.3016 59.336 21.3267 59.7226 21.3267 60.1645V65H20.2271L20.1819 63.9154H20.0915C19.9308 64.2669 19.6998 64.533 19.3985 64.7138C19.1073 64.8845 18.786 64.995 18.4345 65.0452C18.083 65.0954 17.7465 65.1205 17.4252 65.1205ZM17.8771 64.1112C18.1683 64.1112 18.4395 64.0962 18.6905 64.066C18.9416 64.0259 19.1625 63.9556 19.3534 63.8551C19.5442 63.7547 19.6948 63.6041 19.8053 63.4032C19.9157 63.1923 19.9911 62.9664 20.0312 62.7254C20.0814 62.4743 20.1065 62.1831 20.1065 61.8517V61.46H17.5457C17.154 61.46 16.8528 61.4901 16.6419 61.5504C16.431 61.6106 16.2854 61.7362 16.205 61.927C16.1347 62.1178 16.0996 62.404 16.0996 62.7856C16.0996 63.1572 16.1448 63.4384 16.2351 63.6292C16.3255 63.82 16.4962 63.9506 16.7473 64.0209C17.0084 64.0811 17.385 64.1112 17.8771 64.1112ZM23.9378 65V57.3174H25.0375L25.0977 58.7937H25.1881C25.3187 58.3619 25.5045 58.0305 25.7455 57.7995C25.9865 57.5685 26.2777 57.4129 26.6192 57.3325C26.9606 57.2421 27.3372 57.1969 27.749 57.1969V58.402C27.056 58.402 26.5238 58.5125 26.1522 58.7334C25.7806 58.9544 25.5245 59.2958 25.3839 59.7578C25.2434 60.2197 25.1731 60.8022 25.1731 61.5052V65H23.9378ZM29.4691 65V53.8076H30.7043V60.5863H31.6684L34.3799 57.3174H35.7658L32.6475 61.0382L35.8109 65H34.3799L31.6684 61.6408H30.7043V65H29.4691ZM40.0754 65.1205C39.4528 65.1205 38.9306 65.0803 38.5088 65C38.097 64.9197 37.7656 64.7891 37.5146 64.6083C37.2635 64.4175 37.0727 64.1715 36.9421 63.8702C36.8116 63.5589 36.7262 63.1823 36.6861 62.7404C36.6459 62.2986 36.6258 61.7763 36.6258 61.1738C36.6258 60.4608 36.6559 59.8532 36.7162 59.3511C36.7764 58.8389 36.912 58.4271 37.1229 58.1158C37.3438 57.7945 37.6853 57.5635 38.1472 57.4229C38.6092 57.2723 39.2318 57.1969 40.0152 57.1969C40.6077 57.1969 41.0897 57.2421 41.4613 57.3325C41.8429 57.4229 42.1442 57.5635 42.3651 57.7543C42.5861 57.9451 42.7467 58.2012 42.8472 58.5226C42.9576 58.8339 43.0279 59.2105 43.0581 59.6523C43.0882 60.0842 43.1032 60.5863 43.1032 61.1587V61.5654H37.846C37.846 62.0877 37.8711 62.5145 37.9213 62.8459C37.9715 63.1773 38.0719 63.4334 38.2226 63.6141C38.3832 63.7949 38.6293 63.9204 38.9607 63.9907C39.3021 64.061 39.7641 64.0962 40.3466 64.0962C40.5876 64.0962 40.8537 64.0911 41.145 64.0811C41.4362 64.061 41.7274 64.0359 42.0187 64.0058C42.3099 63.9757 42.571 63.9455 42.802 63.9154V64.9096C42.5911 64.9498 42.33 64.9849 42.0187 65.0151C41.7174 65.0452 41.396 65.0703 41.0546 65.0904C40.7232 65.1105 40.3968 65.1205 40.0754 65.1205ZM41.9132 60.9478V60.5411C41.9132 60.0189 41.8831 59.6071 41.8228 59.3059C41.7626 58.9946 41.6571 58.7636 41.5065 58.6129C41.3659 58.4523 41.1701 58.3468 40.919 58.2966C40.6679 58.2464 40.3566 58.2213 39.985 58.2213C39.503 58.2213 39.1214 58.2564 38.8402 58.3267C38.559 58.387 38.3481 58.5025 38.2075 58.6732C38.0669 58.8439 37.9715 59.09 37.9213 59.4113C37.8711 59.7327 37.846 60.1595 37.846 60.6917H42.1994L41.9132 60.9478ZM46.0044 65V58.3569H44.4529V57.3174H46.0044V55.088H47.2246V57.3174H49.0624V58.3569H47.2246V65H46.0044ZM54.5117 65V54.6361H59.2719C59.9247 54.6361 60.4419 54.7164 60.8235 54.8771C61.2152 55.0277 61.5014 55.2487 61.6821 55.5399C61.8729 55.8211 61.9985 56.1525 62.0587 56.5341C62.119 56.9157 62.1491 57.3225 62.1491 57.7543C62.1491 58.1259 62.114 58.5125 62.0437 58.9142C61.9834 59.3059 61.8378 59.6624 61.6068 59.9837C61.3859 60.3051 61.0344 60.5411 60.5523 60.6917L62.2997 65H60.9139L59.1966 60.6466L59.5581 60.8273C59.4878 60.8474 59.4025 60.8625 59.302 60.8725C59.2016 60.8826 59.066 60.8876 58.8953 60.8876H55.8072V65H54.5117ZM55.8072 59.7578H58.7146C59.2167 59.7578 59.6083 59.7176 59.8895 59.6373C60.1808 59.5569 60.3917 59.4314 60.5222 59.2607C60.6628 59.09 60.7532 58.8841 60.7934 58.6431C60.8335 58.392 60.8536 58.0957 60.8536 57.7543C60.8536 57.4129 60.8335 57.1216 60.7934 56.8806C60.7632 56.6295 60.6829 56.4237 60.5523 56.263C60.4318 56.0923 60.231 55.9667 59.9498 55.8864C59.6786 55.796 59.302 55.7508 58.82 55.7508H55.8072V59.7578ZM67.6875 65.1205C67.0649 65.1205 66.5427 65.0803 66.1209 65C65.7092 64.9197 65.3777 64.7891 65.1267 64.6083C64.8756 64.4175 64.6848 64.1715 64.5543 63.8702C64.4237 63.5589 64.3383 63.1823 64.2982 62.7404C64.258 62.2986 64.2379 61.7763 64.2379 61.1738C64.2379 60.4608 64.268 59.8532 64.3283 59.3511C64.3886 58.8389 64.5241 58.4271 64.735 58.1158C64.956 57.7945 65.2974 57.5635 65.7594 57.4229C66.2213 57.2723 66.844 57.1969 67.6273 57.1969C68.2198 57.1969 68.7018 57.2421 69.0734 57.3325C69.455 57.4229 69.7563 57.5635 69.9772 57.7543C70.1982 57.9451 70.3589 58.2012 70.4593 58.5226C70.5697 58.8339 70.64 59.2105 70.6702 59.6523C70.7003 60.0842 70.7154 60.5863 70.7154 61.1587V61.5654H65.4581C65.4581 62.0877 65.4832 62.5145 65.5334 62.8459C65.5836 63.1773 65.684 63.4334 65.8347 63.6141C65.9954 63.7949 66.2414 63.9204 66.5728 63.9907C66.9143 64.061 67.3762 64.0962 67.9587 64.0962C68.1997 64.0962 68.4658 64.0911 68.7571 64.0811C69.0483 64.061 69.3395 64.0359 69.6308 64.0058C69.922 63.9757 70.1831 63.9455 70.4141 63.9154V64.9096C70.2032 64.9498 69.9421 64.9849 69.6308 65.0151C69.3295 65.0452 69.0081 65.0703 68.6667 65.0904C68.3353 65.1105 68.0089 65.1205 67.6875 65.1205ZM69.5253 60.9478V60.5411C69.5253 60.0189 69.4952 59.6071 69.4349 59.3059C69.3747 58.9946 69.2692 58.7636 69.1186 58.6129C68.978 58.4523 68.7822 58.3468 68.5311 58.2966C68.28 58.2464 67.9687 58.2213 67.5972 58.2213C67.1151 58.2213 66.7335 58.2564 66.4523 58.3267C66.1711 58.387 65.9602 58.5025 65.8196 58.6732C65.679 58.8439 65.5836 59.09 65.5334 59.4113C65.4832 59.7327 65.4581 60.1595 65.4581 60.6917H69.8115L69.5253 60.9478ZM75.5297 65.1205C75.2384 65.1205 74.9271 65.1105 74.5957 65.0904C74.2643 65.0703 73.9379 65.0452 73.6166 65.0151C73.2952 64.995 73.004 64.9649 72.7429 64.9247V63.9305C72.9839 63.9506 73.2149 63.9706 73.4358 63.9907C73.6668 64.0108 73.8927 64.0309 74.1137 64.051C74.3346 64.061 74.5555 64.0711 74.7765 64.0811C74.9974 64.0811 75.2234 64.0811 75.4543 64.0811C75.9766 64.0811 76.3532 64.046 76.5841 63.9757C76.8252 63.8953 76.9808 63.7648 77.0511 63.584C77.1315 63.4032 77.1716 63.1672 77.1716 62.876C77.1716 62.5446 77.1415 62.3036 77.0812 62.1529C77.031 62.0023 76.9356 61.9069 76.795 61.8667C76.6645 61.8165 76.4636 61.7763 76.1925 61.7462L74.204 61.5203C73.732 61.47 73.3755 61.3696 73.1345 61.219C72.8935 61.0583 72.7278 60.8323 72.6374 60.5411C72.547 60.2499 72.5018 59.8833 72.5018 59.4414C72.5018 58.9393 72.5721 58.5376 72.7127 58.2363C72.8533 57.9351 73.0542 57.7091 73.3153 57.5585C73.5764 57.4078 73.8927 57.3124 74.2643 57.2723C74.6359 57.222 75.0526 57.1969 75.5146 57.1969C75.7757 57.1969 76.0519 57.207 76.3431 57.2271C76.6343 57.2471 76.9206 57.2723 77.2018 57.3024C77.4829 57.3325 77.724 57.3677 77.9248 57.4078V58.402C77.6637 58.3619 77.3976 58.3317 77.1264 58.3117C76.8653 58.2815 76.5942 58.2614 76.313 58.2514C76.0418 58.2414 75.7657 58.2363 75.4845 58.2363C75.1029 58.2363 74.7765 58.2564 74.5053 58.2966C74.2342 58.3368 74.0283 58.4372 73.8877 58.5979C73.7572 58.7586 73.6919 59.0247 73.6919 59.3963C73.6919 59.6875 73.712 59.9084 73.7521 60.0591C73.8023 60.1997 73.8978 60.3001 74.0383 60.3603C74.1789 60.4106 74.3748 60.4507 74.6258 60.4809L76.7046 60.7068C77.1164 60.747 77.4378 60.8273 77.6687 60.9478C77.9098 61.0583 78.0805 61.2591 78.1809 61.5504C78.2914 61.8416 78.3466 62.2785 78.3466 62.8609C78.3466 63.343 78.2863 63.7346 78.1658 64.0359C78.0554 64.3271 77.8796 64.5531 77.6386 64.7138C77.3976 64.8745 77.1013 64.9799 76.7498 65.0301C76.3983 65.0904 75.9916 65.1205 75.5297 65.1205ZM83.6193 65.1205C82.9967 65.1205 82.4745 65.0803 82.0527 65C81.6409 64.9197 81.3095 64.7891 81.0585 64.6083C80.8074 64.4175 80.6166 64.1715 80.486 63.8702C80.3555 63.5589 80.2701 63.1823 80.2299 62.7404C80.1898 62.2986 80.1697 61.7763 80.1697 61.1738C80.1697 60.4608 80.1998 59.8532 80.2601 59.3511C80.3203 58.8389 80.4559 58.4271 80.6668 58.1158C80.8877 57.7945 81.2292 57.5635 81.6911 57.4229C82.1531 57.2723 82.7757 57.1969 83.559 57.1969C84.1516 57.1969 84.6336 57.2421 85.0052 57.3325C85.3868 57.4229 85.6881 57.5635 85.909 57.7543C86.1299 57.9451 86.2906 58.2012 86.391 58.5226C86.5015 58.8339 86.5718 59.2105 86.6019 59.6523C86.6321 60.0842 86.6471 60.5863 86.6471 61.1587V61.5654H81.3899C81.3899 62.0877 81.415 62.5145 81.4652 62.8459C81.5154 63.1773 81.6158 63.4334 81.7665 63.6141C81.9271 63.7949 82.1732 63.9204 82.5046 63.9907C82.846 64.061 83.308 64.0962 83.8905 64.0962C84.1315 64.0962 84.3976 64.0911 84.6888 64.0811C84.9801 64.061 85.2713 64.0359 85.5625 64.0058C85.8538 63.9757 86.1149 63.9455 86.3459 63.9154V64.9096C86.135 64.9498 85.8739 64.9849 85.5625 65.0151C85.2613 65.0452 84.9399 65.0703 84.5985 65.0904C84.267 65.1105 83.9407 65.1205 83.6193 65.1205ZM85.4571 60.9478V60.5411C85.4571 60.0189 85.427 59.6071 85.3667 59.3059C85.3065 58.9946 85.201 58.7636 85.0504 58.6129C84.9098 58.4523 84.7139 58.3468 84.4629 58.2966C84.2118 58.2464 83.9005 58.2213 83.5289 58.2213C83.0469 58.2213 82.6653 58.2564 82.3841 58.3267C82.1029 58.387 81.892 58.5025 81.7514 58.6732C81.6108 58.8439 81.5154 59.09 81.4652 59.4113C81.415 59.7327 81.3899 60.1595 81.3899 60.6917H85.7433L85.4571 60.9478ZM90.9643 65.1205C90.402 65.1205 89.93 65.0552 89.5483 64.9247C89.1768 64.7941 88.8956 64.5682 88.7048 64.2468C88.524 63.9254 88.4336 63.4735 88.4336 62.8911C88.4336 62.3086 88.4989 61.8517 88.6294 61.5203C88.77 61.1788 89.0111 60.9378 89.3525 60.7972C89.694 60.6566 90.171 60.5863 90.7836 60.5863C90.884 60.5863 91.0397 60.5913 91.2505 60.6014C91.4715 60.6014 91.7225 60.6064 92.0037 60.6164C92.2849 60.6164 92.5661 60.6214 92.8473 60.6315C93.1385 60.6315 93.4047 60.6365 93.6457 60.6466V60.1645C93.6457 59.7126 93.6156 59.3611 93.5553 59.11C93.5051 58.8489 93.3946 58.6581 93.2239 58.5376C93.0532 58.4071 92.8122 58.3267 92.5008 58.2966C92.1996 58.2564 91.7979 58.2363 91.2957 58.2363C91.0748 58.2363 90.8137 58.2464 90.5124 58.2665C90.2111 58.2765 89.9149 58.2966 89.6237 58.3267C89.3425 58.3468 89.1165 58.3719 88.9458 58.402V57.4078C89.3274 57.3375 89.7542 57.2873 90.2262 57.2572C90.7083 57.217 91.2054 57.1969 91.7175 57.1969C92.2598 57.1969 92.7168 57.2321 93.0883 57.3024C93.47 57.3626 93.7763 57.4631 94.0072 57.6037C94.2483 57.7443 94.429 57.93 94.5495 58.161C94.67 58.392 94.7504 58.6732 94.7905 59.0046C94.8408 59.336 94.8659 59.7226 94.8659 60.1645V65H93.7662L93.721 63.9154H93.6306C93.47 64.2669 93.239 64.533 92.9377 64.7138C92.6465 64.8845 92.3251 64.995 91.9736 65.0452C91.6221 65.0954 91.2857 65.1205 90.9643 65.1205ZM91.4163 64.1112C91.7075 64.1112 91.9786 64.0962 92.2297 64.066C92.4808 64.0259 92.7017 63.9556 92.8925 63.8551C93.0833 63.7547 93.234 63.6041 93.3444 63.4032C93.4549 63.1923 93.5302 62.9664 93.5704 62.7254C93.6206 62.4743 93.6457 62.1831 93.6457 61.8517V61.46H91.0848C90.6932 61.46 90.3919 61.4901 90.181 61.5504C89.9701 61.6106 89.8245 61.7362 89.7442 61.927C89.6739 62.1178 89.6387 62.404 89.6387 62.7856C89.6387 63.1572 89.6839 63.4384 89.7743 63.6292C89.8647 63.82 90.0354 63.9506 90.2865 64.0209C90.5476 64.0811 90.9242 64.1112 91.4163 64.1112ZM97.477 65V57.3174H98.5766L98.6369 58.7937H98.7273C98.8578 58.3619 99.0436 58.0305 99.2846 57.7995C99.5256 57.5685 99.8169 57.4129 100.158 57.3325C100.5 57.2421 100.876 57.1969 101.288 57.1969V58.402C100.595 58.402 100.063 58.5125 99.6913 58.7334C99.3198 58.9544 99.0637 59.2958 98.9231 59.7578C98.7825 60.2197 98.7122 60.8022 98.7122 61.5052V65H97.477ZM105.737 65.1205C105.154 65.1205 104.672 65.0703 104.29 64.9699C103.919 64.8694 103.618 64.7188 103.387 64.518C103.166 64.3171 103 64.061 102.889 63.7497C102.779 63.4384 102.704 63.0668 102.664 62.635C102.633 62.2031 102.618 61.7111 102.618 61.1587C102.618 60.5863 102.638 60.0842 102.679 59.6523C102.729 59.2205 102.814 58.8489 102.935 58.5376C103.065 58.2163 103.241 57.9602 103.462 57.7694C103.693 57.5786 103.989 57.438 104.351 57.3476C104.712 57.2471 105.159 57.1969 105.691 57.1969C106.043 57.1969 106.409 57.217 106.791 57.2572C107.183 57.2873 107.504 57.3325 107.755 57.3928V58.387C107.524 58.3468 107.238 58.3117 106.896 58.2815C106.565 58.2514 106.264 58.2363 105.993 58.2363C105.521 58.2363 105.139 58.2765 104.848 58.3569C104.567 58.4372 104.351 58.5828 104.2 58.7937C104.059 59.0046 103.964 59.3009 103.914 59.6825C103.864 60.0641 103.838 60.5562 103.838 61.1587C103.838 61.7713 103.864 62.2734 103.914 62.6651C103.964 63.0467 104.064 63.343 104.215 63.5539C104.376 63.7547 104.597 63.8953 104.878 63.9757C105.169 64.046 105.551 64.0811 106.023 64.0811C106.304 64.0811 106.61 64.066 106.942 64.0359C107.273 64.0058 107.569 63.9706 107.83 63.9305V64.9247C107.579 64.9749 107.258 65.0201 106.866 65.0603C106.475 65.1004 106.098 65.1205 105.737 65.1205ZM109.863 65V53.8076H111.099V58.3267H111.174C111.274 58.1158 111.42 57.925 111.611 57.7543C111.802 57.5836 112.063 57.453 112.394 57.3626C112.726 57.2622 113.147 57.212 113.66 57.212C114.222 57.212 114.674 57.2723 115.015 57.3928C115.367 57.5032 115.633 57.679 115.814 57.92C116.004 58.161 116.13 58.4723 116.19 58.854C116.251 59.2255 116.281 59.6724 116.281 60.1946V65H115.06V60.6164C115.06 60.0942 115.035 59.6825 114.985 59.3812C114.945 59.0699 114.86 58.8389 114.729 58.6883C114.599 58.5276 114.408 58.4221 114.157 58.3719C113.906 58.3217 113.574 58.2966 113.162 58.2966C112.67 58.2966 112.284 58.3619 112.003 58.4924C111.721 58.6129 111.515 58.7937 111.385 59.0347C111.254 59.2657 111.174 59.5519 111.144 59.8934C111.114 60.2248 111.099 60.6064 111.099 61.0382V65H109.863Z" fill="#BABCC9"/>
</svg>
