<svg width="118" height="74" viewBox="0 0 118 74" fill="none" xmlns="http://www.w3.org/2000/svg">
<path d="M62.7442 4.00049H55.2441C54.0015 4.00049 52.9941 5.00784 52.9941 6.25049C52.9941 7.49312 54.0015 8.50049 55.2441 8.50049H62.7442C63.9868 8.50049 64.9942 7.49312 64.9942 6.25049C64.9942 5.00784 63.9868 4.00049 62.7442 4.00049Z" stroke="white" stroke-width="1.5" stroke-linecap="round" stroke-linejoin="round"/>
<path d="M64.9942 6.25049C67.3244 6.3207 68.7142 6.58059 69.6761 7.54253C70.9942 8.86055 70.9942 10.9818 70.9942 15.2244V24.9996C70.9942 29.2424 70.9942 31.3637 69.6761 32.6817C68.3581 33.9996 66.2368 33.9996 61.9942 33.9996H55.9941C51.7515 33.9996 49.6302 33.9996 48.3122 32.6817C46.9942 31.3637 46.9942 29.2424 46.9941 24.9998L46.9942 15.2245C46.9942 10.9819 46.9942 8.86053 48.3122 7.54251C49.2741 6.58058 50.6639 6.3207 52.994 6.25049" stroke="white" stroke-width="1.5" stroke-linecap="round" stroke-linejoin="round"/>
<path d="M52.2441 17.5005L53.7441 19.0005L56.7442 15.2505" stroke="white" stroke-width="1.5" stroke-linecap="round" stroke-linejoin="round"/>
<path d="M61.25 26.5005H65.75M61.25 17.5005H65.75" stroke="white" stroke-width="1.5" stroke-linecap="round" stroke-linejoin="round"/>
<path d="M53.9375 26.5005H53.75M54.125 26.5005C54.125 26.7075 53.9571 26.8755 53.75 26.8755C53.5429 26.8755 53.375 26.7075 53.375 26.5005C53.375 26.2933 53.5429 26.1255 53.75 26.1255C53.9571 26.1255 54.125 26.2933 54.125 26.5005Z" stroke="white" stroke-width="1.5" stroke-linecap="round" stroke-linejoin="round"/>
<path d="M1.80305 65V54.6361H6.33726C7.00007 54.6361 7.52731 54.7214 7.91897 54.8922C8.32067 55.0529 8.61692 55.2788 8.80773 55.57C9.00858 55.8613 9.14416 56.2077 9.21446 56.6094C9.28475 57.0011 9.3199 57.4329 9.3199 57.9049C9.3199 58.3569 9.28475 58.7837 9.21446 59.1854C9.1542 59.577 9.02365 59.9235 8.8228 60.2248C8.62195 60.526 8.32067 60.762 7.91897 60.9328C7.51726 61.1035 6.97999 61.1889 6.30714 61.1889H3.09854V65H1.80305ZM3.09854 60.0591H5.88535C6.37744 60.0591 6.76407 60.0189 7.04526 59.9386C7.3365 59.8582 7.55241 59.7327 7.69301 59.562C7.83361 59.3812 7.92399 59.1552 7.96416 58.8841C8.00433 58.6129 8.02441 58.2866 8.02441 57.9049C8.02441 57.5233 8.00433 57.1969 7.96416 56.9258C7.93403 56.6546 7.84867 56.4337 7.70807 56.263C7.57752 56.0923 7.36663 55.9667 7.07539 55.8864C6.7942 55.796 6.40756 55.7508 5.91548 55.7508H3.09854V60.0591ZM15.5163 65.1205C14.7129 65.1205 14.0451 65.0803 13.5128 65C12.9906 64.9096 12.5738 64.754 12.2625 64.533C11.9613 64.3121 11.7403 64.0058 11.5997 63.6141C11.4591 63.2124 11.3687 62.7053 11.3286 62.0927C11.2884 61.47 11.2683 60.7118 11.2683 59.818C11.2683 58.9243 11.2884 58.1711 11.3286 57.5585C11.3687 56.9358 11.4591 56.4287 11.5997 56.037C11.7403 55.6353 11.9613 55.324 12.2625 55.1031C12.5738 54.8821 12.9906 54.7315 13.5128 54.6511C14.0451 54.5608 14.7129 54.5156 15.5163 54.5156C16.3197 54.5156 16.9825 54.5608 17.5047 54.6511C18.037 54.7315 18.4538 54.8821 18.755 55.1031C19.0664 55.324 19.2923 55.6353 19.4329 56.037C19.5735 56.4287 19.6639 56.9358 19.7041 57.5585C19.7442 58.1711 19.7643 58.9243 19.7643 59.818C19.7643 60.7118 19.7442 61.47 19.7041 62.0927C19.6639 62.7053 19.5735 63.2124 19.4329 63.6141C19.2923 64.0058 19.0664 64.3121 18.755 64.533C18.4538 64.754 18.037 64.9096 17.5047 65C16.9825 65.0803 16.3197 65.1205 15.5163 65.1205ZM15.5163 64.0058C16.0687 64.0058 16.5256 63.9907 16.8871 63.9606C17.2487 63.9204 17.5349 63.8351 17.7458 63.7045C17.9567 63.574 18.1173 63.3631 18.2278 63.0718C18.3383 62.7706 18.4035 62.3588 18.4236 61.8366C18.4538 61.3144 18.4688 60.6415 18.4688 59.818C18.4688 58.9946 18.4538 58.3217 18.4236 57.7995C18.4035 57.2773 18.3383 56.8706 18.2278 56.5793C18.1173 56.278 17.9567 56.0621 17.7458 55.9316C17.5349 55.801 17.2487 55.7207 16.8871 55.6906C16.5256 55.6504 16.0687 55.6303 15.5163 55.6303C14.964 55.6303 14.507 55.6504 14.1455 55.6906C13.794 55.7207 13.5078 55.801 13.2869 55.9316C13.076 56.0621 12.9153 56.278 12.8048 56.5793C12.7044 56.8706 12.6391 57.2773 12.609 57.7995C12.5789 58.3217 12.5638 58.9946 12.5638 59.818C12.5638 60.6415 12.5789 61.3144 12.609 61.8366C12.6391 62.3588 12.7044 62.7706 12.8048 63.0718C12.9153 63.3631 13.076 63.574 13.2869 63.7045C13.5078 63.8351 13.794 63.9204 14.1455 63.9606C14.507 63.9907 14.964 64.0058 15.5163 64.0058ZM25.9728 65V54.6361H27.7203L31.2603 62.8911H31.3356L34.8605 54.6361H36.6079V65H35.3426V56.7149H35.2823L31.7423 65H30.7933L27.2533 56.7149H27.193V65H25.9728ZM41.4773 65.1205C40.9149 65.1205 40.4429 65.0552 40.0613 64.9247C39.6897 64.7941 39.4085 64.5682 39.2177 64.2468C39.037 63.9254 38.9466 63.4735 38.9466 62.8911C38.9466 62.3086 39.0118 61.8517 39.1424 61.5203C39.283 61.1788 39.524 60.9378 39.8655 60.7972C40.2069 60.6566 40.6839 60.5863 41.2965 60.5863C41.397 60.5863 41.5526 60.5913 41.7635 60.6014C41.9844 60.6014 42.2355 60.6064 42.5167 60.6164C42.7979 60.6164 43.0791 60.6214 43.3603 60.6315C43.6515 60.6315 43.9176 60.6365 44.1587 60.6466V60.1645C44.1587 59.7126 44.1285 59.3611 44.0683 59.11C44.0181 58.8489 43.9076 58.6581 43.7369 58.5376C43.5661 58.4071 43.3251 58.3267 43.0138 58.2966C42.7125 58.2564 42.3108 58.2363 41.8087 58.2363C41.5878 58.2363 41.3267 58.2464 41.0254 58.2665C40.7241 58.2765 40.4278 58.2966 40.1366 58.3267C39.8554 58.3468 39.6295 58.3719 39.4587 58.402V57.4078C39.8404 57.3375 40.2672 57.2873 40.7392 57.2572C41.2212 57.217 41.7183 57.1969 42.2305 57.1969C42.7728 57.1969 43.2297 57.2321 43.6013 57.3024C43.9829 57.3626 44.2892 57.4631 44.5202 57.6037C44.7612 57.7443 44.942 57.93 45.0625 58.161C45.183 58.392 45.2633 58.6732 45.3035 59.0046C45.3537 59.336 45.3788 59.7226 45.3788 60.1645V65H44.2792L44.234 63.9154H44.1436C43.9829 64.2669 43.7519 64.533 43.4507 64.7138C43.1594 64.8845 42.8381 64.995 42.4866 65.0452C42.1351 65.0954 41.7987 65.1205 41.4773 65.1205ZM41.9292 64.1112C42.2204 64.1112 42.4916 64.0962 42.7427 64.066C42.9937 64.0259 43.2147 63.9556 43.4055 63.8551C43.5963 63.7547 43.7469 63.6041 43.8574 63.4032C43.9678 63.1923 44.0432 62.9664 44.0833 62.7254C44.1336 62.4743 44.1587 62.1831 44.1587 61.8517V61.46H41.5978C41.2061 61.46 40.9049 61.4901 40.694 61.5504C40.4831 61.6106 40.3375 61.7362 40.2571 61.927C40.1868 62.1178 40.1517 62.404 40.1517 62.7856C40.1517 63.1572 40.1969 63.4384 40.2873 63.6292C40.3776 63.82 40.5484 63.9506 40.7994 64.0209C41.0605 64.0811 41.4371 64.1112 41.9292 64.1112ZM47.9899 65V57.3174H49.1047L49.1498 58.4171H49.2402C49.3507 58.1761 49.5013 57.9652 49.6921 57.7844C49.893 57.6037 50.1591 57.4631 50.4905 57.3626C50.832 57.2522 51.2638 57.1969 51.786 57.1969C52.3584 57.1969 52.8154 57.2572 53.1568 57.3777C53.4983 57.4982 53.7594 57.679 53.9401 57.92C54.1309 58.161 54.2565 58.4723 54.3167 58.854C54.377 59.2255 54.4071 59.6724 54.4071 60.1946V65H53.1869V60.6164C53.1869 60.0942 53.1618 59.6825 53.1116 59.3812C53.0715 59.0699 52.9861 58.8389 52.8555 58.6883C52.725 58.5276 52.5342 58.4221 52.2831 58.3719C52.0321 58.3217 51.7007 58.2966 51.2889 58.2966C50.7968 58.2966 50.4102 58.3619 50.129 58.4924C49.8478 58.6129 49.6419 58.7937 49.5114 59.0347C49.3808 59.2657 49.3005 59.5519 49.2704 59.8934C49.2402 60.2248 49.2252 60.6064 49.2252 61.0382V65H47.9899ZM59.0714 65.1205C58.509 65.1205 58.037 65.0552 57.6554 64.9247C57.2838 64.7941 57.0026 64.5682 56.8118 64.2468C56.631 63.9254 56.5407 63.4735 56.5407 62.8911C56.5407 62.3086 56.6059 61.8517 56.7365 61.5203C56.8771 61.1788 57.1181 60.9378 57.4595 60.7972C57.801 60.6566 58.278 60.5863 58.8906 60.5863C58.991 60.5863 59.1467 60.5913 59.3576 60.6014C59.5785 60.6014 59.8296 60.6064 60.1108 60.6164C60.392 60.6164 60.6732 60.6214 60.9544 60.6315C61.2456 60.6315 61.5117 60.6365 61.7527 60.6466V60.1645C61.7527 59.7126 61.7226 59.3611 61.6624 59.11C61.6121 58.8489 61.5017 58.6581 61.331 58.5376C61.1602 58.4071 60.9192 58.3267 60.6079 58.2966C60.3066 58.2564 59.9049 58.2363 59.4028 58.2363C59.1818 58.2363 58.9207 58.2464 58.6195 58.2665C58.3182 58.2765 58.0219 58.2966 57.7307 58.3267C57.4495 58.3468 57.2235 58.3719 57.0528 58.402V57.4078C57.4344 57.3375 57.8612 57.2873 58.3332 57.2572C58.8153 57.217 59.3124 57.1969 59.8246 57.1969C60.3669 57.1969 60.8238 57.2321 61.1954 57.3024C61.577 57.3626 61.8833 57.4631 62.1143 57.6037C62.3553 57.7443 62.5361 57.93 62.6566 58.161C62.7771 58.392 62.8574 58.6732 62.8976 59.0046C62.9478 59.336 62.9729 59.7226 62.9729 60.1645V65H61.8732L61.8281 63.9154H61.7377C61.577 64.2669 61.346 64.533 61.0447 64.7138C60.7535 64.8845 60.4321 64.995 60.0807 65.0452C59.7292 65.0954 59.3927 65.1205 59.0714 65.1205ZM59.5233 64.1112C59.8145 64.1112 60.0857 64.0962 60.3367 64.066C60.5878 64.0259 60.8087 63.9556 60.9995 63.8551C61.1904 63.7547 61.341 63.6041 61.4515 63.4032C61.5619 63.1923 61.6372 62.9664 61.6774 62.7254C61.7276 62.4743 61.7527 62.1831 61.7527 61.8517V61.46H59.1919C58.8002 61.46 58.499 61.4901 58.2881 61.5504C58.0772 61.6106 57.9315 61.7362 57.8512 61.927C57.7809 62.1178 57.7458 62.404 57.7458 62.7856C57.7458 63.1572 57.791 63.4384 57.8813 63.6292C57.9717 63.82 58.1424 63.9506 58.3935 64.0209C58.6546 64.0811 59.0312 64.1112 59.5233 64.1112ZM68.4009 68.1031C68.0796 68.1031 67.7482 68.0931 67.4067 68.073C67.0753 68.063 66.759 68.0479 66.4577 68.0278C66.1564 68.0077 65.9004 67.9877 65.6895 67.9676V66.9734C65.9305 66.9934 66.1966 67.0085 66.4878 67.0186C66.7791 67.0386 67.0653 67.0487 67.3465 67.0487C67.6377 67.0587 67.8988 67.0637 68.1298 67.0637C68.7123 67.0637 69.1692 67.0236 69.5006 66.9432C69.832 66.8629 70.0831 66.7223 70.2538 66.5214C70.4245 66.3206 70.53 66.0394 70.5701 65.6779C70.6204 65.3163 70.6455 64.8544 70.6455 64.292V63.9757H70.5701C70.4396 64.2569 70.2588 64.4778 70.0278 64.6385C69.7969 64.7991 69.5207 64.9146 69.1993 64.9849C68.878 65.0452 68.5114 65.0753 68.0997 65.0753C67.5373 65.0753 67.0703 65.0151 66.6987 64.8946C66.3372 64.774 66.051 64.5732 65.8401 64.292C65.6292 64.0008 65.4786 63.5991 65.3882 63.0869C65.3078 62.5747 65.2677 61.932 65.2677 61.1587C65.2677 60.3754 65.3129 59.7277 65.4032 59.2155C65.4936 58.7033 65.6443 58.3016 65.8552 58.0104C66.0661 57.7191 66.3523 57.5133 66.7138 57.3928C67.0854 57.2622 67.5524 57.1969 68.1147 57.1969C68.4562 57.1969 68.7926 57.2271 69.124 57.2873C69.4554 57.3375 69.7517 57.453 70.0128 57.6338C70.2839 57.8146 70.4898 58.0757 70.6304 58.4171H70.7208L70.781 57.3174H71.8807V64.0058C71.8807 64.7489 71.8405 65.3816 71.7602 65.9038C71.6899 66.426 71.5392 66.8478 71.3083 67.1692C71.0773 67.4906 70.7308 67.7266 70.2689 67.8772C69.8069 68.0278 69.1843 68.1031 68.4009 68.1031ZM68.5817 64.0058C69.0838 64.0058 69.4805 63.9405 69.7718 63.81C70.063 63.6694 70.2739 63.4534 70.4044 63.1622C70.5149 62.9212 70.5802 62.635 70.6003 62.3036C70.6304 61.9722 70.6455 61.5855 70.6455 61.1437C70.6455 60.7219 70.6354 60.3503 70.6153 60.0289C70.5952 59.6975 70.53 59.4163 70.4195 59.1854C70.2889 58.864 70.073 58.633 69.7718 58.4924C69.4705 58.3518 69.0738 58.2815 68.5817 58.2815C68.1198 58.2815 67.7482 58.3167 67.467 58.387C67.1958 58.4472 66.99 58.5728 66.8494 58.7636C66.7088 58.9544 66.6134 59.2406 66.5632 59.6222C66.5129 60.0038 66.4878 60.511 66.4878 61.1437C66.4878 61.7763 66.5129 62.2835 66.5632 62.6651C66.6134 63.0467 66.7088 63.3329 66.8494 63.5237C66.99 63.7146 67.1958 63.8451 67.467 63.9154C67.7482 63.9757 68.1198 64.0058 68.5817 64.0058ZM77.6026 65.1205C76.98 65.1205 76.4577 65.0803 76.036 65C75.6242 64.9197 75.2928 64.7891 75.0417 64.6083C74.7907 64.4175 74.5999 64.1715 74.4693 63.8702C74.3388 63.5589 74.2534 63.1823 74.2132 62.7404C74.1731 62.2986 74.153 61.7763 74.153 61.1738C74.153 60.4608 74.1831 59.8532 74.2434 59.3511C74.3036 58.8389 74.4392 58.4271 74.6501 58.1158C74.871 57.7945 75.2125 57.5635 75.6744 57.4229C76.1364 57.2723 76.759 57.1969 77.5423 57.1969C78.1348 57.1969 78.6169 57.2421 78.9885 57.3325C79.3701 57.4229 79.6714 57.5635 79.8923 57.7543C80.1132 57.9451 80.2739 58.2012 80.3743 58.5226C80.4848 58.8339 80.5551 59.2105 80.5852 59.6523C80.6154 60.0842 80.6304 60.5863 80.6304 61.1587V61.5654H75.3731C75.3731 62.0877 75.3983 62.5145 75.4485 62.8459C75.4987 63.1773 75.5991 63.4334 75.7497 63.6141C75.9104 63.7949 76.1565 63.9204 76.4879 63.9907C76.8293 64.061 77.2913 64.0962 77.8737 64.0962C78.1148 64.0962 78.3809 64.0911 78.6721 64.0811C78.9634 64.061 79.2546 64.0359 79.5458 64.0058C79.8371 63.9757 80.0982 63.9455 80.3291 63.9154V64.9096C80.1183 64.9498 79.8571 64.9849 79.5458 65.0151C79.2446 65.0452 78.9232 65.0703 78.5817 65.0904C78.2503 65.1105 77.924 65.1205 77.6026 65.1205ZM79.4404 60.9478V60.5411C79.4404 60.0189 79.4103 59.6071 79.35 59.3059C79.2897 58.9946 79.1843 58.7636 79.0337 58.6129C78.8931 58.4523 78.6972 58.3468 78.4462 58.2966C78.1951 58.2464 77.8838 58.2213 77.5122 58.2213C77.0302 58.2213 76.6486 58.2564 76.3674 58.3267C76.0862 58.387 75.8753 58.5025 75.7347 58.6732C75.5941 58.8439 75.4987 59.09 75.4485 59.4113C75.3983 59.7327 75.3731 60.1595 75.3731 60.6917H79.7266L79.4404 60.9478ZM82.8839 65V57.3174H83.9986L84.0438 58.4171H84.1342C84.2246 58.1761 84.3601 57.9652 84.5409 57.7844C84.7317 57.6037 84.9777 57.4631 85.279 57.3626C85.5903 57.2522 85.987 57.1969 86.4691 57.1969C87.152 57.1969 87.6591 57.2974 87.9905 57.4982C88.3219 57.689 88.5529 57.9953 88.6835 58.4171H88.7738C88.8743 58.1761 89.0199 57.9652 89.2107 57.7844C89.4015 57.6037 89.6576 57.4631 89.9789 57.3626C90.3003 57.2522 90.697 57.1969 91.169 57.1969C91.8619 57.1969 92.3791 57.3024 92.7206 57.5133C93.062 57.7242 93.288 58.0506 93.3984 58.4924C93.5089 58.9343 93.5641 59.5017 93.5641 60.1946V65H92.344V60.6164C92.344 60.0942 92.3239 59.6825 92.2837 59.3812C92.2435 59.0699 92.1682 58.8389 92.0577 58.6883C91.9473 58.5276 91.7816 58.4221 91.5606 58.3719C91.3397 58.3217 91.0435 58.2966 90.6719 58.2966C90.24 58.2966 89.8986 58.3569 89.6475 58.4774C89.3965 58.5878 89.2107 58.7586 89.0902 58.9895C88.9797 59.2205 88.9094 59.5067 88.8793 59.8482C88.8492 60.1896 88.8341 60.5863 88.8341 61.0382V65H87.6139V60.6164C87.6139 60.0942 87.5938 59.6825 87.5537 59.3812C87.5135 59.0699 87.4382 58.8389 87.3277 58.6883C87.2172 58.5276 87.0515 58.4221 86.8306 58.3719C86.6097 58.3217 86.3134 58.2966 85.9418 58.2966C85.51 58.2966 85.1686 58.3619 84.9175 58.4924C84.6664 58.6129 84.4857 58.7887 84.3752 59.0197C84.2647 59.2506 84.1944 59.5369 84.1643 59.8783C84.1342 60.2197 84.1191 60.6064 84.1191 61.0382V65H82.8839ZM99.301 65.1205C98.6783 65.1205 98.1561 65.0803 97.7343 65C97.3226 64.9197 96.9912 64.7891 96.7401 64.6083C96.4891 64.4175 96.2983 64.1715 96.1677 63.8702C96.0372 63.5589 95.9518 63.1823 95.9116 62.7404C95.8714 62.2986 95.8514 61.7763 95.8514 61.1738C95.8514 60.4608 95.8815 59.8532 95.9417 59.3511C96.002 58.8389 96.1376 58.4271 96.3485 58.1158C96.5694 57.7945 96.9109 57.5635 97.3728 57.4229C97.8348 57.2723 98.4574 57.1969 99.2407 57.1969C99.8332 57.1969 100.315 57.2421 100.687 57.3325C101.068 57.4229 101.37 57.5635 101.591 57.7543C101.812 57.9451 101.972 58.2012 102.073 58.5226C102.183 58.8339 102.253 59.2105 102.284 59.6523C102.314 60.0842 102.329 60.5863 102.329 61.1587V61.5654H97.0715C97.0715 62.0877 97.0966 62.5145 97.1469 62.8459C97.1971 63.1773 97.2975 63.4334 97.4481 63.6141C97.6088 63.7949 97.8549 63.9204 98.1863 63.9907C98.5277 64.061 98.9897 64.0962 99.5721 64.0962C99.8132 64.0962 100.079 64.0911 100.371 64.0811C100.662 64.061 100.953 64.0359 101.244 64.0058C101.535 63.9757 101.797 63.9455 102.028 63.9154V64.9096C101.817 64.9498 101.556 64.9849 101.244 65.0151C100.943 65.0452 100.622 65.0703 100.28 65.0904C99.9487 65.1105 99.6223 65.1205 99.301 65.1205ZM101.139 60.9478V60.5411C101.139 60.0189 101.109 59.6071 101.048 59.3059C100.988 58.9946 100.883 58.7636 100.732 58.6129C100.591 58.4523 100.396 58.3468 100.145 58.2966C99.8935 58.2464 99.5822 58.2213 99.2106 58.2213C98.7286 58.2213 98.3469 58.2564 98.0657 58.3267C97.7846 58.387 97.5737 58.5025 97.4331 58.6732C97.2925 58.8439 97.1971 59.09 97.1469 59.4113C97.0966 59.7327 97.0715 60.1595 97.0715 60.6917H101.425L101.139 60.9478ZM104.582 65V57.3174H105.697L105.742 58.4171H105.833C105.943 58.1761 106.094 57.9652 106.284 57.7844C106.485 57.6037 106.751 57.4631 107.083 57.3626C107.424 57.2522 107.856 57.1969 108.378 57.1969C108.951 57.1969 109.408 57.2572 109.749 57.3777C110.091 57.4982 110.352 57.679 110.532 57.92C110.723 58.161 110.849 58.4723 110.909 58.854C110.969 59.2255 110.999 59.6724 110.999 60.1946V65H109.779V60.6164C109.779 60.0942 109.754 59.6825 109.704 59.3812C109.664 59.0699 109.578 58.8389 109.448 58.6883C109.317 58.5276 109.127 58.4221 108.875 58.3719C108.624 58.3217 108.293 58.2966 107.881 58.2966C107.389 58.2966 107.003 58.3619 106.721 58.4924C106.44 58.6129 106.234 58.7937 106.104 59.0347C105.973 59.2657 105.893 59.5519 105.863 59.8934C105.833 60.2248 105.817 60.6064 105.817 61.0382V65H104.582ZM114.248 65V58.3569H112.696V57.3174H114.248V55.088H115.468V57.3174H117.306V58.3569H115.468V65H114.248Z" fill="#BABCC9"/>
</svg>
