<svg width="118" height="74" viewBox="0 0 118 74" fill="none" xmlns="http://www.w3.org/2000/svg">
<path d="M66.465 30.25C70.1025 27.8314 72.5 23.6958 72.5 19C72.5 11.5442 66.4559 5.5 59 5.5C57.9689 5.5 56.9648 5.61559 56 5.83453M71.75 30.25H66.465V25M51.5 7.77333C47.882 10.1951 45.5 14.3194 45.5 19C45.5 26.4559 51.5442 32.5 59 32.5C60.0311 32.5 61.0352 32.3844 62 32.1655M46.25 7.77333H51.5V13" stroke="white" stroke-width="1.5" stroke-linecap="round" stroke-linejoin="round"/>
<path d="M32.931 65V54.6361H37.6912C38.344 54.6361 38.8612 54.7164 39.2428 54.8771C39.6344 55.0277 39.9207 55.2487 40.1014 55.5399C40.2922 55.8211 40.4178 56.1525 40.478 56.5341C40.5383 56.9157 40.5684 57.3225 40.5684 57.7543C40.5684 58.1259 40.5333 58.5125 40.463 58.9142C40.4027 59.3059 40.2571 59.6624 40.0261 59.9837C39.8052 60.3051 39.4537 60.5411 38.9716 60.6917L40.719 65H39.3332L37.6159 60.6466L37.9774 60.8273C37.9071 60.8474 37.8218 60.8625 37.7213 60.8725C37.6209 60.8826 37.4853 60.8876 37.3146 60.8876H34.2265V65H32.931ZM34.2265 59.7578H37.1339C37.636 59.7578 38.0276 59.7176 38.3088 59.6373C38.6001 59.5569 38.811 59.4314 38.9415 59.2607C39.0821 59.09 39.1725 58.8841 39.2127 58.6431C39.2528 58.392 39.2729 58.0957 39.2729 57.7543C39.2729 57.4129 39.2528 57.1216 39.2127 56.8806C39.1825 56.6295 39.1022 56.4237 38.9716 56.263C38.8511 56.0923 38.6503 55.9667 38.3691 55.8864C38.0979 55.796 37.7213 55.7508 37.2393 55.7508H34.2265V59.7578ZM46.1068 65.1205C45.4842 65.1205 44.962 65.0803 44.5402 65C44.1285 64.9197 43.797 64.7891 43.546 64.6083C43.2949 64.4175 43.1041 64.1715 42.9736 63.8702C42.843 63.5589 42.7576 63.1823 42.7175 62.7404C42.6773 62.2986 42.6572 61.7763 42.6572 61.1738C42.6572 60.4608 42.6873 59.8532 42.7476 59.3511C42.8079 58.8389 42.9434 58.4271 43.1543 58.1158C43.3753 57.7945 43.7167 57.5635 44.1787 57.4229C44.6406 57.2723 45.2633 57.1969 46.0466 57.1969C46.6391 57.1969 47.1211 57.2421 47.4927 57.3325C47.8743 57.4229 48.1756 57.5635 48.3965 57.7543C48.6175 57.9451 48.7782 58.2012 48.8786 58.5226C48.989 58.8339 49.0593 59.2105 49.0895 59.6523C49.1196 60.0842 49.1347 60.5863 49.1347 61.1587V61.5654H43.8774C43.8774 62.0877 43.9025 62.5145 43.9527 62.8459C44.0029 63.1773 44.1033 63.4334 44.254 63.6141C44.4147 63.7949 44.6607 63.9204 44.9921 63.9907C45.3336 64.061 45.7955 64.0962 46.378 64.0962C46.619 64.0962 46.8851 64.0911 47.1764 64.0811C47.4676 64.061 47.7588 64.0359 48.0501 64.0058C48.3413 63.9757 48.6024 63.9455 48.8334 63.9154V64.9096C48.6225 64.9498 48.3614 64.9849 48.0501 65.0151C47.7488 65.0452 47.4274 65.0703 47.086 65.0904C46.7546 65.1105 46.4282 65.1205 46.1068 65.1205ZM47.9446 60.9478V60.5411C47.9446 60.0189 47.9145 59.6071 47.8542 59.3059C47.794 58.9946 47.6885 58.7636 47.5379 58.6129C47.3973 58.4523 47.2015 58.3468 46.9504 58.2966C46.6993 58.2464 46.388 58.2213 46.0165 58.2213C45.5344 58.2213 45.1528 58.2564 44.8716 58.3267C44.5904 58.387 44.3795 58.5025 44.2389 58.6732C44.0983 58.8439 44.0029 59.09 43.9527 59.4113C43.9025 59.7327 43.8774 60.1595 43.8774 60.6917H48.2308L47.9446 60.9478ZM52.0359 65V58.3569H50.4843V57.3174H52.0359V55.088H53.256V57.3174H55.0938V58.3569H53.256V65H52.0359ZM59.4081 65.1205C58.8457 65.1205 58.3888 65.0603 58.0373 64.9397C57.6958 64.8192 57.4347 64.6385 57.2539 64.3974C57.0732 64.1564 56.9477 63.8501 56.8774 63.4786C56.8171 63.0969 56.787 62.645 56.787 62.1228V57.3174H58.0222V61.701C58.0222 62.2132 58.0423 62.6249 58.0825 62.9363C58.1226 63.2476 58.208 63.4836 58.3385 63.6443C58.4791 63.7949 58.675 63.8953 58.926 63.9455C59.1771 63.9957 59.5035 64.0209 59.9052 64.0209C60.4073 64.0209 60.799 63.9606 61.0802 63.8401C61.3614 63.7095 61.5622 63.5288 61.6827 63.2978C61.8133 63.0568 61.8936 62.7706 61.9237 62.4391C61.9639 62.0977 61.984 61.7111 61.984 61.2792V57.3174H63.2042V65H62.1045L62.0593 63.9003H61.9539C61.8534 64.1414 61.7028 64.3523 61.502 64.533C61.3111 64.7138 61.045 64.8594 60.7036 64.9699C60.3621 65.0703 59.9303 65.1205 59.4081 65.1205ZM65.8047 65V57.3174H66.9043L66.9646 58.7937H67.055C67.1855 58.3619 67.3713 58.0305 67.6123 57.7995C67.8534 57.5685 68.1446 57.4129 68.486 57.3325C68.8275 57.2421 69.2041 57.1969 69.6158 57.1969V58.402C68.9229 58.402 68.3906 58.5125 68.0191 58.7334C67.6475 58.9544 67.3914 59.2958 67.2508 59.7578C67.1102 60.2197 67.0399 60.8022 67.0399 61.5052V65H65.8047ZM71.3359 65V57.3174H72.4506L72.4958 58.4171H72.5862C72.6967 58.1761 72.8473 57.9652 73.0381 57.7844C73.239 57.6037 73.5051 57.4631 73.8365 57.3626C74.178 57.2522 74.6098 57.1969 75.132 57.1969C75.7044 57.1969 76.1614 57.2572 76.5028 57.3777C76.8443 57.4982 77.1054 57.679 77.2861 57.92C77.4769 58.161 77.6025 58.4723 77.6627 58.854C77.723 59.2255 77.7531 59.6724 77.7531 60.1946V65H76.5329V60.6164C76.5329 60.0942 76.5078 59.6825 76.4576 59.3812C76.4175 59.0699 76.3321 58.8389 76.2015 58.6883C76.071 58.5276 75.8802 58.4221 75.6291 58.3719C75.378 58.3217 75.0466 58.2966 74.6349 58.2966C74.1428 58.2966 73.7562 58.3619 73.475 58.4924C73.1938 58.6129 72.9879 58.7937 72.8574 59.0347C72.7268 59.2657 72.6465 59.5519 72.6163 59.8934C72.5862 60.2248 72.5712 60.6064 72.5712 61.0382V65H71.3359ZM82.9145 65.1205C82.6232 65.1205 82.3119 65.1105 81.9805 65.0904C81.6491 65.0703 81.3227 65.0452 81.0014 65.0151C80.68 64.995 80.3888 64.9649 80.1277 64.9247V63.9305C80.3687 63.9506 80.5997 63.9706 80.8206 63.9907C81.0516 64.0108 81.2775 64.0309 81.4985 64.051C81.7194 64.061 81.9403 64.0711 82.1613 64.0811C82.3822 64.0811 82.6082 64.0811 82.8392 64.0811C83.3614 64.0811 83.738 64.046 83.9689 63.9757C84.21 63.8953 84.3656 63.7648 84.4359 63.584C84.5163 63.4032 84.5564 63.1672 84.5564 62.876C84.5564 62.5446 84.5263 62.3036 84.4661 62.1529C84.4158 62.0023 84.3204 61.9069 84.1798 61.8667C84.0493 61.8165 83.8484 61.7763 83.5773 61.7462L81.5889 61.5203C81.1169 61.47 80.7603 61.3696 80.5193 61.219C80.2783 61.0583 80.1126 60.8323 80.0222 60.5411C79.9318 60.2499 79.8866 59.8833 79.8866 59.4414C79.8866 58.9393 79.9569 58.5376 80.0975 58.2363C80.2381 57.9351 80.439 57.7091 80.7001 57.5585C80.9612 57.4078 81.2775 57.3124 81.6491 57.2723C82.0207 57.222 82.4375 57.1969 82.8994 57.1969C83.1605 57.1969 83.4367 57.207 83.7279 57.2271C84.0192 57.2471 84.3054 57.2723 84.5866 57.3024C84.8678 57.3325 85.1088 57.3677 85.3096 57.4078V58.402C85.0485 58.3619 84.7824 58.3317 84.5112 58.3117C84.2501 58.2815 83.979 58.2614 83.6978 58.2514C83.4266 58.2414 83.1505 58.2363 82.8693 58.2363C82.4877 58.2363 82.1613 58.2564 81.8901 58.2966C81.619 58.3368 81.4131 58.4372 81.2725 58.5979C81.142 58.7586 81.0767 59.0247 81.0767 59.3963C81.0767 59.6875 81.0968 59.9084 81.1369 60.0591C81.1872 60.1997 81.2826 60.3001 81.4232 60.3603C81.5638 60.4106 81.7596 60.4507 82.0106 60.4809L84.0895 60.7068C84.5012 60.747 84.8226 60.8273 85.0535 60.9478C85.2946 61.0583 85.4653 61.2591 85.5657 61.5504C85.6762 61.8416 85.7314 62.2785 85.7314 62.8609C85.7314 63.343 85.6712 63.7346 85.5506 64.0359C85.4402 64.3271 85.2644 64.5531 85.0234 64.7138C84.7824 64.8745 84.4861 64.9799 84.1346 65.0301C83.7832 65.0904 83.3764 65.1205 82.9145 65.1205Z" fill="#BABCC9"/>
</svg>
