<svg width="1448" height="56" viewBox="0 0 1448 56" fill="none" xmlns="http://www.w3.org/2000/svg">
<path d="M1448 56H0V54.3311H47.5254V50.377H0V0H1448V56ZM55.3643 50.377V54.3311H103.186V50.377H55.3643ZM111.025 50.377V54.3311H158.847V50.377H111.025ZM166.686 50.377V54.3311H214.507V50.377H166.686ZM222.346 50.377V54.3311H270.167V50.377H222.346ZM278.007 50.377V54.3311H325.828V50.377H278.007ZM334.016 50.377V54.3311H381.837V50.377H334.016ZM389.676 50.377V54.3311H437.497V50.377H389.676ZM445.336 50.377V54.3311H493.157V50.377H445.336ZM500.997 50.377V54.3311H548.818V50.377H500.997ZM556.647 50.377V54.3311H604.469V50.377H556.647ZM612.308 50.377V54.3311H660.129V50.377H612.308ZM667.968 50.377V54.3311H715.789V50.377H667.968ZM723.34 50.377V54.3311H771.161V50.377H723.34ZM779 50.377V54.3311H826.821V50.377H779ZM834.661 50.377V54.3311H882.482V50.377H834.661ZM890.321 50.377V54.3311H938.143V50.377H890.321ZM945.981 50.377V54.3311H993.803V50.377H945.981ZM1001.64 50.377V54.3311H1049.46V50.377H1001.64ZM1057.3 50.377V54.3311H1105.12V50.377H1057.3ZM1112.8 50.377V54.3311H1161.41V50.377H1112.8ZM1168.46 50.377V54.3311H1217.07V50.377H1168.46ZM1224.11 50.377V54.3311H1272.73V50.377H1224.11ZM1279.78 50.377V54.3311H1328.39V50.377H1279.78ZM1335.44 50.377V54.3311H1384.05V50.377H1335.44ZM1391.1 50.377V54.3311H1439.7V50.377H1391.1ZM49.4678 0.548828V48.4336H53.4219V0.548828H49.4678ZM105.128 0.548828V48.4336H109.083V0.548828H105.128ZM160.778 0.548828V48.4336H164.743V0.548828H160.778ZM216.439 0.548828V48.4336H220.394V0.548828H216.439ZM272.1 0.548828V48.4336H276.054V0.548828H272.1ZM327.76 0.548828V48.4336H331.715V0.548828H327.76ZM383.77 0.548828V48.4336H387.724V0.548828H383.77ZM439.43 0.548828V48.4336H443.384V0.548828H439.43ZM495.09 0.548828V48.4336H499.045V0.548828H495.09ZM550.751 0.548828V48.4336H554.705V0.548828H550.751ZM606.411 0.548828V48.4336H610.365V0.548828H606.411ZM662.071 0.548828V48.4336H666.025V0.548828H662.071ZM717.731 0.548828V48.4336H721.687V0.548828H717.731ZM773.104 0.548828V48.4336H777.058V0.548828H773.104ZM828.764 0.548828V48.4336H832.719V0.548828H828.764ZM884.425 0.548828V48.4336H888.379V0.548828H884.425ZM940.075 0.548828V48.4336H944.029V0.548828H940.075ZM995.735 0.548828V48.4336H999.689V0.548828H995.735ZM1051.4 0.548828V48.4336H1055.35V0.548828H1051.4ZM1107.06 0.548828V48.4336H1111.01V0.548828H1107.06ZM1163.34 0.548828V48.4336H1167.3V0.548828H1163.34ZM1219 0.548828V48.4336H1222.96V0.548828H1219ZM1274.67 0.548828V48.4336H1278.62V0.548828H1274.67ZM1330.33 0.548828V48.4336H1334.28V0.548828H1330.33ZM1385.99 0.548828V48.4336H1389.94V0.548828H1385.99ZM1442.1 0.548828V48.4336H1446.05V0.548828H1442.1Z" fill="#EDF0F7"/>
</svg>
