<svg width="1448" height="57" viewBox="0 0 1448 57" fill="none" xmlns="http://www.w3.org/2000/svg">
<g opacity="0.05">
<path d="M54.4222 0.54834H50.4678V48.434H54.4222V0.54834Z" fill="#C1C1C1"/>
<path d="M48.5255 50.3766H0.704102V54.3313H48.5255V50.3766Z" fill="#C1C1C1"/>
<path d="M54.4222 0.54834H50.4678V48.434H54.4222V0.54834Z" fill="#C1C1C1"/>
<path d="M110.083 0.54834H106.128V48.434H110.083V0.54834Z" fill="#C1C1C1"/>
<path d="M104.186 50.3766H56.3646V54.3313H104.186V50.3766Z" fill="#C1C1C1"/>
<path d="M110.083 0.54834H106.128V48.434H110.083V0.54834Z" fill="#C1C1C1"/>
<path d="M165.733 0.54834H161.779V48.434H165.733V0.54834Z" fill="#C1C1C1"/>
<path d="M159.846 50.3766H112.025V54.3313H159.846V50.3766Z" fill="#C1C1C1"/>
<path d="M165.743 0.54834H161.789V48.434H165.743V0.54834Z" fill="#C1C1C1"/>
<path d="M221.394 0.54834H217.439V48.434H221.394V0.54834Z" fill="#C1C1C1"/>
<path d="M215.507 50.3766H167.685V54.3313H215.507V50.3766Z" fill="#C1C1C1"/>
<path d="M221.394 0.54834H217.439V48.434H221.394V0.54834Z" fill="#C1C1C1"/>
<path d="M277.054 0.54834H273.1V48.434H277.054V0.54834Z" fill="#C1C1C1"/>
<path d="M271.167 50.3766H223.346V54.3313H271.167V50.3766Z" fill="#C1C1C1"/>
<path d="M277.054 0.54834H273.1V48.434H277.054V0.54834Z" fill="#C1C1C1"/>
<path d="M332.715 0.54834H328.76V48.434H332.715V0.54834Z" fill="#C1C1C1"/>
<path d="M326.828 50.3766H279.006V54.3313H326.828V50.3766Z" fill="#C1C1C1"/>
<path d="M388.724 0.54834H384.769V48.434H388.724V0.54834Z" fill="#C1C1C1"/>
<path d="M382.837 50.3766H335.015V54.3313H382.837V50.3766Z" fill="#C1C1C1"/>
<path d="M388.724 0.54834H384.769V48.434H388.724V0.54834Z" fill="#C1C1C1"/>
<path d="M444.384 0.54834H440.43V48.434H444.384V0.54834Z" fill="#C1C1C1"/>
<path d="M438.497 50.3766H390.676V54.3313H438.497V50.3766Z" fill="#C1C1C1"/>
<path d="M444.384 0.54834H440.43V48.434H444.384V0.54834Z" fill="#C1C1C1"/>
<path d="M500.044 0.54834H496.09V48.434H500.044V0.54834Z" fill="#C1C1C1"/>
<path d="M494.158 50.3766H446.336V54.3313H494.158V50.3766Z" fill="#C1C1C1"/>
<path d="M500.044 0.54834H496.09V48.434H500.044V0.54834Z" fill="#C1C1C1"/>
<path d="M555.705 0.54834H551.75V48.434H555.705V0.54834Z" fill="#C1C1C1"/>
<path d="M549.818 50.3766H501.997V54.3313H549.818V50.3766Z" fill="#C1C1C1"/>
<path d="M555.705 0.54834H551.75V48.434H555.705V0.54834Z" fill="#C1C1C1"/>
<path d="M611.365 0.54834H607.411V48.434H611.365V0.54834Z" fill="#C1C1C1"/>
<path d="M605.469 50.3766H557.647V54.3313H605.469V50.3766Z" fill="#C1C1C1"/>
<path d="M611.365 0.54834H607.411V48.434H611.365V0.54834Z" fill="#C1C1C1"/>
<path d="M667.026 0.54834H663.071V48.434H667.026V0.54834Z" fill="#C1C1C1"/>
<path d="M661.129 50.3766H613.308V54.3313H661.129V50.3766Z" fill="#C1C1C1"/>
<path d="M667.026 0.54834H663.071V48.434H667.026V0.54834Z" fill="#C1C1C1"/>
<path d="M722.686 0.54834H718.732V48.434H722.686V0.54834Z" fill="#C1C1C1"/>
<path d="M716.789 50.3766H668.968V54.3313H716.789V50.3766Z" fill="#C1C1C1"/>
<path d="M778.058 0.54834H774.103V48.434H778.058V0.54834Z" fill="#C1C1C1"/>
<path d="M772.161 50.3766H724.34V54.3313H772.161V50.3766Z" fill="#C1C1C1"/>
<path d="M778.058 0.54834H774.103V48.434H778.058V0.54834Z" fill="#C1C1C1"/>
<path d="M833.718 0.54834H829.764V48.434H833.718V0.54834Z" fill="#C1C1C1"/>
<path d="M827.822 50.3766H780V54.3313H827.822V50.3766Z" fill="#C1C1C1"/>
<path d="M833.718 0.54834H829.764V48.434H833.718V0.54834Z" fill="#C1C1C1"/>
<path d="M889.379 0.54834H885.424V48.434H889.379V0.54834Z" fill="#C1C1C1"/>
<path d="M883.482 50.3766H835.661V54.3313H883.482V50.3766Z" fill="#C1C1C1"/>
<path d="M889.379 0.54834H885.424V48.434H889.379V0.54834Z" fill="#C1C1C1"/>
<path d="M945.029 0.54834H941.075V48.434H945.029V0.54834Z" fill="#C1C1C1"/>
<path d="M939.142 50.3766H891.321V54.3313H939.142V50.3766Z" fill="#C1C1C1"/>
<path d="M945.029 0.54834H941.075V48.434H945.029V0.54834Z" fill="#C1C1C1"/>
<path d="M1000.69 0.54834H996.735V48.434H1000.69V0.54834Z" fill="#C1C1C1"/>
<path d="M994.803 50.3766H946.982V54.3313H994.803V50.3766Z" fill="#C1C1C1"/>
<path d="M1000.69 0.54834H996.735V48.434H1000.69V0.54834Z" fill="#C1C1C1"/>
<path d="M1056.35 0.54834H1052.4V48.434H1056.35V0.54834Z" fill="#C1C1C1"/>
<path d="M1050.46 50.3766H1002.64V54.3313H1050.46V50.3766Z" fill="#C1C1C1"/>
<path d="M1056.35 0.54834H1052.4V48.434H1056.35V0.54834Z" fill="#C1C1C1"/>
<path d="M1112.01 0.54834H1108.06V48.434H1112.01V0.54834Z" fill="#C1C1C1"/>
<path d="M1106.12 50.3766H1058.3V54.3313H1106.12V50.3766Z" fill="#C1C1C1"/>
<path d="M1168.3 0.54834H1164.34V48.434H1168.3V0.54834Z" fill="#C1C1C1"/>
<path d="M1162.41 50.3766H1114.59V54.3313H1162.41V50.3766Z" fill="#C1C1C1"/>
<path d="M1168.3 0.54834H1164.34V48.434H1168.3V0.54834Z" fill="#C1C1C1"/>
<path d="M1223.96 0.54834H1220V48.434H1223.96V0.54834Z" fill="#C1C1C1"/>
<path d="M1218.07 50.3766H1170.25V54.3313H1218.07V50.3766Z" fill="#C1C1C1"/>
<path d="M1223.96 0.54834H1220V48.434H1223.96V0.54834Z" fill="#C1C1C1"/>
<path d="M1279.62 0.54834H1275.67V48.434H1279.62V0.54834Z" fill="#C1C1C1"/>
<path d="M1273.73 50.3766H1225.91V54.3313H1273.73V50.3766Z" fill="#C1C1C1"/>
<path d="M1279.62 0.54834H1275.67V48.434H1279.62V0.54834Z" fill="#C1C1C1"/>
<path d="M1335.28 0.54834H1331.33V48.434H1335.28V0.54834Z" fill="#C1C1C1"/>
<path d="M1329.39 50.3766H1281.57V54.3313H1329.39V50.3766Z" fill="#C1C1C1"/>
<path d="M1335.28 0.54834H1331.33V48.434H1335.28V0.54834Z" fill="#C1C1C1"/>
<path d="M1390.94 0.54834H1386.99V48.434H1390.94V0.54834Z" fill="#C1C1C1"/>
<path d="M1385.05 50.3766H1337.23V54.3313H1385.05V50.3766Z" fill="#C1C1C1"/>
<path d="M1390.94 0.54834H1386.99V48.434H1390.94V0.54834Z" fill="#C1C1C1"/>
<path d="M1440.7 50.3766H1392.89V54.3313H1440.7V50.3766Z" fill="#C1C1C1"/>
<path d="M48.5255 50.3766H0.704102V54.3313H48.5255V50.3766Z" fill="#C1C1C1"/>
<path d="M104.186 50.3766H56.3646V54.3313H104.186V50.3766Z" fill="#C1C1C1"/>
<path d="M159.846 50.3766H112.025V54.3313H159.846V50.3766Z" fill="#C1C1C1"/>
<path d="M215.507 50.3766H167.685V54.3313H215.507V50.3766Z" fill="#C1C1C1"/>
<path d="M271.167 50.3766H223.346V54.3313H271.167V50.3766Z" fill="#C1C1C1"/>
<path d="M326.828 50.3766H279.006V54.3313H326.828V50.3766Z" fill="#C1C1C1"/>
<path d="M382.837 50.3766H335.015V54.3313H382.837V50.3766Z" fill="#C1C1C1"/>
<path d="M438.497 50.3766H390.676V54.3313H438.497V50.3766Z" fill="#C1C1C1"/>
<path d="M494.158 50.3766H446.336V54.3313H494.158V50.3766Z" fill="#C1C1C1"/>
<path d="M549.818 50.3766H501.997V54.3313H549.818V50.3766Z" fill="#C1C1C1"/>
<path d="M605.469 50.3766H557.647V54.3313H605.469V50.3766Z" fill="#C1C1C1"/>
<path d="M661.129 50.3766H613.308V54.3313H661.129V50.3766Z" fill="#C1C1C1"/>
<path d="M716.789 50.3766H668.968V54.3313H716.789V50.3766Z" fill="#C1C1C1"/>
<path d="M772.161 50.3766H724.34V54.3313H772.161V50.3766Z" fill="#C1C1C1"/>
<path d="M827.822 50.3766H780V54.3313H827.822V50.3766Z" fill="#C1C1C1"/>
<path d="M883.482 50.3766H835.661V54.3313H883.482V50.3766Z" fill="#C1C1C1"/>
<path d="M939.142 50.3766H891.321V54.3313H939.142V50.3766Z" fill="#C1C1C1"/>
<path d="M994.803 50.3766H946.982V54.3313H994.803V50.3766Z" fill="#C1C1C1"/>
<path d="M1050.46 50.3766H1002.64V54.3313H1050.46V50.3766Z" fill="#C1C1C1"/>
<path d="M1106.12 50.3766H1058.3V54.3313H1106.12V50.3766Z" fill="#C1C1C1"/>
<path d="M1161.61 50.3766H1113.8V54.3313H1161.61V50.3766Z" fill="#C1C1C1"/>
<path d="M1217.28 50.3766H1169.46V54.3313H1217.28V50.3766Z" fill="#C1C1C1"/>
<path d="M1272.94 50.3766H1225.11V54.3313H1272.94V50.3766Z" fill="#C1C1C1"/>
<path d="M1328.6 50.3766H1280.77V54.3313H1328.6V50.3766Z" fill="#C1C1C1"/>
<path d="M1384.26 50.3766H1336.44V54.3313H1384.26V50.3766Z" fill="#C1C1C1"/>
<path d="M1439.92 50.3766H1392.1V54.3313H1439.92V50.3766Z" fill="#C1C1C1"/>
<path d="M1447.05 0.54834H1443.1V48.434H1447.05V0.54834Z" fill="#C1C1C1"/>
<path d="M1447.05 0.54834H1443.1V48.434H1447.05V0.54834Z" fill="#C1C1C1"/>
</g>
</svg>
