<svg width="117" height="40" viewBox="0 0 117 40" fill="none" xmlns="http://www.w3.org/2000/svg">
<g clip-path="url(#clip0_378_39221)">
<path d="M42.4775 34.7523C42.4775 35.2113 42.1405 35.5194 41.7415 35.5194V35.5166C41.3312 35.5194 41.0004 35.2113 41.0004 34.7525C41.0004 34.2937 41.3312 33.9865 41.7415 33.9865C42.1406 33.9864 42.4775 34.2936 42.4775 34.7523ZM42.776 34.7523C42.776 34.1225 42.2868 33.7568 41.7415 33.7568C41.1924 33.7568 40.7031 34.1225 40.7031 34.7523C40.7031 35.3818 41.1925 35.7489 41.7415 35.7489C42.2869 35.7489 42.776 35.3818 42.776 34.7523ZM41.5699 34.8366H41.6806L41.9373 35.2873H42.2192L41.9349 34.8176C42.0818 34.8071 42.2026 34.7371 42.2026 34.5393C42.2026 34.2936 42.0332 34.2146 41.7462 34.2146H41.331V35.2873H41.5697V34.8366M41.5699 34.655V34.3967H41.7359C41.8262 34.3967 41.9492 34.404 41.9492 34.5141C41.9492 34.634 41.8856 34.655 41.7791 34.655H41.5699Z" fill="white"/>
<path d="M35.8106 29.2652L37.1005 32.7941H34.4808L35.8106 29.2652ZM34.4291 27.8912L31.4565 35.4229H33.5556L34.0258 34.0921H37.5437L37.9887 35.4229H40.2674L37.2726 27.8902L34.4291 27.8912ZM28.4611 35.4257H30.5907V27.8889L28.4607 27.8884L28.4611 35.4257ZM13.6768 27.8884L11.9 33.8619L10.198 27.8889L7.90012 27.8884L10.331 35.4257H13.3991L15.8495 27.8884H13.6768ZM22.2851 29.5296H23.2004C24.5283 29.5296 25.3871 30.1258 25.3871 31.6729C25.3871 33.2203 24.5283 33.8166 23.2004 33.8166H22.2851V29.5296ZM20.1733 27.8884V35.4257H23.6259C25.4654 35.4257 26.066 35.1199 26.7155 34.434C27.1742 33.9523 27.471 32.8954 27.471 31.7399C27.471 30.6802 27.2199 29.7355 26.7821 29.1469C25.9932 28.0942 24.8569 27.8884 23.1611 27.8884H20.1733ZM0 27.8779V35.4257H2.14765V29.6946L3.81173 29.6951C4.36273 29.6951 4.75551 29.8324 5.02085 30.1159C5.35739 30.4743 5.4948 31.053 5.4948 32.1114V35.4257H7.57588V31.2555C7.57588 28.2792 5.67883 27.8779 3.82269 27.8779H0ZM16.7458 27.8884L16.7467 35.4257H18.8754V27.8884H16.7458Z" fill="white"/>
<path d="M5.7202 12.8808C5.7202 12.8808 8.45926 8.83949 13.9283 8.4214V6.95523C7.87065 7.44172 2.625 12.5722 2.625 12.5722C2.625 12.5722 5.59605 21.161 13.9283 21.9474V20.389C7.81369 19.6197 5.7202 12.8808 5.7202 12.8808ZM13.9283 17.2896V18.7169C9.307 17.893 8.02426 13.0892 8.02426 13.0892C8.02426 13.0892 10.2431 10.6311 13.9283 10.2325V11.7986C13.9255 11.7986 13.9235 11.7978 13.9212 11.7978C11.987 11.5657 10.4761 13.3725 10.4761 13.3725C10.4761 13.3725 11.323 16.4143 13.9283 17.2896ZM13.9283 4.25098V6.95523C14.1061 6.9416 14.2839 6.93003 14.4627 6.92395C21.3496 6.69184 25.8368 12.5722 25.8368 12.5722C25.8368 12.5722 20.6831 18.8391 15.3137 18.8391C14.8216 18.8391 14.361 18.7935 13.9283 18.7169V20.389C14.2983 20.436 14.6819 20.4636 15.0822 20.4636C20.0787 20.4636 23.6921 17.9118 27.1909 14.8917C27.771 15.3563 30.1459 16.4866 30.6341 16.9813C27.3074 19.7665 19.5543 22.0117 15.1588 22.0117C14.7351 22.0117 14.3282 21.986 13.9283 21.9474V24.2972H32.9196V4.25098H13.9283ZM13.9283 10.2325V8.4214C14.1043 8.40911 14.2816 8.39974 14.4627 8.39402C19.415 8.23847 22.6641 12.6498 22.6641 12.6498C22.6641 12.6498 19.1548 17.5236 15.3921 17.5236C14.8506 17.5236 14.3652 17.4366 13.9283 17.2896V11.7986C15.8562 12.0316 16.2441 12.8832 17.4032 14.8154L19.9811 12.6417C19.9811 12.6417 18.0993 10.1737 14.9271 10.1737C14.5822 10.1736 14.2523 10.1978 13.9283 10.2325Z" fill="#77B900"/>
</g>
<line x1="51.3872" x2="51.3872" y2="40" stroke="white" stroke-width="0.555556"/>
<path d="M60.472 16.5565V8.48982C60.472 8.41649 60.5209 8.3676 60.5942 8.3676H61.4375C61.5109 8.3676 61.5598 8.41649 61.5598 8.48982V16.5565C61.5598 16.6298 61.5109 16.6787 61.4375 16.6787H60.5942C60.5209 16.6787 60.472 16.6298 60.472 16.5565ZM63.4889 16.5565V8.48982C63.4889 8.41649 63.5378 8.3676 63.6111 8.3676H64.3933C64.4911 8.3676 64.5522 8.39204 64.6011 8.48982L68.3655 14.7232H68.4144V8.48982C68.4144 8.41649 68.4633 8.3676 68.5366 8.3676H69.3066C69.38 8.3676 69.4289 8.41649 69.4289 8.48982V16.5565C69.4289 16.6298 69.38 16.6787 69.3066 16.6787H68.5244C68.4389 16.6787 68.3655 16.6543 68.3166 16.5565L64.54 10.3476H64.5033V16.5565C64.5033 16.6298 64.4544 16.6787 64.3811 16.6787H63.6111C63.5378 16.6787 63.4889 16.6298 63.4889 16.5565ZM71.2903 14.8576C71.1314 14.3809 71.0703 13.9043 71.0703 12.5232C71.0703 11.142 71.1314 10.6654 71.2903 10.1887C71.7058 8.88093 72.6958 8.23316 74.0525 8.23316C75.2869 8.23316 76.2403 8.84427 76.7169 9.9076C76.7414 9.96871 76.7292 10.0298 76.668 10.0665L75.9347 10.4209C75.8614 10.4576 75.788 10.4209 75.7636 10.3598C75.4336 9.71204 74.9203 9.2476 74.0525 9.2476C73.148 9.2476 72.598 9.6876 72.3292 10.4698C72.2192 10.812 72.1703 11.2154 72.1703 12.5232C72.1703 13.8309 72.2192 14.2343 72.3292 14.5765C72.598 15.3587 73.148 15.7987 74.0525 15.7987C74.9203 15.7987 75.4336 15.3343 75.7636 14.6865C75.788 14.6254 75.8614 14.5887 75.9347 14.6254L76.668 14.9798C76.7292 15.0165 76.7414 15.0776 76.7169 15.1387C76.2403 16.202 75.2869 16.8132 74.0525 16.8132C72.6958 16.8132 71.7058 16.1654 71.2903 14.8576ZM78.1641 16.5565V8.48982C78.1641 8.41649 78.213 8.3676 78.2863 8.3676H83.2852C83.3586 8.3676 83.4075 8.41649 83.4075 8.48982V9.25982C83.4075 9.33316 83.3586 9.38204 83.2852 9.38204H79.3252C79.2763 9.38204 79.2519 9.40649 79.2519 9.45538V11.8998C79.2519 11.9487 79.2763 11.9732 79.3252 11.9732H82.6863C82.7597 11.9732 82.8086 12.022 82.8086 12.0954V12.8654C82.8086 12.9387 82.7597 12.9876 82.6863 12.9876H79.3252C79.2763 12.9876 79.2519 13.012 79.2519 13.0609V15.5909C79.2519 15.6398 79.2763 15.6643 79.3252 15.6643H83.2852C83.3586 15.6643 83.4075 15.7132 83.4075 15.7865V16.5565C83.4075 16.6298 83.3586 16.6787 83.2852 16.6787H78.2863C78.213 16.6787 78.1641 16.6298 78.1641 16.5565ZM85.8944 16.6787H85.0511C84.9777 16.6787 84.9288 16.6298 84.9288 16.5565V8.48982C84.9288 8.41649 84.9777 8.3676 85.0511 8.3676H88.0088C89.6099 8.3676 90.6488 9.34538 90.6488 10.8487C90.6488 12.352 89.6099 13.3298 88.0088 13.3298H86.0899C86.0411 13.3298 86.0166 13.3543 86.0166 13.4032V16.5565C86.0166 16.6298 85.9677 16.6787 85.8944 16.6787ZM87.9477 12.3154C88.9744 12.3154 89.5733 11.7532 89.5733 10.8487C89.5733 9.94427 88.9744 9.38204 87.9477 9.38204H86.0899C86.0411 9.38204 86.0166 9.40649 86.0166 9.45538V12.242C86.0166 12.2909 86.0411 12.3154 86.0899 12.3154H87.9477ZM94.7164 16.6787H93.873C93.7997 16.6787 93.7508 16.6298 93.7508 16.5565V9.45538C93.7508 9.40649 93.7264 9.38204 93.6775 9.38204H91.4041C91.3308 9.38204 91.2819 9.33316 91.2819 9.25982V8.48982C91.2819 8.41649 91.3308 8.3676 91.4041 8.3676H97.1852C97.2586 8.3676 97.3075 8.41649 97.3075 8.48982V9.25982C97.3075 9.33316 97.2586 9.38204 97.1852 9.38204H94.9119C94.863 9.38204 94.8386 9.40649 94.8386 9.45538V16.5565C94.8386 16.6298 94.7897 16.6787 94.7164 16.6787ZM98.4821 16.5565V8.48982C98.4821 8.41649 98.531 8.3676 98.6044 8.3676H99.4477C99.521 8.3676 99.5699 8.41649 99.5699 8.48982V16.5565C99.5699 16.6298 99.521 16.6787 99.4477 16.6787H98.6044C98.531 16.6787 98.4821 16.6298 98.4821 16.5565ZM104.249 16.8132C102.856 16.8132 101.853 16.1532 101.426 14.8698C101.267 14.3932 101.206 13.892 101.206 12.5232C101.206 11.1543 101.267 10.6532 101.426 10.1765C101.853 8.89316 102.856 8.23316 104.249 8.23316C105.655 8.23316 106.657 8.89316 107.085 10.1765C107.243 10.6532 107.305 11.1543 107.305 12.5232C107.305 13.892 107.243 14.3932 107.085 14.8698C106.657 16.1532 105.655 16.8132 104.249 16.8132ZM104.249 15.7987C105.178 15.7987 105.765 15.3587 106.021 14.5643C106.119 14.2587 106.205 13.7209 106.205 12.5232C106.205 11.3254 106.119 10.7876 106.021 10.482C105.765 9.6876 105.178 9.2476 104.249 9.2476C103.332 9.2476 102.746 9.6876 102.489 10.482C102.391 10.7876 102.306 11.3254 102.306 12.5232C102.306 13.7209 102.391 14.2587 102.489 14.5643C102.746 15.3587 103.332 15.7987 104.249 15.7987ZM108.944 16.5565V8.48982C108.944 8.41649 108.993 8.3676 109.066 8.3676H109.849C109.946 8.3676 110.007 8.39204 110.056 8.48982L113.821 14.7232H113.87V8.48982C113.87 8.41649 113.919 8.3676 113.992 8.3676H114.762C114.835 8.3676 114.884 8.41649 114.884 8.48982V16.5565C114.884 16.6298 114.835 16.6787 114.762 16.6787H113.98C113.894 16.6787 113.821 16.6543 113.772 16.5565L109.995 10.3476H109.959V16.5565C109.959 16.6298 109.91 16.6787 109.836 16.6787H109.066C108.993 16.6787 108.944 16.6298 108.944 16.5565ZM61.4375 29.6787H60.5942C60.5209 29.6787 60.472 29.6298 60.472 29.5565V21.4898C60.472 21.4165 60.5209 21.3676 60.5942 21.3676H63.552C65.1531 21.3676 66.192 22.3454 66.192 23.8487C66.192 25.352 65.1531 26.3298 63.552 26.3298H61.6331C61.5842 26.3298 61.5598 26.3543 61.5598 26.4032V29.5565C61.5598 29.6298 61.5109 29.6787 61.4375 29.6787ZM63.4909 25.3154C64.5175 25.3154 65.1164 24.7532 65.1164 23.8487C65.1164 22.9443 64.5175 22.382 63.4909 22.382H61.6331C61.5842 22.382 61.5598 22.4065 61.5598 22.4554V25.242C61.5598 25.2909 61.5842 25.3154 61.6331 25.3154H63.4909ZM73.3762 29.6787H72.3984C72.3128 29.6787 72.2762 29.642 72.2395 29.5565L70.5773 26.1587H68.7439C68.6951 26.1587 68.6706 26.1832 68.6706 26.232V29.5565C68.6706 29.6298 68.6217 29.6787 68.5484 29.6787H67.7051C67.6317 29.6787 67.5828 29.6298 67.5828 29.5565V21.4898C67.5828 21.4165 67.6317 21.3676 67.7051 21.3676H70.7117C72.2639 21.3676 73.3151 22.3209 73.3151 23.7632C73.3151 24.8876 72.6795 25.7065 71.6773 26.0243L73.4495 29.532C73.4984 29.6054 73.4617 29.6787 73.3762 29.6787ZM70.6873 25.1443C71.6528 25.1443 72.2273 24.6309 72.2273 23.7632C72.2273 22.8954 71.6528 22.382 70.6873 22.382H68.7439C68.6951 22.382 68.6706 22.4065 68.6706 22.4554V25.0709C68.6706 25.1198 68.6951 25.1443 68.7439 25.1443H70.6873ZM77.754 29.8132C76.3607 29.8132 75.3585 29.1532 74.9307 27.8698C74.7718 27.3932 74.7107 26.892 74.7107 25.5232C74.7107 24.1543 74.7718 23.6532 74.9307 23.1765C75.3585 21.8932 76.3607 21.2332 77.754 21.2332C79.1596 21.2332 80.1618 21.8932 80.5896 23.1765C80.7485 23.6532 80.8096 24.1543 80.8096 25.5232C80.8096 26.892 80.7485 27.3932 80.5896 27.8698C80.1618 29.1532 79.1596 29.8132 77.754 29.8132ZM77.754 28.7987C78.6829 28.7987 79.2696 28.3587 79.5262 27.5643C79.624 27.2587 79.7096 26.7209 79.7096 25.5232C79.7096 24.3254 79.624 23.7876 79.5262 23.482C79.2696 22.6876 78.6829 22.2476 77.754 22.2476C76.8373 22.2476 76.2507 22.6876 75.994 23.482C75.8962 23.7876 75.8107 24.3254 75.8107 25.5232C75.8107 26.7209 75.8962 27.2587 75.994 27.5643C76.2507 28.3587 76.8373 28.7987 77.754 28.7987ZM82.3757 27.8698C82.2291 27.3932 82.1557 26.892 82.1557 25.5232C82.1557 24.1543 82.2291 23.6532 82.3757 23.1765C82.7913 21.8932 83.8179 21.2332 85.2235 21.2332C86.6779 21.2332 87.5702 21.9665 87.9857 22.8832C88.0224 22.9565 88.0102 23.0176 87.9491 23.0543L87.2157 23.4087C87.1424 23.4454 87.0813 23.4209 87.0446 23.3476C86.6413 22.602 86.1035 22.2476 85.2235 22.2476C84.2824 22.2476 83.6835 22.6876 83.4268 23.482C83.3168 23.7876 83.2557 24.252 83.2557 25.5232C83.2557 26.7943 83.3168 27.2587 83.4268 27.5643C83.6835 28.3587 84.2824 28.7987 85.2235 28.7987C86.0668 28.7987 86.7513 28.3832 87.0079 27.6009C87.0935 27.3198 87.1668 26.9165 87.1668 26.2932C87.1668 26.2443 87.1424 26.2198 87.0935 26.2198H85.4802C85.4068 26.2198 85.3579 26.1709 85.3579 26.0976V25.3887C85.3579 25.3154 85.4068 25.2665 85.4802 25.2665H88.1324C88.2057 25.2665 88.2546 25.3154 88.2546 25.3887V26.012C88.2546 26.7576 88.1691 27.442 88.0468 27.8454C87.6435 29.1043 86.6046 29.8132 85.2235 29.8132C83.8179 29.8132 82.7913 29.1532 82.3757 27.8698ZM95.6874 29.6787H94.7097C94.6241 29.6787 94.5874 29.642 94.5508 29.5565L92.8886 26.1587H91.0552C91.0063 26.1587 90.9819 26.1832 90.9819 26.232V29.5565C90.9819 29.6298 90.933 29.6787 90.8597 29.6787H90.0163C89.943 29.6787 89.8941 29.6298 89.8941 29.5565V21.4898C89.8941 21.4165 89.943 21.3676 90.0163 21.3676H93.023C94.5752 21.3676 95.6263 22.3209 95.6263 23.7632C95.6263 24.8876 94.9908 25.7065 93.9886 26.0243L95.7608 29.532C95.8097 29.6054 95.773 29.6787 95.6874 29.6787ZM92.9986 25.1443C93.9641 25.1443 94.5386 24.6309 94.5386 23.7632C94.5386 22.8954 93.9641 22.382 92.9986 22.382H91.0552C91.0063 22.382 90.9819 22.4065 90.9819 22.4554V25.0709C90.9819 25.1198 91.0063 25.1443 91.0552 25.1443H92.9986ZM96.582 29.5565L99.4664 21.4898C99.4908 21.4165 99.5275 21.3676 99.6131 21.3676H100.408C100.493 21.3676 100.542 21.4165 100.566 21.4898L103.414 29.5565C103.439 29.6298 103.402 29.6787 103.329 29.6787H102.473C102.388 29.6787 102.339 29.642 102.314 29.5565L101.679 27.7476H98.3175L97.682 29.5565C97.6453 29.642 97.5964 29.6787 97.5231 29.6787H96.6675C96.5942 29.6787 96.5575 29.6298 96.582 29.5565ZM98.672 26.7454H101.324L100.016 22.9687H99.992L98.672 26.7454ZM104.617 29.5565V21.4898C104.617 21.4165 104.666 21.3676 104.739 21.3676H105.534C105.632 21.3676 105.693 21.4043 105.729 21.4898L108.21 27.0876H108.247L110.679 21.4898C110.716 21.4043 110.777 21.3676 110.875 21.3676H111.669C111.743 21.3676 111.792 21.4165 111.792 21.4898V29.5565C111.792 29.6298 111.743 29.6787 111.669 29.6787H110.899C110.826 29.6787 110.777 29.6298 110.777 29.5565V23.7754H110.74L108.675 28.3465C108.626 28.4565 108.565 28.4932 108.455 28.4932H107.966C107.844 28.4932 107.783 28.4565 107.734 28.3465L105.668 23.7754H105.632V29.5565C105.632 29.6298 105.583 29.6787 105.509 29.6787H104.739C104.666 29.6787 104.617 29.6298 104.617 29.5565Z" fill="white"/>
<defs>
<clipPath id="clip0_378_39221">
<rect width="42.7778" height="31.4979" fill="white" transform="translate(0 4.25098)"/>
</clipPath>
</defs>
</svg>
