<svg width="143" height="40" viewBox="0 0 143 40" fill="none" xmlns="http://www.w3.org/2000/svg">
<path d="M104.917 8.70776C105.435 8.718 107.783 8.72381 107.986 8.87592C108.835 9.51292 110.862 12.5159 111.472 13.3752C113.377 16.0717 115.302 18.7538 117.247 21.421C117.96 22.4033 119.606 24.7531 120.354 25.5837L120.589 25.6347C120.589 26.823 120.649 29.3432 120.459 30.3874C120.064 29.9938 119.353 28.9419 119.014 28.4616L116.836 25.3877L110.157 15.9845C108.868 14.1538 107.106 11.5107 105.724 9.82896L105.542 9.73454C105.558 9.41739 105.116 9.01433 104.911 8.78966L104.917 8.70776Z" fill="#591227"/>
<path d="M85.3763 8.71212C86.338 8.7218 87.2997 8.71239 88.2614 8.68396C88.204 9.72367 88.1141 18.3196 88.2677 18.869L88.2358 19.0235C88.1327 19.9724 88.2088 30.0679 88.3168 30.4159L88.3147 30.5361C87.6159 30.4394 86.0183 30.4924 85.2898 30.5179L85.3424 30.3889C85.4164 26.5475 85.4413 22.7054 85.4192 18.8634C85.4323 15.4796 85.4178 12.0957 85.3763 8.71212Z" fill="#591227"/>
<path d="M74.4639 8.80593C75.3724 8.77494 76.3784 8.72009 77.2799 8.7113C77.0793 12.9339 77.2066 17.9063 77.2093 22.184L77.2107 27.1638C77.2121 28.0929 77.1865 29.5151 77.2944 30.4116L76.7561 30.443C75.9729 30.4487 75.0348 30.433 74.2695 30.509L74.3069 30.411C74.4999 30.0972 74.43 22.9564 74.4307 22.1631C74.4515 17.7902 74.448 13.4174 74.4217 9.04457L74.4639 8.80593Z" fill="#591227"/>
<path d="M128.408 13.2015C128.718 12.3411 128.251 9.60552 128.676 9.11212C128.804 9.10306 128.879 9.08376 128.984 9.20522C129.88 10.2375 130.733 12.1615 131.579 13.1716L131.5 13.3492L131.497 23.5504C131.499 25.1701 131.433 26.8341 131.57 28.4412C131.649 29.3515 132.266 29.8773 133.089 30.1279C133.277 30.1527 133.501 30.1567 133.644 30.2668C132.532 30.5834 131.037 30.4296 130.045 29.823C129.441 29.4589 128.991 28.8873 128.778 28.2152C128.395 27.0091 128.513 23.5395 128.513 22.0466L128.512 16.255C128.514 15.556 128.606 13.8901 128.44 13.2856L128.409 13.2645L128.408 13.2015Z" fill="#591227"/>
<path d="M44.8572 13.1968C45.1193 12.3683 44.652 9.48551 45.2061 9.14429C45.7851 9.26029 47.4068 12.4782 47.9957 13.1781L47.8924 13.344C47.8617 17.0145 47.8636 20.6852 47.8981 24.3557C47.9193 25.8008 47.7352 27.5279 48.1222 28.9184C48.3082 29.5871 48.9119 29.8945 49.5182 30.1241C49.6754 30.1527 49.9441 30.1798 50.0601 30.2704C48.4683 30.7915 45.6578 30.1238 45.2327 28.2537C44.7861 26.2891 44.9461 23.8941 44.9467 21.8533L44.9432 15.999C44.9468 15.4115 45.0289 13.8275 44.8835 13.3357L44.8572 13.1968Z" fill="#591227"/>
<path d="M57.4216 8.9058L57.4983 8.75507C57.8627 8.66854 59.8217 8.78835 60.3755 8.79236C61.818 12.3796 63.1962 16.0307 64.6056 19.6337C65.5055 21.9342 66.5455 24.3277 67.3816 26.6413L67.4372 26.8236C67.0766 27.8241 66.4221 29.6588 65.9702 30.5573C65.7452 30.082 65.4443 29.1918 65.2503 28.675L64.0333 25.4949L59.7261 14.2514C59.3299 13.2193 58.1662 9.94254 57.6947 9.19238C57.5173 9.14105 57.5543 9.1158 57.4216 8.9058Z" fill="#591227"/>
<path d="M21.0682 30.4137C20.7741 29.8728 20.424 28.8441 20.208 28.2525L18.9644 24.8633L14.7885 13.6478C14.2437 12.1415 14.5682 11.3608 15.1498 9.89397C15.2627 9.60926 15.4277 9.3749 15.7169 9.27246C15.9642 9.3904 16.3515 10.5575 16.4695 10.8584C19.0008 17.3155 21.1897 24.0006 23.8513 30.3999L23.33 30.4463C22.5759 30.451 21.8218 30.4401 21.0682 30.4137Z" fill="#591227"/>
<path d="M30.7962 8.85883C32.859 8.82659 35.5169 10.2081 36.1714 12.2803C36.9081 14.6128 36.2173 16.8756 33.9581 18.0022C33.0384 18.4608 32.2483 18.6284 31.2979 18.949C31.9334 19.1721 32.8489 19.3686 33.5165 19.6029C36.8908 20.7875 37.3948 23.0647 37.4453 26.3049C37.4641 27.5124 37.397 28.2749 37.9282 29.3813C38.248 29.8188 38.6122 30.0787 39.0279 30.4213C38.2571 30.4681 37.3554 30.4266 36.655 30.1142C33.3133 28.6237 34.8988 23.7912 33.9283 21.1828C33.2894 19.4656 31.7709 19.5293 30.5002 18.9907L30.4238 18.9578C31.439 18.6024 32.243 18.3309 32.8168 17.3361C33.698 15.8085 33.7447 13.2424 33.2904 11.5569C32.8357 9.86963 32.1307 9.62262 30.7962 8.85883Z" fill="#591227"/>
<path d="M94.0538 30.3725C98.2646 30.1817 99.0415 27.6882 99.6352 24.1005L99.721 24.111C99.7742 24.6374 99.6905 25.5269 99.6836 26.1132C99.6642 27.5424 99.6629 28.9717 99.6795 30.4009C98.5939 30.4411 96.1924 30.5822 95.2057 30.5133C94.8072 30.4636 94.4391 30.5216 94.0005 30.4613L94.0538 30.3725Z" fill="#591227"/>
<path d="M94.7347 15.2311C94.8142 16.5167 94.7312 18.2465 94.7471 19.5806C94.7582 20.5515 94.8654 22.4371 94.7852 23.2989C94.4973 20.9486 94.0379 19.8101 91.7312 18.9827L91.7616 18.8751C93.73 18.1289 94.3424 17.3172 94.7347 15.2311Z" fill="#591227"/>
<path d="M94.9291 8.70435C95.85 8.70407 97.5008 8.73001 98.4106 8.82249C98.4265 10.3425 98.5476 12.6055 98.4791 14.0552C97.8882 11.2062 97.4309 9.28373 94.085 8.82581C94.2642 8.71652 94.6966 8.71943 94.9291 8.70435Z" fill="#591227"/>
<path d="M105.542 9.73462L105.724 9.82904C105.65 10.4929 105.686 11.8117 105.686 12.5105L105.689 17.2792L105.69 25.667C105.69 27.0977 105.655 28.6662 105.697 30.0776L107.253 30.1651C107.644 30.137 107.733 30.1215 108.112 30.2177L108.097 30.259C107.285 30.2924 106.363 30.3219 105.55 30.288C104.858 30.2941 104.23 30.3055 103.54 30.2521C103.692 30.1204 105.203 30.0879 105.479 30.078C105.562 25.4496 105.423 20.7124 105.487 16.0805C105.515 14.125 105.404 11.6519 105.542 9.73462Z" fill="#591227"/>
<path d="M107.253 30.1651C107.644 30.1369 107.733 30.1215 108.111 30.2177L108.097 30.259C107.285 30.2924 106.363 30.3219 105.55 30.2879C106.021 30.2213 106.765 30.1941 107.253 30.1651Z" fill="#591227"/>
<path d="M57.4215 8.90588C57.5542 9.11589 57.5172 9.14114 57.6946 9.19246C57.504 9.62409 57.6225 28.1511 57.6175 30.3702C58.4836 30.3831 59.3332 30.284 60.1844 30.4825C60.0029 30.5925 55.3229 30.604 54.9456 30.5135L54.928 30.4404C55.2616 30.3367 56.9976 30.3685 57.4588 30.3677C57.521 25.5452 57.4602 20.5959 57.463 15.7626L57.4708 11.342C57.4718 10.743 57.5042 9.45559 57.4215 8.90588Z" fill="#591227"/>
<path d="M120.412 8.78298C119.873 8.7818 118.326 8.85395 117.912 8.64028C118.384 8.52967 123.05 8.5231 123.289 8.65992C122.597 8.8875 121.401 8.76949 120.619 8.7762C120.468 14.3242 120.639 20.0679 120.589 25.6348L120.354 25.5837C120.524 25.1483 120.45 10.4974 120.412 8.78298Z" fill="#591227"/>
<path d="M74.4639 8.80591L74.4217 9.04455C74.0529 9.54404 73.3202 11.6542 73.0649 12.3274L70.864 18.104L68.5026 24.1554C68.1705 25 67.7361 25.9891 67.4372 26.8237L67.3816 26.6414C68.2688 24.7537 73.7789 9.45238 74.4639 8.80591Z" fill="#591227"/>
<path d="M8.97149 26.3242C9.00262 26.3467 9.0312 26.3973 9.05604 26.4329C8.79056 27.4037 8.00887 29.2863 7.64231 30.3079C8.05004 30.3783 9.40751 30.3593 9.64254 30.5089C9.01964 30.5717 8.47036 30.5619 7.84517 30.5605C7.138 30.565 6.52555 30.5854 5.82017 30.4946L5.80737 30.4496C6.37195 30.3631 6.83163 30.3722 7.40002 30.3682C7.95373 29.1333 8.37384 27.5474 8.97149 26.3242Z" fill="#591227"/>
<path d="M88.3168 30.4159C90.0001 30.3066 92.2861 30.4096 94.0539 30.3724L94.0006 30.4612C94.4392 30.5215 94.8073 30.4635 95.2058 30.5132C94.5354 30.6085 92.6355 30.5773 91.8544 30.5745C90.9466 30.5712 89.1498 30.6304 88.3147 30.536L88.3168 30.4159Z" fill="#591227"/>
<path d="M88.4937 8.66649C89.8186 8.47177 93.5402 8.58369 94.9288 8.70433C94.6964 8.71941 94.2639 8.7165 94.0847 8.82579C92.2326 8.65902 90.1016 8.84876 88.4937 8.66649Z" fill="#591227"/>
<path d="M28.3919 8.71353C27.0266 8.71893 23.8909 8.80926 22.6699 8.67756C23.044 8.49737 27.1541 8.58044 27.8849 8.58363L28.3919 8.71353Z" fill="#591227"/>
<path d="M47.9956 13.1782C48.5499 13.1776 51.8467 13.0917 52.1467 13.2987C51.0814 13.4044 49.0151 13.3472 47.8923 13.344L47.9956 13.1782Z" fill="#591227"/>
<path d="M131.579 13.1716C132.584 13.1894 134.813 13.1002 135.648 13.2634L135.676 13.3034C134.583 13.3996 132.649 13.3487 131.5 13.3492L131.579 13.1716Z" fill="#591227"/>
<path d="M49.5183 30.1241C50.7436 30.0453 51.3318 29.5228 52.136 28.6093L52.1839 28.5547L52.2595 28.5956C51.9592 29.3912 50.8728 30.0913 50.0601 30.2705C49.9442 30.1798 49.6754 30.1527 49.5183 30.1241Z" fill="#591227"/>
<path d="M133.089 30.1279C133.86 30.067 134.247 29.9723 134.862 29.4497C135.069 29.2744 135.603 28.5252 135.796 28.6464C135.664 29.2622 134.303 30.1718 133.644 30.2668C133.501 30.1568 133.277 30.1528 133.089 30.1279Z" fill="#591227"/>
<path d="M77.2944 30.4116L77.3809 30.4023C77.8292 30.3566 79.7914 30.2978 80.1228 30.4957C79.6613 30.6477 77.3317 30.5403 76.7561 30.443L77.2944 30.4116Z" fill="#591227"/>
<path d="M85.3423 30.3888L85.2897 30.5178C84.8739 30.5796 82.8225 30.6714 82.5596 30.4455C82.9948 30.3232 84.7916 30.3798 85.3423 30.3888Z" fill="#591227"/>
<path d="M23.8514 30.3999C24.2324 30.3673 26.0694 30.3599 26.3663 30.4834C25.6063 30.6224 24.1004 30.5717 23.3301 30.4463L23.8514 30.3999Z" fill="#591227"/>
<path d="M88.2677 18.869C89.4044 18.8745 90.6311 18.9006 91.7617 18.8751L91.7312 18.9827C90.6235 19.0394 89.3574 19.0185 88.2358 19.0235L88.2677 18.869Z" fill="#591227"/>
<path d="M78.18 8.60352C78.5398 8.53996 79.7353 8.54563 80.0681 8.6406L80.0432 8.72679L79.8294 8.75916C79.3797 8.76303 78.0831 8.7833 77.7144 8.68114L78.18 8.60352Z" fill="#591227"/>
<path d="M41.0737 29.53L41.1298 29.6293C40.7059 30.1814 39.6806 30.4056 39.0182 30.4571L38.9624 30.3223C39.1854 30.1349 39.6927 30.2864 40.159 30.0837C40.6094 29.8879 40.6635 29.8345 41.0737 29.53Z" fill="#591227"/>
<path d="M29.5831 19.0244C28.7709 19.026 28.0137 19.0299 27.2009 18.9783C27.1021 18.9185 27.1565 18.9412 27.0159 18.952C27.2698 18.8575 28.8693 18.8807 29.2019 18.8831L29.5831 19.0244Z" fill="#591227"/>
<path d="M27.8848 8.58362C28.3823 8.56405 30.3466 8.57463 30.673 8.89925C29.9677 8.80878 29.0917 8.69727 28.3918 8.71353L27.8848 8.58362Z" fill="#591227"/>
<path d="M82.4739 8.60983C83.0585 8.51154 84.234 8.56162 84.8117 8.68772C84.2679 8.71718 82.9181 8.85179 82.4739 8.60983Z" fill="#591227"/>
<path d="M104.911 8.78971C104.427 8.78936 103.555 8.8207 103.129 8.65704L103.178 8.60018L103.17 8.67295L103.317 8.71231L103.392 8.57355C103.756 8.56041 104.559 8.6421 104.917 8.70781L104.911 8.78971Z" fill="#591227"/>
<path d="M44.8835 13.3357C44.3626 13.3494 43.5963 13.3858 43.1104 13.2529C43.7382 13.1816 44.2251 13.1802 44.8572 13.1968L44.8835 13.3357Z" fill="#591227"/>
<path d="M54.9341 8.60854C55.541 8.49282 56.6342 8.61608 57.2616 8.69161C56.7624 8.71389 55.3144 8.84829 54.9341 8.60854Z" fill="#591227"/>
<path d="M128.44 13.2856C128.11 13.401 127.117 13.3495 126.781 13.2748C127.357 13.1644 127.823 13.1706 128.409 13.2015L128.409 13.2646L128.44 13.2856Z" fill="#591227"/>
<path d="M74.2694 30.509C73.9013 30.5538 73.3388 30.6252 72.9915 30.5217L72.9984 30.4577C73.3547 30.336 73.9303 30.3695 74.3067 30.411L74.2694 30.509Z" fill="#591227"/>
<path d="M29.2021 18.8831C29.5724 18.8779 29.975 18.8494 30.3263 18.953C30.1875 19.0583 29.7772 19.0279 29.5834 19.0244L29.2021 18.8831Z" fill="#591227"/>
</svg>
