<svg width="78" height="40" viewBox="0 0 78 40" fill="none" xmlns="http://www.w3.org/2000/svg">
<g clip-path="url(#clip0_3376_19560)">
<path d="M40.3025 12.9674C40.4321 12.9724 41.0671 13.1899 41.2314 13.2423C42.0742 13.5117 42.9107 13.7127 43.7746 13.8999C46.3475 14.443 48.9607 14.7736 51.5877 14.8883C54.7956 15.0294 58.0095 14.9291 61.2024 14.5881C62.0509 14.4979 62.8975 14.3915 63.7418 14.2688C64.208 14.1978 65.193 14.005 65.617 14.0158L65.6373 14.0164C65.058 14.2488 64.2264 14.481 63.6223 14.6815C61.7245 15.3109 59.8193 15.7778 57.8858 16.2642C52.8832 17.4172 47.8002 18.1887 42.6806 18.5719C41.181 18.6843 39.6795 18.7716 38.1769 18.8339C37.4474 18.8641 36.3693 18.8377 35.7039 18.9576C36.1244 18.7008 36.6614 18.5207 37.1303 18.3211C38.4788 17.7471 39.9603 17.1725 41.1149 16.2529C41.4517 15.9845 41.8122 15.5249 41.8333 15.0806C41.8645 14.3312 41.2611 13.7749 40.7352 13.3309C40.5912 13.2092 40.4201 13.1148 40.3025 12.9674Z" fill="#FE0013"/>
<path d="M20.1737 5H33.5202C33.7912 5.08468 34.3277 5.13214 34.6326 5.16877C35.1883 5.23231 35.7427 5.30676 36.2954 5.39206C38.1456 5.67864 39.9813 6.05203 41.7963 6.51101C44.3689 7.15868 46.6207 8.01656 49.1399 8.78101C52.4557 9.76519 55.8166 10.5914 59.2109 11.2568C61.3188 11.673 63.4399 12.0176 65.571 12.2897C66.262 12.374 66.9541 12.447 67.6474 12.5087C67.9515 12.5374 68.5816 12.5793 68.8376 12.6464C67.3207 12.9646 65.9962 13.2826 64.4496 13.545C59.3354 14.4379 54.1185 14.5857 48.9617 13.9837C45.9726 13.6261 43.0185 13.0173 40.1313 12.1638C38.8114 11.775 37.608 11.3383 36.3131 10.9235C35.4864 10.667 34.6549 10.4262 33.819 10.2014C27.0404 8.34753 19.8682 7.49295 12.8523 7.26361C11.6529 7.2244 10.4572 7.17536 9.2583 7.24151C10.1071 6.91749 11.0077 6.69807 11.8909 6.48171C13.7126 6.03648 15.5534 5.67355 17.4078 5.39402C17.9761 5.30786 18.5458 5.23093 19.1166 5.16326C19.4165 5.12568 19.9057 5.08106 20.1737 5Z" fill="#FE0013"/>
<path d="M43.7664 35C43.3619 34.7887 43.0066 34.6302 42.6209 34.3766C41.5856 33.6953 40.7235 32.5266 40.3585 31.3445C39.7457 29.3621 40.2318 26.902 41.1724 25.0974C42.1957 23.1343 44.1389 21.4297 46.2619 20.7748C47.8164 20.2951 49.7171 20.289 51.1735 21.0671C51.8558 21.4316 52.2532 21.8014 52.7742 22.3418C52.8291 21.8713 52.9494 21.2992 53.037 20.8258C54.2833 20.8129 55.5355 20.8348 56.7772 20.8201C56.6633 21.2601 56.5791 21.8108 56.496 22.2694L56.0622 24.6693L54.752 31.8815C54.6772 32.2972 54.272 34.735 54.1449 35H50.5013C50.4829 34.7378 50.6829 33.7833 50.7438 33.4703C50.2483 33.9218 49.4987 34.3581 48.8938 34.6459C48.6633 34.7556 48.3434 34.8717 48.134 34.9885L48.1137 35H43.7664ZM47.678 32.0222C52.8355 31.3321 53.8524 23.3196 48.1964 23.7726C45.4889 24.11 43.5555 26.6013 43.8863 29.2995C43.9829 30.1264 44.4055 30.8806 45.06 31.3953C45.8607 32.0164 46.7085 32.0832 47.678 32.0222Z" fill="#181818"/>
<path d="M9.80863 35C9.42055 34.8144 8.993 34.6185 8.63322 34.3861C7.618 33.7302 6.77143 32.626 6.37357 31.4891C5.6962 29.5535 6.12455 27.1792 6.98297 25.3648C7.94958 23.3217 9.83186 21.5785 11.9687 20.8271C13.5475 20.2719 15.4845 20.2275 17.0064 20.9715C17.7262 21.3234 18.1836 21.7518 18.7283 22.3141C18.8091 21.8336 18.8929 21.249 19.0033 20.7824L22.7159 20.7851L20.9686 30.4184L20.4437 33.3214C20.3593 33.7887 20.2473 34.5229 20.1272 34.9652C19.7433 34.9141 19.096 34.931 18.686 34.9306L16.4368 34.9316C16.5145 34.4583 16.5977 33.9364 16.703 33.4685C15.9116 34.0422 15.1691 34.5387 14.2467 34.8797C14.1676 34.9089 14.0436 34.9562 13.9769 35H9.80863ZM13.7244 31.9843C18.9244 31.1096 19.6701 23.2511 14.1526 23.7347C8.71942 24.4726 8.17217 32.6449 13.7244 31.9843Z" fill="#181818"/>
<path d="M62.0603 22.2432C63.8994 21.0213 65.5389 20.1285 67.8415 20.5705C69.6667 20.9209 70.9964 22.3589 70.934 24.2605C70.884 25.7859 70.4704 27.2421 70.24 28.7443C69.8953 30.7273 69.5096 32.6929 69.1603 34.6743C69.1441 34.7668 69.1114 34.9128 69.0787 35H65.4348C65.4866 34.463 65.7092 33.4153 65.8107 32.8572L66.5878 28.5754C66.749 27.6662 66.9032 26.7503 66.9359 25.8265C66.9731 24.9894 66.649 24.1143 65.7776 23.8533C64.0479 23.3186 62.296 24.5849 61.6062 26.1258C61.1032 27.2498 60.8915 28.71 60.6697 29.9298L60.0513 33.36C59.9739 33.7932 59.8513 34.6132 59.7227 35H56.0442C56.122 34.3975 56.2525 33.797 56.3551 33.1979C57.0641 29.0728 57.9103 24.9514 58.5938 20.8239L62.3163 20.8263C62.2381 21.2935 62.1641 21.7829 62.0603 22.2432Z" fill="#181818"/>
<path d="M24.734 30.4828C25.0685 30.9133 25.34 31.1977 25.7897 31.5044C26.7266 32.1435 27.9262 32.3819 28.8937 31.669C29.3696 31.3183 29.466 30.7054 29.0811 30.2381C28.6422 29.7214 27.8983 29.3455 27.2959 29.047C25.5843 28.1989 23.7662 26.8753 24.0532 24.7122C24.4417 21.7848 27.5859 20.1038 30.3356 20.4679C31.9224 20.678 33.2173 21.4117 34.0471 22.773C33.2862 23.486 32.1835 24.2876 31.3568 25.0025C30.7534 24.3567 30.0577 23.6743 29.1167 23.6752C28.6651 23.6756 28.1269 23.7689 27.8091 24.1059C26.9847 24.9803 28.4934 25.5967 29.0202 25.8782C30.8067 26.8329 32.8934 27.6972 32.912 30.0544C32.9145 31.3348 32.4056 32.5632 31.4984 33.4666C31.0401 33.9303 30.4375 34.3707 29.8458 34.6498C29.6981 34.7194 29.1111 34.9414 29.0253 35H24.5606C23.3489 34.377 22.7936 34.099 22.012 32.8788C22.5918 32.3544 23.1766 31.8355 23.7662 31.3222C24.0479 31.0749 24.4455 30.7049 24.734 30.4828Z" fill="#181818"/>
<path d="M36.4058 20.7921C37.651 20.783 38.8961 20.7888 40.1409 20.8095C39.883 21.8473 39.6292 23.548 39.4326 24.6357L38.107 31.9439C38.0341 32.3468 37.6349 34.8 37.486 35H33.8699C33.8743 34.6236 34.0236 33.9021 34.0962 33.5065L34.5278 31.1583L35.7652 24.3386C35.9628 23.2507 36.2563 21.8675 36.4058 20.7921Z" fill="#181818"/>
</g>
<defs>
<clipPath id="clip0_3376_19560">
<rect width="67.5" height="30" fill="white" transform="translate(5 5)"/>
</clipPath>
</defs>
</svg>
