<svg width="103" height="40" viewBox="0 0 103 40" fill="none" xmlns="http://www.w3.org/2000/svg">
<g clip-path="url(#clip0_3376_19569)">
<path d="M39.3773 13.8943C40.986 13.8264 43.2229 13.7899 44.6205 14.6753C45.5657 15.2741 45.6744 15.8821 45.8867 16.8424C46.0346 15.9452 46.2194 15.0545 46.4406 14.1726C47.3598 14.1142 48.9123 14.162 49.8747 14.1622L56.8409 14.156C56.6243 15.0936 56.3876 16.3144 56.1262 17.2152C55.142 17.2074 54.1835 17.1944 53.1989 17.2141C53.0009 18.3694 49.9779 31.4474 49.8551 31.5615C49.7405 31.6684 46.0446 31.6166 45.5599 31.6155C45.9901 30.063 46.3816 28.1331 46.746 26.549L48.9159 17.2036C47.9208 17.2009 46.8701 17.1822 45.88 17.2193C45.8303 18.1547 45.6884 18.8272 45.4514 19.7316C44.0909 19.7209 42.7303 19.7198 41.3699 19.7284L41.5621 19.0116C41.6425 18.6101 41.7654 18.1236 41.7381 17.7185C41.6612 16.6166 40.1359 16.6507 39.6135 17.3822C39.1219 18.0706 38.9829 19.0903 39.0798 19.9164C39.3925 20.4401 40.0193 20.8481 40.4952 21.224C41.6112 22.1052 43.1624 23.0889 43.9584 24.2739C44.5897 25.214 44.2965 26.6386 44.0472 27.6726C43.7167 29.0428 43.1854 30.3217 41.9334 31.0846C40.7344 31.8301 39.3024 31.918 37.916 31.9185C36.2785 31.9191 33.8969 31.6725 32.9527 30.104C32.1768 28.815 32.7296 26.9554 33.0746 25.5902C34.316 25.5671 36.1561 25.6634 37.3477 25.556C37.1804 26.1884 36.7752 27.5729 36.8929 28.1575C36.9435 28.4217 37.1006 28.6535 37.3274 28.7985C38.0017 29.2363 39.0139 28.9132 39.3974 28.2511C39.7097 27.7121 40.1038 26.3987 39.7941 25.8499C38.7958 24.0809 35.4038 23.057 34.8913 21.005C34.5189 19.5142 35.3908 16.865 36.1846 15.5811C37.0773 14.1749 38.0011 14.2 39.3773 13.8943Z" fill="#0062A8"/>
<path d="M62.0954 14.2278C64.8308 13.9267 67.2782 15.604 66.42 18.6337C65.8607 20.6068 63.8196 21.8276 62.1211 22.7459C62.326 23.1489 62.4923 23.6581 62.7355 24.1214C63.1127 24.8406 63.504 25.4799 63.9153 26.1769C64.7202 24.9255 64.9135 23.9285 65.1758 22.4906C66.3225 22.498 67.5387 22.5159 68.6788 22.4725C68.1932 24.7081 67.5994 26.7783 65.8388 28.3814C66.702 28.9738 67.2585 29.1255 68.3001 29.0951C68.1283 29.643 67.9705 30.2606 67.8165 30.819C67.7623 31.0917 67.5746 31.6747 67.4911 31.9654C67.4691 31.9679 67.4472 31.9701 67.4252 31.9718C65.7842 32.1097 64.1571 31.8163 62.8779 30.7303C62.3176 30.9479 61.8298 31.2127 61.2476 31.4236C59.7279 31.9595 58.071 32.0188 56.5247 31.5869C53.9415 30.8653 52.8621 28.4712 53.6147 25.9657C54.2319 23.9092 56.0364 22.7637 57.8394 21.8031C57.1083 19.0117 57.3076 15.6848 60.3941 14.5807C61.0057 14.3619 61.4488 14.3006 62.0954 14.2278ZM59.7279 28.87C60.2298 28.7971 60.5258 28.7409 61.0011 28.5416C60.46 28.0399 59.6812 26.5587 59.3525 25.8632C59.2545 25.6561 58.9076 24.8063 58.7988 24.7034C57.993 25.5641 56.796 27.1442 57.8898 28.3624C58.2955 28.8139 59.1373 28.8691 59.7279 28.87ZM61.2915 20.1923L61.7625 19.8614C62.4722 19.2676 63.0856 18.7464 63.1725 17.7482C63.2266 17.1273 62.9797 16.5889 62.2761 16.6386C60.9068 17.1538 61.1617 19.026 61.2915 20.1923Z" fill="#0062A8"/>
<path d="M26.1107 14.1675C28.2531 14.0832 30.7589 14.1808 32.9595 14.1505C32.8923 15.8972 32.6884 17.858 32.5739 19.6209C32.3144 23.6148 31.9475 27.6378 31.7182 31.6324C30.4507 31.5631 28.77 31.5895 27.4912 31.6216C27.5775 30.5159 27.7157 28.8419 27.8641 27.7557L25.8686 27.7529C25.4677 27.7537 25.0668 27.7509 24.6659 27.7446C24.5123 28.3158 24.0922 29.2735 23.8907 29.8522C23.7734 30.1895 23.3355 31.3577 23.1761 31.6213C21.9737 31.5666 19.8171 31.5683 18.6045 31.6109C18.8166 31.2002 19.0872 30.5008 19.2776 30.0534L20.5567 27.0565L24.0012 19.0343C24.6789 17.4513 25.3878 15.721 26.1107 14.1675ZM25.8582 24.7224C26.6176 24.7209 27.3841 24.7141 28.1428 24.7222C28.1595 23.8546 28.9788 16.313 28.8967 16.0176C28.6772 16.5829 25.8566 24.7085 25.8582 24.7224Z" fill="#0062A8"/>
<path d="M76.6426 14.1256L74.3255 24.1897C74.1131 25.1461 73.6196 26.7694 73.6117 27.6622C73.6093 27.8807 73.6892 28.0839 73.8428 28.2398C74.0972 28.4973 74.4866 28.615 74.8419 28.6128C75.3769 28.6096 75.8274 28.3248 76.1108 27.8781C76.6249 27.0688 77.0184 24.7477 77.2439 23.7568C77.4778 22.7283 79.3094 14.386 79.5036 14.2101C79.6833 14.0471 83.2274 14.1297 83.7512 14.1359C83.5892 14.5376 83.2119 16.3215 83.0948 16.8337C82.4533 20.045 81.5242 23.2893 80.8561 26.5045C80.5349 27.9432 80.0531 29.6447 78.877 30.633C76.8102 32.3695 72.1093 32.3921 70.1605 30.4782C69.0223 29.3604 69.3034 27.3217 69.6073 25.9039C70.1181 23.5202 70.7185 21.0923 71.2857 18.714L71.9491 15.8851C72.0243 15.5553 72.2633 14.2872 72.4314 14.1296C73.7536 14.0889 75.3055 14.1271 76.6426 14.1256Z" fill="#0062A8"/>
<path d="M12.1179 7.45166C12.7329 7.49423 13.5007 7.47671 14.1263 7.47701L17.375 7.47775L27.1264 7.46761C26.4803 9.05768 25.6716 10.9077 24.9614 12.4706C22.6 12.4251 19.9748 12.543 17.6643 12.4386C17.2882 13.8724 16.7878 15.8012 16.3341 17.1896C18.5174 17.1754 20.7009 17.1745 22.8842 17.1869C22.3622 18.552 21.5562 20.3942 20.9428 21.7244C20.4727 21.7197 15.996 21.6805 15.8975 21.747C15.0278 25.0589 13.9261 28.4286 13.0859 31.7242L7.50757 31.7329C7.6524 31.3368 7.78504 30.4985 7.98794 30.2565C8.31601 30.0946 10.0592 30.1705 10.5946 30.1504C10.664 29.8527 11.0086 29.0975 11.1407 28.7916L12.3054 26.1264L14.0313 22.1461C14.3764 21.348 14.7139 20.5131 15.0969 19.7361C14.768 19.2193 11.87 12.1446 11.8264 11.8588C11.7586 11.4139 12.0267 7.98216 12.1179 7.45166Z" fill="#0062A8"/>
<path d="M85.8209 14.1591C88.1044 14.1735 90.4532 14.1349 92.7278 14.164C96.1173 14.2625 96.4796 16.1307 95.8124 18.9289C94.7218 23.5034 94.9464 24.6773 89.8621 24.6698C89.1189 24.6742 88.3752 24.6674 87.6319 24.6496C87.5829 25.1291 87.314 26.1646 87.2028 26.6866C86.8004 28.0878 86.4031 30.1468 86.0609 31.6159C84.7177 31.6677 83.1453 31.6 81.7661 31.6256C82.5294 27.9869 83.5001 24.0866 84.3484 20.4462L85.2677 16.4423C85.4264 15.7515 85.6141 14.8211 85.8209 14.1591ZM88.3672 21.4663C88.9489 21.46 90.2875 21.5384 90.7567 21.316C91.5447 20.6789 91.717 19.3129 91.894 18.3513C92.1746 16.8286 90.3117 17.242 89.3687 17.2092C89.0955 18.5676 88.7122 20.121 88.3672 21.4663Z" fill="#0062A8"/>
<path d="M5.41131 9.90771C6.78692 9.98068 8.70515 9.91426 10.1411 9.91808C10.4322 10.4565 10.7239 11.1884 10.9748 11.7645L12.3215 14.8716C12.9529 16.3406 13.8822 18.2794 14.4099 19.7261C13.533 21.929 12.4741 24.1823 11.5345 26.371C11.2341 27.0708 10.4608 28.9821 10.1396 29.5171C8.6178 29.5032 6.90918 29.4668 5.39526 29.5291C5.78974 28.674 6.14513 27.7794 6.52071 26.914L9.65556 19.7191C9.43468 19.1696 9.18318 18.5921 8.93886 18.053C7.72192 15.3674 6.6362 12.5847 5.41131 9.90771Z" fill="#F68320"/>
<path d="M89.3499 25.5094C90.1053 25.4233 90.7897 25.962 90.8831 26.7168C90.9764 27.4717 90.4447 28.161 89.6907 28.262C88.9264 28.3645 88.2252 27.8235 88.1304 27.058C88.0351 26.2925 88.5832 25.5967 89.3499 25.5094ZM90.5661 26.8857C90.5684 26.4133 90.2579 25.9962 89.8046 25.8632C89.3513 25.7302 88.8648 25.9134 88.6113 26.3123C88.3582 26.7113 88.4002 27.2296 88.7135 27.5831C89.0996 28.0185 89.7649 28.0609 90.2033 27.6783C89.595 27.7136 89.6346 27.5707 89.4138 27.0535C89.4147 27.349 89.46 27.633 89.1047 27.706C88.8606 27.5685 88.8802 27.4453 88.8601 27.204C88.8764 26.8164 88.8961 26.4289 88.9189 26.0416C89.2682 26.0493 89.9059 26.0271 90.1678 26.2993C90.2294 26.3634 90.2617 26.45 90.2575 26.5386C90.2444 26.7756 90.1118 26.9071 89.9297 27.0265C89.919 27.2141 90.1048 27.4962 90.2033 27.6783C90.4321 27.4784 90.5642 27.1898 90.5661 26.8857Z" fill="#0062A8"/>
<path d="M88.9187 26.0417C89.2679 26.0494 89.9057 26.0272 90.1676 26.2994C90.2292 26.3635 90.2614 26.45 90.2572 26.5387C90.2441 26.7757 90.1115 26.9072 89.9295 27.0266C89.9187 27.2142 90.1045 27.4963 90.2031 27.6784C89.5947 27.7137 89.6344 27.5708 89.4136 27.0536C89.4145 27.3491 89.4598 27.6331 89.1045 27.7061C88.8603 27.5686 88.8799 27.4454 88.8599 27.2041C88.8762 26.8165 88.8958 26.429 88.9187 26.0417Z" fill="#0062A8"/>
<path d="M88.7136 27.5832C88.8252 27.4771 88.7132 27.3518 88.8602 27.2041C88.8803 27.4454 88.8607 27.5686 89.1049 27.7061C89.4602 27.6331 89.4149 27.3491 89.4139 27.0536C89.6348 27.5708 89.5951 27.7138 90.2034 27.6784C89.765 28.061 89.0997 28.0186 88.7136 27.5832Z" fill="#002A4A" fill-opacity="0.0117647"/>
</g>
<defs>
<clipPath id="clip0_3376_19569">
<rect width="91.6667" height="27.5" fill="white" transform="translate(5 6.25)"/>
</clipPath>
</defs>
</svg>
