<svg width="117" height="40" viewBox="0 0 117 40" fill="none" xmlns="http://www.w3.org/2000/svg">
<g clip-path="url(#clip0_3376_19435)">
<path d="M65.7445 10.9588C66.2547 10.9462 66.7733 10.9224 67.2836 10.9364C67.917 10.9539 68.2585 11.0764 68.5683 11.642C68.9696 12.3747 69.3228 13.1194 69.6908 13.8657L71.701 17.9472L74.3065 23.2357C74.7956 24.2266 75.3861 25.3564 75.8208 26.352C75.6965 21.5792 75.8726 16.7177 75.8144 11.9366C75.8102 11.5535 75.8398 11.0385 76.3304 10.9993C77.6475 10.8941 79.0264 10.9596 80.3577 10.959L85.113 10.9512C85.9626 10.9487 87.2701 10.9074 88.0791 11.0163C88.8616 11.1171 89.6139 11.3833 90.2854 11.7971C91.5781 12.589 92.5071 13.8579 92.8708 15.3292C93.2256 16.8074 92.9787 18.3658 92.1845 19.662C91.4042 20.9377 90.1506 21.8527 88.6977 22.2069C88.9578 22.5028 89.8778 23.7521 90.0506 24.0304C90.6132 24.9375 93.8897 28.9908 93.9182 29.5283L93.832 29.6095C93.4381 29.7437 91.8937 29.6589 91.4137 29.6533C90.8998 29.6474 90.4847 29.1171 90.2008 28.7296C89.7953 28.1747 89.367 27.5971 88.952 27.0313L85.537 22.3797C84.3305 22.3957 83.1223 22.4116 81.9153 22.4065C81.5891 22.4051 81.0313 22.4016 80.7886 22.1459C80.6167 21.9647 80.6437 21.2146 80.6495 20.9498C80.6553 20.6975 80.6675 20.3054 80.8822 20.1327C81.4675 19.6616 86.5669 20.1747 87.8649 19.8439C88.4291 19.697 88.9456 19.4064 89.3644 19.0007C91.3344 17.0885 90.0781 13.6801 87.3389 13.476C86.3195 13.4 85.271 13.4368 84.2453 13.4372L78.5632 13.4427C78.597 13.8374 78.5733 14.6266 78.5738 15.0504C78.5748 19.4718 78.5785 23.8925 78.5754 28.3147C78.5748 29.7306 78.3078 29.6374 77.0141 29.6387C76.2157 29.6396 75.411 29.6441 74.6116 29.6071C74.3625 29.2643 73.9406 28.335 73.7477 27.9312L72.3619 25.033C71.4155 25.0337 63.7565 25.1501 63.4615 24.9405C63.4107 24.8324 63.4488 24.6048 63.5149 24.5116C63.9109 23.9518 64.0441 22.6897 64.8721 22.6808C66.9806 22.658 69.1182 22.6218 71.2262 22.6702C71.0401 22.3074 70.8498 21.8953 70.6837 21.52C69.4397 18.7001 67.9793 15.9089 66.7834 13.075C66.6258 13.5259 65.792 15.1517 65.5525 15.6446L62.8968 21.1015L60.2225 26.6025C59.8662 27.338 59.1117 28.9933 58.7083 29.603C57.9723 29.6689 57.1613 29.6179 56.418 29.6444C56.1348 29.6545 55.6511 29.6227 55.4178 29.4631C55.319 29.3955 55.2716 28.7733 55.2626 28.6404C55.2411 24.9779 55.244 21.3142 55.2567 17.6517C55.2574 17.5636 55.2812 17.2591 55.3287 17.1938C55.6146 16.8013 57.3638 14.5518 57.7244 14.5699C57.7947 14.7217 57.8253 14.9371 57.8248 15.1042C57.8211 17.8082 57.828 20.5125 57.8338 23.2167C57.8359 24.1606 57.8581 25.1433 57.8052 26.084C58.3223 25.2301 59.2122 23.2763 59.6806 22.3249L63.2891 14.9937C63.8548 13.8361 64.4465 12.5358 65.0915 11.4274C65.2226 11.2026 65.5118 11.0599 65.7445 10.9588Z" fill="black"/>
<path d="M18.9815 7.32799C19.0082 7.32504 19.0351 7.3224 19.0619 7.32005C22.3646 7.02759 25.8953 8.3047 28.4216 10.4173C30.3083 12.005 31.7134 14.0884 32.4783 16.4323C32.9388 17.8096 33.3843 18.7693 31.5441 18.6488C30.9922 18.6126 30.8296 18.79 30.6536 18.0518C30.1181 15.8058 28.9691 13.8104 27.2261 12.2788C25.0408 10.3232 22.1623 9.32544 19.235 9.50896C16.2794 9.68323 13.5191 11.0418 11.5785 13.2772C9.25906 15.9222 8.69868 18.6954 8.91944 22.095L12.0406 19.3444C13.8753 17.7304 15.3541 16.2403 18.0612 16.8994C18.7995 17.0791 19.2667 17.318 19.9293 17.6917C21.0699 16.9952 22.2702 16.6303 23.6156 16.7884C25.2836 16.9845 26.4572 18.1378 27.6468 19.2048C28.5016 19.9729 29.3515 20.7465 30.1963 21.5255C30.729 22.0151 32.2574 23.3674 32.6499 23.8783C32.6328 24.0699 32.5795 24.3232 32.5274 24.5092C31.5744 27.9092 29.2166 30.4382 26.2215 32.1684C25.9944 32.2861 25.7659 32.4013 25.5362 32.5139C25.2254 32.6645 24.3734 33.0585 24.0503 33.0775C22.8119 33.1506 21.4771 33.1059 20.2269 33.1105C18.8117 33.1157 17.4081 33.1158 15.9959 33.0996C15.7849 33.0972 15.4569 33.0004 15.2551 32.9256C13.4899 32.2716 11.8466 31.1767 10.5118 29.8541C10.3179 29.6685 9.86551 29.2061 9.77246 28.976C9.59492 28.5368 10.6261 27.7555 10.9472 27.5257C10.9906 27.4946 11.1996 27.4806 11.2238 27.5023C11.8351 28.0532 12.3709 28.6451 13.0161 29.1647C13.945 29.9269 14.9988 30.5228 16.1309 30.9261C18.9289 31.9262 22.0077 31.7897 24.7063 30.546C27.6371 29.1736 29.2997 27.053 30.3745 24.0774C29.2556 23.0094 28.1201 21.9588 26.9686 20.926C25.1381 19.2813 23.6206 17.496 21.0292 19.189C20.0301 19.8417 20.0046 19.7852 19.052 19.2442C16.9769 18.0655 15.8914 18.2964 14.1249 19.8384C13.5407 20.3513 12.961 20.8693 12.3859 21.3923C11.675 22.0368 8.35112 25.3029 7.83728 25.3956C6.64881 25.1273 6.92678 20.6943 6.88146 19.8064C6.73553 16.9473 7.84803 14.4186 9.64578 12.1765C12.0083 9.23021 15.2251 7.70851 18.9815 7.32799Z" fill="black"/>
<path d="M98.0047 10.974C98.028 10.9695 98.0655 10.9614 98.0888 10.9612C100.235 10.92 102.335 10.996 104.488 10.9486C107.08 10.8916 109.661 12.6018 110.023 15.2859C110.047 15.465 110.04 15.7947 109.919 15.9401C109.677 16.1018 107.908 16.1006 107.863 15.9748C107.149 13.9804 106.723 13.4458 104.561 13.4393L100.272 13.4389C99.5253 13.4391 98.3072 13.3674 97.6072 13.527C95.0381 14.1123 95.0355 17.9754 97.5818 18.6207C98.1983 18.7769 99.0046 18.7143 99.6501 18.7122L103.068 18.7017C105.25 18.6957 107.024 18.5476 108.758 20.211C109.677 21.0923 110.231 22.112 110.25 23.4054C110.278 25.346 110.384 26.4672 108.91 27.9585C107.696 29.1859 106.361 29.6196 104.672 29.6295L100.089 29.6335C99.2266 29.6342 97.9186 29.6827 97.1186 29.5175C96.3166 29.345 95.5584 29.0107 94.8895 28.535C93.7866 27.7555 92.9476 26.5113 92.7234 25.1712C92.6414 24.8398 92.6753 24.2335 93.1257 24.2455C93.3177 24.2462 95.0339 24.1674 95.0772 24.2823C95.5298 25.5081 96.0474 27.0307 97.632 27.0863C100.176 27.1078 103.009 27.242 105.53 27.093C108.283 26.6136 108.711 22.5558 106.038 21.5922C105.32 21.3329 104.409 21.4016 103.644 21.4031L100.194 21.4118C99.3334 21.4141 98.1623 21.458 97.3481 21.2878C96.5867 21.1236 95.8719 20.7894 95.2575 20.3099C94.1626 19.462 93.4562 18.2089 93.297 16.8337C92.9158 13.7926 95.0032 11.3386 98.0047 10.974Z" fill="black"/>
<path d="M37.6448 10.9586C38.1257 10.9433 39.1859 10.8358 39.524 11.1851C40.3879 12.0777 41.188 13.0753 41.9948 14.0262L47.4848 20.485C47.7159 20.1513 48.2027 19.5981 48.4814 19.2612L50.4308 16.9067L53.5418 13.1528C53.9663 12.641 55.0342 11.2764 55.4776 10.9609C55.89 10.9346 57.5977 10.8608 57.8414 11.1038C57.8472 11.2651 57.7579 11.4348 57.659 11.5563C56.7744 12.6451 55.8474 13.737 54.9483 14.8127L49.538 21.2806C49.0262 21.9067 48.5199 22.5856 47.9297 23.1371C47.6548 23.3938 47.2211 23.3762 46.9564 23.1027C46.5529 22.6858 46.1827 22.2362 45.8045 21.7953L43.8151 19.4827L41.0916 16.3336C40.6128 15.7794 39.9701 15.0723 39.539 14.4988C39.5962 15.3682 39.5485 16.7455 39.5483 17.67L39.5445 23.9674L39.5446 27.1611C39.5478 27.6096 39.6893 29.1595 39.3136 29.463C39.0283 29.6934 38.174 29.6893 37.8314 29.6231C37.3811 29.536 37.1452 29.333 37.1876 28.853C37.1779 24.5567 37.1809 20.2604 37.1818 15.9642L37.1828 12.8917C37.183 12.435 37.1685 11.8693 37.2163 11.4156C37.2373 11.2152 37.482 11.0617 37.6448 10.9586Z" fill="black"/>
<path d="M12.1516 24.1243C12.8638 24.0944 14.4106 23.9939 15.0448 24.3214C15.7582 24.6899 15.47 25.7534 14.6386 25.9552C14.5256 25.9602 14.3565 25.9712 14.2389 25.9641C13.3706 25.9112 10.8699 26.3887 11.4065 24.7196C11.5231 24.3568 11.8001 24.2137 12.1516 24.1243Z" fill="black"/>
<path d="M16.9921 24.1284C17.3541 24.0984 17.7155 24.0687 18.0412 24.249C18.87 24.7081 18.7215 25.6936 17.816 25.9541C17.4231 25.9881 17.1428 25.9606 16.7601 25.8954C16.0248 25.2733 16.0764 24.5009 16.9921 24.1284Z" fill="black"/>
</g>
<defs>
<clipPath id="clip0_3376_19435">
<rect width="105.417" height="27.5" fill="white" transform="translate(5 6.25)"/>
</clipPath>
</defs>
</svg>
