<svg width="135" height="40" viewBox="0 0 135 40" fill="none" xmlns="http://www.w3.org/2000/svg">
<g clip-path="url(#clip0_3376_19451)">
<path d="M41.5448 17.5188H43.4019V24.4331C43.4019 27.0045 44.1019 28.9474 45.4734 30.2045C46.8305 31.4617 48.7876 32.1045 51.2734 32.1045H51.9019C52.2162 32.1045 52.4734 31.8474 52.4734 31.5331V29.6617C52.4734 29.3474 52.2162 29.0902 51.9019 29.0902H51.2734C50.3591 29.0902 49.5734 28.9331 48.9448 28.6331C48.3448 28.3331 47.8876 27.8759 47.5591 27.2331C47.2162 26.5617 47.0448 25.6331 47.0448 24.5045V17.5474H50.6162C50.9305 17.5474 51.1876 17.2902 51.1876 16.9759V15.0474C51.1876 14.7331 50.9305 14.4759 50.6162 14.4759H47.0448V8.61881C47.0448 8.30452 46.7876 8.04738 46.4734 8.04738H43.9876C43.6734 8.04738 43.4162 8.30452 43.4162 8.61881V14.4759H41.5591C41.2448 14.4759 40.9876 14.7331 40.9876 15.0474V16.9759C40.9876 17.2902 41.2448 17.5474 41.5591 17.5474L41.5448 17.5188ZM115.245 17.5188H112.759C112.445 17.5188 112.188 17.7617 112.188 18.0617V31.3188C112.188 31.6188 112.445 31.8617 112.759 31.8617H115.245C115.559 31.8617 115.816 31.6188 115.816 31.3188V18.0617C115.814 17.9885 115.798 17.9164 115.768 17.8495C115.739 17.7826 115.696 17.7222 115.643 17.6718C115.59 17.6214 115.527 17.582 115.459 17.5557C115.391 17.5294 115.318 17.5169 115.245 17.5188ZM122.531 30.2045C123.888 31.4617 125.845 32.1045 128.33 32.1045H128.959C129.273 32.1045 129.531 31.8474 129.531 31.5331V29.6617C129.531 29.3474 129.273 29.0902 128.959 29.0902H128.33C127.416 29.0902 126.631 28.9331 126.002 28.6188C125.402 28.3188 124.945 27.8617 124.616 27.2188C124.273 26.5474 124.102 25.6188 124.102 24.4902V17.5331H127.673C127.988 17.5331 128.245 17.2759 128.245 16.9617V15.0331C128.245 14.7188 127.988 14.4617 127.673 14.4617H124.102V8.60452C124.102 8.29023 123.845 8.03309 123.53 8.03309H121.045C120.73 8.03309 120.473 8.29023 120.473 8.60452V14.4617H118.616C118.302 14.4617 118.045 14.7188 118.045 15.0331V16.9617C118.045 17.2759 118.302 17.5331 118.616 17.5331H120.473V24.4474C120.473 27.0188 121.173 28.9617 122.545 30.2188L122.531 30.2045ZM112.488 12.4331C112.488 12.4331 112.616 12.4331 112.673 12.4474C111.988 12.8902 111.459 13.2617 111.116 13.5474C110.631 13.9474 110.459 14.2902 110.631 14.6045C110.745 14.8045 111.002 15.0045 111.402 15.2045L112.502 15.7759C112.602 15.8331 112.716 15.8331 112.816 15.7902L112.888 15.7617C113.002 15.7188 113.088 15.6188 113.116 15.4902C113.302 14.7474 113.473 14.1331 113.63 13.6331C113.659 13.5474 113.688 13.4759 113.716 13.3902C113.859 13.9617 113.988 14.4045 114.102 14.7045C114.273 15.1902 114.431 15.5188 114.588 15.6902C114.873 16.0188 115.245 15.9759 115.716 15.5759L116.831 14.4759C116.831 14.4759 116.931 14.3188 116.931 14.2188V14.1474C116.931 14.0331 116.859 13.9331 116.773 13.8759C116.288 13.5759 115.83 13.2617 115.388 12.9331L114.788 12.4617C115.031 12.4759 115.259 12.4902 115.459 12.5045C115.916 12.5188 116.302 12.5331 116.588 12.5045C116.888 12.5045 117.102 12.4617 117.245 12.3902C117.388 12.3331 117.502 12.2617 117.559 12.1759C117.73 11.9474 117.673 11.5474 117.388 11.0045L116.816 9.89023C116.794 9.84013 116.761 9.7959 116.719 9.76114C116.677 9.72639 116.627 9.70209 116.573 9.69023H116.502C116.388 9.63309 116.259 9.66166 116.159 9.74738C115.759 10.0759 115.345 10.4045 114.916 10.7474C114.759 10.8759 114.602 10.9902 114.445 11.0902C114.716 10.2759 114.902 9.63309 115.002 9.19023C115.145 8.59023 115.045 8.21881 114.716 8.09023C114.502 8.00452 114.173 8.00452 113.745 8.09023L112.502 8.34738C112.457 8.35535 112.414 8.37368 112.376 8.40093C112.339 8.42818 112.309 8.46363 112.288 8.50452L112.245 8.57595C112.188 8.67595 112.188 8.79023 112.245 8.89023C112.545 9.50452 112.773 10.0331 112.945 10.4759C113.016 10.6474 113.073 10.8331 113.131 11.0331C112.802 10.7474 112.516 10.5045 112.259 10.3045C111.802 9.94738 111.43 9.71881 111.13 9.64738C110.73 9.54738 110.445 9.79023 110.302 10.4045L110.23 10.7045L110.002 11.9474C109.988 12.0331 110.002 12.1331 110.073 12.1902L110.159 12.2902C110.216 12.3617 110.316 12.4045 110.402 12.4045C111.302 12.3617 112.002 12.3617 112.502 12.4045L112.488 12.4331ZM20.9591 16.0188C20.4448 14.9759 19.6591 14.1617 18.6305 13.6045C17.6162 13.0474 16.3448 12.7617 14.8448 12.7617C13.3448 12.7617 12.1162 13.1188 11.0162 13.8331V13.6045C11.0162 13.2902 10.7448 13.0474 10.4305 13.0474H8.13051C7.81622 13.0474 7.55908 13.3045 7.55908 13.6188V31.3045C7.55908 31.6188 7.81622 31.876 8.13051 31.876H10.6162C10.9305 31.876 11.1877 31.6188 11.1877 31.3045V19.2474C11.1877 17.4188 12.6734 15.9331 14.5019 15.9331H14.8877C16.2877 15.9902 17.4734 16.9331 17.8877 18.2045C17.9877 18.5331 18.0448 18.8759 18.0448 19.2331V31.2902C18.0448 31.6045 18.3019 31.8617 18.6162 31.8617H21.1305C21.4448 31.8617 21.7019 31.6045 21.7019 31.2902V19.6045C21.7019 18.2474 21.4448 17.0331 20.9448 16.0331L20.9591 16.0188ZM73.5591 14.5759C72.3734 13.3617 70.6591 12.7617 68.4876 12.7617C67.1162 12.7617 65.8876 13.0902 64.8019 13.7331V8.56166C64.8019 8.24738 64.5448 7.99023 64.2305 7.99023H61.7448C61.4305 7.99023 61.1734 8.24738 61.1734 8.56166V31.2759C61.1734 31.5902 61.4305 31.8474 61.7448 31.8474H64.2305C64.5448 31.8474 64.8019 31.5902 64.8019 31.2759V20.0188L64.8305 19.2188C64.8305 17.7045 65.8448 16.4331 67.2448 16.0331C67.5305 15.9474 67.8305 15.9045 68.1448 15.9045H68.3876C69.2642 15.9083 70.1035 16.2591 70.722 16.8803C71.3404 17.5014 71.6877 18.3423 71.6876 19.2188V31.3617C71.7305 31.6331 71.9734 31.8474 72.2591 31.8474H74.7734C75.0876 31.8474 75.3448 31.5902 75.3448 31.2759V19.5902C75.3448 17.4617 74.7448 15.7759 73.5591 14.5759ZM108.116 15.2188C106.845 13.6045 104.973 12.7902 102.545 12.7902C101.073 12.7902 99.8162 13.0759 98.7876 13.6331V8.56166C98.7876 8.24738 98.5305 7.99023 98.2162 7.99023H95.7162C95.4019 7.99023 95.1448 8.24738 95.1448 8.56166V31.2759C95.1448 31.5902 95.4019 31.8474 95.7162 31.8474H98.0162C98.3305 31.8474 98.5876 31.6045 98.5876 31.2902V31.1331C99.6591 31.7759 100.973 32.1045 102.531 32.1045C104.973 32.1045 106.845 31.3045 108.102 29.7331C109.331 28.2045 109.959 25.7474 109.959 22.4474C109.959 19.1474 109.331 16.7759 108.102 15.2045L108.116 15.2188ZM99.8162 16.8617C100.359 16.1617 101.245 15.8188 102.502 15.8188C103.745 15.8188 104.616 16.1617 105.173 16.8617C105.388 17.1331 105.573 17.4902 105.73 17.9188C105.988 18.6902 106.202 20.0331 106.202 22.3759V22.5617C106.202 24.7474 106.002 26.0617 105.773 26.8617C105.616 27.3617 105.416 27.7617 105.173 28.0617C104.616 28.7617 103.745 29.1045 102.502 29.1045C101.245 29.1045 100.359 28.7617 99.8162 28.0617C99.7591 27.9902 99.7162 27.9188 99.6591 27.8474C99.6299 27.8077 99.6059 27.7645 99.5876 27.7188C99.5876 27.7188 99.5876 27.6902 99.5591 27.6759C99.2162 27.1045 98.8019 25.7331 98.8019 22.4759C98.8019 19.2188 99.2162 17.8474 99.5591 17.2759C99.5591 17.2759 99.5734 17.2474 99.5876 17.2331L99.6734 17.0617C99.6734 17.0617 99.6734 17.0474 99.6876 17.0331C99.6876 17.0331 99.6876 17.0188 99.7019 17.0045L99.8019 16.8617H99.8162ZM38.1877 13.0331H35.9019C35.7528 13.033 35.6096 13.0913 35.5028 13.1954C35.3961 13.2995 35.3342 13.4412 35.3305 13.5902V13.7617C34.2591 13.1188 32.9305 12.7902 31.3591 12.7902C28.9305 12.7902 27.0591 13.6045 25.7877 15.2188C24.5591 16.7902 23.9305 19.2188 23.9305 22.4617C23.9305 25.7045 24.5305 28.1902 25.7877 29.7474C27.0448 31.3188 28.9162 32.1188 31.3591 32.1188C32.9305 32.1188 34.2591 31.7902 35.3162 31.1331V31.3045C35.3305 31.6188 35.5877 31.8617 35.9019 31.8617H38.1877C38.5019 31.8617 38.7591 31.6045 38.7591 31.2902V13.6045C38.7591 13.2902 38.5019 13.0331 38.1877 13.0331ZM31.8734 15.8331C31.9591 15.8331 32.0305 15.8474 32.1162 15.8617C32.1734 15.8617 32.2305 15.8617 32.2877 15.8759C32.3734 15.8759 32.4448 15.9045 32.5305 15.9331C32.5734 15.9331 32.6305 15.9474 32.6734 15.9617C32.7591 15.9902 32.8305 16.0045 32.9019 16.0331C32.9448 16.0331 32.9734 16.0617 33.0162 16.0759C33.1019 16.1045 33.1876 16.1474 33.2591 16.1902C33.2876 16.1902 33.3019 16.2045 33.3305 16.2188C33.4305 16.2759 33.5162 16.3331 33.6162 16.3902C33.8019 16.5188 33.9591 16.6759 34.0876 16.8474C34.1305 16.9045 34.1877 16.9759 34.2305 17.0474C34.2305 17.0617 34.2448 17.0759 34.2591 17.0902C34.3448 17.2331 34.4305 17.3902 34.5019 17.5617C34.5019 17.5759 34.5162 17.6045 34.5305 17.6188C34.5734 17.7188 34.6162 17.8331 34.6448 17.9331C34.8877 18.7188 35.1019 20.0474 35.1019 22.3474V22.5331C35.1019 24.7188 34.9019 26.0331 34.6734 26.8331C34.6019 27.0617 34.5162 27.2759 34.4162 27.4617C34.4162 27.476 34.4019 27.4902 34.3877 27.5045C34.3734 27.5331 34.3591 27.5617 34.3305 27.6045C34.3305 27.6331 34.3019 27.6474 34.2877 27.6759C34.2734 27.7045 34.2591 27.7331 34.2448 27.7474C34.2305 27.7759 34.2019 27.8045 34.1877 27.8331C34.1877 27.8474 34.1591 27.8759 34.1448 27.8902L34.0591 28.0188C33.5019 28.7188 32.6305 29.0617 31.3876 29.0617C30.1305 29.0617 29.2448 28.7188 28.7019 28.0188C28.6448 27.9474 28.6019 27.8759 28.5448 27.8045C28.5156 27.7649 28.4916 27.7217 28.4734 27.6759C28.4734 27.6759 28.4734 27.6474 28.4448 27.6331C28.4019 27.5617 28.3591 27.4617 28.3019 27.3617C28.0448 26.7902 27.8019 25.7617 27.7162 23.8759C27.7019 23.4474 27.6877 22.9617 27.6877 22.4331C27.6877 19.9759 27.9162 18.6045 28.1877 17.8331C28.2734 17.5759 28.3591 17.3902 28.4591 17.2474C28.4591 17.2474 28.4734 17.2188 28.4876 17.2045L28.5734 17.0331C28.5734 17.0331 28.5734 17.0188 28.5877 17.0045V16.9902L28.6877 16.8474C29.2305 16.1474 30.1162 15.8045 31.3734 15.8045H31.8162L31.8734 15.8331ZM91.8162 13.0331H89.5305C89.3814 13.033 89.2382 13.0913 89.1314 13.1954C89.0246 13.2995 88.9628 13.4412 88.9591 13.5902V13.7617C87.8876 13.1188 86.5591 12.7902 84.9876 12.7902C82.5591 12.7902 80.6876 13.6045 79.4162 15.2188C78.1876 16.7902 77.5591 19.2188 77.5591 22.4617C77.5591 25.7045 78.1591 28.1902 79.4162 29.7474C80.6734 31.3188 82.5448 32.1188 84.9876 32.1188C86.5591 32.1188 87.8876 31.7902 88.9448 31.1331V31.3045C88.9591 31.6188 89.2162 31.8617 89.5305 31.8617H91.8162C92.1305 31.8617 92.3876 31.6045 92.3876 31.2902V13.6045C92.3876 13.2902 92.1305 13.0331 91.8162 13.0331ZM85.5019 15.8331C85.5876 15.8331 85.6591 15.8474 85.7448 15.8617C85.8019 15.8617 85.8591 15.8617 85.9162 15.8759C86.0019 15.8759 86.0734 15.9045 86.1591 15.9331C86.2019 15.9331 86.2591 15.9474 86.3019 15.9617C86.3876 15.9902 86.4591 16.0045 86.5305 16.0331C86.5734 16.0331 86.6019 16.0617 86.6448 16.0759C86.7305 16.1045 86.8162 16.1474 86.8876 16.1902C86.9162 16.1902 86.9305 16.2045 86.9591 16.2188C87.0591 16.2759 87.1448 16.3331 87.2448 16.3902C87.4305 16.5188 87.5876 16.6759 87.7162 16.8474C87.7591 16.9045 87.8162 16.9759 87.8591 17.0474C87.8591 17.0617 87.8734 17.0759 87.8876 17.0902C87.9734 17.2331 88.0591 17.3902 88.1305 17.5617C88.1305 17.5759 88.1448 17.6045 88.1591 17.6188C88.2019 17.7188 88.2448 17.8331 88.2734 17.9331C88.5162 18.7188 88.7305 20.0474 88.7305 22.3474V22.5331C88.7305 24.7188 88.5305 26.0331 88.3019 26.8331C88.2305 27.0617 88.1448 27.2759 88.0448 27.4617C88.0448 27.476 88.0305 27.4902 88.0162 27.5045C88.0019 27.5331 87.9876 27.5617 87.9591 27.6045C87.9591 27.6331 87.9305 27.6474 87.9162 27.6759C87.9019 27.7045 87.8876 27.7331 87.8734 27.7474C87.8591 27.7759 87.8305 27.8045 87.8162 27.8331C87.8162 27.8474 87.7876 27.8759 87.7734 27.8902L87.6876 28.0188C87.1305 28.7188 86.2591 29.0617 85.0162 29.0617C83.7591 29.0617 82.8734 28.7188 82.3305 28.0188C82.2734 27.9474 82.2305 27.8759 82.1734 27.8045C82.1442 27.7649 82.1202 27.7217 82.1019 27.6759C82.1019 27.6759 82.1019 27.6474 82.0734 27.6331C82.0305 27.5617 81.9876 27.4617 81.9305 27.3617C81.6734 26.7902 81.4305 25.7617 81.3448 23.8759C81.3305 23.4474 81.3162 22.9617 81.3162 22.4331C81.3162 19.9759 81.5448 18.6045 81.8162 17.8331C81.9019 17.5759 81.9876 17.3902 82.0876 17.2474C82.0876 17.2474 82.1019 17.2188 82.1162 17.2045L82.2019 17.0331C82.2019 17.0331 82.2019 17.0188 82.2162 17.0045V16.9902L82.3162 16.8474C82.8591 16.1474 83.7448 15.8045 85.0019 15.8045H85.4448L85.5019 15.8331Z" fill="#1F1A18"/>
</g>
<defs>
<clipPath id="clip0_3376_19451">
<rect width="125" height="25" fill="white" transform="translate(4.5 7.5)"/>
</clipPath>
</defs>
</svg>
