<svg width="112" height="40" viewBox="0 0 112 40" fill="none" xmlns="http://www.w3.org/2000/svg">
<g clip-path="url(#clip0_3376_19486)">
<path d="M75.2115 7.77428C75.651 7.74439 76.3778 7.77948 76.8424 7.78355C77.852 7.79204 78.8621 7.79 79.8722 7.77742C80.1965 7.77305 81.1371 7.70733 81.3505 7.9252C81.4465 8.02322 81.5042 8.18681 81.5017 8.32707C81.4835 9.20217 81.4795 10.0823 81.4786 10.9566L81.4795 17.2031L81.5919 32.8969C80.9779 32.9891 79.6293 32.9525 78.9434 32.9503C77.6919 32.9464 76.4083 32.9702 75.1617 32.9492C75.0306 32.3409 74.9784 31.9822 74.9587 31.3766C74.4724 31.6509 74.0683 31.9581 73.6589 32.3302C72.7222 33.1813 70.5369 33.4218 69.2977 33.2849C68.057 33.1092 67.1612 33.0267 66.0363 32.1937C60.8078 28.3214 61.3976 16.6178 68.1683 14.6441C68.322 14.5993 68.4442 14.5745 68.6004 14.5079C70.0052 13.9085 71.854 14.264 73.2824 14.6647C73.6914 14.7794 74.1733 15.4347 74.6946 15.3562C74.7266 15.3328 74.7655 15.3047 74.8109 15.2719C74.8468 14.9677 74.8094 14.6413 74.7931 14.3378C74.6852 12.268 74.8661 10.1914 74.6951 8.12376C74.6897 8.05467 74.7143 7.99624 74.7488 7.93758C74.8675 7.80976 75.0375 7.80333 75.2115 7.77428ZM70.63 27.8603C70.8079 27.97 71.001 28.2641 71.2528 28.3905C71.7574 28.6438 72.6266 28.6861 73.1444 28.4934C73.6909 28.2904 74.3216 27.8054 74.5458 27.2457C74.6645 26.9507 74.9346 26.3317 74.9651 25.9781C75.0986 24.4258 75.1888 22.1542 74.7867 20.645C74.6345 20.0729 74.1437 19.4675 73.6199 19.2461C72.9892 18.9715 71.988 18.9624 71.3499 19.184C70.429 19.5039 69.7185 20.9331 69.5864 21.8321C69.378 23.2509 69.3898 24.9136 69.6914 26.3183C69.7254 26.4772 70.1205 27.1722 70.2225 27.4347C70.3423 27.5663 70.4985 27.7486 70.63 27.8603Z" fill="#9C4848"/>
<path d="M70.6297 27.8602C70.5208 28.0424 70.3527 28.0967 70.1566 28.0495C69.9388 27.8189 69.996 27.6296 70.2222 27.4347C70.3419 27.5662 70.4981 27.7486 70.6297 27.8602Z" fill="#9B3E3D"/>
<path d="M90.5073 14.2564C91.4735 14.2796 92.427 14.1881 93.4065 14.2489C93.7386 14.2631 94.2693 14.2657 94.5797 14.3373C96.4285 14.7638 98.118 15.7032 99.3799 17.1365C99.9146 17.8122 100.375 18.6201 100.783 19.3799C100.924 19.6436 100.964 20.2484 101.034 20.5493C101.334 21.8533 101.27 23.2653 101.491 24.5582C101.293 24.8319 101.15 25.0117 100.88 25.2217C99.6756 25.0673 90.0983 25.0071 89.6223 25.332C89.476 25.6922 89.6583 26.7476 89.8125 27.1155C90.4171 28.558 92.054 29.1239 93.4706 28.5793C93.9239 28.405 94.4964 27.4708 94.9246 27.0709C95.4701 27.1906 95.8288 27.2214 96.391 27.2098C97.6859 27.1831 98.9882 27.2095 100.281 27.1677C100.567 27.1584 100.792 27.0794 101.018 27.2776C101.128 27.5023 101.082 27.7645 100.989 27.9935C100.1 30.1835 98.5512 31.6998 96.4354 32.7191C95.7815 33.0342 95.6455 32.889 95.0286 33.017C93.0517 33.4271 90.1293 33.4242 88.2146 32.7469C86.2382 32.0574 84.6146 30.6134 83.6987 28.7303C83.6045 28.533 83.3444 28.0194 83.3572 27.8267C82.4663 26.6534 82.7822 22.6466 82.9024 21.1328C82.9191 20.9203 83.2572 20.1108 83.3572 19.8614C83.2586 19.4624 84.6984 17.3986 85.0625 17.0104C86.1367 15.8655 87.437 15.0173 88.9675 14.6477C89.5647 14.5034 89.812 14.2932 90.5073 14.2564ZM92.6408 21.6166C94.1964 21.6199 95.2424 21.8535 94.3018 19.8861C94.2062 19.6864 94.1614 19.5205 94.1106 19.3075C93.3321 18.5374 92.6482 18.4435 91.609 18.5173C90.2781 18.7624 89.6198 20.2427 89.5913 21.4759C90.2998 21.7153 91.811 21.6231 92.6408 21.6166Z" fill="#9C4848"/>
<path d="M83.3572 27.8268C82.4663 26.6534 82.7822 22.6467 82.9024 21.1329C82.9191 20.9204 83.2572 20.1109 83.3572 19.8615C83.435 21.258 83.3335 23.088 83.3611 24.5435C83.3739 25.2344 83.4094 27.2739 83.3572 27.8268Z" fill="#9B3E3D"/>
<path d="M36.9312 27.0967C38.4565 27.3759 40.4074 27.1283 41.9794 27.1988C42.256 27.2113 43.0522 26.7239 43.0707 27.5154C43.0987 28.7097 42.0912 29.8336 41.3709 30.6995C40.4882 31.6193 38.7843 32.716 37.525 32.9888C36.0501 33.3083 34.1985 33.4172 32.7038 33.2265C31.1443 33.1174 30.146 32.8342 28.8075 32.038C26.578 30.7118 25.3959 28.4812 24.9111 25.989C24.8459 25.6536 24.8689 25.1474 24.8398 24.779C24.4697 20.0948 26.6308 15.3551 31.6635 14.5388C32.3951 14.4192 32.8661 14.244 33.6783 14.2153C35.4734 14.142 37.2611 14.4845 38.9021 15.2161C39.9185 15.6641 40.1052 15.8396 40.9196 16.5974C41.1844 16.8553 41.7929 17.5484 41.9522 17.8701C43.0117 19.1942 43.145 21.0203 43.3176 22.6506C43.3898 23.3329 43.3647 23.9182 43.5219 24.6073C43.2965 24.8076 42.9335 25.0491 42.6791 25.2289C41.4209 25.1339 32.2239 24.9765 31.7545 25.2108C31.2293 25.8461 32.2067 27.8037 32.7446 28.2854C33.3368 28.8158 34.0602 28.7552 34.7844 28.7555C35.885 28.7561 36.2689 27.8451 36.9312 27.0967ZM34.5599 21.6155C35.132 21.6056 36.0955 21.5903 36.659 21.5354C36.6489 19.9372 36.1278 18.463 34.2606 18.4976C34.0526 18.503 33.8447 18.5114 33.6369 18.5229C32.645 18.6761 31.1735 20.6378 31.7615 21.4963C31.9135 21.7182 34.0243 21.6144 34.5599 21.6155Z" fill="#9C4848"/>
<path d="M32.2185 19.7122C32.3797 19.848 32.3556 20.0109 32.2985 20.1798C32.0767 20.0015 32.1418 19.9642 32.2185 19.7122Z" fill="#642C2D" fill-opacity="0.0117647"/>
<path d="M12.8263 16.4797C13.5638 16.1573 13.8766 15.7781 14.4513 15.2829C15.0489 14.7679 16.4902 14.4257 17.2857 14.2737C18.5844 14.0257 20.435 14.4288 21.5518 15.2188C22.8908 16.1659 23.6272 17.4936 23.9556 19.0734C24.0629 19.5895 24.0388 21.072 24.0376 21.6321L24.0371 24.6975C24.0378 25.38 23.9904 25.9973 24.1071 26.674C24.0777 26.8768 24.0704 27.0452 24.0746 27.2505C24.1095 28.9716 24.1315 30.6944 24.0783 32.4151C24.0737 32.5637 24.0539 32.7424 24.0316 32.8896C24.0252 32.896 24.0192 32.9027 24.0125 32.9087C23.8805 33.0267 17.9169 32.9692 17.292 32.8836C17.2344 31.885 17.2816 30.6706 17.2747 29.6497C17.2568 27.02 17.3035 24.3794 17.2706 21.7498C17.2509 20.1676 17.1887 20.2993 16.1668 19.326C16.1449 19.3213 16.1229 19.317 16.1009 19.3131C15.3875 19.1857 14.6958 19.1477 14.0821 19.5849C12.9369 20.3981 13.0108 22.0255 13.0093 23.2781C13.006 25.7998 13.0059 28.3255 13.0041 30.8477C13.0036 31.5885 13.1581 32.1147 13.0278 32.8667C12.1942 33.0227 10.3936 32.9552 9.4707 32.9542C8.50904 32.9531 7.33898 33.0001 6.40187 32.9736C6.22495 32.0598 6.27923 30.2384 6.27865 29.2421L6.2768 23.1666L6.28447 17.6465C6.28834 16.7502 6.24355 15.8463 6.3235 14.9576C6.32434 14.8187 6.66762 14.6831 6.78287 14.6886C8.67236 14.7774 10.5743 14.6596 12.4599 14.7536C13.0474 14.7829 12.8837 16.0701 12.8263 16.4797Z" fill="#9C4848"/>
<path d="M60.7932 14.6245C61.0574 14.5966 61.4033 14.733 61.5979 14.9081C61.759 15.0535 61.7176 15.4056 61.7004 15.6131C61.6235 16.5302 61.6634 17.4379 61.6659 18.3574L61.6452 28.0618C61.6501 29.0646 61.6501 30.0685 61.655 31.071C61.6585 31.7106 61.7546 32.2699 61.7028 32.9187C61.2224 32.9863 59.49 32.9685 58.9317 32.956C57.823 32.931 56.2433 33.016 55.1751 32.9186C55.0233 32.4195 55.1012 31.8436 54.9519 31.3403C54.8996 31.1638 54.8346 31.2476 54.7361 31.3349C54.0237 31.9655 53.3635 32.8369 52.3894 33.0481C50.2045 33.5218 47.5734 33.6084 45.8584 31.9298C45.1173 31.1953 44.5926 30.2708 44.3418 29.2577C43.9352 27.6505 44.1956 24.2675 44.1772 22.3974C44.1919 20.5107 44.0147 18.5549 44.1023 16.6534C44.1209 16.2512 44.014 15.2365 44.1304 14.9022C44.2691 14.7744 44.6229 14.6607 44.7868 14.6891C45.7965 14.8642 49.9227 14.4959 50.6249 14.8245C50.7703 15.2176 50.7263 17.4739 50.7277 18.0461L50.7258 23.07C50.7227 24.4226 50.6921 25.6335 50.8069 26.9811C51.2905 27.4365 51.2358 27.8486 51.9325 28.193C52.3823 28.4154 52.8301 28.4869 53.3121 28.3212C53.9625 28.0976 54.4754 27.6738 54.739 27.0313C55.1608 26.0032 54.9844 18.4251 54.978 16.8097C54.9765 16.3108 54.8533 15.2419 55.0544 14.8257C55.3426 14.6012 59.795 14.837 60.7932 14.6245Z" fill="#9C4848"/>
<path d="M101.177 29.6574C101.651 29.6411 104.395 29.653 104.677 29.7531C104.811 30.0616 104.703 31.0165 104.698 31.4289C104.688 32.2187 104.849 33.0534 104.51 33.7776C104.12 33.8112 101.366 33.8014 101.139 33.7471C100.769 33.3673 101.011 31.3251 100.942 30.7477C100.905 30.4314 100.958 29.9147 101.177 29.6574Z" fill="#9C4848"/>
</g>
<defs>
<clipPath id="clip0_3376_19486">
<rect width="100.833" height="27.5" fill="white" transform="translate(5 6.25)"/>
</clipPath>
</defs>
</svg>
