<svg width="129" height="40" viewBox="0 0 129 40" fill="none" xmlns="http://www.w3.org/2000/svg">
<path d="M48.3538 13.2688C49.5883 13.1437 51.2662 13.2568 52.549 13.2562C54.2291 13.2556 56.3867 13.1239 57.9983 13.2963C58.3522 13.3342 58.7217 13.4079 59.0091 13.6306C59.291 13.8492 59.472 14.07 59.5146 14.4304C59.6135 15.2654 57.5079 24.9697 57.1369 26.2874C57.0399 26.6321 56.9337 26.9751 56.7081 27.2595C56.2019 27.8976 55.6364 28.1295 54.8422 28.2158C51.4564 28.175 48.0452 28.3 44.6674 28.1562C44.4222 28.1458 44.0845 27.947 43.8712 27.8192C43.7041 27.5719 43.5292 27.2505 43.5018 26.95C43.4351 26.2183 45.5905 16.2595 45.8808 15.2308C45.9929 14.8333 46.1351 14.4187 46.407 14.1005C46.9376 13.4796 47.5796 13.3294 48.3538 13.2688ZM47.7507 26.1057C49.1602 26.1128 51.6243 26.1888 52.9592 26.0739C53.3345 25.0356 53.9324 21.7917 54.1977 20.561C54.4563 19.362 55.1418 16.4776 55.2363 15.4324C53.8031 15.4528 51.524 15.5319 50.1331 15.4173C49.9649 15.6951 49.8766 15.9461 49.8213 16.2645C49.259 19.4992 48.2481 22.8853 47.7507 26.1057Z" fill="#030303"/>
<path d="M78.3225 13.2604L85.3577 13.2528C86.6067 13.2529 87.9352 13.1985 89.1638 13.3334C90.0433 13.43 90.215 14.4159 90.094 15.1241C89.8526 16.5389 89.5247 17.9624 89.2229 19.3635C88.5868 22.2712 87.9718 25.1835 87.3779 28.1002C85.979 28.0866 84.5794 28.0882 83.1805 28.1051C83.3037 27.2746 83.6386 25.9618 83.8075 25.0372C83.9841 24.3263 84.1073 23.7304 84.2374 23.009C82.4734 23.037 80.7184 22.9987 78.9424 23.0407C78.6891 24.653 78.2275 26.4416 77.939 28.0946C76.5767 28.0988 75.0723 28.0501 73.7283 28.124C74.0646 26.0353 74.7225 23.5209 75.156 21.3161C75.562 19.2472 76.1179 16.4912 76.7146 14.4608C76.8842 13.8816 77.7117 13.4438 78.3225 13.2604ZM79.435 20.9003C80.7395 20.9532 83.5077 20.8036 84.6019 20.9774C84.9207 20.2718 85.7623 16.1658 85.8502 15.3558L82.4804 15.3519C82.0533 15.3522 81.0731 15.378 80.691 15.3383C80.456 15.9123 79.5426 20.1317 79.435 20.9003Z" fill="#030303"/>
<path d="M31.1141 13.2582L38.4662 13.2563C39.433 13.2565 43.0997 13.1381 43.7071 13.5335C44.0154 13.7308 44.2302 14.045 44.3018 14.4039C44.4273 15.0576 43.2184 20.3306 42.6886 21.0465C41.9453 22.0508 40.506 22.4529 39.3363 22.6746C42.4731 24.2208 42.1622 24.9836 41.549 28.1832C40.8147 28.2649 38.8702 28.2165 38.024 28.2169C37.7723 28.2251 37.6948 28.2221 37.4477 28.1753C37.3427 27.8684 38.2089 24.2434 38.3744 23.6827C36.8677 23.5845 34.538 23.6302 33.0028 23.6796C32.8935 24.697 32.3209 27.0964 32.0924 28.2056C30.7332 28.2376 29.2697 28.213 27.9045 28.2108C28.4135 25.3004 29.2627 21.8583 29.8773 18.9211L30.6218 15.3341C30.7399 14.7657 30.9124 13.7738 31.1141 13.2582ZM33.4512 21.4601C33.9554 21.5465 38.2919 21.6047 38.7324 21.5238C39.1902 19.9833 39.7108 17.138 40.0689 15.4618C38.7587 15.432 35.9792 15.5569 34.8678 15.4052C34.2791 17.0596 34.0178 19.6662 33.4512 21.4601Z" fill="#030303"/>
<path d="M92.3471 13.2619C94.7107 13.235 97.0771 13.2551 99.4407 13.2551C100.806 13.2551 102.218 13.1804 103.577 13.2793C103.92 13.3044 104.434 13.3515 104.729 13.5374C105.035 13.7296 105.247 14.0977 105.321 14.4442C105.508 15.3131 104.216 20.2568 103.652 21.1251C103.02 22.0978 101.433 22.463 100.374 22.6856C101.662 23.3006 103.245 24.1048 102.956 25.9183C102.894 26.3107 102.687 28.0446 102.486 28.122C102.039 28.2935 99.5216 28.2159 98.9833 28.225C98.7891 28.2399 98.7469 28.2381 98.5555 28.2043C98.3564 27.8508 99.2176 24.2951 99.3851 23.6859C98.1213 23.5684 95.489 23.6491 94.1224 23.6537C93.8959 24.7433 93.435 27.2843 93.1162 28.2251C92.3626 28.2165 89.669 28.26 89.1039 28.166C89.0772 27.5557 89.6444 25.1069 89.7977 24.3841L91.2733 17.4289C91.5449 16.1454 91.8144 14.7858 92.1043 13.5015C92.1445 13.3245 92.1846 13.3421 92.3471 13.2619ZM94.5439 21.4881C95.9133 21.6121 98.2557 21.5409 99.6905 21.5342L99.8108 21.493C100.061 20.4121 100.275 19.2652 100.517 18.176C100.669 17.4899 101.014 16.0648 101.043 15.4294C99.6412 15.4537 97.4142 15.531 96.0547 15.425C95.978 15.519 95.8246 15.7208 95.7979 15.8341C95.3574 17.7168 95.0175 19.6108 94.5439 21.4881Z" fill="#030303"/>
<path d="M6.3781 7.48206C8.1744 8.35421 9.69895 9.17788 11.438 10.0614L18.5212 13.6374C19.2815 14.0275 24.2894 16.4316 24.5465 16.7719C24.5203 17.0022 24.3404 17.1015 24.1138 17.2692C22.0158 18.8215 19.9054 20.3758 17.8253 21.9518C17.2546 22.3841 16.0242 23.2421 15.5298 23.6929C16.6489 25.0303 18.0054 27.0144 19.1004 28.4529C19.7838 29.3505 21.8975 32.1321 22.2644 32.9593C20.8337 31.8344 9.34015 24.046 9.18887 23.7542C9.17416 23.606 9.13827 23.4854 9.26219 23.3633C10.4303 22.2128 11.6636 21.1058 12.7941 19.9177C13.8274 18.8317 15.1232 17.9505 16.103 16.8204C13.7783 14.6091 11.3144 12.4912 8.91219 10.3599C7.98694 9.53898 7.1163 8.66104 6.17847 7.84058C6.21513 7.64626 6.24222 7.61672 6.3781 7.48206Z" fill="#030303"/>
<path d="M61.3869 14.1801C61.6163 13.848 61.6234 13.5272 62.0906 13.4837C62.9765 13.4013 64.0594 13.3941 64.8271 13.8975C65.4618 14.3134 64.9918 14.8869 65.2704 15.4622C65.2803 15.8219 64.7743 17.8512 64.6794 18.2967L63.018 26.0905C64.7546 26.1324 66.5159 26.1005 68.261 26.1292C68.9323 23.6368 69.3629 20.7987 69.9695 18.2763C70.1658 17.4593 70.3558 16.1336 70.5957 15.376C70.8582 15.1894 71.0637 14.4817 71.2867 14.1745C71.768 13.5115 74.4025 13.2067 74.9183 13.6263C75.014 13.7731 74.9795 14.0664 74.9746 14.2549C74.983 14.5606 74.4595 16.7343 74.3688 17.2134C73.8136 20.1529 72.9882 23.2457 72.4977 26.1818C71.2065 26.2764 69.6936 26.1408 68.337 26.2271C68.2765 26.9244 68.1252 27.5701 67.919 28.2365C66.1204 28.1922 64.3212 28.1939 62.5233 28.2414C62.5226 27.7725 62.7809 26.758 62.8766 26.2114C61.738 26.1157 60.0684 26.2401 58.7908 26.1725C59.1305 24.9498 59.3971 23.51 59.6603 22.2567L60.7298 17.2605C60.9246 16.3245 61.1343 15.0764 61.3869 14.1801Z" fill="#030303"/>
<path d="M106.896 15.2846C107.135 15.0667 107.381 14.4265 107.714 14.0731C108.169 13.5406 108.977 13.488 109.655 13.4879C113.22 13.4877 116.79 13.4843 120.356 13.4851C120.485 13.4852 120.729 13.7243 120.827 13.8165C120.421 14.7251 119.816 15.4151 118.741 15.448C116.338 15.5214 113.92 15.3853 111.52 15.4745C110.727 15.4994 110.534 17.7458 110.404 18.4529C112.259 18.5206 114.162 18.4477 116.018 18.4716C116.776 18.4813 117.946 18.4285 118.676 18.5236C119.289 18.9402 119.663 19.5007 119.474 20.2807C118.994 22.2658 118.68 24.3035 118.176 26.2797C117.625 28.4392 115.818 28.2206 114.115 28.2189L110.54 28.2127L106.558 28.2116C106.044 28.2125 104.597 28.3203 104.243 28.068C104.168 27.9084 104.141 27.8536 104.205 27.6829C104.395 27.1793 104.965 26.559 105.454 26.348C106.544 25.8776 112.444 26.1203 114.058 26.1121C114.353 24.5157 115.048 21.9641 115.205 20.4859C113.822 20.6943 111.813 20.5232 110.32 20.5547C109.194 20.5784 106.255 20.9499 106.16 19.2648C106.166 18.4444 106.64 16.0184 106.896 15.2846Z" fill="#030303"/>
<path d="M5.40725 8.78479C5.88982 8.98031 8.06252 10.9631 8.45931 11.424C8.30669 13.6619 8.43925 16.3716 8.42968 18.6478C8.4123 22.7632 8.38641 26.9165 8.44671 31.0301C7.96527 30.7724 7.62315 30.5313 7.17935 30.222C6.72507 29.9418 5.81517 29.2987 5.41338 28.9669C5.40388 27.8193 5.40803 26.6717 5.42576 25.5242C5.98362 24.9734 6.90654 24.5197 7.59922 23.7872C6.74174 23.4294 6.23117 23.1776 5.43807 22.724C5.37284 21.3019 5.42421 19.7397 5.41309 18.3074C5.38853 15.1405 5.45011 11.9505 5.40725 8.78479Z" fill="#030303"/>
<path d="M106.896 15.2846C106.998 14.4059 107.866 13.4594 108.764 13.3091C109.38 13.2062 110.245 13.2527 110.886 13.2537L114.424 13.2618C116.136 13.2656 119.235 13.1536 120.848 13.2735C120.923 13.4368 120.859 13.6154 120.827 13.8164C120.729 13.7242 120.485 13.4852 120.356 13.4851C116.79 13.4843 113.22 13.4876 109.654 13.4879C108.977 13.488 108.169 13.5406 107.714 14.0731C107.381 14.4265 107.135 15.0667 106.896 15.2846Z" fill="#030303" fill-opacity="0.964706"/>
<path d="M70.5957 15.376C70.9644 13.2088 72.8826 13.1622 74.672 13.2276C74.7944 13.232 74.9246 13.2522 75.0449 13.2722L75.123 13.387C75.1308 13.7397 75.0675 13.9212 74.9746 14.2549C74.9795 14.0664 75.014 13.7732 74.9183 13.6263C74.4025 13.2067 71.768 13.5115 71.2867 14.1745C71.0636 14.4817 70.8582 15.1894 70.5957 15.376Z" fill="#030303" fill-opacity="0.964706"/>
<path d="M61.5751 13.285C63.1639 13.2032 65.9807 12.9079 65.27 15.4623C64.9913 14.8869 65.4614 14.3134 64.8267 13.8975C64.059 13.3941 62.976 13.4013 62.0901 13.4837C61.6229 13.5272 61.6159 13.8481 61.3865 14.1801C61.4294 13.7888 61.4568 13.6603 61.5751 13.285Z" fill="#030303" fill-opacity="0.964706"/>
<path d="M6.17886 7.84063C5.83631 7.64471 5.66145 7.37519 5.4519 7.05884C5.76292 7.19515 6.07183 7.33626 6.37848 7.4821C6.24261 7.61676 6.21552 7.6463 6.17886 7.84063Z" fill="#030303" fill-opacity="0.913725"/>
</svg>
