<svg width="153" height="40" viewBox="0 0 153 40" fill="none" xmlns="http://www.w3.org/2000/svg">
<g clip-path="url(#clip0_3376_19581)">
<path d="M6.33496 24.3402L6.43399 24.328C6.65053 24.3036 6.79155 24.2548 6.97179 24.3565C7.11155 24.8206 7.14132 25.2874 7.28416 25.742C8.52061 29.6769 12.6094 31.513 16.4885 30.429C18.7478 29.7975 20.1175 27.5231 19.3519 25.2196C18.6864 23.4879 16.9491 22.5882 15.4198 21.8246C12.0515 20.1437 6.69571 18.6491 6.4613 14.1403C6.13386 7.84223 13.869 6.14237 18.5277 8.34901C19.624 8.87137 20.6079 9.60308 21.4243 10.5021C21.4524 10.9032 21.6837 13.7426 21.5875 14.0177C21.4117 14.181 21.2586 14.2548 21.0119 14.1939C20.7419 13.7006 20.6214 12.996 20.4112 12.4459C19.8745 11.0394 18.9185 9.85578 17.609 9.11188C15.0641 7.66676 10.1785 8.00009 9.28944 11.3544C9.02789 12.3538 9.17527 13.4161 9.69897 14.307C12.0092 18.1864 20.9628 18.4771 22.1936 23.6634C23.7011 30.0163 16.7571 32.6627 11.673 31.2711C9.75464 30.746 7.7821 29.7054 6.54817 28.2006C6.51148 27.4371 6.48038 26.0645 6.33496 25.3585V24.3402Z" fill="#0F2C29"/>
<path d="M145.088 12.2399V15.2317C145.004 15.2128 144.911 15.185 144.827 15.1626C144.635 14.8408 144.716 13.3754 144.722 12.8727C144.495 13.3666 144.025 14.9485 143.64 15.1206L143.503 15.061C143.216 14.6769 142.724 13.2812 142.522 12.7554C142.532 13.3083 142.646 14.7812 142.427 15.1863L142.249 15.183L142.371 15.2351L142.293 15.2317C142.091 14.9275 142.148 12.7737 142.223 12.3198C142.356 12.2189 142.28 12.2568 142.488 12.2636C142.979 12.5651 143.421 14.0725 143.647 14.687C143.932 13.9709 144.175 13.0732 144.56 12.4025C144.67 12.2114 144.858 12.2534 145.088 12.2399Z" fill="#0F2C29"/>
<path fill-rule="evenodd" clip-rule="evenodd" d="M48.719 14.7771C50.726 14.6518 52.7635 15.2445 54.2864 16.5955C57.6138 19.5474 57.7591 25.946 54.8401 29.2136C53.4936 30.7217 51.6147 31.4781 49.6106 31.573C45.0531 31.8833 41.8198 28.5656 41.5188 24.1551C41.1821 19.2217 43.499 15.1546 48.719 14.7771ZM49.0071 15.658C47.9462 15.7508 47.1925 16.011 46.47 16.8748C44.8764 18.7798 44.7209 22.1913 44.9104 24.5633C45.0455 26.2536 45.5865 28.8636 46.9768 29.9754C47.6898 30.5451 48.4759 30.7607 49.3733 30.7058C50.4185 30.6272 51.1291 30.3619 51.8332 29.5174C54.3362 26.5167 54.6243 15.4542 49.0071 15.658Z" fill="#0F2C29"/>
<path fill-rule="evenodd" clip-rule="evenodd" d="M31.5615 14.7779C33.5187 14.6459 35.6159 15.2488 37.041 16.6314C38.7683 18.3076 39.2432 20.4749 39.2715 22.7906L27.5742 22.7935C27.6782 26.2311 28.4312 30.3823 32.8183 30.4957C34.5589 30.5404 35.9105 29.8592 37.1357 28.6431C37.6234 28.1107 37.9104 27.59 38.2666 26.9654L38.8848 27.3033C37.8966 29.7992 35.6594 31.3666 33.0078 31.5611C28.1289 31.9188 24.6417 28.8971 24.2978 24.0191C23.9524 19.1189 26.3851 15.1153 31.5615 14.7779ZM31.8457 15.6578C28.3635 15.9207 27.8204 19.0879 27.6103 21.9537L31.9014 21.9586L36.0478 21.9459C35.9411 19.1769 35.2707 15.7594 31.8457 15.6578Z" fill="#0F2C29"/>
<path d="M100 7.77441L104.167 7.77915L104.148 23.3151C105.009 22.3767 109.79 17.3645 110.038 16.6674C110.328 15.8544 109.377 15.9817 109.155 15.4932L109.22 15.3273C109.678 15.0786 112.178 15.3422 112.848 15.2202C113.149 15.1653 113.522 15.1653 113.689 15.4614C113.679 15.5413 113.669 15.6213 113.659 15.7006C113.245 15.8503 112.772 15.9871 112.372 16.1579C111.554 16.5068 110.901 17.2209 110.28 17.855C109.467 18.6836 108.669 19.5786 107.898 20.46C108.389 21.0583 109.425 22.6924 109.902 23.3957L113.972 29.437C114.777 30.4865 114.555 30.0684 115.539 30.7053C115.602 30.9065 115.608 30.8923 115.554 31.0942C115.024 31.1552 114.149 31.1301 113.594 31.1294L110.11 31.1165L110.009 31.0081C110.051 30.3496 110.268 30.79 110.637 30.309C110.707 29.6789 109.299 27.832 108.881 27.21L105.845 22.6972C105.308 23.2405 104.678 23.9838 104.159 24.5657C104.167 26.2229 104.101 27.8815 104.194 29.5352C104.245 30.4289 105.249 30.4106 105.317 31.0352C105.059 31.1972 100.546 31.1531 100.076 31.0718L100.038 30.9079C100.301 30.2493 101.168 30.5684 101.141 29.1084C101.117 27.7934 101.124 26.3659 101.124 25.0427L101.125 15.46L101.131 11.2175C101.131 9.9072 101.426 8.80219 100.169 8.27374C99.9804 8.19447 100.016 7.97021 100 7.77441Z" fill="#0F2C29"/>
<path d="M133.14 14.7778C133.306 14.7744 133.472 14.7737 133.638 14.7751C136.297 14.8008 138.337 16.0759 138.821 18.8042C138.991 19.7642 138.932 21.2818 138.93 22.3008L138.911 27.5298C138.907 28.3631 138.817 29.2087 139.113 30.0129C139.338 30.6287 140.266 30.4919 140.163 30.9953C139.939 31.2121 135.001 31.1822 134.816 31.0617C134.765 30.7947 134.734 30.9045 134.828 30.6978C135.474 30.4173 135.857 30.1518 135.875 29.3726C135.915 27.6037 135.89 25.8286 135.887 24.0576V20.6843C135.886 18.6308 135.966 16.0318 133.181 15.8435C131.854 15.7412 130.545 16.189 129.558 17.082C129.031 17.5949 128.469 18.3421 128.449 19.1043C128.357 22.622 128.35 26.1816 128.426 29.6978C128.434 30.0867 129.456 30.626 129.558 30.9932L129.466 31.105C128.814 31.1362 124.669 31.2168 124.322 31.0637C124.292 30.8753 124.269 30.8604 124.339 30.6904C125.684 29.9627 125.377 29.2358 125.373 27.8875L125.371 24.6192L125.373 19.4045C125.374 18.6612 125.371 17.7419 125.379 17.0054C125.392 16.0061 124.285 15.8394 124.287 15.3516C124.498 15.147 127.791 15.2405 128.324 15.2432C128.353 15.874 128.345 16.5854 128.351 17.2222C128.484 17.0528 128.623 16.8869 128.766 16.7256C129.927 15.4092 131.434 14.8916 133.14 14.7778Z" fill="#0F2C29"/>
<path d="M63.0246 15.2351L63.0214 23.7711C63.0213 24.2826 63.0086 24.8225 63.0211 25.328C63.0386 26.267 62.9711 27.267 63.1316 28.1925C63.6797 31.3137 67.83 30.9533 69.5478 29.1078C70.4431 28.1464 70.5976 27.3923 70.5968 26.1051C70.5945 23.0217 70.5949 19.937 70.5826 16.8537C70.5795 16.0935 69.5361 15.8219 69.5159 15.328C69.7902 15.1626 73.0697 15.2331 73.6183 15.2351L73.6154 18.4364L73.6133 25.5732C73.6127 26.8869 73.484 28.7318 73.8019 30.017C73.9074 30.4431 74.8493 30.498 74.8107 31.0149C74.5905 31.2202 71.5721 31.1288 71.055 31.1267C70.8732 30.4675 70.7453 29.6945 70.6479 29.019C69.6764 30.2318 68.9399 30.9486 67.3769 31.3639C65.7808 31.788 63.7021 31.6667 62.2651 30.8009C59.6321 29.2141 59.9909 26.2311 59.9944 23.5868L60.0025 18.7602C60.0033 18.1308 60.034 17.1925 59.9545 16.58C59.8851 16.2555 59.5531 15.998 59.2882 15.8598C58.8632 15.6389 58.9316 15.6328 58.9131 15.2433C60.2652 15.2229 61.669 15.2379 63.0246 15.2351Z" fill="#0F2C29"/>
<path d="M90.615 14.7778C93.447 14.5637 95.5771 15.5291 97.3298 17.7019C96.6794 18.2696 96.0344 18.8435 95.3955 19.4234C95.3169 18.3977 95.176 17.6396 94.4091 16.8184C92.8325 14.9397 86.9457 15.1707 87.3522 18.3882C87.7593 21.6165 94.2946 21.8828 96.3237 23.979C97.9917 25.7032 98.0107 28.0847 96.5039 29.7737C95.2072 31.2276 93.0453 31.5224 91.2614 31.5928C91.0012 31.584 90.7411 31.5698 90.4816 31.5501C87.8827 31.3394 86.2438 30.5176 84.5825 28.5583C85.2377 27.9837 85.8183 27.2771 86.5182 26.7412C86.7207 27.939 86.9687 28.8997 87.9985 29.689C89.2187 30.6233 90.6218 30.8699 92.1279 30.6816C92.9267 30.6253 94.2587 30.1673 94.6808 29.4309C96.7194 25.8699 91.4341 24.9837 89.2234 24.086C87.3664 23.332 85.1083 22.2371 84.9484 19.9702C84.6963 16.4038 87.5825 14.9756 90.615 14.7778Z" fill="#0F2C29"/>
<path d="M77.2237 7.77173L81.3985 7.78054L81.3958 23.475L81.3938 27.5556C81.3911 28.1667 81.3525 28.8869 81.4087 29.4973C81.4846 30.3239 82.4629 30.5597 82.5557 30.9316L82.4643 31.0725C82.1723 31.2026 81.7867 31.145 81.4514 31.1301C80.0808 31.1247 78.6824 31.1559 77.3172 31.1335L77.2366 31.0244C77.3057 30.038 78.2922 30.9072 78.3389 29.3395C78.3762 28.0786 78.364 26.7785 78.3626 25.5136L78.3633 19.0007L78.3647 12.6694C78.3647 11.582 78.3755 10.4533 78.3511 9.38081C78.3342 8.62945 77.7522 8.54544 77.28 8.20059C77.1973 8.14097 77.2271 7.91604 77.2237 7.77173Z" fill="#0F2C29"/>
<path d="M116.501 15.2419L120.632 15.2372L120.635 26.2663C120.635 27.2352 120.599 28.5665 120.645 29.5475C120.67 30.0881 121.649 30.6599 121.731 30.9249L121.654 31.0597C121.368 31.2013 120.985 31.1417 120.647 31.1281C119.67 31.1301 117.488 31.1945 116.606 31.0875C116.475 30.9804 116.527 31.0495 116.499 30.8395C116.674 30.5028 117.104 30.4696 117.276 30.2636C117.734 29.7182 117.603 28.3002 117.604 27.6566L117.607 24.1728C117.609 21.7521 117.63 19.2765 117.582 16.8585C117.567 16.1017 117.031 15.9994 116.553 15.6505C116.479 15.5963 116.504 15.3707 116.501 15.2419Z" fill="#0F2C29"/>
<path d="M118.433 9.02298C119.137 8.81431 119.898 9.00198 120.425 9.51349C120.951 10.025 121.16 10.7811 120.971 11.4905C120.783 12.1998 120.226 12.752 119.515 12.9349C118.444 13.2106 117.349 12.5765 117.053 11.5101C116.759 10.4437 117.372 9.33734 118.433 9.02298Z" fill="#0F2C29"/>
<path d="M140.511 12.5881L140.89 12.561C140.879 13.2108 140.96 14.4811 140.829 15.1071C140.813 15.1877 140.725 15.1891 140.63 15.2175L140.541 15.1539C140.48 14.6491 140.515 13.2013 140.511 12.5881Z" fill="#0F2C29"/>
<path d="M140.511 12.5881C140.14 12.5901 139.912 12.6172 139.567 12.4675L139.611 12.3801C140.152 12.2419 141.359 12.1741 141.853 12.3198L141.837 12.4424C141.458 12.6294 141.315 12.6003 140.89 12.561L140.511 12.5881Z" fill="#0F2C29"/>
</g>
<defs>
<clipPath id="clip0_3376_19581">
<rect width="141.667" height="25" fill="white" transform="translate(5 7.5)"/>
</clipPath>
</defs>
</svg>
