<svg width="167" height="40" viewBox="0 0 167 40" fill="none" xmlns="http://www.w3.org/2000/svg">
<path d="M65.3855 10.0481C66.488 10.0689 70.112 9.84833 70.6881 10.3801C70.7991 11.1051 70.7658 12.546 70.7646 13.3295C70.7628 15.0704 70.7512 16.8113 70.7297 18.552C70.7162 19.8334 70.8439 29.3382 70.5014 29.8481C70.2938 29.883 70.0301 29.908 69.8118 29.9052C66.4247 29.8605 67.0375 30.5514 67.0268 26.9515L67.017 20.0943C67.0059 19.3882 67.2434 16.1496 66.829 15.8482C66.4848 16.5044 65.98 18.0927 65.6742 18.8605C64.6803 21.3562 63.7948 23.9919 62.76 26.4628C61.9513 26.4603 60.0667 26.704 59.4128 26.3024C58.8328 25.9461 55.9035 16.3273 55.2192 15.8491L55.1482 15.9086C54.9987 16.5829 55.1503 17.495 55.1282 18.0583C55.0693 19.5592 55.3134 29.5085 54.9778 29.8518C54.0834 29.96 52.8705 29.8841 51.9493 29.8952C51.7284 29.8978 51.6301 29.7233 51.5015 29.5703C51.3958 29.1443 51.3434 11.1481 51.506 10.4351C51.554 10.2247 51.7771 10.1392 51.9456 10.0361C53.0042 10.1376 55.9949 9.91423 56.7186 10.163C57.436 10.719 59.8654 18.6829 60.5056 19.9658C60.582 20.1188 60.7299 20.8624 60.8315 21.1343L61.0434 21.1791C61.1957 21.1325 61.3467 21.1281 61.4008 20.956C62.345 17.9505 63.485 15.0058 64.5346 12.035C64.7648 11.3834 65.0403 10.6383 65.3855 10.0481Z" fill="#FF5B00"/>
<path d="M28.9458 10.0635L33.8701 10.0586C35.2473 10.056 37.6313 9.80297 38.5476 10.9656C39.2724 11.8852 38.9175 14.5604 38.969 15.7292C39.011 16.679 39.0175 17.7464 38.9854 18.6889C38.9542 19.6041 38.3956 20.0967 37.7506 20.6264C38.2005 20.9407 38.4277 21.1089 38.8391 21.4887C39.0113 22.4056 39.1041 29.0728 38.8561 29.7984C38.6242 29.9839 35.8371 29.9656 35.4784 29.7374C35.2352 29.1109 35.467 23.8335 35.3603 22.6674C35.2998 22.5938 35.236 22.5225 35.1634 22.4607C34.8945 22.2314 29.4145 22.2649 28.7404 22.3295C28.5613 22.3467 28.2502 22.3773 28.1095 22.4982C27.5778 22.955 28.4103 29.0827 27.7761 29.851C27.5004 29.9131 24.8709 29.9444 24.6184 29.8826C24.5798 29.8529 24.4767 29.7895 24.4614 29.7481C24.2923 29.2893 24.3742 12.7554 24.4045 11.1865C24.4103 10.8827 24.3935 10.4979 24.5199 10.2201C24.9896 9.9801 28.1516 10.0716 28.9458 10.0635ZM35.2023 18.6534C35.5386 17.9326 35.3332 16.4347 35.3823 15.6073C35.4179 15.0064 35.4802 14.0738 35.0035 13.6419C34.4716 13.5272 28.7197 13.5219 28.0965 13.6178C27.9037 14.2062 27.7456 18.6319 28.3399 18.6906C29.2231 18.7778 34.6001 18.9791 35.1574 18.6789C35.1726 18.6707 35.1876 18.6622 35.2023 18.6534Z" fill="#FF5B00"/>
<path d="M111.881 22.8852C111.962 20.0205 111.772 16.7815 111.856 13.8864C111.884 12.8906 111.765 11.1341 111.898 10.2455C112.179 10.0048 114.97 9.95612 115.242 10.1727C115.689 10.8073 115.243 26.4786 115.4 28.6194C115.414 28.8054 115.399 29.5599 115.392 29.7886C115.386 29.7929 115.38 29.7971 115.375 29.8014C115.005 30.0893 111.924 29.9075 111.255 29.8964C109.193 26.0951 107.253 22.2095 105.22 18.391C105.085 18.1363 104.741 17.4834 104.443 17.4465C104.42 17.836 104.423 18.2191 104.446 18.6076C104.616 21.4496 104.559 24.2933 104.559 27.1391C104.559 27.8779 104.616 29.1226 104.349 29.7884C104.083 30.0523 102.901 29.8563 102.482 29.8867C102.066 29.9168 101.204 30.0273 100.884 29.7783C100.73 29.393 100.795 26.8572 100.794 26.2822L100.79 19.6508L100.783 13.6582C100.782 12.66 100.77 11.6234 100.803 10.6242C100.813 10.2987 100.881 10.2561 101.067 10.0379C101.828 10.0597 104.169 9.85192 104.731 10.1409C105.318 10.4421 109.191 18.187 109.806 19.3658C110.394 20.4923 110.964 22.0242 111.881 22.8852Z" fill="#FF5B00"/>
<path d="M75.6974 10.0443C76.6759 10.1204 78.3146 10.0763 79.3355 10.0767L86.001 10.0777C86.8129 10.0775 88.801 10.0223 89.4803 10.1251C89.909 10.5274 89.9139 13.0635 89.6072 13.4228C88.8514 13.7788 80.5314 13.4848 78.7635 13.6215C78.6578 14.2964 78.5479 18.2902 78.8122 18.5494C79.4723 19.1966 84.6579 18.5871 85.7984 18.8132C86.0181 18.8568 86.0409 18.9885 86.1539 19.1772L86.1458 22.3096C85.4006 22.3554 78.8712 22.1499 78.7328 22.5357C78.4379 23.3576 78.9808 29.2898 78.4961 29.9065C78.2686 29.9627 75.2841 29.937 75.1214 29.7597C75.045 29.406 75.0302 10.493 75.0928 10.2742C75.3352 10.0606 75.3501 10.1107 75.6974 10.0443Z" fill="#FF5B00"/>
<path d="M143.122 10.0546C146.993 10.0648 146.477 9.19049 148.158 12.7591L150.15 17.0092C150.459 17.6774 150.748 18.42 151.085 19.0642L151.26 19.0616C151.754 18.7521 152.381 17.0951 152.661 16.4975L155.128 11.1986C155.389 10.6454 155.756 9.88937 156.44 10.0281C157.175 10.1773 159.253 9.77147 159.608 10.3738C159.39 10.98 158.91 11.8269 158.609 12.4456L156.161 17.3942C155.278 19.2661 153.848 21.8829 153.146 23.7715C152.879 24.4885 153.376 29.0267 152.952 29.8069C152.648 29.9679 150.006 29.9376 149.589 29.8161C149.251 29.2643 149.687 24.3727 149.371 23.5529C148.944 22.4485 148.169 20.9943 147.631 19.9096L144.312 13.1444C143.899 12.3112 143.406 11.3549 143.032 10.4949C142.976 10.3666 143.05 10.1757 143.122 10.0546Z" fill="#FF5B00"/>
<path d="M127.069 10.045C128.203 10.0702 140.81 9.98897 140.995 10.1445C141.237 10.5919 141.22 12.964 141.129 13.4163C140.847 13.7135 136.519 13.5611 135.725 13.6233C135.602 14.5254 135.655 16.5857 135.655 17.5535L135.664 24.9122C135.669 25.7486 135.772 29.3411 135.522 29.8321C135.26 29.9417 132.572 29.967 132.161 29.801C131.934 29.549 132.039 26.0185 132.04 25.4252L132.041 17.172C132.04 16.5858 132.066 14.2355 131.951 13.8395C131.749 13.1453 127.468 13.8781 126.775 13.4913C126.694 13.4465 126.529 13.3778 126.531 13.2663C126.555 12.3687 126.362 11.188 126.563 10.3489C126.607 10.168 126.926 10.0959 127.069 10.045Z" fill="#FF5B00"/>
<path d="M7.09909 10.0464C10.274 10.1703 13.6398 10.0274 16.8282 10.0732C17.7875 10.0869 20.4076 9.96721 21.1687 10.1332C21.4147 10.4764 21.4229 13.2179 21.1517 13.5336C20.746 13.6384 16.7679 13.5612 15.8818 13.6271C15.7465 14.5034 15.7962 16.6223 15.7956 17.5927L15.7944 24.9064C15.7824 25.9569 15.9136 28.9329 15.7117 29.7572C15.4304 30.0046 12.7377 29.9581 12.3745 29.8078C12.2471 29.6715 12.1819 29.6478 12.1832 29.4618C12.1906 28.3563 12.2089 27.2072 12.2103 26.1057L12.2122 18.3867C12.2116 16.9311 12.2669 14.9874 12.1198 13.5809C11.1175 13.4913 7.25996 13.8368 6.74636 13.3017C6.64531 12.8213 6.75147 11.0782 6.70953 10.4264C6.69819 10.2503 6.95551 10.1227 7.09909 10.0464Z" fill="#FF5B00"/>
<path d="M121.993 10.0676C122.487 10.0436 123.078 9.93954 123.44 10.2522C123.923 11.5423 123.414 19.0966 123.593 21.0908C123.657 21.7974 123.571 29.4629 123.51 29.646C123.065 30.0646 121.995 29.914 121.36 29.8966C120.873 29.9034 120.386 29.9074 119.898 29.9085L119.898 29.8924C119.772 27.7645 119.902 10.2958 120.011 10.1728C120.463 10.0131 121.472 10.063 121.993 10.0676Z" fill="#FF5B00"/>
<path d="M93.0191 10.041C93.6251 10.0378 95.7434 10.0031 96.2201 10.1296C96.4503 11.2121 96.3999 29.4266 96.2478 29.8163C96.2291 29.8648 96.1428 29.8855 96.0948 29.9067C95.3432 29.8984 93.4201 29.9884 92.8165 29.7825C92.6977 29.6463 92.6872 29.1513 92.6863 28.951C92.6538 22.8433 92.6571 16.734 92.6514 10.6262C92.6514 10.3177 92.8149 10.2366 93.0191 10.041Z" fill="#FF5B00"/>
<path d="M43.665 10.021C44.4176 10.0839 46.5493 9.93171 47.0129 10.2428C47.0921 10.8388 47.0911 11.4398 47.088 12.0401C47.0596 17.4839 47.0261 22.933 47.0973 28.3761C47.1034 28.8389 47.231 29.3445 47.0795 29.7864C46.7331 29.9737 44.0148 29.9517 43.5692 29.8536C43.5599 29.8127 43.5515 29.7715 43.5441 29.7302C43.4221 29.0639 43.4579 27.4949 43.4574 26.7567L43.4587 21.6877L43.4545 14.4772C43.4532 13.6752 43.3202 10.5194 43.665 10.021Z" fill="#FF5B00"/>
</svg>
