<svg width="164" height="40" viewBox="0 0 164 40" fill="none" xmlns="http://www.w3.org/2000/svg">
<g clip-path="url(#clip0_3376_19172)">
<path d="M122.766 9.09259C124.53 8.9906 125.062 8.85579 126.165 10.4095C127.443 12.2095 127.852 13.893 127.881 16.0631C130.86 16.1394 134.078 16.0795 137.071 16.0794L156.398 16.0874C156.419 16.3997 156.492 16.9959 156.308 17.2312C155.976 17.3305 155.433 17.2336 155.071 17.2213C152.75 17.142 150.356 17.2292 148.037 17.3107C148.027 17.4194 148.017 17.5282 148.009 17.6372C147.891 19.1865 147.682 24.1853 148.701 25.2936C149.058 25.6827 149.488 25.8991 150.027 25.9345C150.812 25.9847 151.583 25.7161 152.166 25.1894C153.92 23.6357 153.247 21.1079 153.39 18.7764C153.87 18.7597 154.948 18.6747 155.341 18.8636C155.525 19.2515 155.443 26.0017 155.441 26.9847C155.042 26.8341 153.83 26.3046 153.421 26.0404C153.317 25.9736 153.453 25.7108 153.298 25.4961C152.688 25.6027 151.928 26.3334 151.215 26.4236C149.736 26.6107 148.328 26.4747 147.23 25.3706C146.767 24.9122 146.434 24.34 146.263 23.7115C146.022 22.8106 146.121 18.523 146.124 17.3026C141.51 17.2336 136.877 17.3181 132.261 17.2862C130.831 17.2763 129.37 17.267 127.943 17.3191C127.841 18.3427 127.875 19.6653 127.881 20.7125C128.487 20.2805 128.971 19.6519 129.641 19.1811C131.751 17.6974 134.794 19.2914 135.045 21.7576C135.252 23.8006 132.965 26.2882 130.969 26.4986C129.523 26.6533 128.807 25.5474 127.817 24.7209L127.8 26.595C127.203 26.3685 126.611 26.1327 126.021 25.8874C125.84 23.1633 126.124 20.1592 126.008 17.3076C123.608 17.2317 120.315 17.2339 117.917 17.313L117.911 18.7897C118.114 18.7724 118.508 18.7059 118.68 18.6705C122.808 17.821 124.122 19.163 123.929 23.2956C123.888 24.193 123.98 25.5489 123.859 26.5691C123.497 26.4813 122.777 26.2166 122.429 26.0539C122.325 26.0056 122.118 25.7006 122.127 25.6993C121.581 25.7788 120.766 26.3267 120.223 26.4182C119.221 26.587 118.248 26.5601 117.288 26.293C116.557 26.0891 115.787 25.7055 115.404 25.0317C115.15 24.5831 115.117 24.0237 115.252 23.5347C115.482 22.7009 116.439 21.9994 117.164 21.6035C118.207 21.0342 119.695 20.7664 120.868 21.0019C121.155 21.0597 121.799 21.3096 122.149 21.4147C122.509 20.6761 121.765 19.9881 121.022 19.8785C119.27 19.6197 117.735 20.4025 116.086 20.7995C116.148 20.2327 116.159 20.0911 116.553 19.6899L116.559 17.3048C115.036 17.2567 112.893 17.2471 111.422 17.3755C111.413 17.8751 111.3 18.963 111.723 19.2497C112.03 19.215 112.422 18.7535 112.811 18.567C113.032 18.4588 113.287 18.4456 113.518 18.5303C114.016 18.7163 114.394 19.3503 114.608 19.8107C114.206 20.2685 113.954 20.5215 113.501 20.9286C113.446 20.4341 113.174 19.4164 112.476 19.7609C112.213 20.1588 112.505 20.8274 112.556 21.2522C112.578 21.4309 112.555 21.8319 112.546 22.0242C111.635 23.4862 109.77 23.2774 108.216 23.3994C106.092 23.5662 105.283 25.7293 107.724 25.2385C108.452 25.092 109.398 24.5288 110.136 24.2256C110.582 24.0403 111.047 23.9025 111.521 23.8145C112.232 23.6889 112.914 23.6805 113.56 24.1139C114.848 24.9799 115.845 27.8896 114.91 29.2205C113.836 30.7481 111.101 28.9678 109.713 28.566C108.9 28.3222 108.043 28.2649 107.204 28.3982C104.651 28.8003 103.38 30.2889 101.984 32.2106C101.986 31.1567 102.087 30.4607 102.623 29.5274C103.311 28.3064 104.459 27.4115 105.81 27.0424C107.815 26.5085 109.189 27.2087 110.799 28.313C111.947 29.1005 113.543 28.7765 114.229 27.5348C114.438 27.1554 114.485 26.7078 114.361 26.293C113.431 23.1828 109.017 27.5747 106.908 26.1696C105.171 25.0124 104.12 23.3772 106.822 22.593C106.587 22.154 106.239 21.8039 106.086 21.3274C105.254 18.7415 107.868 18.6459 109.603 18.4165C109.944 18.3715 109.888 17.7254 109.792 17.473C109.409 17.1364 108.829 17.2921 108.312 17.2902L104.685 17.2955L104.684 16.0843C106.86 16.0303 109.271 16.0796 111.463 16.0797L126.014 16.0712C125.992 13.6225 124.883 11.4614 123.218 9.68208C123.053 9.50584 122.8 9.33619 122.766 9.09259ZM132.384 25.4338C135.597 23.9893 133.376 19.7688 129.626 20.1233C128.608 20.5249 127.81 21.2022 128.327 22.3961C128.956 23.8513 130.671 25.6151 132.384 25.4338ZM118.862 22.3841C115.644 22.9928 114.458 26.213 119.035 25.1795C119.092 25.1667 119.149 25.1527 119.205 25.1376C119.95 24.9278 122.234 24.1647 122.11 23.1558C121.757 22.3397 119.624 22.3088 118.862 22.3841ZM109.041 22.7913C109.861 22.4493 110.859 21.863 111.167 21.001C111.78 19.289 110.465 19.2039 109.3 19.303C106.518 20.207 106.337 23.2902 109.041 22.7913Z" fill="black"/>
<path d="M65.1963 9.31286C65.962 9.22079 66.7199 9.25828 67.4864 9.29634C67.6367 9.40846 67.7798 9.53007 67.9146 9.66044C69.8191 11.4685 70.492 13.5697 70.5613 16.1368C80.0446 16.3233 89.8161 16.1471 99.3321 16.2163L99.3283 17.3818C97.7295 17.499 95.2547 17.4145 93.5583 17.4141L81.5344 17.4253L81.5314 18.8605C84.8229 18.3856 87.5757 17.6694 87.6869 22.0994C87.7244 23.617 87.7237 25.0751 87.6921 26.5991C87.2631 26.457 86.8296 26.3197 86.4096 26.1486C86.0678 26.0097 86.1144 25.9189 85.886 25.6629C85.4119 25.7233 85.0017 26.04 84.5073 26.2027C82.9754 26.8751 79.3393 26.5703 78.8133 24.6587C78.0914 22.0353 82.4991 20.5345 84.481 21.0253C84.7973 21.1036 85.919 21.4351 85.9574 21.4229C86.1452 19.3157 83.4089 19.9732 82.1693 20.1114C81.409 20.1961 80.4924 20.7619 79.7701 20.81C79.4257 20.5365 79.8981 19.9483 80.1122 19.6941C80.1295 18.9504 80.1197 18.1638 80.1227 17.4164L70.5578 17.4226L70.5556 20.7781C72.0679 19.4416 73.3676 18.0533 75.5698 18.9221C76.5674 19.3229 77.3673 20.1003 77.7968 21.0865C78.1647 22.4539 77.7995 23.7246 76.8019 24.7048C74.1897 27.2715 72.8877 26.9357 70.4939 24.7222C70.4964 25.3002 70.436 25.9811 70.3984 26.5653C69.8029 26.3648 69.2008 26.1082 68.6173 25.8701L68.6231 17.4249C67.8723 17.3511 66.7216 17.3951 65.9468 17.4021C64.6218 17.4132 63.2967 17.4169 61.9717 17.413C57.4652 17.4132 52.8851 17.3699 48.3878 17.4277L48.3733 21.2286C48.3693 22.6515 48.1054 25.3582 49.8879 25.8352C50.8979 26.0794 51.9336 25.8719 52.6913 25.1361C54.353 23.5226 53.8335 20.9643 53.8641 18.8528C54.4594 18.7989 55.4153 18.8386 56.0449 18.8486C56.032 19.3293 56.02 19.8112 56.0031 20.292C55.9258 22.4884 56.2393 24.7661 56.0175 26.9552C55.3844 26.7183 54.5625 26.3736 53.9231 26.108C53.8244 26.067 53.8448 25.7288 53.8014 25.5265C53.6544 25.5024 53.0067 25.8303 52.8465 25.9185C51.0321 26.9168 48.887 26.6509 47.3812 25.1845C46.0375 23.876 46.3166 21.8185 46.3608 20.07C46.3758 19.1861 46.3687 18.302 46.3395 17.4185L45.1172 17.4081L45.1194 16.2167C47.6968 16.1684 50.2927 16.2039 52.8744 16.1985L68.6227 16.1474C68.6803 13.9997 66.9321 10.6042 65.1963 9.31286ZM74.9078 25.4773C75.5593 25.3127 76.1124 24.9991 76.465 24.4024C76.7564 23.9042 76.8389 23.3109 76.6947 22.7521C76.2985 21.2248 74.4534 19.9499 72.8656 20.1343C68.4578 20.7836 72.3503 25.2303 74.9078 25.4773ZM82.5938 25.2049C83.4044 25.0108 85.8785 24.2881 85.8364 23.2163C85.5374 22.3801 83.5554 22.2519 82.859 22.3935C79.4445 22.827 77.73 26.0118 82.4991 25.2218C82.5307 25.2167 82.5622 25.2109 82.5938 25.2049Z" fill="black"/>
<path d="M17.0601 13.1181C17.2068 12.7536 17.3773 12.5272 17.7103 12.3221L17.712 12.568L17.7875 12.6176C17.9252 12.5471 17.9662 12.2889 18.1712 12.1636L18.1941 12.5491L18.2822 12.5366C18.3809 12.302 18.5999 11.8232 18.6398 11.5933L18.3222 11.4525C18.4323 11.2437 19.6992 11.1316 19.943 10.9815C20.0394 10.9221 19.7872 10.8303 19.7915 10.634C20.2669 10.5876 20.7711 11.0145 21.0788 10.9074C20.961 10.7815 20.8712 10.6764 20.7632 10.5421C20.9251 10.4035 21.2956 10.675 21.6206 10.7047C21.9381 10.7337 21.7764 10.4537 22.2013 10.367C22.5226 10.3014 22.8555 10.5445 23.1478 10.4435L23.0807 10.2333C23.4164 10.09 23.9822 10.5496 24.3491 10.18C24.2795 10.0806 24.2168 9.98895 24.1524 9.88608C25.1748 9.71017 25.7223 10.7461 25.9192 10.7465C27.7535 10.7501 27.3246 11.4737 28.0175 12.5682L28.1424 12.4263L28.3488 12.6799C28.4345 12.8221 28.4617 12.8694 28.512 13.0273C28.5791 13.4733 28.5819 13.6396 28.5637 14.0909L28.4967 14.6376L28.1252 14.0496C28.2994 13.9805 28.2525 14.0261 28.3388 13.8739C28.283 13.6442 28.0464 13.1997 27.8062 13.1518C27.7284 13.1363 27.7995 13.0606 27.7316 12.9878L27.7604 13.3664L27.6326 13.4564C27.7335 13.6851 28.278 14.7788 28.4435 14.9093C28.6155 15.3456 29.006 16.6791 29.0189 17.1402L29.076 17.1727L29.2156 16.8777C29.2723 16.6662 29.2458 16.2682 29.3164 15.9394C29.7155 16.3228 29.8943 16.4351 29.9083 16.9995C29.8982 17.0259 29.8382 17.1833 29.8279 17.196C29.3407 17.7893 30.1731 18.002 29.7219 18.6731C29.4326 18.6679 28.2459 17.5014 27.993 17.2379C27.9054 17.1457 27.8224 17.0493 27.7444 16.9488C26.5704 16.8136 26.0318 16.8635 24.873 16.987L24.8668 16.792L24.8774 16.6979C24.7905 16.6494 24.6032 16.5363 24.5168 16.5153C24.2648 16.5879 23.6878 16.7261 23.515 16.8757C23.64 16.9696 23.8846 16.9518 24.0648 16.9545L23.9873 17.2209C22.7499 17.5099 20.8084 16.8285 19.0665 16.8538L18.9573 16.6735C17.9828 15.8045 17.7015 15.5382 17.1814 14.3209L17.1786 14.2415L17.316 14.0953C17.764 14.9701 18.3814 15.8607 19.2752 16.3291C18.8157 15.8373 18.3286 15.3153 17.9738 14.7412L18.122 14.7009L18.2838 14.8271L18.3726 14.8021C18.0549 14.284 17.7389 13.656 17.4552 13.1114C17.3931 13.2716 17.477 13.47 17.5265 13.6439L17.4157 13.6867C17.3529 13.4464 17.3407 13.3772 17.1743 13.1945L17.0601 13.1181ZM23.0985 15.1669C22.6578 14.753 20.1055 12.3145 19.7442 12.1841C20.2688 13.2648 21.8813 15.0123 23.0985 15.1669ZM22.82 15.75C21.4746 15.2424 20.1714 14.6803 19.2307 13.4967C19.0628 13.2854 18.8746 12.6874 18.7309 12.5757C18.9152 13.6307 19.2061 14.1193 20.0817 14.8051C20.6142 15.2221 22.2055 15.7718 22.82 15.75ZM25.5047 16.4833C26.1325 15.1591 25.5774 13.3664 23.9404 13.3488C24.6382 13.7018 24.8475 13.7483 25.2065 14.5225C25.5003 15.1563 25.3698 15.8918 25.4903 16.4236L25.4946 16.4427C25.498 16.4563 25.5013 16.4697 25.5047 16.4833ZM24.3249 14.4406C24.0098 13.7335 22.7532 12.2264 22.0514 12.0487C22.4022 12.4459 23.9775 14.3722 24.3249 14.4406ZM27.0255 14.2044C26.6487 13.2617 25.8759 12.0315 24.7534 11.908C25.5068 12.5183 26.2421 13.1164 26.7897 13.9242C26.8589 14.0263 26.9269 14.1285 27.0255 14.2044ZM22.7178 16.773C21.8286 16.6501 21.2263 16.6066 20.3967 16.2475C20.4899 16.4855 20.521 16.6985 20.7617 16.8045C21.2698 17.0278 22.1535 16.8454 22.7178 16.773ZM25.8742 13.208C24.831 11.9828 22.825 10.6906 21.1548 10.8974C22.4274 11.1978 23.0468 11.4276 24.2204 12.1156C24.5382 12.302 25.6297 13.1382 25.8742 13.208ZM19.9175 11.3836L19.6272 11.3195L19.5633 11.3924C19.7981 11.7414 20.8297 12.5727 21.1872 12.9038C22.3247 13.9572 23.5549 15.2931 24.7724 16.2348C23.5548 14.7012 22.6499 13.3705 21.0893 12.1726L21.0904 11.8576L21.1316 11.7955C20.842 11.5378 20.4433 11.3341 20.0666 11.2443L19.9844 11.3183L19.9175 11.3836ZM24.444 14.995C24.2923 14.8233 24.2787 14.7495 24.0875 14.6936C24.1503 14.9882 24.5862 15.4542 24.8348 15.6144C24.8897 15.6498 24.9481 15.6795 25.0091 15.7029L25.1149 15.7321C25.2877 16.0427 25.224 16.3774 25.3312 16.5834C25.4878 16.3873 25.4475 15.8176 25.3448 15.5932C25.1497 15.1673 24.9569 15.0424 24.5346 14.8752L24.444 14.995ZM25.7009 11.056C25.958 11.5716 26.6825 12.545 27.267 12.6716C26.9949 12.3808 25.947 11.1494 25.7009 11.056ZM21.4389 16.1948C21.0898 16.0321 20.4492 15.7639 20.0728 15.6868C20.3072 16.0709 21.0173 16.1867 21.4389 16.1948ZM25.7895 11.9282C24.8972 11.2448 23.7728 10.6796 22.6137 10.7982C23.2818 10.9636 23.6907 11.071 24.334 11.3305C24.6087 11.4413 25.5953 11.8944 25.7895 11.9282ZM18.5351 14.499C18.7424 14.837 19.3379 15.8243 19.6387 15.9845C19.489 15.6571 19.3316 15.3284 19.1798 15.0031C19.0117 14.6432 18.8615 14.6737 18.6205 14.3918C18.531 14.2131 18.0364 13.1524 17.9122 13.0897C17.9886 13.6645 18.2368 14.0127 18.5351 14.499ZM22.2472 11.8341C22.6975 12.0806 23.0346 12.2366 23.5069 12.4399C23.0839 12.1527 22.7224 11.8892 22.2467 11.6905C21.7627 11.4623 20.7804 11.0036 20.2644 11.0143C20.8673 11.3526 21.602 11.5105 22.2472 11.8341ZM25.9146 15.0688C26.2372 15.482 26.5568 15.8092 27.016 16.0704L27.1462 16.07C27.0018 15.6308 27.0445 15.612 26.5702 15.3694C26.4379 15.3018 26.0369 15.1045 25.9146 15.0688ZM28.9532 17.6596C28.7435 16.7385 28.2108 15.6697 27.1588 15.5133C27.7897 15.9409 28.1283 16.1861 28.4767 16.8774C28.5922 17.1064 28.7392 17.54 28.9532 17.6596ZM23.9425 12.3454C24.2996 12.6221 25.9828 14.3166 26.0542 14.3472C25.5549 13.5673 24.9021 12.6011 23.9425 12.3454ZM26.0469 12.358C26.7895 13.0199 26.906 13.1494 27.2821 14.096C27.3635 14.301 27.4366 14.5477 27.5786 14.7159C27.5036 13.7955 27.0453 12.6082 26.0469 12.358ZM19.4105 12.9432C19.8292 13.653 21.0109 14.9367 21.8307 15.0709C21.5695 14.8671 19.3934 12.9348 19.4105 12.9432Z" fill="black" fill-opacity="0.988235"/>
<path d="M24.7723 16.2347C23.5548 15.2931 22.3246 13.9572 21.1871 12.9038C20.8296 12.5727 19.798 11.7414 19.5632 11.3924L19.6271 11.3195L19.9174 11.3836C20.304 11.6525 20.6946 11.9155 21.0892 12.1725C22.6498 13.3705 23.5547 14.7011 24.7723 16.2347Z" fill="black" fill-opacity="0.0117647"/>
<path d="M19.7441 12.1841C20.1054 12.3145 22.6577 14.7529 23.0984 15.1669C21.8812 15.0122 20.2687 13.2648 19.7441 12.1841Z" fill="black" fill-opacity="0.01"/>
<path d="M18.731 12.5757C18.8747 12.6874 19.0629 13.2854 19.2308 13.4967C20.1714 14.6803 21.4747 15.2424 22.8201 15.75C22.2056 15.7718 20.6143 15.2221 20.0817 14.8051C19.2062 14.1193 18.9153 13.6307 18.731 12.5757Z" fill="black" fill-opacity="0.0235294"/>
<path d="M21.155 10.8973C22.8253 10.6905 24.8312 11.9827 25.8744 13.2079C25.63 13.1382 24.5385 12.3019 24.2206 12.1156C23.047 11.4276 22.4276 11.1978 21.155 10.8973Z" fill="black" fill-opacity="0.0313725"/>
<path d="M23.9404 13.3488C25.5775 13.3664 26.1326 15.1591 25.5048 16.4833C25.5014 16.4697 25.498 16.4563 25.4947 16.4427L25.4904 16.4236C25.3699 15.8918 25.5004 15.1563 25.2065 14.5225C24.8476 13.7483 24.6382 13.7018 23.9404 13.3488Z" fill="black" fill-opacity="0.0431373"/>
<path d="M22.0513 12.0487C22.7531 12.2264 24.0096 13.7335 24.3247 14.4406C23.9773 14.3722 22.4021 12.4459 22.0513 12.0487Z" fill="black" fill-opacity="0.0431373"/>
<path d="M24.7537 11.908C25.8761 12.0314 26.6489 13.2616 27.0258 14.2043C26.9271 14.1284 26.8591 14.0263 26.7899 13.9242C26.2423 13.1164 25.507 12.5182 24.7537 11.908Z" fill="black" fill-opacity="0.0352941"/>
<path d="M20.397 16.2474C21.2266 16.6066 21.8289 16.6501 22.7181 16.773C22.1538 16.8453 21.2701 17.0278 20.762 16.8044C20.5213 16.6985 20.4902 16.4855 20.397 16.2474Z" fill="black" fill-opacity="0.0156863"/>
<path d="M22.6138 10.7982C23.7729 10.6795 24.8973 11.2448 25.7896 11.9282C25.5954 11.8944 24.6088 11.4413 24.3341 11.3305C23.6908 11.071 23.2818 10.9636 22.6138 10.7982Z" fill="black" fill-opacity="0.054902"/>
<path d="M19.4105 12.9431C19.3934 12.9347 21.5695 14.8671 21.8307 15.0708C21.0109 14.9367 19.8292 13.653 19.4105 12.9431Z" fill="black" fill-opacity="0.113725"/>
<path d="M26.0469 12.358C27.0453 12.6082 27.5036 13.7955 27.5786 14.7159C27.4366 14.5477 27.3635 14.301 27.2821 14.0961C26.906 13.1495 26.7895 13.0199 26.0469 12.358Z" fill="black" fill-opacity="0.0745098"/>
<path d="M27.1587 15.5132C28.2107 15.6696 28.7434 16.7384 28.9531 17.6595C28.7391 17.5399 28.5921 17.1063 28.4766 16.8773C28.1282 16.186 27.7896 15.9409 27.1587 15.5132Z" fill="black" fill-opacity="0.0627451"/>
<path d="M23.9424 12.3453C24.902 12.601 25.5548 13.5673 26.0541 14.3472C25.9827 14.3165 24.2996 12.622 23.9424 12.3453Z" fill="black" fill-opacity="0.0941176"/>
<path d="M18.6206 14.3918C18.8615 14.6737 19.0118 14.6432 19.1799 15.0031C19.3317 15.3284 19.489 15.6571 19.6387 15.9845C19.338 15.8243 18.7424 14.837 18.5352 14.499L18.6206 14.3918Z" fill="black" fill-opacity="0.0470588"/>
<path d="M25.9146 15.0687C26.0369 15.1044 26.4379 15.3017 26.5702 15.3694C27.0445 15.612 27.0018 15.6308 27.1462 16.0699L27.016 16.0704C26.5568 15.8092 26.2372 15.482 25.9146 15.0687Z" fill="black" fill-opacity="0.0117647"/>
<path d="M25.7009 11.0559C25.9471 11.1494 26.995 12.3808 27.267 12.6716C26.6826 12.5449 25.958 11.5715 25.7009 11.0559Z" fill="black" fill-opacity="0.101961"/>
<path d="M22.2472 11.8341C21.602 11.5104 20.8673 11.3525 20.2644 11.0142C20.7805 11.0036 21.7627 11.4622 22.2467 11.6905L22.2472 11.8341Z" fill="black" fill-opacity="0.0980392"/>
<path d="M24.5347 14.8752C24.957 15.0425 25.1498 15.1674 25.3449 15.5932C25.4477 15.8177 25.4879 16.3874 25.3313 16.5834C25.2241 16.3774 25.2878 16.0427 25.1151 15.7322C25.0983 15.3111 24.8483 15.1667 24.5347 14.8752Z" fill="black" fill-opacity="0.0784314"/>
<path d="M18.5353 14.4989C18.2369 14.0126 17.9888 13.6644 17.9124 13.0896C18.0365 13.1523 18.5312 14.2131 18.6207 14.3918L18.5353 14.4989Z" fill="black" fill-opacity="0.270588"/>
<path d="M19.9844 11.3182C20.1963 11.4224 20.9091 11.7935 21.0903 11.8575L21.0893 12.1725C20.6947 11.9155 20.3041 11.6524 19.9175 11.3835L19.9844 11.3182Z" fill="black" fill-opacity="0.921569"/>
<path d="M25.009 15.7029C24.948 15.6795 24.8896 15.6498 24.8347 15.6144C24.5861 15.4541 24.1502 14.9881 24.0874 14.6936C24.2787 14.7495 24.2922 14.8233 24.444 14.995C24.5797 15.164 24.8978 15.5396 25.009 15.7029Z" fill="black" fill-opacity="0.294118"/>
<path d="M20.0728 15.6868C20.4492 15.7638 21.0898 16.032 21.4389 16.1947C21.0173 16.1867 20.3072 16.0709 20.0728 15.6868Z" fill="black" fill-opacity="0.0823529"/>
<path d="M19.9844 11.3183L20.0666 11.2443C20.4432 11.3341 20.8419 11.5378 21.1315 11.7955L21.0903 11.8576C20.9091 11.7936 20.1962 11.4225 19.9844 11.3183Z" fill="black" fill-opacity="0.117647"/>
<path d="M24.4438 14.995L24.5344 14.8752C24.848 15.1667 25.098 15.3111 25.1148 15.7322L25.0089 15.7029C24.8976 15.5397 24.5795 15.164 24.4438 14.995Z" fill="black" fill-opacity="0.960784"/>
<path d="M22.2468 11.6906C22.7226 11.8892 23.084 12.1527 23.5071 12.4399C23.0347 12.2367 22.6977 12.0807 22.2474 11.8341L22.2468 11.6906Z" fill="black" fill-opacity="0.32549"/>
<path d="M17.1973 21.9214C18.532 21.4599 20.11 21.3208 21.4673 21.6584C22.9309 22.0226 23.6939 21.916 25.1228 21.566C26.0921 21.3286 27.6454 21.4952 28.6251 21.7283C29.0577 21.8311 29.2412 21.9719 29.4503 22.3691L29.5264 22.4975C29.7707 22.8953 30.0401 23.249 30.3181 23.6224C29.6275 23.6503 29.5663 24.0367 29.2841 24.0297C29.1374 23.4844 29.3439 23.6313 29.5647 23.3672C29.5644 23.3317 29.5613 23.2963 29.5554 23.2614C29.5255 23.0869 28.9787 22.309 28.7946 22.1788C28.2984 22.4397 28.7581 25.9689 25.6903 25.5377C22.9737 25.1559 24.1549 22.8605 23.0421 22.7039C22.6285 23.0074 22.5751 25.4222 20.5972 25.557C18.4225 25.7053 17.8218 23.7566 17.6187 22.0556C17.3777 22.3762 16.8449 23.0346 16.7494 23.3818C16.9377 23.5618 16.9903 23.6132 17.1245 23.8356C17.1279 24.0486 17.1524 23.9727 17.0291 24.1432C16.8455 24.1744 16.8007 23.7848 16.2851 23.7047L16.2621 23.7013L16.1978 23.5764C16.276 23.1896 16.9382 22.3026 17.1973 21.9214ZM26.4278 25.2548C26.9988 25.1402 27.325 25.0766 27.6736 24.5432C28.1515 23.8121 28.28 22.5432 27.4816 21.9806C27.083 21.6996 26.1317 21.6876 25.6616 21.7941C25.4353 21.8196 25.0495 21.8478 24.839 21.9092C23.4294 22.3201 23.7899 24.0866 24.6996 24.8169C25.223 25.2371 25.7819 25.2699 26.4278 25.2548ZM21.117 25.1115C22.0362 24.6804 22.3838 23.8324 22.3158 22.8495C22.2265 21.5611 20.3439 21.7224 19.4269 21.7769C19.03 21.8974 18.6832 21.9857 18.4809 22.3854C18.0282 23.2796 18.4951 24.6113 19.3737 25.0632C19.9519 25.3608 20.5266 25.2865 21.117 25.1115Z" fill="black" fill-opacity="0.972549"/>
<path d="M94.0896 18.4842C97.218 18.2653 99.3961 21.3318 98.3766 24.252C98.0107 25.2989 97.3578 26.026 96.6794 26.8836C96.1129 26.667 95.161 26.0958 94.599 25.7768C95.4029 24.6099 96.7267 24.1192 97.0114 22.444C97.2804 20.8637 97.034 19.6773 95.2699 19.2837C95.1692 19.2806 95.0686 19.279 94.9679 19.2786C93.9551 19.2767 93.0325 19.5982 92.3135 20.3259C90.6299 22.0302 90.8402 24.5558 90.8432 26.769C90.3496 26.6154 89.5675 26.2335 89.125 25.9727L89.1265 18.8444L90.9146 18.8484L90.9259 19.8889C92.1573 19.0863 92.6343 18.6938 94.0896 18.4842Z" fill="black"/>
<path d="M62.9363 18.564C65.9858 18.2616 67.9651 21.0208 64.3909 22.9037L62.7766 21.2966C63.3285 21.1307 63.7981 21.0113 64.2626 20.6525C65.2724 19.8725 64.5487 18.8755 63.4242 19.0284C62.2801 19.184 61.4009 20.0352 60.7076 20.9067C59.7671 22.382 60.1142 24.9273 60.0556 26.8079C59.3925 26.571 58.6798 26.1972 58.042 25.8834C57.9847 25.0434 58.0203 23.847 58.0193 22.9849C58.0177 21.634 57.995 20.1934 58.0448 18.8489C58.5404 18.8355 59.4387 18.7858 59.9601 18.8549C60.1797 18.884 59.9716 19.1801 60.171 19.4036C61.2232 18.944 61.7902 18.6562 62.9363 18.564Z" fill="black"/>
<path d="M141.392 18.4139C141.743 18.4309 142.092 18.482 142.435 18.5666C143.12 18.7323 143.959 19.1888 144.323 19.8124C145.09 21.1269 143.581 22.3024 142.596 22.8792C142.032 22.3626 141.576 21.875 141.123 21.2597C141.62 21.0837 142.21 20.8824 142.597 20.5154C143.563 19.6015 142.618 18.792 141.542 19.0285C140.289 19.3034 139.67 20.0318 138.982 21.0371C138.259 22.3469 138.454 25.2825 138.466 26.8421C138.069 26.7169 137.053 26.1824 136.519 25.9715C136.38 24.0904 136.425 20.6047 136.504 18.7738C136.985 18.7609 138.025 18.6951 138.431 18.8494C138.515 19.0093 138.507 19.1217 138.513 19.3005C138.712 19.3449 139.943 18.7199 140.304 18.6206C140.763 18.4939 140.89 18.4586 141.392 18.4139Z" fill="black"/>
<path d="M31.6034 19.8413C33.4594 23.008 35.5208 26.1397 37.408 29.2965C38.1245 30.495 38.9813 31.761 39.6483 32.9708C39.0884 33.3037 38.4151 33.7258 37.8501 34.0229C37.7854 33.9039 37.5251 33.407 37.4587 33.3311L37.4207 33.2397L32.8762 24.6521C32.443 23.8337 31.087 21.3941 30.8191 20.6959C31.0518 20.4275 31.3441 20.0691 31.6034 19.8413Z" fill="black"/>
<path d="M7.392 32.1703L7.45509 32.2466C7.70265 32.4318 9.59749 32.4188 10.0795 32.4325L18.5228 32.6723L17.6966 34.0707L6.69504 34.4545C6.68693 33.8077 6.65752 33.0498 6.72096 32.4145C6.99297 32.2139 7.0673 32.5498 7.392 32.1703Z" fill="black"/>
<path d="M14.0273 19.8096L14.6744 20.6425L7.45493 32.2466L7.39185 32.1703C8.10234 30.7714 8.8708 29.3052 9.63977 27.9396C11.1359 25.2826 12.4751 22.4236 14.0273 19.8096Z" fill="black" fill-opacity="0.984314"/>
<path d="M21.9331 5.03101C22.5 5.35656 23.228 5.60423 23.5921 6.08041C23.6256 6.35938 23.5585 6.37296 23.409 6.65293L23.3775 6.69753C22.9233 7.28999 22.0546 8.78932 21.6473 9.46023L20.5352 7.61099C20.9961 6.827 21.4931 5.84327 21.9331 5.03101Z" fill="black"/>
<path d="M16.5793 16.1932L16.8564 16.149C17.3921 16.7007 17.733 16.9299 18.5004 17.1015L17.7026 18.0519C17.7782 18.942 17.7914 19.8362 17.7421 20.7281L16.9083 21.0572C16.9248 21.3599 16.9681 22.1297 16.7212 22.3469C16.4227 21.6209 16.4682 19.9693 16.4766 19.1444C16.7289 19.0267 16.9814 18.9392 17.1312 18.7103L17.0878 18.6693L16.3893 18.9596L16.3083 18.9172C16.3249 18.8975 16.3413 18.8775 16.3575 18.8575C16.5525 18.616 16.655 18.4905 16.6243 18.199L16.4428 18.0675C16.4559 17.7484 16.7899 17.6443 16.811 17.2836C16.6927 17.3039 16.6491 17.3166 16.5316 17.2924C16.6318 16.7054 16.6123 16.9022 16.3754 16.3251L16.5793 16.1932Z" fill="black"/>
<path d="M28.1327 32.9402C29.6816 32.9628 31.2212 33.0214 32.769 33.0717C34.299 33.1215 35.898 33.1198 37.4209 33.2397L37.459 33.3311C34.2332 33.3863 30.9373 33.6381 27.7275 33.6477L28.1327 32.9402Z" fill="black" fill-opacity="0.972549"/>
<path d="M28.5531 18.1825C28.9985 18.5939 29.2274 18.8443 29.7965 19.0711C29.9584 20.1372 29.8748 21.4835 29.526 22.4975L29.4499 22.3691C29.4644 21.9765 29.466 21.5475 29.5443 21.1648C29.2069 20.8116 28.935 20.6336 28.5344 20.352L28.5531 18.1825Z" fill="black"/>
<path d="M16.1604 14.5317C16.2979 14.2294 16.4856 13.2531 16.72 13.1565L16.8291 13.5632C16.9417 13.4877 16.9995 13.2677 17.0602 13.118L17.1744 13.1945C17.1423 13.5174 17.173 13.7965 17.3161 14.0953L17.1787 14.2415L17.1815 14.3208C17.2293 15.3159 18.0056 16.37 18.9574 16.6735L19.0666 16.8538L18.5806 17.0035C17.9347 16.8885 17.3491 16.2026 17.0575 15.6483L17.0801 15.8031C16.7161 15.2967 16.86 14.6504 16.6942 14.278C16.4935 14.5676 16.5231 15.1528 16.5403 15.4947L16.2343 15.6537C16.3358 15.1839 16.2566 15.0104 16.1604 14.5317Z" fill="black" fill-opacity="0.988235"/>
<path d="M16.54 15.4947C16.5227 15.1528 16.4931 14.5676 16.6939 14.278C16.8597 14.6504 16.7158 15.2967 17.0797 15.8031L17.0571 15.6483C17.3488 16.2026 17.9344 16.8885 18.5803 17.0034L18.5001 17.1016C17.7327 16.9299 17.3918 16.7007 16.856 16.1491C16.7519 15.9304 16.6465 15.7122 16.54 15.4947Z" fill="black" fill-opacity="0.0196078"/>
<path d="M28.3489 12.6798L28.4598 12.3778C29.0836 12.5744 29.2413 13.8452 28.9673 14.324C28.9753 14.31 29.1364 14.4433 29.1615 14.5173C28.9498 14.6027 28.7724 14.673 28.5708 14.7803L28.4968 14.6375L28.5638 14.0908L28.6329 14.0608C28.8074 13.8434 28.7861 13.076 28.5891 12.8695L28.5121 13.0272C28.4618 12.8693 28.4346 12.822 28.3489 12.6798Z" fill="black" fill-opacity="0.960784"/>
<path d="M29.1615 14.5173L29.0425 14.838L28.8519 14.9612C29.0211 15.8749 29.1715 15.7577 29.2157 16.8776L29.0761 17.1727L29.019 17.1401C29.0061 16.6791 28.6156 15.3455 28.4436 14.9092L28.5708 14.7803C28.7724 14.673 28.9498 14.6027 29.1615 14.5173Z" fill="black" fill-opacity="0.0156863"/>
<path d="M16.4459 26.4622C17.0035 27.0575 17.3253 27.3192 16.7973 28.0886C16.0011 27.9513 16.3725 27.3285 16.5206 26.8057C16.5207 26.8052 16.4529 26.4946 16.4459 26.4622Z" fill="black"/>
<path d="M17.1742 13.1945C17.3407 13.3772 17.3528 13.4463 17.4156 13.6866C17.5249 13.9598 17.7745 14.5266 17.9737 14.7411C18.3285 15.3152 18.8156 15.8372 19.2751 16.329C18.3813 15.8606 17.7639 14.97 17.3159 14.0952C17.1728 13.7965 17.1421 13.5173 17.1742 13.1945Z" fill="black" fill-opacity="0.0392157"/>
<path d="M29.7462 26.6633L29.8095 26.727C29.8947 27.2646 30.0347 27.8283 29.4887 28.1333C28.6466 26.9808 29.4653 27.2573 29.7462 26.6633Z" fill="black" fill-opacity="0.988235"/>
<path d="M23.3774 6.69756L23.4089 6.65295C23.6981 6.84204 25.0084 8.90604 24.8496 9.29089C24.6063 9.19591 23.6565 7.10002 23.3774 6.69756Z" fill="black" fill-opacity="0.858824"/>
<path d="M29.2156 16.8776C29.1714 15.7577 29.0209 15.8749 28.8518 14.9612L29.0423 14.838L29.1751 14.9714L29.4876 14.9454C29.5579 15.2255 29.2498 15.6553 29.3163 15.9394C29.2458 16.2681 29.2722 16.6661 29.2156 16.8776Z" fill="black" fill-opacity="0.937255"/>
<path d="M17.1816 14.3208C17.7018 15.5382 17.9831 15.8045 18.9575 16.6734C18.0057 16.37 17.2294 15.3158 17.1816 14.3208Z" fill="black" fill-opacity="0.0980392"/>
<path d="M24.5167 16.5153C24.6032 16.5363 24.7904 16.6494 24.8773 16.6979L24.8667 16.7919C24.5867 16.8616 24.3545 16.9238 24.0648 16.9545C23.8845 16.9517 23.6399 16.9695 23.5149 16.8756C23.6877 16.7261 24.2648 16.5879 24.5167 16.5153Z" fill="black" fill-opacity="0.0156863"/>
<path d="M27.6326 13.4564L27.7604 13.3664L27.7316 12.9878C27.7995 13.0607 27.7284 13.1363 27.8062 13.1519C28.0464 13.1997 28.283 13.6442 28.3388 13.8739C28.2525 14.0261 28.2994 13.9805 28.1252 14.0496C27.9701 13.7865 27.8944 13.6256 27.6326 13.4564Z" fill="black" fill-opacity="0.843137"/>
<path d="M17.5264 13.6438C17.477 13.4699 17.393 13.2716 17.4551 13.1113C17.7389 13.6559 18.0549 14.284 18.3725 14.802L18.2837 14.827L18.1219 14.7008L17.5264 13.6438Z" fill="black" fill-opacity="0.105882"/>
<path d="M27.6326 13.4564C27.8944 13.6256 27.9701 13.7865 28.1252 14.0496L28.4967 14.6376L28.5707 14.7804L28.4435 14.9093C28.278 14.7788 27.7335 13.6851 27.6326 13.4564Z" fill="black" fill-opacity="0.203922"/>
<path d="M17.1062 25.1314C17.068 24.9973 17.231 26.6266 17.2343 26.5061C16.7391 25.9182 16.6905 25.7763 17.1062 25.1314Z" fill="black" fill-opacity="0.898039"/>
<path d="M17.5265 13.6438L18.122 14.7008L17.9738 14.7411C17.7746 14.5267 17.5251 13.9598 17.4158 13.6867L17.5265 13.6438Z" fill="black" fill-opacity="0.827451"/>
<path d="M100.372 7.37317C100.752 7.33568 101.45 7.2262 101.758 7.46541C101.432 7.50881 100.74 7.52305 100.42 7.46195L100.372 7.37317Z" fill="black" fill-opacity="0.227451"/>
<path d="M16.5404 15.4948C16.6469 15.7123 16.7522 15.9304 16.8564 16.1491L16.5794 16.1932C16.5554 16.0014 16.3699 15.8257 16.2344 15.6537L16.5404 15.4948Z" fill="black" fill-opacity="0.92549"/>
<path d="M24.8668 16.792L24.8729 16.987L23.9873 17.2209L24.0648 16.9545C24.3545 16.9239 24.5868 16.8616 24.8668 16.792Z" fill="black" fill-opacity="0.945098"/>
<path d="M28.512 13.0273L28.589 12.8695C28.786 13.076 28.8073 13.8434 28.6328 14.0609L28.5637 14.0908C28.5819 13.6395 28.5791 13.4732 28.512 13.0273Z" fill="black" fill-opacity="0.32549"/>
<path d="M29.288 25.182C29.4376 25.3453 29.4508 25.3921 29.51 25.6047C29.4907 25.8692 29.356 26.0142 29.1989 26.2237L29.1299 26.208C29.2494 25.7768 29.2964 25.6301 29.288 25.182Z" fill="black" fill-opacity="0.894118"/>
<path d="M18.2972 29.2748C18.574 29.4296 18.9423 29.671 19.2311 29.5398C20.3548 29.0293 20.9914 27.1785 22.6412 27.998C22.9665 28.1596 22.9996 28.3003 23.3399 28.2906C23.8143 27.9381 24.061 27.705 24.6808 27.8187C26.9665 28.2377 27.3719 31.7002 29.0152 27.7312C28.9627 31.3844 27.559 31.2669 26.0932 34.1063C25.3427 34.5125 24.7702 34.748 23.9516 35H22.587C21.4922 34.6238 20.9894 34.2893 20.0172 33.6799C18.8597 31.1008 17.5862 31.2715 17.4338 27.6676C17.8235 28.2396 18.0471 28.6248 18.2972 29.2748ZM22.5197 32.4638C22.5998 31.6545 22.5317 31.0517 23.4747 30.9883C24.1652 31.6786 23.698 32.4479 24.4309 32.5127C25.3297 32.5922 25.9428 30.579 26.512 30.4641C26.5863 30.6402 26.5998 30.7396 26.6328 30.924C26.9327 31.0371 27.4158 30.6245 27.5399 30.3241C27.1499 30.1192 24.4037 30.6436 23.6649 29.3572C23.6471 29.3261 23.2732 28.8231 23.2622 28.8129C21.5532 31.0059 19.4293 29.9544 19.0098 30.334C19.1124 30.6092 19.5835 30.9981 19.875 30.9593C19.9047 30.8058 19.9337 30.6522 19.9617 30.4984L20.0679 30.4603C20.5713 30.7314 20.7886 31.4727 21.0536 31.99C21.5702 32.2572 21.944 32.3611 22.5197 32.4638Z" fill="black"/>
</g>
<defs>
<clipPath id="clip0_3376_19172">
<rect width="153.75" height="30" fill="white" transform="translate(5 5)"/>
</clipPath>
</defs>
</svg>
