<svg width="113" height="40" viewBox="0 0 113 40" fill="none" xmlns="http://www.w3.org/2000/svg">
<path d="M38.7583 9.77674C39.9534 9.67864 42.0024 9.67318 43.2537 9.73928C46.4183 9.90651 50.1207 9.03058 52.7577 11.1041C55.6856 13.4064 55.6442 17.9648 52.9935 20.4269C52.1503 21.2101 51.067 21.7046 49.9119 21.7773C48.1162 21.8403 46.2054 21.8021 44.4131 21.7993C42.4624 21.8078 40.5116 21.7987 38.5611 21.7722C37.6437 21.7674 36.596 21.8014 35.6924 21.76C35.9973 26.0209 37.9096 25.7168 41.4192 25.7155L46.9307 25.7133L50.585 25.7049C51.0843 25.7039 52.1088 25.6764 52.573 25.7542C52.9501 25.8182 53.3089 25.9628 53.6251 26.1781C54.1215 26.5176 54.468 27.0109 54.5759 27.6063C54.6846 28.1897 54.5554 28.7923 54.2169 29.2798C53.3899 30.4655 52.1638 30.2507 50.9262 30.2793C49.5389 30.3114 48.1587 30.2377 46.776 30.2302L41.531 30.23C40.4213 30.231 39.2163 30.3035 38.1468 30.1235C34.6086 29.528 32.0756 27.4158 31.57 23.7688C31.3447 22.6535 31.3864 21.5701 31.3462 20.4512C31.1529 15.0739 32.9388 10.7592 38.7583 9.77674ZM46.7057 17.3714C47.343 17.3738 48.9538 17.4632 49.4405 17.3334C51.2679 16.846 50.8893 14.28 49.021 14.0431C47.9403 13.9061 47.0072 14.038 45.9328 13.9896C44.0722 14.011 42.1688 13.958 40.3189 13.9962C40.233 13.9982 40.147 14.0013 40.0611 14.0053C37.9416 14.1234 36.5144 15.3017 36.0589 17.378L46.7057 17.3714Z" fill="#102548"/>
<path d="M64.2481 9.72744C64.4085 9.71945 64.5688 9.71428 64.7297 9.71186L71.3472 9.70876C74.1339 9.70927 76.4153 9.41171 78.5522 11.5059C82.0882 14.9719 79.8631 21.8306 74.6605 21.767C73.0194 21.747 71.3956 21.7598 69.7736 21.7467L60.9984 21.7412C61.0024 22.168 61.0603 22.6392 61.1402 23.0591C61.7174 26.1079 64.4416 25.6817 66.8047 25.6811L72.7268 25.6798L76.0091 25.671C76.5132 25.6698 77.5321 25.6408 77.9929 25.7351C78.3648 25.8113 78.7142 25.9731 79.0129 26.2075C79.4991 26.5864 79.8226 27.1127 79.8974 27.7281C79.97 28.3061 79.8096 28.8892 79.4512 29.3486C78.5944 30.4316 77.2199 30.2323 75.9945 30.224L72.5102 30.1984L66.9425 30.187C64.0647 30.1792 61.758 30.2414 59.3364 28.3419C57.6604 27.0274 56.9656 24.9812 56.8193 22.8948C56.5886 19.5994 56.4541 15.4005 58.6213 12.6567C59.9441 11.0431 62.2176 9.93646 64.2481 9.72744ZM61.3692 17.3523L71.8407 17.3475C72.6717 17.3533 74.8321 17.5634 75.4122 16.9649C76.5183 15.8234 75.7751 14.2486 74.2909 13.9959C73.3806 13.8755 72.3397 13.9447 71.4136 13.9467L65.5691 13.9507C63.4813 14.0416 61.7062 15.1549 61.3692 17.3523Z" fill="#102548"/>
<path d="M8.26814 9.94798C8.83374 9.84138 10.4304 9.91457 11.0896 9.91552L16.1609 9.91963L21.0773 9.91355C23.6703 9.91091 25.1752 9.74492 27.3205 11.4996C29.4928 13.2764 29.9127 16.2588 28.7634 18.7138C27.741 20.8975 25.0532 22.1356 22.7465 22.0854C19.4799 22.1204 16.2398 22.1305 12.9764 22.1424C12.4688 22.1443 11.9123 22.4225 11.5888 22.8106C11.2842 23.1757 11.136 23.6463 11.1764 24.12C11.41 26.5817 14.1888 25.9866 16.0258 25.9822L23.9617 25.9918C24.9909 25.9912 26.0207 25.9896 27.0495 25.9905C27.7624 25.9912 28.3977 25.9835 28.9777 26.4638C29.8958 27.2242 30.0216 28.6819 29.2431 29.585C28.805 30.0931 28.3619 30.2383 27.7175 30.2887L17.3918 30.2923L14.4077 30.2963C12.4893 30.302 10.9714 30.2912 9.33492 29.112C6.49847 27.0681 5.91307 22.9894 7.97951 20.1847C9.84584 17.6517 12.385 17.7697 15.1865 17.7765L20.4417 17.7908C21.7746 17.7946 23.8784 18.0824 24.7349 16.8752C25.418 15.9126 24.6606 14.8023 23.613 14.5532C22.3915 14.2628 21.0727 14.3625 19.815 14.3621L12.1224 14.3655C10.8119 14.3674 9.50888 14.3992 8.19061 14.332C6.4929 14.2455 5.48052 12.2808 6.48947 10.8894C6.94018 10.2678 7.5396 10.0578 8.26814 9.94798Z" fill="#102548"/>
<path d="M84.3944 10.2848C85.285 10.1042 86.5374 10.8526 86.7079 11.7674C86.8632 12.6002 86.8047 13.5927 86.8035 14.449L86.7957 20.6165C86.7945 21.4837 86.7298 22.9209 86.8525 23.7405C87.2379 26.3168 90.9416 25.8798 92.8815 25.8769L100.615 25.9133C101.814 25.917 103.075 25.8735 104.265 25.9322C105.194 25.9781 106.128 26.7314 106.279 27.6915C106.373 28.3249 106.213 28.9697 105.836 29.4869C105.517 29.919 105.181 30.1161 104.661 30.1966C103.728 30.2336 102.623 30.2043 101.669 30.204L95.9906 30.2022L92.2002 30.2066C89.5975 30.21 87.1625 30.2101 84.9385 28.6444C83.7412 27.8014 82.7234 26.2569 82.4584 24.8125C82.3341 24.1362 82.3892 23.0492 82.3881 22.3404L82.3864 18.4083L82.3875 14.3835C82.3887 12.5852 82.0179 10.618 84.3944 10.2848Z" fill="#102548"/>
<path d="M103.708 19.8848C104.997 19.7887 106.121 20.7524 106.223 22.0407C106.324 23.329 105.365 24.457 104.077 24.5638C102.781 24.6712 101.645 23.7052 101.543 22.4093C101.44 21.1135 102.411 19.9815 103.708 19.8848ZM104.132 24.0409C105.136 23.9023 105.837 22.9766 105.698 21.9731C105.56 20.9696 104.634 20.2681 103.631 20.4062C102.626 20.5443 101.924 21.4702 102.063 22.4742C102.201 23.4781 103.128 24.1796 104.132 24.0409Z" fill="#102548"/>
<path d="M102.971 21.0831C103.531 21.0677 104.639 20.9429 104.863 21.5693C104.835 21.925 104.609 22.1134 104.371 22.3674C104.469 22.7263 104.961 22.9385 104.932 23.298C104.791 23.3977 104.616 23.3565 104.439 23.3397C104.234 23.038 103.953 22.5168 103.607 22.443L103.497 22.5368C103.396 22.7442 103.432 23.1042 103.438 23.3478L102.963 23.356L102.971 21.0831ZM104.29 21.9774C104.32 21.7302 104.345 21.7986 104.255 21.5919C104.049 21.4445 103.695 21.4835 103.433 21.4857C103.441 21.7369 103.402 21.8002 103.52 21.9894C103.695 22.096 104.081 22.0168 104.29 21.9774Z" fill="#102548"/>
</svg>
