<svg width="591" height="74" viewBox="0 0 591 74" fill="none" xmlns="http://www.w3.org/2000/svg">
<path d="M54.5598 30.34L54.5199 65.11H47.0999L47.1398 30.33C47.1398 27.66 44.7398 25.4901 41.7798 25.4901H30.8398V18.79H41.7798C48.8398 18.81 54.5599 23.97 54.5499 30.33L54.5598 30.34Z" fill="#EDEFF7"/>
<path d="M83.4398 65.1498H76.0198L76.0598 30.3698C76.0598 27.6998 73.6598 25.5398 70.6998 25.5298H59.7598V18.8398H70.6998C77.7598 18.8598 83.4798 24.0199 83.4698 30.3799L83.4298 65.1599L83.4398 65.1498Z" fill="#EDEFF7"/>
<path d="M18.2232 31.0843L18.1816 65.0742L25.6016 65.0833L25.6432 31.0933L18.2232 31.0843Z" fill="#EDEFF7"/>
<path d="M18.2402 13.3501L18.2602 0.0800781L25.6802 0.0900726L25.6602 13.3601L18.2402 13.3501Z" fill="#EDEFF7"/>
<path d="M0.0472114 18.7695L0.0390625 25.4395L13.0391 25.4553L13.0472 18.7853L0.0472114 18.7695Z" fill="#EDEFF7"/>
<path d="M273.4 39.8003C274.6 38.0903 274.6 36.2003 274.6 34.5603V28.4903C274.61 22.2503 271.11 19.0803 264.19 19.0803L241.57 19.0503C234.64 19.0503 231.13 22.2003 231.12 28.4403V34.5103C231.12 36.1403 231.11 38.0403 232.29 39.7503C233.02 40.8003 234.84 41.6203 236.1 42.1403C234.65 42.6503 233.36 43.5203 232.5 44.7603C231.58 46.1103 231.1 47.7103 231.09 49.5003V55.9503C231.07 62.1903 234.58 65.3503 241.5 65.3603L264.13 65.3903C271.05 65.3903 274.56 62.2503 274.57 56.0103V49.5603C274.58 47.7703 274.11 46.1703 273.18 44.8203C272.33 43.5803 271.04 42.7003 269.59 42.1903C270.85 41.6703 272.67 40.8503 273.4 39.8003ZM237.98 31.1803C237.98 27.5303 239.96 25.7503 244.04 25.7503H250.25L251.32 25.7403L261.8 25.7703C265.87 25.7703 267.85 27.5603 267.84 31.2103V32.6303C267.84 36.3003 265.86 38.0803 261.78 38.0703L244.02 38.0503C239.95 38.0503 237.97 36.2603 237.98 32.5903V31.1703V31.1803ZM267.83 53.2303C267.83 56.9103 265.85 58.6703 261.77 58.6703L243.98 58.6503C239.91 58.6503 237.93 56.5503 237.94 52.8803V50.2803C237.94 46.5903 239.93 44.7903 244 44.8003L261.79 44.8203C265.86 44.8203 267.84 46.6203 267.83 50.3203V53.2403V53.2303Z" fill="#EDEFF7"/>
<path d="M138.768 30.4499L138.728 65.2199H131.298L131.318 44.8399L108.448 44.8099C105.488 44.8099 103.078 46.9599 103.078 49.6299V53.6599C103.078 56.3199 105.468 58.4899 108.438 58.4899L126.148 58.5099V65.1899L108.428 65.1699C101.368 65.1699 95.6385 59.9999 95.6485 53.6499V49.6199C95.6585 43.2599 101.398 38.1099 108.458 38.1199L131.328 38.1499V30.4299C131.338 27.7599 128.938 25.5899 125.988 25.5899L97.7885 25.5599V18.8799L125.988 18.9099C133.038 18.9099 138.768 24.0799 138.758 30.4399L138.768 30.4499Z" fill="#EDEFF7"/>
<path d="M150.85 65.2299H158.27L158.31 30.46C158.31 27.79 160.72 25.63 163.68 25.64L177.77 25.66V18.9799L163.69 18.96C156.63 18.96 150.9 24.1 150.89 30.46L150.85 65.24V65.2299Z" fill="#EDEFF7"/>
<path d="M191.909 19.0202L191.859 65.2802L184.439 65.2702L184.489 18.9902L191.909 19.0202Z" fill="#EDEFF7"/>
<path d="M202.93 46.05L224.18 65.31H213.75L197.68 50.73C193.63 47.05 193.64 40.72 197.68 37.05L217.67 19.02H228.1L202.93 41.73C201.65 42.88 201.65 44.89 202.93 46.04V46.05Z" fill="#EDEFF7"/>
<path d="M297.6 64.8405V17.0005H319.92C322.93 17.0005 325.37 17.3505 327.22 18.0405C329.07 18.7405 330.46 19.7405 331.39 21.0605C332.32 22.3805 332.94 23.9605 333.27 25.7905C333.59 27.6205 333.76 29.6305 333.76 31.8005C333.76 33.3805 333.61 35.1005 333.31 36.9805C333.01 38.8605 332.36 40.5705 331.36 42.1305C330.36 43.6805 328.8 44.8105 326.67 45.5005L334.53 64.8305H326.19L318.54 45.2905L320.56 46.3305C320.23 46.4705 319.85 46.5505 319.41 46.5705C318.97 46.5905 318.45 46.6005 317.85 46.6005H305.47V64.8205H297.61L297.6 64.8405ZM305.46 39.9505H316.59C318.77 39.9505 320.48 39.8005 321.74 39.5005C322.99 39.2005 323.92 38.7205 324.52 38.0705C325.12 37.4205 325.5 36.5905 325.67 35.5705C325.83 34.5505 325.91 33.3005 325.91 31.8205C325.91 30.3405 325.83 29.0005 325.67 27.9605C325.51 26.9205 325.15 26.0805 324.59 25.4605C324.03 24.8405 323.14 24.3805 321.91 24.1005C320.68 23.8205 319 23.6805 316.87 23.6805H305.47V39.9505H305.46Z" fill="#FC7459"/>
<path d="M340.639 64.8405V17.0005H372.489V23.6705H348.499V37.3705H369.219V44.0405H348.499V58.1505H372.489V64.8305H340.639V64.8405Z" fill="#FC7459"/>
<path d="M392.649 64.8403V23.8903H378.119V17.0103H414.969V23.8903H400.509V64.8403H392.649Z" fill="#FC7459"/>
<path d="M441.179 65.3905C437.889 65.3905 435.129 65.1905 432.909 64.8005C430.679 64.4105 428.889 63.7505 427.519 62.8205C426.149 61.8905 425.109 60.6105 424.389 58.9605C423.669 57.3205 423.179 55.2405 422.929 52.7405C422.669 50.2405 422.549 47.2205 422.549 43.7005V17.0005H430.409V46.1305C430.409 48.8205 430.499 51.0005 430.689 52.6705C430.879 54.3405 431.289 55.6105 431.939 56.4905C432.589 57.3705 433.649 57.9605 435.139 58.2605C436.619 58.5605 438.639 58.7105 441.189 58.7105C443.739 58.7105 445.799 58.5605 447.239 58.2605C448.679 57.9605 449.729 57.3705 450.399 56.4905C451.069 55.6105 451.489 54.3305 451.649 52.6705C451.809 51.0005 451.889 48.8205 451.889 46.1305V17.0005H459.749V43.7005C459.749 47.2205 459.619 50.2405 459.369 52.7405C459.109 55.2405 458.639 57.3205 457.939 58.9605C457.249 60.6105 456.209 61.8905 454.849 62.8205C453.479 63.7505 451.689 64.4105 449.459 64.8005C447.239 65.1905 444.479 65.3905 441.189 65.3905H441.179Z" fill="#FC7459"/>
<path d="M467.879 64.8405V17.0005H490.199C493.209 17.0005 495.649 17.3505 497.499 18.0405C499.349 18.7405 500.739 19.7405 501.669 21.0605C502.599 22.3805 503.219 23.9605 503.549 25.7905C503.869 27.6205 504.039 29.6305 504.039 31.8005C504.039 33.3805 503.889 35.1005 503.589 36.9805C503.289 38.8605 502.639 40.5705 501.639 42.1305C500.639 43.6805 499.079 44.8105 496.949 45.5005L504.809 64.8305H496.469L488.819 45.2905L490.839 46.3305C490.509 46.4705 490.129 46.5505 489.689 46.5705C489.249 46.5905 488.729 46.6005 488.129 46.6005H475.749V64.8205H467.889L467.879 64.8405ZM475.739 39.9505H486.869C489.049 39.9505 490.759 39.8005 492.019 39.5005C493.269 39.2005 494.199 38.7205 494.799 38.0705C495.399 37.4205 495.779 36.5905 495.949 35.5705C496.109 34.5505 496.189 33.3005 496.189 31.8205C496.189 30.3405 496.109 29.0005 495.949 27.9605C495.789 26.9205 495.429 26.0805 494.869 25.4605C494.309 24.8405 493.419 24.3805 492.189 24.1005C490.959 23.8205 489.279 23.6805 487.149 23.6805H475.749V39.9505H475.739Z" fill="#FC7459"/>
<path d="M510.92 64.8405V17.0005H519.05L540.95 50.1005H541.23V17.0005H548.74V64.8405H541.23L518.7 30.7005H518.42V64.8405H510.91H510.92Z" fill="#FC7459"/>
<path d="M573.629 65.3904C571.909 65.3904 570.029 65.3404 567.959 65.2504C565.899 65.1604 563.879 65.0304 561.909 64.8704C559.939 64.7104 558.139 64.5304 556.519 64.3504V57.8804C558.189 58.0204 559.939 58.1604 561.769 58.3004C563.599 58.4404 565.349 58.5404 567.019 58.6104C568.689 58.6804 570.119 58.7104 571.329 58.7104C573.789 58.7104 575.709 58.6004 577.099 58.3604C578.489 58.1304 579.599 57.7604 580.439 57.2504C580.999 56.8804 581.399 56.4204 581.659 55.8604C581.909 55.3004 582.079 54.6404 582.149 53.8804C582.219 53.1104 582.249 52.2704 582.249 51.3404C582.249 50.0904 582.199 49.0504 582.109 48.2104C582.019 47.3804 581.809 46.7304 581.479 46.2604C581.149 45.8004 580.649 45.4604 579.949 45.2504C579.249 45.0404 578.349 44.8704 577.239 44.7304L565.839 43.4104C563.619 43.1304 561.799 42.6604 560.379 41.9804C558.969 41.3104 557.879 40.4204 557.109 39.3004C556.339 38.1804 555.819 36.8704 555.549 35.3404C555.269 33.8104 555.129 32.1204 555.129 30.2604C555.129 27.1604 555.549 24.7004 556.379 22.8904C557.209 21.0804 558.409 19.7004 559.959 18.7504C561.509 17.8004 563.349 17.1704 565.489 16.8704C567.619 16.5704 569.989 16.4204 572.579 16.4204C574.389 16.4204 576.239 16.4804 578.139 16.5904C580.039 16.7104 581.839 16.8504 583.529 17.0104C585.219 17.1704 586.619 17.3904 587.739 17.6704V24.0004C586.579 23.8204 585.229 23.6504 583.669 23.5104C582.119 23.3704 580.509 23.2704 578.839 23.2004C577.169 23.1304 575.619 23.1004 574.179 23.1004C571.769 23.1004 569.829 23.2004 568.369 23.4104C566.909 23.6204 565.789 23.9504 564.999 24.4204C564.069 24.9304 563.519 25.6404 563.329 26.5404C563.139 27.4404 563.049 28.5704 563.049 29.9104C563.049 31.4904 563.149 32.7004 563.359 33.5604C563.569 34.4204 564.059 35.0104 564.819 35.3304C565.589 35.6504 566.749 35.9104 568.329 36.0904L579.729 37.4104C581.169 37.5504 582.459 37.7704 583.619 38.0704C584.779 38.3704 585.809 38.8704 586.709 39.5604C587.609 40.2504 588.319 41.2504 588.829 42.5504C589.149 43.2004 589.399 43.9404 589.559 44.7804C589.719 45.6104 589.859 46.5304 589.979 47.5304C590.089 48.5304 590.149 49.6504 590.149 50.9004C590.149 53.5404 589.879 55.7404 589.349 57.5104C588.819 59.2704 588.069 60.6704 587.119 61.7204C586.169 62.7604 584.999 63.5504 583.609 64.0804C582.219 64.6104 580.689 64.9604 579.019 65.1204C577.349 65.2804 575.539 65.3604 573.599 65.3604L573.629 65.3904Z" fill="#FC7459"/>
</svg>
