<svg width="421" height="74" viewBox="0 0 421 74" fill="none" xmlns="http://www.w3.org/2000/svg">
<path d="M54.5601 30.9098V65.8498H47.1401V30.9098C47.1401 28.2298 44.7401 26.0498 41.7701 26.0498H30.8301V19.3398H41.7701C48.8301 19.3398 54.5501 24.5198 54.5501 30.9098H54.5601Z" fill="#EDEFF7"/>
<path d="M83.48 65.8496H76.06V30.9096C76.06 28.2296 73.66 26.0596 70.69 26.0596H59.75V19.3496H70.69C77.75 19.3496 83.48 24.5296 83.48 30.9196V65.8596V65.8496Z" fill="#EDEFF7"/>
<path d="M25.6387 31.6899H18.2188V65.84H25.6387V31.6899Z" fill="#EDEFF7"/>
<path d="M18.2188 13.8898V0.549805H25.6387V13.8898H18.2188Z" fill="#EDEFF7"/>
<path d="M13.0293 19.3398H0.0292969V26.0398H13.0293V19.3398Z" fill="#EDEFF7"/>
<path d="M273.409 40.1398C274.599 38.4198 274.599 36.5198 274.599 34.8798V28.7898C274.599 22.5198 271.089 19.3398 264.169 19.3398H241.549C234.619 19.3398 231.109 22.5198 231.109 28.7898V34.8798C231.109 36.5198 231.109 38.4198 232.299 40.1398C233.029 41.1898 234.859 42.0198 236.109 42.5398C234.659 43.0498 233.369 43.9298 232.509 45.1698C231.589 46.5298 231.109 48.1298 231.109 49.9298V56.4098C231.109 62.6798 234.619 65.8498 241.539 65.8498H264.169C271.089 65.8498 274.599 62.6798 274.599 56.4098V49.9298C274.599 48.1298 274.129 46.5198 273.199 45.1698C272.349 43.9198 271.059 43.0498 269.599 42.5398C270.859 42.0198 272.679 41.1898 273.399 40.1398H273.409ZM237.979 31.5198C237.979 27.8498 239.959 26.0598 244.029 26.0598L250.239 26.0398H251.309L261.789 26.0598C265.859 26.0598 267.839 27.8498 267.839 31.5198V32.9498C267.839 36.6398 265.859 38.4298 261.789 38.4298H244.029C239.959 38.4298 237.979 36.6398 237.979 32.9498V31.5198ZM267.849 53.6398C267.849 57.3298 265.869 59.1098 261.799 59.1098H244.009C239.939 59.1098 237.959 57.0098 237.959 53.3198V50.7098C237.959 46.9998 239.939 45.1998 244.009 45.1998H261.799C265.869 45.1998 267.849 46.9998 267.849 50.7098V53.6398Z" fill="#EDEFF7"/>
<path d="M138.77 30.9098V65.8398H131.34V45.3798H108.47C105.51 45.3798 103.1 47.5498 103.1 50.2298V54.2798C103.1 56.9498 105.5 59.1298 108.47 59.1298H126.18V65.8398H108.47C101.41 65.8398 95.6797 60.6598 95.6797 54.2798V50.2298C95.6797 43.8398 101.41 38.6598 108.47 38.6598H131.34V30.9098C131.34 28.2298 128.94 26.0498 125.98 26.0498H97.7797V19.3398H125.98C133.03 19.3398 138.76 24.5198 138.76 30.9098H138.77Z" fill="#EDEFF7"/>
<path d="M150.889 65.8496H158.309V30.9096C158.309 28.2296 160.709 26.0596 163.679 26.0596H177.769V19.3496H163.679C156.619 19.3496 150.889 24.5296 150.889 30.9196V65.8596V65.8496Z" fill="#EDEFF7"/>
<path d="M191.898 19.3698V65.8498H184.479V19.3398L191.898 19.3698Z" fill="#EDEFF7"/>
<path d="M202.949 46.5197L224.219 65.8496H213.789L197.709 51.2296C193.659 47.5396 193.659 41.1796 197.709 37.4896L217.669 19.3496H228.099L202.959 42.1896C201.679 43.3496 201.679 45.3597 202.959 46.5197H202.949Z" fill="#EDEFF7"/>
<path d="M315.49 18.1997L297.6 65.1997H299.19L305.16 65.2197L309.86 52.8197L329.12 52.8397L333.79 65.2497H341.41L323.76 18.1997H315.5H315.49ZM326.78 46.2597L312.18 46.2397L319.5 26.7297L326.77 46.2597H326.78Z" fill="#DD4062"/>
<path d="M379.16 25.2C378.44 23.33 377.31 21.86 375.79 20.85C374.31 19.87 372.31 19.18 369.81 18.8C367.38 18.44 364.25 18.2599 360.52 18.2499L345.31 18.23L345.25 65.27L360.46 65.29H360.56C364.27 65.29 367.36 65.1099 369.75 64.7599C372.24 64.3999 374.25 63.71 375.73 62.73C377.25 61.72 378.39 60.26 379.11 58.39C379.8 56.62 380.24 54.3399 380.43 51.6199C380.61 48.9499 380.71 45.65 380.71 41.8C380.71 37.96 380.63 34.66 380.45 31.98C380.27 29.27 379.83 26.99 379.15 25.21L379.16 25.2ZM352.62 24.7599H359.59C362.34 24.7699 364.62 24.84 366.36 24.97C368.02 25.1 369.34 25.41 370.3 25.91C371.18 26.37 371.82 27.13 372.26 28.22C372.73 29.42 373.04 31.1 373.19 33.22C373.34 35.42 373.41 38.3 373.41 41.78C373.41 45.27 373.33 48.1599 373.17 50.3699C373.02 52.5299 372.71 54.2099 372.26 55.3799C371.85 56.4499 371.22 57.19 370.33 57.65C369.38 58.14 368.05 58.46 366.36 58.58C364.59 58.71 362.36 58.77 359.56 58.77H352.59L352.63 24.7599H352.62Z" fill="#DD4062"/>
<path d="M420.079 48.5498C420.009 47.6098 419.909 46.7497 419.779 45.9897C419.639 45.1797 419.419 44.4298 419.149 43.8098C418.659 42.4298 417.899 41.3398 416.889 40.5898C415.929 39.8698 414.769 39.3398 413.449 39.0198C412.189 38.7198 410.739 38.4998 409.169 38.3698L398.149 37.0998C396.619 36.9298 395.469 36.6798 394.739 36.3398C394.149 36.0698 393.789 35.6098 393.609 34.8998C393.389 34.0398 393.279 32.7598 393.279 31.1098C393.279 29.7298 393.399 28.5398 393.629 27.5698C393.819 26.7598 394.289 26.1398 395.089 25.6698C395.869 25.1598 396.959 24.8098 398.329 24.6098C399.769 24.3998 401.709 24.2998 404.089 24.2998C405.459 24.2998 406.939 24.3298 408.509 24.3998C410.099 24.4698 411.629 24.5698 413.059 24.6998C414.549 24.8298 415.859 24.9898 416.969 25.1598L417.909 25.3098V19.0098L417.269 18.8698C416.209 18.6398 414.879 18.4498 413.319 18.2898C411.819 18.1398 410.179 18.0198 408.299 17.9198C406.499 17.8298 404.749 17.7798 403.109 17.7798H403.019C400.439 17.7798 398.109 17.9198 396.089 18.2098C393.979 18.5098 392.149 19.1298 390.659 20.0698C389.119 21.0298 387.929 22.4398 387.139 24.2598C386.369 26.0298 385.969 28.3798 385.969 31.2498C385.969 33.0098 386.079 34.6198 386.299 36.0298C386.529 37.5198 387.009 38.8298 387.699 39.9098C388.419 41.0198 389.489 41.9398 390.889 42.6398C392.249 43.3198 394.039 43.8098 396.239 44.0798L407.539 45.3498C408.879 45.4798 409.959 45.6598 410.749 45.8798C411.409 46.0698 411.869 46.3498 412.129 46.6998C412.409 47.0798 412.589 47.6697 412.659 48.4297C412.739 49.3197 412.779 50.5198 412.779 51.9798C412.779 53.0198 412.739 53.9198 412.679 54.7598C412.619 55.5398 412.459 56.2198 412.189 56.7798C411.949 57.2898 411.579 57.6898 411.059 57.9998C410.189 58.5098 409.089 58.8598 407.799 59.0398C406.459 59.2298 404.609 59.3198 402.299 59.3198C401.179 59.3198 399.779 59.2698 398.159 59.1898C396.519 59.0998 394.829 58.9898 393.099 58.8598C391.359 58.7298 389.709 58.5898 388.129 58.4598L387.239 58.3798V64.8198L387.949 64.9098C389.429 65.0898 391.069 65.2398 392.969 65.3798C394.739 65.5098 396.589 65.6198 398.629 65.7198C400.539 65.8098 402.229 65.8498 403.759 65.8598H404.019C405.839 65.8598 407.559 65.7998 409.139 65.6698C410.779 65.5298 412.279 65.1998 413.619 64.6998C415.009 64.1698 416.199 63.3698 417.169 62.3098C418.129 61.2498 418.879 59.8198 419.399 58.0598C419.909 56.3298 420.169 54.1598 420.169 51.5898C420.169 50.4698 420.139 49.4398 420.069 48.5298L420.079 48.5498Z" fill="#DD4062"/>
</svg>
