<svg width="471" height="74" viewBox="0 0 471 74" fill="none" xmlns="http://www.w3.org/2000/svg">
<path d="M54.5601 30.9797V65.9197H47.1401V30.9797C47.1401 28.2997 44.7401 26.1197 41.7701 26.1197H30.8301V19.4097H41.7701C48.8301 19.4097 54.5501 24.5897 54.5501 30.9797H54.5601Z" fill="#EDEFF7"/>
<path d="M83.48 65.9199H76.06V30.9799C76.06 28.2999 73.66 26.1299 70.69 26.1299H59.75V19.4199H70.69C77.75 19.4199 83.48 24.5999 83.48 30.9899V65.9299V65.9199Z" fill="#EDEFF7"/>
<path d="M25.6387 31.7598H18.2188V65.9098H25.6387V31.7598Z" fill="#EDEFF7"/>
<path d="M18.2188 13.9499V0.609863H25.6387V13.9499H18.2188Z" fill="#EDEFF7"/>
<path d="M13.0293 19.4097H0.0292969V26.1096H13.0293V19.4097Z" fill="#EDEFF7"/>
<path d="M273.409 40.2097C274.599 38.4897 274.599 36.5897 274.599 34.9497V28.8596C274.599 22.5896 271.089 19.4097 264.169 19.4097H241.549C234.619 19.4097 231.109 22.5896 231.109 28.8596V34.9497C231.109 36.5897 231.109 38.4897 232.299 40.2097C233.029 41.2597 234.859 42.0896 236.109 42.6096C234.659 43.1196 233.369 43.9997 232.509 45.2397C231.589 46.5997 231.109 48.1997 231.109 49.9997V56.4797C231.109 62.7497 234.619 65.9197 241.539 65.9197H264.169C271.089 65.9197 274.599 62.7497 274.599 56.4797V49.9997C274.599 48.1997 274.129 46.5897 273.199 45.2397C272.349 43.9897 271.059 43.1196 269.599 42.6096C270.859 42.0896 272.679 41.2597 273.399 40.2097H273.409ZM237.979 31.5897C237.979 27.9197 239.959 26.1297 244.029 26.1297L250.239 26.1096H251.309L261.789 26.1297C265.859 26.1297 267.839 27.9197 267.839 31.5897V33.0197C267.839 36.7097 265.859 38.4997 261.789 38.4997H244.029C239.959 38.4997 237.979 36.7097 237.979 33.0197V31.5897ZM267.849 53.7097C267.849 57.3997 265.869 59.1797 261.799 59.1797H244.009C239.939 59.1797 237.959 57.0797 237.959 53.3897V50.7797C237.959 47.0697 239.939 45.2697 244.009 45.2697H261.799C265.869 45.2697 267.849 47.0697 267.849 50.7797V53.7097Z" fill="#EDEFF7"/>
<path d="M138.77 30.9797V65.9097H131.34V45.4497H108.47C105.51 45.4497 103.1 47.6197 103.1 50.2997V54.3497C103.1 57.0197 105.5 59.1997 108.47 59.1997H126.18V65.9097H108.47C101.41 65.9097 95.6797 60.7297 95.6797 54.3497V50.2997C95.6797 43.9097 101.41 38.7297 108.47 38.7297H131.34V30.9797C131.34 28.2997 128.94 26.1197 125.98 26.1197H97.7797V19.4097H125.98C133.03 19.4097 138.76 24.5897 138.76 30.9797H138.77Z" fill="#EDEFF7"/>
<path d="M150.889 65.9097H158.309V30.9697C158.309 28.2897 160.709 26.1197 163.679 26.1197H177.769V19.4097H163.679C156.619 19.4097 150.889 24.5897 150.889 30.9797V65.9197V65.9097Z" fill="#EDEFF7"/>
<path d="M191.898 19.4397V65.9097H184.479V19.4097L191.898 19.4397Z" fill="#EDEFF7"/>
<path d="M202.949 46.5797L224.219 65.9097H213.789L197.709 51.2897C193.659 47.5997 193.659 41.2397 197.709 37.5497L217.669 19.4097H228.099L202.959 42.2497C201.679 43.4097 201.679 45.4197 202.959 46.5797H202.949Z" fill="#EDEFF7"/>
<path d="M330.88 46.3501C330.74 45.5501 330.52 44.8201 330.26 44.2101C329.77 42.8501 329.03 41.7901 328.04 41.0401C327.09 40.3301 325.95 39.8101 324.66 39.5001C323.43 39.2101 322.01 39.0001 320.44 38.8701L309.59 37.6401C308.09 37.4801 306.96 37.2301 306.23 36.9001C305.65 36.6301 305.29 36.1801 305.11 35.4801C304.89 34.6201 304.78 33.3601 304.78 31.7501C304.78 30.3901 304.89 29.2201 305.12 28.2601C305.31 27.4601 305.77 26.8501 306.56 26.3801C307.33 25.8801 308.4 25.5301 309.75 25.3301C311.18 25.1201 313.09 25.0101 315.41 25.0101C316.76 25.0101 318.22 25.0401 319.76 25.1101C321.3 25.1801 322.8 25.2701 324.24 25.4001C325.69 25.5301 326.98 25.6801 328.09 25.8501L329.01 25.9901V19.7901L328.38 19.6501C327.35 19.4301 326.05 19.2401 324.49 19.0901C322.96 18.9401 321.3 18.8201 319.55 18.7301C317.81 18.6401 316.09 18.6001 314.44 18.6001C311.86 18.6001 309.54 18.7401 307.54 19.0301C305.47 19.3301 303.67 19.9401 302.2 20.8701C300.68 21.8201 299.52 23.2101 298.74 25.0001C297.98 26.7401 297.6 29.0501 297.6 31.8801C297.6 33.6101 297.71 35.1901 297.93 36.5801C298.16 38.0501 298.63 39.3301 299.31 40.4001C300.01 41.4901 301.07 42.4001 302.45 43.0901C303.78 43.7601 305.55 44.2301 307.72 44.5001L318.84 45.7401C320.17 45.8601 321.23 46.0401 322 46.2601C322.64 46.4501 323.1 46.7201 323.36 47.0701C323.64 47.4501 323.82 48.0201 323.89 48.7801C323.97 49.6601 324.02 50.8401 324.02 52.2701C324.02 53.2601 323.99 54.1701 323.93 55.0001C323.87 55.7601 323.71 56.4301 323.45 56.9901C323.21 57.5001 322.85 57.8901 322.34 58.2001C321.49 58.7001 320.41 59.0501 319.13 59.2301C317.79 59.4201 315.97 59.5101 313.72 59.5101C312.59 59.5101 311.22 59.4701 309.64 59.3801C308.07 59.3001 306.44 59.1901 304.66 59.0601C302.95 58.9301 301.32 58.8001 299.76 58.6701L298.89 58.6001V64.9301L299.6 65.0101C301.05 65.1801 302.66 65.3301 304.54 65.4701C306.33 65.6001 308.21 65.7101 310.11 65.8001C312.03 65.8901 313.81 65.9301 315.41 65.9301C317.19 65.9301 318.88 65.8601 320.45 65.7301C322.06 65.5901 323.54 65.2701 324.85 64.7701C326.22 64.2501 327.39 63.4601 328.34 62.4201C329.28 61.3801 330.02 59.9801 330.53 58.2401C331.03 56.5501 331.28 54.4101 331.28 51.8801C331.28 50.7801 331.25 49.7601 331.18 48.8701C331.11 47.9701 331.01 47.1201 330.88 46.3501Z" fill="#52BFBC"/>
<path d="M345.11 19.1201H337.92V65.4101H345.11V19.1201Z" fill="#52BFBC"/>
<path d="M370.069 46.1201H380.199V59.1501C379.679 59.2101 379.059 59.2701 378.339 59.3301C377.319 59.4101 376.269 59.4801 375.189 59.5201C374.119 59.5601 373.119 59.5801 372.229 59.5801C369.889 59.5801 367.909 59.4601 366.339 59.2301C364.859 59.0101 363.669 58.5701 362.809 57.9201C361.959 57.2701 361.279 56.3401 360.799 55.1401C360.289 53.8801 359.949 52.2001 359.789 50.1501C359.619 48.0401 359.529 45.3801 359.529 42.2601C359.529 38.7101 359.669 35.7901 359.949 33.5901C360.219 31.4401 360.659 29.7501 361.259 28.5601C361.829 27.4401 362.619 26.6501 363.679 26.1601C364.799 25.6401 366.259 25.3201 368.039 25.1901C369.909 25.0601 372.189 25.0001 374.839 25.0001C375.669 25.0001 376.709 25.0401 377.929 25.1301C379.169 25.2201 380.509 25.3401 381.899 25.4801C383.339 25.6401 384.749 25.8201 386.079 26.0301L387.009 26.1701V20.0301L386.369 19.9001C385.069 19.6401 383.569 19.4201 381.909 19.2401C380.299 19.0701 378.619 18.9101 376.919 18.7801C375.209 18.6501 373.589 18.5801 372.119 18.5801C368.979 18.5801 366.259 18.7701 364.029 19.1401C361.739 19.5301 359.809 20.2301 358.289 21.2401C356.749 22.2701 355.519 23.7201 354.639 25.5601C353.779 27.3401 353.179 29.6301 352.849 32.3701C352.519 35.0501 352.359 38.3701 352.359 42.2401C352.359 46.1101 352.529 49.4301 352.849 52.1101C353.179 54.8501 353.769 57.1401 354.609 58.9101C355.469 60.7501 356.679 62.2001 358.199 63.2301C359.699 64.2401 361.629 64.9501 363.939 65.3401C366.179 65.7101 368.929 65.9001 372.119 65.9001C373.459 65.9001 374.999 65.8401 376.689 65.7401C378.359 65.6301 380.079 65.4801 381.789 65.2801C383.499 65.0901 385.099 64.8501 386.549 64.5901L387.209 64.4701V39.7501H370.079V46.1001L370.069 46.1201Z" fill="#52BFBC"/>
<path d="M424.169 38.8001H402.389V19.1201H395.199V65.4101H402.389V45.3401H424.169V65.4101H431.349V19.1201H424.169V38.8001Z" fill="#52BFBC"/>
<path d="M435.529 19.1201V25.6601H449.619V65.4101H456.809V25.6601H470.969V19.1201H435.529Z" fill="#52BFBC"/>
</svg>
