<svg width="451" height="74" viewBox="0 0 451 74" fill="none" xmlns="http://www.w3.org/2000/svg">
<path d="M54.5601 30.9597V65.8997H47.1401V30.9597C47.1401 28.2797 44.7401 26.0996 41.7701 26.0996H30.8301V19.3896H41.7701C48.8301 19.3896 54.5501 24.5697 54.5501 30.9597H54.5601Z" fill="#EDEFF7"/>
<path d="M83.48 65.8999H76.06V30.9599C76.06 28.2799 73.66 26.1099 70.69 26.1099H59.75V19.3999H70.69C77.75 19.3999 83.48 24.5799 83.48 30.9699V65.9099V65.8999Z" fill="#EDEFF7"/>
<path d="M25.6387 31.7397H18.2188V65.8898H25.6387V31.7397Z" fill="#EDEFF7"/>
<path d="M18.2188 13.9298V0.589844H25.6387V13.9298H18.2188Z" fill="#EDEFF7"/>
<path d="M13.0293 19.3896H0.0292969V26.0896H13.0293V19.3896Z" fill="#EDEFF7"/>
<path d="M273.409 40.1896C274.599 38.4696 274.599 36.5696 274.599 34.9296V28.8397C274.599 22.5697 271.089 19.3896 264.169 19.3896H241.549C234.619 19.3896 231.109 22.5697 231.109 28.8397V34.9296C231.109 36.5696 231.109 38.4696 232.299 40.1896C233.029 41.2396 234.859 42.0697 236.109 42.5897C234.659 43.0997 233.369 43.9796 232.509 45.2196C231.589 46.5796 231.109 48.1796 231.109 49.9796V56.4597C231.109 62.7297 234.619 65.8997 241.539 65.8997H264.169C271.089 65.8997 274.599 62.7297 274.599 56.4597V49.9796C274.599 48.1796 274.129 46.5696 273.199 45.2196C272.349 43.9696 271.059 43.0997 269.599 42.5897C270.859 42.0697 272.679 41.2396 273.399 40.1896H273.409ZM237.979 31.5696C237.979 27.8996 239.959 26.1096 244.029 26.1096L250.239 26.0896H251.309L261.789 26.1096C265.859 26.1096 267.839 27.8996 267.839 31.5696V32.9996C267.839 36.6896 265.859 38.4796 261.789 38.4796H244.029C239.959 38.4796 237.979 36.6896 237.979 32.9996V31.5696ZM267.849 53.6896C267.849 57.3796 265.869 59.1596 261.799 59.1596H244.009C239.939 59.1596 237.959 57.0596 237.959 53.3696V50.7596C237.959 47.0496 239.939 45.2496 244.009 45.2496H261.799C265.869 45.2496 267.849 47.0496 267.849 50.7596V53.6896Z" fill="#EDEFF7"/>
<path d="M138.77 30.9597V65.8896H131.34V45.4296H108.47C105.51 45.4296 103.1 47.5997 103.1 50.2797V54.3297C103.1 56.9997 105.5 59.1796 108.47 59.1796H126.18V65.8896H108.47C101.41 65.8896 95.6797 60.7097 95.6797 54.3297V50.2797C95.6797 43.8897 101.41 38.7097 108.47 38.7097H131.34V30.9597C131.34 28.2797 128.94 26.0996 125.98 26.0996H97.7797V19.3896H125.98C133.03 19.3896 138.76 24.5697 138.76 30.9597H138.77Z" fill="#EDEFF7"/>
<path d="M150.889 65.8896H158.309V30.9496C158.309 28.2696 160.709 26.0996 163.679 26.0996H177.769V19.3896H163.679C156.619 19.3896 150.889 24.5697 150.889 30.9597V65.8997V65.8896Z" fill="#EDEFF7"/>
<path d="M191.898 19.4196V65.8896H184.479V19.3896L191.898 19.4196Z" fill="#EDEFF7"/>
<path d="M202.949 46.5596L224.219 65.8896H213.789L197.709 51.2697C193.659 47.5797 193.659 41.2197 197.709 37.5297L217.669 19.3896H228.099L202.959 42.2296C201.679 43.3896 201.679 45.3996 202.959 46.5596H202.949Z" fill="#EDEFF7"/>
<path d="M330.33 42.8603C331.39 41.3603 332.09 39.6503 332.4 37.7903C332.7 36.0103 332.85 34.2603 332.85 32.5903C332.85 30.6603 332.72 28.8103 332.45 27.1003C332.17 25.3203 331.59 23.7303 330.71 22.3803C329.81 20.9803 328.41 19.9003 326.56 19.1503C324.77 18.4303 322.36 18.0603 319.4 18.0603L297.66 18.0303L297.6 65.2202H304.94L304.96 47.1602L317.71 47.1803C318.16 47.1803 318.55 47.1802 318.88 47.1602L326 65.2603H333.87L326.08 46.0003C327.95 45.2803 329.38 44.2303 330.34 42.8703L330.33 42.8603ZM304.99 24.5803L317.41 24.6003C319.44 24.6003 321.04 24.7803 322.16 25.1303C323.2 25.4503 323.95 25.9103 324.39 26.5003C324.85 27.1203 325.16 27.9003 325.29 28.8403C325.44 29.8803 325.51 31.1503 325.51 32.6003C325.51 34.0403 325.42 35.3003 325.25 36.3403C325.1 37.2803 324.76 38.0703 324.26 38.7103C323.78 39.3203 322.98 39.7803 321.9 40.0803C320.73 40.4103 319.08 40.5703 316.98 40.5703H316.92L304.97 40.5503L304.99 24.5903V24.5803Z" fill="#7CBC71"/>
<path d="M340.029 65.2701L371.269 65.3101V58.7601L347.379 58.7401L347.389 44.7601L368.179 44.7801L368.189 38.1701L347.399 38.1501L347.419 24.6301L371.319 24.6601V18.1201L340.089 18.0801L340.029 65.2701Z" fill="#7CBC71"/>
<path d="M401.169 59.1301C399.459 59.2601 397.849 59.3501 396.329 59.3201C393.789 59.3201 391.669 59.2101 390.009 58.9901C388.419 58.7901 387.149 58.3901 386.239 57.8201C385.369 57.2701 384.739 56.4301 384.289 55.2501C383.809 53.9801 383.489 52.2501 383.319 50.1101C383.149 47.9201 383.059 45.1001 383.069 41.7401C383.069 38.3801 383.169 35.5601 383.339 33.3601C383.509 31.2201 383.839 29.4901 384.319 28.2201C384.769 27.0401 385.409 26.2001 386.269 25.6501C387.179 25.0801 388.449 24.6901 390.039 24.4801C391.699 24.2701 393.789 24.1601 396.249 24.1601H396.359C397.179 24.1601 398.119 24.1901 399.169 24.2301C400.179 24.2701 401.239 24.3501 402.329 24.4601C403.399 24.5701 404.449 24.7001 405.449 24.8301L406.379 24.9501V18.8101L405.759 18.6501C404.839 18.4201 403.759 18.2301 402.539 18.1001C401.349 17.9701 400.079 17.8501 398.769 17.7601C397.459 17.6701 396.159 17.6201 394.909 17.6201H394.829C391.669 17.6201 388.949 17.8101 386.759 18.1901C384.479 18.5801 382.589 19.3101 381.129 20.3401C379.639 21.4001 378.479 22.8801 377.699 24.7601C376.939 26.5701 376.419 28.9001 376.139 31.6801C375.869 34.4101 375.729 37.7901 375.719 41.7201C375.719 45.6501 375.849 49.0401 376.109 51.7901C376.379 54.6001 376.899 56.9401 377.649 58.7501C378.429 60.6301 379.589 62.1201 381.079 63.1501C382.539 64.1701 384.429 64.8802 386.699 65.2802C388.899 65.6602 391.639 65.8601 394.849 65.8601H394.909C396.089 65.8601 397.359 65.8201 398.669 65.7301C399.999 65.6401 401.299 65.5401 402.559 65.4301C403.839 65.3201 404.969 65.1701 405.919 64.9901L406.589 64.8601V58.5401L405.659 58.6701C404.409 58.8401 402.929 58.9901 401.139 59.1201L401.169 59.1301Z" fill="#7CBC71"/>
<path d="M449.88 31.7899C449.7 29.0099 449.29 26.6899 448.65 24.8799C447.98 22.9799 446.89 21.4799 445.42 20.4099C443.98 19.3699 442.01 18.6399 439.58 18.2399C437.22 17.8599 434.23 17.6599 430.68 17.6499C427.09 17.6499 424.13 17.8399 421.78 18.2099C419.35 18.5999 417.38 19.3299 415.93 20.3699C414.45 21.4399 413.36 22.9399 412.68 24.8299C412.04 26.6399 411.62 28.9599 411.43 31.7399C411.25 34.4599 411.16 37.8299 411.15 41.7599C411.15 45.6899 411.23 49.0599 411.4 51.7799C411.58 54.5599 411.99 56.8799 412.63 58.6899C413.3 60.5899 414.39 62.0899 415.86 63.1599C417.3 64.1999 419.27 64.9299 421.7 65.3299C424.06 65.7099 427.05 65.9099 430.6 65.9099H430.73C434.23 65.9099 437.18 65.7199 439.5 65.3499C441.93 64.9599 443.9 64.2299 445.35 63.1899C446.83 62.1299 447.92 60.6299 448.59 58.7299C449.23 56.9299 449.65 54.5999 449.84 51.8199C450.02 49.0899 450.11 45.7199 450.12 41.8099C450.12 37.8999 450.04 34.5299 449.87 31.7899H449.88ZM430.62 59.3599C428.24 59.3599 426.25 59.2799 424.71 59.1299C423.27 58.9899 422.12 58.6599 421.28 58.1499C420.49 57.6699 419.91 56.8899 419.51 55.7599C419.08 54.5399 418.79 52.7999 418.67 50.5899C418.54 48.3399 418.48 45.3699 418.48 41.7699C418.48 38.1799 418.55 35.2099 418.69 32.9499C418.82 30.7399 419.11 29.0099 419.54 27.7799C419.94 26.6499 420.52 25.8699 421.31 25.3999C422.15 24.8999 423.3 24.5699 424.74 24.4299C426.26 24.2799 428.22 24.2099 430.58 24.2099H430.65C433.03 24.2099 435.03 24.2899 436.59 24.4499C438.04 24.5899 439.19 24.9199 440.01 25.4299C440.77 25.8999 441.37 26.7099 441.79 27.8299C442.24 29.0499 442.52 30.7799 442.63 32.9799C442.74 35.2999 442.79 38.2699 442.78 41.8099C442.78 45.3499 442.72 48.3199 442.61 50.6399C442.5 52.8399 442.21 54.5799 441.76 55.7899C441.34 56.9099 440.74 57.7199 439.98 58.1899C439.16 58.6899 438.01 59.0199 436.56 59.1599C435.01 59.3099 433.03 59.3799 430.62 59.3799V59.3599Z" fill="#7CBC71"/>
</svg>
