<svg width="16" height="16" viewBox="0 0 16 16" fill="none" xmlns="http://www.w3.org/2000/svg">
<g clip-path="url(#clip0_3373_17478)">
<path d="M15.252 8.5561H13.6274C13.4711 8.5561 13.339 8.50361 13.2312 8.39861C13.1232 8.29376 13.0692 8.16355 13.0692 8.00797C13.0692 7.85239 13.1219 7.72069 13.2274 7.61286C13.3328 7.50489 13.4636 7.45091 13.6199 7.45091H15.2446C15.401 7.45091 15.5331 7.5034 15.6409 7.6084C15.7489 7.71325 15.8029 7.84347 15.8029 7.99904C15.8029 8.15462 15.7502 8.28632 15.6448 8.39415C15.5393 8.50212 15.4084 8.5561 15.252 8.5561ZM11.9689 12.1807C12.0637 12.0597 12.1853 11.9842 12.3336 11.9542C12.4818 11.9243 12.6165 11.9496 12.7375 12.0302L14.0665 12.9495C14.2006 13.0365 14.2827 13.1612 14.3126 13.3235C14.3426 13.4859 14.3102 13.6276 14.2152 13.7486C14.1204 13.8695 13.9989 13.9449 13.8507 13.975C13.7025 14.005 13.5679 13.9796 13.4469 13.8989L12.1177 12.9799C11.9837 12.8929 11.9017 12.7682 11.8718 12.6058C11.8418 12.4434 11.8741 12.3017 11.9689 12.1807ZM14.0322 2.9942L12.6835 3.94403C12.5625 4.02466 12.4243 4.04648 12.269 4.0095C12.1137 3.97237 11.9957 3.89331 11.9149 3.7723C11.8343 3.65144 11.809 3.51329 11.8391 3.35785C11.869 3.20256 11.9444 3.0846 12.0654 3.00398L13.4142 2.0754C13.5352 1.99478 13.6733 1.96942 13.8286 1.99931C13.9839 2.02935 14.102 2.1048 14.1827 2.22567C14.2633 2.34667 14.2886 2.48482 14.2586 2.64012C14.2287 2.79555 14.1532 2.91358 14.0322 2.9942ZM2.09251 9.68425H1.56605C1.18887 9.68425 0.8668 9.55071 0.599853 9.28362C0.332763 9.01667 0.199219 8.69461 0.199219 8.31742V7.68959C0.199219 7.3124 0.332763 6.99034 0.599853 6.72339C0.8668 6.4563 1.18887 6.32276 1.56605 6.32276H4.40598L7.64463 4.42309C7.87247 4.28353 8.09889 4.2751 8.3239 4.3978C8.54905 4.52037 8.66162 4.71406 8.66162 4.97888V11.0069C8.66162 11.2717 8.54551 11.4654 8.31327 11.588C8.08118 11.7107 7.85122 11.7022 7.62338 11.5627L4.5335 9.68425H3.70779V12.8681C3.70779 13.0965 3.62901 13.2894 3.47145 13.4468C3.31403 13.6044 3.1236 13.6832 2.90015 13.6832C2.6767 13.6832 2.48627 13.6058 2.32885 13.4511C2.17129 13.2965 2.09251 13.1046 2.09251 12.8755V9.68425ZM7.55643 10.2222V5.74232L4.7165 7.42795H1.56605C1.50073 7.42795 1.44079 7.45523 1.38624 7.50978C1.33169 7.56433 1.30442 7.62427 1.30442 7.68959V8.31742C1.30442 8.38274 1.33169 8.44268 1.38624 8.49723C1.44079 8.55178 1.50073 8.57906 1.56605 8.57906H4.86527L7.55643 10.2222ZM10.0087 10.294V5.71299C10.2856 5.98659 10.4975 6.328 10.6446 6.73721C10.7918 7.14655 10.8654 7.56865 10.8654 8.00351C10.8654 8.43836 10.7918 8.86046 10.6446 9.26981C10.4975 9.67901 10.2856 10.0204 10.0087 10.294Z" fill="#DD4062"/>
</g>
<defs>
<clipPath id="clip0_3373_17478">
<rect width="16" height="16" fill="white"/>
</clipPath>
</defs>
</svg>
