<svg width="16" height="16" viewBox="0 0 16 16" fill="none" xmlns="http://www.w3.org/2000/svg">
<path fill-rule="evenodd" clip-rule="evenodd" d="M12.1108 3.12119C12.1108 2.82305 11.992 2.53669 11.7808 2.32588C11.5707 2.11507 11.2845 1.99646 10.9857 1.99646C9.54814 1.99646 6.42298 1.99646 4.98541 1.99646C4.68664 1.99646 4.40038 2.11507 4.19037 2.32588C3.97911 2.53669 3.86035 2.82305 3.86035 3.12119V6.49578C3.86035 6.79392 3.97911 7.08028 4.19037 7.29109C4.40038 7.5019 4.68664 7.62051 4.98541 7.62051H10.9857C11.2845 7.62051 11.5707 7.5019 11.7808 7.29109C11.992 7.08028 12.1108 6.79392 12.1108 6.49578C12.1108 5.57942 12.1108 4.03754 12.1108 3.12119ZM11.3607 3.12119V6.49578C11.3607 6.59529 11.3207 6.69034 11.2507 6.76102C11.1807 6.83129 11.0857 6.87069 10.9857 6.87069C9.54814 6.87069 6.42298 6.87069 4.98541 6.87069C4.8854 6.87069 4.7904 6.83129 4.7204 6.76102C4.6504 6.69034 4.6104 6.59529 4.6104 6.49578C4.6104 5.57942 4.6104 4.03754 4.6104 3.12119C4.6104 3.02167 4.6504 2.92663 4.7204 2.85595C4.7904 2.78568 4.8854 2.74628 4.98541 2.74628H10.9857C11.0857 2.74628 11.1807 2.78568 11.2507 2.85595C11.3207 2.92663 11.3607 3.02167 11.3607 3.12119Z" fill="#6C6ACC"/>
<path fill-rule="evenodd" clip-rule="evenodd" d="M12.1108 8.74735C12.1108 8.54019 11.9433 8.37244 11.7357 8.37244H4.23537C4.02786 8.37244 3.86035 8.54019 3.86035 8.74735V12.8718C3.86035 13.1699 3.97911 13.4563 4.19037 13.6671C4.40038 13.8779 4.68664 13.9965 4.98541 13.9965H10.9857C11.2845 13.9965 11.5707 13.8779 11.7808 13.6671C11.992 13.4563 12.1108 13.1699 12.1108 12.8718C12.1108 11.5049 12.1108 8.74735 12.1108 8.74735ZM11.3607 9.12226H4.6104V12.8718C4.6104 12.9713 4.6504 13.0663 4.7204 13.137C4.7904 13.2073 4.8854 13.2467 4.98541 13.2467H10.9857C11.0857 13.2467 11.1807 13.2073 11.2507 13.137C11.3207 13.0663 11.3607 12.9713 11.3607 12.8718V9.12226Z" fill="#6C6ACC"/>
<path fill-rule="evenodd" clip-rule="evenodd" d="M6.49919 3.49847C5.8781 3.49847 5.37402 4.00255 5.37402 4.62364C5.37402 5.24473 5.8781 5.74881 6.49919 5.74881C7.12028 5.74881 7.62436 5.24473 7.62436 4.62364C7.62436 4.00255 7.12028 3.49847 6.49919 3.49847ZM6.49919 4.24859C6.70622 4.24859 6.87425 4.41661 6.87425 4.62364C6.87425 4.83067 6.70622 4.9987 6.49919 4.9987C6.29216 4.9987 6.12414 4.83067 6.12414 4.62364C6.12414 4.41661 6.29216 4.24859 6.49919 4.24859Z" fill="#6C6ACC"/>
<path fill-rule="evenodd" clip-rule="evenodd" d="M9.50017 3.49847C8.87908 3.49847 8.375 4.00255 8.375 4.62364C8.375 5.24473 8.87908 5.74881 9.50017 5.74881C10.1213 5.74881 10.6253 5.24473 10.6253 4.62364C10.6253 4.00255 10.1213 3.49847 9.50017 3.49847ZM9.50017 4.24859C9.7072 4.24859 9.87522 4.41661 9.87522 4.62364C9.87522 4.83067 9.7072 4.9987 9.50017 4.9987C9.29314 4.9987 9.12511 4.83067 9.12511 4.62364C9.12511 4.41661 9.29314 4.24859 9.50017 4.24859Z" fill="#6C6ACC"/>
<path fill-rule="evenodd" clip-rule="evenodd" d="M9.50045 7.24075C9.50045 7.03377 9.33242 6.86578 9.12539 6.86578H6.87506C6.66803 6.86578 6.5 7.03377 6.5 7.24075V8.7406C6.5 8.94757 6.66803 9.11556 6.87506 9.11556H9.12539C9.33242 9.11556 9.50045 8.94757 9.50045 8.7406V7.24075ZM7.25011 7.61571V8.36563H8.75034V7.61571H7.25011Z" fill="#6C6ACC"/>
<path fill-rule="evenodd" clip-rule="evenodd" d="M4.62436 8.7463C4.62436 8.5392 4.45633 8.37128 4.2493 8.37128H3.49919C3.20065 8.37128 2.91448 8.48962 2.7037 8.70088C2.49254 8.91172 2.37402 9.19799 2.37402 9.49633V11.7464C2.37402 12.0448 2.49254 12.3311 2.7037 12.5419C2.91448 12.7532 3.20065 12.8715 3.49919 12.8715H4.2493C4.45633 12.8715 4.62436 12.7036 4.62436 12.4965V8.7463ZM3.87425 9.12132H3.49919C3.3998 9.12132 3.30416 9.1609 3.23403 9.23132C3.16352 9.30132 3.12414 9.39675 3.12414 9.49633V11.7464C3.12414 11.846 3.16352 11.9415 3.23403 12.0115C3.30416 12.0819 3.3998 12.1215 3.49919 12.1215H3.87425V9.12132Z" fill="#6C6ACC"/>
<path fill-rule="evenodd" clip-rule="evenodd" d="M11.7507 8.37128C11.5437 8.37128 11.3756 8.5392 11.3756 8.7463V12.4965C11.3756 12.7036 11.5437 12.8715 11.7507 12.8715C11.7507 12.8715 12.1258 12.8715 12.5008 12.8715C12.7994 12.8715 13.0855 12.7532 13.2963 12.5419C13.5075 12.3311 13.626 12.0448 13.626 11.7464C13.626 11.0927 13.626 10.1501 13.626 9.49633C13.626 9.19799 13.5075 8.91172 13.2963 8.70088C13.0855 8.48962 12.7994 8.37128 12.5008 8.37128H11.7507ZM12.1258 12.1215H12.5008C12.6002 12.1215 12.6958 12.0819 12.766 12.0115C12.8365 11.9415 12.8759 11.846 12.8759 11.7464C12.8759 11.0927 12.8759 10.1501 12.8759 9.49633C12.8759 9.39675 12.8365 9.30132 12.766 9.23132C12.6958 9.1609 12.6002 9.12132 12.5008 9.12132H12.1258V12.1215Z" fill="#6C6ACC"/>
</svg>
