<svg width="16" height="16" viewBox="0 0 16 16" fill="none" xmlns="http://www.w3.org/2000/svg">
<path d="M3.97056 14.1116C3.54605 14.1116 3.22721 14.0078 3.01406 13.8002C2.80091 13.5927 2.69434 13.2711 2.69434 12.8354V11.2931C2.69434 11.1423 2.74667 11.0147 2.85134 10.9101C2.95591 10.8054 3.08358 10.7531 3.23438 10.7531H4.3064V2.31426C4.3064 2.25571 4.32902 2.21182 4.37425 2.1826C4.41947 2.15327 4.46789 2.16016 4.5195 2.20326L5.02982 2.62945C5.07717 2.66818 5.13488 2.68755 5.20295 2.68755C5.2709 2.68755 5.32856 2.66818 5.37591 2.62945L5.92233 2.16967C5.96969 2.13094 6.0274 2.11157 6.09546 2.11157C6.16353 2.11157 6.22124 2.13094 6.26859 2.16967L6.83181 2.62945C6.87916 2.66818 6.93682 2.68755 7.00477 2.68755C7.07284 2.68755 7.13055 2.66818 7.1779 2.62945L7.72432 2.16967C7.77168 2.13094 7.82939 2.11157 7.89745 2.11157C7.96541 2.11157 8.02306 2.13094 8.07042 2.16967L8.63363 2.62945C8.68099 2.66818 8.7387 2.68755 8.80676 2.68755C8.87483 2.68755 8.93254 2.66818 8.97989 2.62945L9.54311 2.16967C9.59046 2.13094 9.64812 2.11157 9.71607 2.11157C9.78413 2.11157 9.84184 2.13094 9.8892 2.16967L10.4356 2.62945C10.483 2.66818 10.5407 2.68755 10.6088 2.68755C10.6767 2.68755 10.7344 2.66818 10.7817 2.62945L11.3449 2.16967C11.3923 2.13094 11.45 2.11157 11.5181 2.11157C11.5861 2.11157 11.6438 2.13094 11.6912 2.16967L12.2376 2.62945C12.285 2.66818 12.3426 2.68755 12.4106 2.68755C12.4786 2.68755 12.5363 2.66818 12.5837 2.62945L13.094 2.20326C13.1456 2.16016 13.1941 2.15327 13.2393 2.1826C13.2845 2.21182 13.3071 2.25571 13.3071 2.31426V12.6338C13.3071 13.0695 13.167 13.4248 12.8866 13.6995C12.6063 13.9742 12.2539 14.1116 11.8294 14.1116H3.97056ZM11.8294 13.2384C12.0085 13.2384 12.154 13.1852 12.266 13.0788C12.3779 12.9725 12.4339 12.8242 12.4339 12.6338V3.56596H5.17961V10.7531H10.685C10.8357 10.7531 10.9633 10.8054 11.0679 10.9101C11.1725 11.0147 11.2249 11.1423 11.2249 11.2931V12.6338C11.2249 12.8242 11.2808 12.9725 11.3928 13.0788C11.5047 13.1852 11.6503 13.2384 11.8294 13.2384ZM6.55138 4.94293H9.08585C9.20631 4.94293 9.30919 4.98559 9.39449 5.07089C9.47969 5.15609 9.52228 5.25897 9.52228 5.37954C9.52228 5.50011 9.47969 5.60299 9.39449 5.68818C9.30919 5.77349 9.20631 5.81614 9.08585 5.81614H6.55138C6.43081 5.81614 6.32793 5.77349 6.24273 5.68818C6.15743 5.60299 6.11478 5.50011 6.11478 5.37954C6.11478 5.25897 6.15743 5.15609 6.24273 5.07089C6.32793 4.98559 6.43081 4.94293 6.55138 4.94293ZM6.55138 6.95802H9.08585C9.20631 6.95802 9.30919 7.00067 9.39449 7.08598C9.47969 7.17117 9.52228 7.27405 9.52228 7.39462C9.52228 7.51519 9.47969 7.61807 9.39449 7.70327C9.30919 7.78857 9.20631 7.83122 9.08585 7.83122H6.55138C6.43081 7.83122 6.32793 7.78857 6.24273 7.70327C6.15743 7.61807 6.11478 7.51519 6.11478 7.39462C6.11478 7.27405 6.15743 7.17117 6.24273 7.08598C6.32793 7.00067 6.43081 6.95802 6.55138 6.95802ZM10.9846 5.90648C10.8537 5.90648 10.7331 5.8542 10.6229 5.74964C10.5127 5.64497 10.4576 5.5216 10.4576 5.37954C10.4576 5.23747 10.5127 5.11411 10.6229 5.00943C10.7331 4.90487 10.8537 4.85259 10.9846 4.85259C11.1266 4.85259 11.25 4.90487 11.3547 5.00943C11.4593 5.11411 11.5117 5.23747 11.5117 5.37954C11.5117 5.5216 11.4593 5.64497 11.3547 5.74964C11.25 5.8542 11.1266 5.90648 10.9846 5.90648ZM10.9846 7.92157C10.8537 7.92157 10.7331 7.86929 10.6229 7.76473C10.5127 7.66005 10.4576 7.53669 10.4576 7.39462C10.4576 7.25256 10.5127 7.12919 10.6229 7.02452C10.7331 6.91996 10.8537 6.86768 10.9846 6.86768C11.1266 6.86768 11.25 6.91996 11.3547 7.02452C11.4593 7.12919 11.5117 7.25256 11.5117 7.39462C11.5117 7.53669 11.4593 7.66005 11.3547 7.76473C11.25 7.86929 11.1266 7.92157 10.9846 7.92157ZM3.97056 13.2384H10.3517V11.6263H3.56754V12.8354C3.56754 13.0257 3.58713 13.1404 3.62631 13.1796C3.6655 13.2188 3.78024 13.2384 3.97056 13.2384Z" fill="#FCB24F"/>
</svg>
