<svg width="16" height="16" viewBox="0 0 16 16" fill="none" xmlns="http://www.w3.org/2000/svg">
<g clip-path="url(#clip0_3373_17473)">
<path d="M9.16106 8.69018C8.63463 8.69018 8.18907 8.50783 7.82438 8.14315C7.4597 7.77846 7.27735 7.3329 7.27735 6.80646C7.27735 6.28003 7.4597 5.83447 7.82438 5.46978C8.18907 5.10509 8.63463 4.92275 9.16106 4.92275C9.6875 4.92275 10.1331 5.10509 10.4977 5.46978C10.8624 5.83447 11.0448 6.28003 11.0448 6.80646C11.0448 7.3329 10.8624 7.77846 10.4977 8.14315C10.1331 8.50783 9.6875 8.69018 9.16106 8.69018ZM4.04019 10.5711C3.70715 10.5711 3.42202 10.4523 3.1848 10.2149C2.94758 9.97738 2.82897 9.69193 2.82897 9.35852V4.24819C2.82897 3.91478 2.94758 3.6304 3.1848 3.39506C3.42202 3.15972 3.70715 3.04205 4.04019 3.04205H14.2817C14.6149 3.04205 14.9001 3.16073 15.1373 3.39808C15.3746 3.63555 15.4932 3.92099 15.4932 4.25441V9.36492C15.4932 9.69834 15.3746 9.98272 15.1373 10.2181C14.9001 10.4534 14.6149 10.5711 14.2817 10.5711H4.04019ZM5.01972 9.59153H13.3024C13.3024 9.25347 13.421 8.96633 13.6582 8.73011C13.8955 8.49389 14.1806 8.37578 14.5136 8.37578V5.23281C14.1793 5.23281 13.8939 5.1142 13.6573 4.87698C13.4207 4.63976 13.3024 4.35462 13.3024 4.02158H5.01972C5.01972 4.35965 4.90111 4.64679 4.66389 4.883C4.42667 5.1191 4.14154 5.23714 3.8085 5.23714V8.38012C4.14279 8.38012 4.42824 8.49873 4.66483 8.73595C4.90143 8.97317 5.01972 9.25837 5.01972 9.59153ZM12.7574 12.9069H1.70458C1.37141 12.9069 1.08622 12.7883 0.848997 12.551C0.611775 12.3138 0.493164 12.0286 0.493164 11.6954V5.32568C0.493164 5.18691 0.539755 5.07056 0.632935 4.97663C0.725991 4.88282 0.8414 4.83591 0.979162 4.83591C1.11692 4.83591 1.23359 4.88282 1.32916 4.97663C1.42485 5.07056 1.47269 5.18691 1.47269 5.32568V11.6954C1.47269 11.7533 1.49681 11.8065 1.54503 11.8548C1.59338 11.9032 1.64656 11.9273 1.70458 11.9273H12.7574C12.8962 11.9273 13.0126 11.9739 13.1065 12.0671C13.2003 12.1602 13.2472 12.2756 13.2472 12.4133C13.2472 12.5511 13.2003 12.6678 13.1065 12.7633C13.0126 12.859 12.8962 12.9069 12.7574 12.9069ZM4.04019 9.59153H3.8085V4.02158H4.04019C3.9774 4.02158 3.92309 4.0445 3.87725 4.09034C3.83142 4.13618 3.8085 4.19049 3.8085 4.25328V9.35965C3.8085 9.42244 3.83142 9.47675 3.87725 9.52259C3.92309 9.56855 3.9774 9.59153 4.04019 9.59153Z" fill="#7CBC71"/>
</g>
<defs>
<clipPath id="clip0_3373_17473">
<rect width="16" height="16" fill="white"/>
</clipPath>
</defs>
</svg>
