<svg width="16" height="16" viewBox="0 0 16 16" fill="none" xmlns="http://www.w3.org/2000/svg">
<path d="M6.79234 10.8232C7.90744 10.8232 8.85528 10.4323 9.63585 9.65055C10.4164 8.86864 10.8067 7.91925 10.8067 6.80236C10.8067 5.68548 10.4164 4.73614 9.63585 3.95434C8.85528 3.17254 7.90744 2.78164 6.79234 2.78164C5.67724 2.78164 4.72941 3.17254 3.94884 3.95434C3.16827 4.73614 2.77798 5.68548 2.77798 6.80236C2.77798 7.91925 3.16827 8.86864 3.94884 9.65055C4.72941 10.4323 5.67724 10.8232 6.79234 10.8232ZM6.48491 8.54309C6.39994 8.45968 6.35745 8.35637 6.35745 8.23315V4.6331C6.35745 4.50988 6.39882 4.40662 6.48156 4.32333C6.56431 4.23992 6.66678 4.19821 6.789 4.19821C6.91132 4.19821 7.01492 4.23992 7.09978 4.32333C7.18475 4.40662 7.22723 4.50988 7.22723 4.6331V8.23315C7.22723 8.35637 7.18586 8.45968 7.10312 8.54309C7.02038 8.62639 6.9179 8.66804 6.79569 8.66804C6.67336 8.66804 6.56977 8.62639 6.48491 8.54309ZM4.32836 8.54309C4.2435 8.45968 4.20107 8.35637 4.20107 8.23315V6.20673C4.20107 6.08351 4.24244 5.9802 4.32518 5.89679C4.40781 5.81349 4.51029 5.77184 4.63262 5.77184C4.75494 5.77184 4.85854 5.81349 4.94339 5.89679C5.02837 5.9802 5.07085 6.08351 5.07085 6.20673V8.23315C5.07085 8.35637 5.02948 8.45968 4.94674 8.54309C4.864 8.62639 4.76147 8.66804 4.63914 8.66804C4.51692 8.66804 4.41333 8.62639 4.32836 8.54309ZM8.64129 8.54342C8.55632 8.46035 8.51384 8.35742 8.51384 8.23465V7.00107C8.51384 6.8783 8.55521 6.77443 8.63795 6.68946C8.72069 6.60438 8.82322 6.56183 8.94555 6.56183C9.06776 6.56183 9.17135 6.60337 9.25632 6.68645C9.34118 6.76952 9.38361 6.87244 9.38361 6.99522V8.2288C9.38361 8.35157 9.34224 8.4555 9.2595 8.54058C9.17687 8.62555 9.0744 8.66804 8.95207 8.66804C8.82974 8.66804 8.72615 8.6265 8.64129 8.54342ZM6.79803 11.6801C5.43292 11.6801 4.27668 11.2053 3.32929 10.2555C2.3819 9.30582 1.9082 8.15297 1.9082 6.79701C1.9082 5.44105 2.38307 4.28787 3.3328 3.33747C4.28253 2.38706 5.43538 1.91187 6.79134 1.91187C8.1473 1.91187 9.30048 2.38556 10.2509 3.33295C11.2013 4.28034 11.6765 5.43659 11.6765 6.80169C11.6765 7.3927 11.5767 7.95476 11.3772 8.48789C11.1779 9.02113 10.8998 9.50024 10.5429 9.9252L13.7892 13.1713C13.8818 13.2625 13.928 13.3619 13.928 13.4694C13.928 13.5769 13.8818 13.678 13.7892 13.7728C13.6965 13.8676 13.593 13.9139 13.4784 13.9118C13.3639 13.9097 13.2603 13.8623 13.1677 13.7696L9.92789 10.5466C9.49869 10.9034 9.01747 11.1815 8.48423 11.3809C7.9511 11.5804 7.38903 11.6801 6.79803 11.6801Z" fill="#8E59FF"/>
</svg>
